G75*
G70*
%OFA0B0*%
%FSLAX24Y24*%
%IPPOS*%
%LPD*%
%AMOC8*
5,1,8,0,0,1.08239X$1,22.5*
%
%ADD10R,0.0150X0.0400*%
%ADD11C,0.0297*%
%ADD12C,0.0218*%
%ADD13C,0.0200*%
%ADD14C,0.0060*%
%ADD15C,0.0050*%
D10*
X012524Y016344D03*
X012774Y016344D03*
X013024Y016344D03*
X013274Y016344D03*
X013524Y016344D03*
X013774Y016344D03*
X014024Y016344D03*
X014274Y016344D03*
X014524Y016344D03*
X014774Y016344D03*
X015024Y016344D03*
X015274Y016344D03*
X015524Y016344D03*
X015774Y016344D03*
X016024Y016344D03*
X016274Y016344D03*
X016524Y016344D03*
X016774Y016344D03*
X016774Y016844D03*
X016524Y016844D03*
X016274Y016844D03*
X016024Y016844D03*
X015774Y016844D03*
X015524Y016844D03*
X015274Y016844D03*
X015024Y016844D03*
X014774Y016844D03*
X014524Y016844D03*
X014274Y016844D03*
X014024Y016844D03*
X013774Y016844D03*
X013524Y016844D03*
X013274Y016844D03*
X013024Y016844D03*
X012774Y016844D03*
X012524Y016844D03*
X013524Y018177D03*
X013774Y018177D03*
X014024Y018177D03*
X014274Y018177D03*
X014524Y018177D03*
X014774Y018177D03*
X015024Y018177D03*
X015274Y018177D03*
X015524Y018177D03*
X015774Y018177D03*
X016024Y018177D03*
X016274Y018177D03*
X016524Y018177D03*
X016774Y018177D03*
X017024Y018177D03*
X017274Y018177D03*
X017524Y018177D03*
X017774Y018177D03*
X017774Y018677D03*
X017524Y018677D03*
X017274Y018677D03*
X017024Y018677D03*
X016774Y018677D03*
X016524Y018677D03*
X016274Y018677D03*
X016024Y018677D03*
X015774Y018677D03*
X015524Y018677D03*
X015274Y018677D03*
X015024Y018677D03*
X014774Y018677D03*
X014524Y018677D03*
X014274Y018677D03*
X014024Y018677D03*
X013774Y018677D03*
X013524Y018677D03*
D11*
X013102Y019154D03*
X012432Y019341D03*
X012049Y019620D03*
X012345Y019986D03*
X012674Y020311D03*
X013067Y020588D03*
X013465Y020831D03*
X013895Y021038D03*
X014113Y020631D03*
X014357Y021158D03*
X014683Y020758D03*
X014807Y021262D03*
X015265Y021269D03*
X015720Y021221D03*
X015678Y020745D03*
X016166Y021107D03*
X016607Y020981D03*
X017020Y020783D03*
X017402Y020529D03*
X017750Y020231D03*
X018090Y019925D03*
X018345Y019531D03*
X018567Y019127D03*
X018747Y018689D03*
X018870Y018206D03*
X018378Y018164D03*
X018919Y017278D03*
X018863Y016817D03*
X018758Y016360D03*
X018606Y015941D03*
X018359Y015544D03*
X018123Y015160D03*
X017827Y014823D03*
X017459Y014548D03*
X017093Y014282D03*
X016678Y014074D03*
X016256Y013912D03*
X015810Y013809D03*
X015367Y013742D03*
X015365Y014242D03*
X014890Y013748D03*
X014437Y013810D03*
X014205Y014341D03*
X013974Y013935D03*
X013539Y014085D03*
X013121Y014288D03*
X012773Y014569D03*
X012447Y014874D03*
X012151Y015224D03*
X011871Y015638D03*
X011672Y016072D03*
X011526Y016515D03*
X012022Y016683D03*
X012363Y015713D03*
X013053Y014952D03*
X011937Y018264D03*
X011482Y018313D03*
X011611Y018762D03*
X011803Y019195D03*
X012100Y018831D03*
X013220Y020136D03*
X016823Y020359D03*
X017631Y019764D03*
X018312Y016665D03*
X018095Y016084D03*
X017607Y015931D03*
X017478Y015146D03*
X016538Y014592D03*
D12*
X017044Y016838D03*
X017344Y016838D03*
X018051Y018616D03*
X013208Y018120D03*
X012937Y018208D03*
X012256Y016302D03*
D13*
X012722Y017192D03*
X012894Y017398D03*
X013144Y017538D03*
X013142Y017238D03*
X013444Y017488D03*
X013714Y017388D03*
X013994Y017388D03*
X014274Y017388D03*
X014284Y017663D03*
X014526Y017743D03*
X014812Y017817D03*
X014624Y017294D03*
X014883Y017190D03*
X015522Y017254D03*
X015734Y017523D03*
X015654Y017793D03*
X016044Y017643D03*
X016014Y017368D03*
X016253Y017304D03*
X016314Y017553D03*
X016584Y017623D03*
X016854Y017533D03*
X017129Y017497D03*
X017404Y017633D03*
X017573Y017828D03*
X017140Y017824D03*
X015764Y017238D03*
X014026Y017700D03*
D14*
X013749Y015269D02*
X012835Y014441D01*
X013215Y014371D02*
X013839Y015051D01*
X013999Y015361D01*
X013999Y016161D01*
X013749Y016211D02*
X013749Y015269D01*
X013547Y015490D02*
X012433Y014994D01*
X012667Y015426D02*
X011862Y015520D01*
X011947Y015959D02*
X011728Y015968D01*
X011947Y015959D02*
X012995Y015959D01*
X012994Y015957D02*
X012999Y016211D01*
X013249Y016261D02*
X013249Y015661D01*
X012657Y015442D01*
X013547Y015490D02*
X013549Y016161D01*
X014249Y016161D02*
X014249Y015311D01*
X014049Y015111D01*
X014037Y015100D02*
X013594Y014195D01*
X014205Y014442D02*
X014409Y015000D01*
X014399Y015961D01*
X014499Y016111D01*
X014499Y016211D01*
X014749Y016211D02*
X014699Y016061D01*
X014549Y015861D01*
X014549Y015161D01*
X014619Y015011D01*
X014418Y013929D01*
X014840Y014070D02*
X014912Y013844D01*
X014846Y014067D02*
X014847Y014554D01*
X014847Y014870D01*
X014849Y014961D02*
X014799Y015061D01*
X014749Y015311D01*
X014749Y015861D01*
X014999Y016111D01*
X014999Y016211D01*
X015249Y016161D02*
X015399Y016061D01*
X015599Y015861D01*
X015599Y015211D01*
X015601Y015216D02*
X015594Y014670D01*
X015600Y014463D01*
X015779Y013924D01*
X016181Y014029D02*
X015754Y014707D01*
X015897Y014768D02*
X016625Y014170D01*
X015897Y014768D02*
X015897Y015155D01*
X015899Y015161D02*
X015899Y016011D01*
X015799Y016111D01*
X015799Y016211D01*
X015549Y016161D02*
X015749Y015961D01*
X015749Y015161D01*
X016049Y015461D02*
X016399Y015111D01*
X016699Y015361D02*
X016249Y015811D01*
X016249Y016211D01*
X016049Y016161D02*
X016049Y015461D01*
X016549Y015861D02*
X016799Y015611D01*
X018295Y015611D01*
X017531Y016011D02*
X017531Y016361D01*
X017638Y016640D01*
X017638Y016890D01*
X017457Y017044D01*
X017257Y017044D01*
X017049Y016861D01*
X016999Y016811D02*
X016899Y016711D01*
X016799Y016711D01*
X016799Y016461D02*
X016999Y016461D01*
X017349Y016811D01*
X017661Y017171D02*
X017799Y017011D01*
X017961Y016924D01*
X017956Y016925D02*
X018952Y016924D01*
X018827Y017309D02*
X018541Y017063D01*
X018541Y017052D02*
X018011Y017048D01*
X017748Y017295D01*
X016515Y017295D01*
X016249Y017011D01*
X016049Y017011D02*
X016049Y017111D01*
X016219Y017281D01*
X015949Y017361D02*
X015949Y017161D01*
X015799Y017011D01*
X015759Y017231D02*
X015759Y017263D01*
X015559Y016991D01*
X015496Y017190D02*
X015299Y017011D01*
X015049Y017011D02*
X014909Y017151D01*
X014900Y017161D01*
X014749Y017061D02*
X014599Y017211D01*
X014606Y017300D01*
X014489Y017121D02*
X014289Y017321D01*
X014049Y017311D02*
X014329Y017031D01*
X014499Y017061D02*
X014489Y017121D01*
X014499Y017061D02*
X014549Y017011D01*
X014749Y017011D02*
X014749Y017061D01*
X014349Y017661D02*
X014349Y017861D01*
X014499Y018011D01*
X014569Y017801D02*
X014498Y017784D01*
X014765Y018015D01*
X014849Y017871D02*
X014829Y017831D01*
X014849Y017871D02*
X014949Y017971D01*
X014999Y018011D01*
X015319Y018001D02*
X015385Y017851D01*
X015515Y017641D01*
X015729Y017521D01*
X015679Y017791D02*
X015699Y017811D01*
X015549Y017961D01*
X015549Y018011D01*
X015749Y018011D02*
X015999Y017761D01*
X015999Y017661D01*
X015979Y017981D02*
X016349Y017611D01*
X016549Y017661D02*
X016599Y017661D01*
X016549Y017661D02*
X016299Y017911D01*
X016299Y018011D01*
X016487Y018007D02*
X016787Y017707D01*
X016799Y017611D01*
X016810Y017869D02*
X017060Y017619D01*
X017049Y017511D01*
X017099Y017461D01*
X017149Y017811D02*
X016999Y017961D01*
X016999Y018011D01*
X016799Y018011D02*
X016810Y017869D01*
X017299Y017961D02*
X017349Y017911D01*
X017349Y017711D01*
X017549Y017861D02*
X017549Y018011D01*
X017799Y018061D02*
X017899Y018061D01*
X018261Y018172D01*
X017972Y018613D02*
X017799Y018611D01*
X017549Y018811D02*
X017549Y019009D01*
X018147Y019008D01*
X018148Y019009D02*
X018807Y018152D01*
X018642Y018645D02*
X018194Y019156D01*
X018186Y019157D02*
X017299Y019159D01*
X017299Y018811D01*
X017049Y018761D02*
X017049Y019361D01*
X018403Y019392D01*
X017675Y019684D02*
X016749Y019561D01*
X016749Y018861D01*
X016549Y018811D02*
X016549Y019851D01*
X017476Y020455D01*
X016987Y020734D02*
X016611Y020606D01*
X016615Y020606D02*
X016049Y019711D01*
X016049Y018861D01*
X015899Y019061D02*
X015908Y020028D01*
X015895Y020137D02*
X016313Y020734D01*
X016298Y020729D02*
X016143Y021035D01*
X015833Y021080D02*
X016072Y020727D01*
X015749Y020159D01*
X015749Y019161D01*
X015599Y018961D01*
X015549Y018811D01*
X015299Y018811D02*
X015299Y018911D01*
X015549Y019161D01*
X015549Y019711D01*
X015499Y019961D01*
X015497Y019965D02*
X015277Y020626D01*
X015276Y021129D01*
X015319Y021086D01*
X015052Y021044D02*
X014853Y021172D01*
X015052Y021044D02*
X015047Y020161D01*
X015049Y020161D02*
X014699Y019811D01*
X014699Y019161D01*
X014899Y018961D01*
X015049Y018861D01*
X014749Y018861D02*
X014549Y019061D01*
X014549Y019861D01*
X014699Y020011D01*
X014699Y020346D01*
X014699Y020347D02*
X014351Y020713D01*
X014351Y020993D01*
X014136Y020606D02*
X014479Y020311D01*
X014479Y020011D01*
X014399Y019861D01*
X014399Y019011D01*
X014499Y018911D01*
X014499Y018811D01*
X014249Y018861D02*
X014249Y019561D01*
X013168Y020553D01*
X012530Y019614D02*
X013499Y019411D01*
X013749Y019161D01*
X013749Y018861D01*
X013499Y018561D02*
X013299Y018561D01*
X012967Y018218D01*
X013051Y018007D02*
X012851Y018007D01*
X012712Y018061D01*
X012712Y018317D01*
X013099Y018661D01*
X013099Y019011D01*
X012723Y019570D02*
X012162Y019722D01*
X013399Y018311D02*
X013280Y018196D01*
X013193Y018107D02*
X013051Y018007D01*
X012649Y017877D02*
X012499Y018011D01*
X012497Y018118D01*
X012493Y018119D02*
X012062Y018119D01*
X012059Y018278D01*
X012271Y017979D02*
X011573Y017981D01*
X011594Y018014D02*
X011594Y018293D01*
X012271Y017979D02*
X012551Y017756D01*
X013801Y017756D01*
X014049Y018011D01*
X014249Y018011D02*
X014249Y017911D01*
X014079Y017741D01*
X013799Y018011D02*
X013649Y017877D01*
X012649Y017877D01*
X013223Y017558D02*
X013218Y017518D01*
X013218Y017418D02*
X013499Y017161D01*
X013499Y017011D01*
X013299Y017011D02*
X013299Y017061D01*
X013149Y017211D01*
X012999Y017061D02*
X012949Y017111D01*
X012949Y017311D01*
X012749Y017161D02*
X012749Y017011D01*
X012999Y017011D02*
X012999Y017061D01*
X012499Y016961D02*
X012399Y016961D01*
X011960Y016791D01*
X013399Y018311D02*
X013499Y018311D01*
X014049Y018811D02*
X013972Y019177D01*
X013499Y017411D02*
X013499Y017311D01*
X013799Y017011D01*
X013999Y017011D02*
X013999Y017111D01*
X013749Y017361D01*
X013699Y017361D01*
X015799Y018811D02*
X015799Y018911D01*
X015899Y019061D01*
X016299Y018861D02*
X016299Y019661D01*
X016459Y019971D01*
X016901Y020286D01*
X017299Y018011D02*
X017299Y017961D01*
X017661Y017171D02*
X016650Y017171D01*
X016499Y017011D01*
X016549Y016161D02*
X016549Y015861D01*
X016722Y015349D02*
X016987Y015084D01*
X017392Y015182D01*
D15*
X017713Y014855D02*
X016641Y014862D01*
X016396Y015104D01*
X015754Y015155D02*
X015754Y014707D01*
X014849Y014861D02*
X014849Y014961D01*
X015749Y016211D02*
X015799Y016211D01*
X014549Y018811D02*
X014499Y018811D01*
X013972Y019177D02*
X012647Y020247D01*
X012723Y019570D02*
X012974Y019514D01*
X013218Y017518D02*
X013218Y017418D01*
X012499Y016411D02*
X012318Y016336D01*
X012233Y016070D02*
X011586Y016541D01*
X012233Y016070D02*
X012238Y016062D01*
X012240Y016065D02*
X012741Y016065D01*
X012749Y016211D01*
X012980Y015564D02*
X012667Y015426D01*
X015506Y019957D02*
X015497Y019965D01*
X015908Y020028D02*
X015909Y020150D01*
M02*
