%
M48
M72
T01C0.0197
T02C0.0520
T03C0.0670
%
T01
X1560Y1530
X1680Y1010
X2360Y1250
X2810Y1555
X2860Y1010
X3080Y510
X3640Y510
X3860Y1010
X4360Y1250
X3910Y1555
X4320Y660
X5040Y1010
X5160Y1530
X5760Y1710
X6210Y2660
X6210Y4060
X5510Y4300
X5260Y4790
X5500Y5260
X5860Y4800
X5060Y5700
X4600Y5300
X4035Y5655
X4560Y5990
X3960Y6190
X3360Y6240
X3360Y5660
X2760Y6190
X2585Y5680
X2160Y5990
X1660Y5700
X2045Y5235
X1460Y4790
X1170Y5260
X860Y4800
X1210Y4300
X510Y4060
X510Y2660
X960Y1710
X2400Y660
T02
X2710Y3585
X4010Y3585
T03
X5760Y3360
X960Y3360
M30
