G75*
G70*
%OFA0B0*%
%FSLAX24Y24*%
%IPPOS*%
%LPD*%
%AMOC8*
5,1,8,0,0,1.08239X$1,22.5*
%
%ADD10C,0.0020*%
%ADD11C,0.0000*%
D10*
X000110Y003360D02*
X000114Y003519D01*
X000126Y003679D01*
X000145Y003837D01*
X000172Y003994D01*
X000207Y004150D01*
X000250Y004303D01*
X000300Y004455D01*
X000357Y004604D01*
X000422Y004750D01*
X000494Y004892D01*
X000572Y005031D01*
X000658Y005166D01*
X000750Y005296D01*
X000848Y005422D01*
X000952Y005543D01*
X001062Y005658D01*
X001177Y005768D01*
X001298Y005872D01*
X001424Y005970D01*
X001554Y006062D01*
X001689Y006148D01*
X001828Y006226D01*
X001970Y006298D01*
X002116Y006363D01*
X002265Y006420D01*
X002417Y006470D01*
X002570Y006513D01*
X002726Y006548D01*
X002883Y006575D01*
X003041Y006594D01*
X003201Y006606D01*
X003360Y006610D01*
X003519Y006606D01*
X003679Y006594D01*
X003837Y006575D01*
X003994Y006548D01*
X004150Y006513D01*
X004303Y006470D01*
X004455Y006420D01*
X004604Y006363D01*
X004750Y006298D01*
X004892Y006226D01*
X005031Y006148D01*
X005166Y006062D01*
X005296Y005970D01*
X005422Y005872D01*
X005543Y005768D01*
X005658Y005658D01*
X005768Y005543D01*
X005872Y005422D01*
X005970Y005296D01*
X006062Y005166D01*
X006148Y005031D01*
X006226Y004892D01*
X006298Y004750D01*
X006363Y004604D01*
X006420Y004455D01*
X006470Y004303D01*
X006513Y004150D01*
X006548Y003994D01*
X006575Y003837D01*
X006594Y003679D01*
X006606Y003519D01*
X006610Y003360D01*
X006606Y003201D01*
X006594Y003041D01*
X006575Y002883D01*
X006548Y002726D01*
X006513Y002570D01*
X006470Y002417D01*
X006420Y002265D01*
X006363Y002116D01*
X006298Y001970D01*
X006226Y001828D01*
X006148Y001689D01*
X006062Y001554D01*
X005970Y001424D01*
X005872Y001298D01*
X005768Y001177D01*
X005658Y001062D01*
X005543Y000952D01*
X005422Y000848D01*
X005296Y000750D01*
X005166Y000658D01*
X005031Y000572D01*
X004892Y000494D01*
X004750Y000422D01*
X004604Y000357D01*
X004455Y000300D01*
X004303Y000250D01*
X004150Y000207D01*
X003994Y000172D01*
X003837Y000145D01*
X003679Y000126D01*
X003519Y000114D01*
X003360Y000110D01*
X003201Y000114D01*
X003041Y000126D01*
X002883Y000145D01*
X002726Y000172D01*
X002570Y000207D01*
X002417Y000250D01*
X002265Y000300D01*
X002116Y000357D01*
X001970Y000422D01*
X001828Y000494D01*
X001689Y000572D01*
X001554Y000658D01*
X001424Y000750D01*
X001298Y000848D01*
X001177Y000952D01*
X001062Y001062D01*
X000952Y001177D01*
X000848Y001298D01*
X000750Y001424D01*
X000658Y001554D01*
X000572Y001689D01*
X000494Y001828D01*
X000422Y001970D01*
X000357Y002116D01*
X000300Y002265D01*
X000250Y002417D01*
X000207Y002570D01*
X000172Y002726D01*
X000145Y002883D01*
X000126Y003041D01*
X000114Y003201D01*
X000110Y003360D01*
D11*
X000625Y003360D02*
X000627Y003396D01*
X000633Y003432D01*
X000643Y003467D01*
X000656Y003501D01*
X000673Y003533D01*
X000693Y003563D01*
X000717Y003590D01*
X000743Y003615D01*
X000772Y003637D01*
X000803Y003656D01*
X000836Y003671D01*
X000870Y003683D01*
X000906Y003691D01*
X000942Y003695D01*
X000978Y003695D01*
X001014Y003691D01*
X001050Y003683D01*
X001084Y003671D01*
X001117Y003656D01*
X001148Y003637D01*
X001177Y003615D01*
X001203Y003590D01*
X001227Y003563D01*
X001247Y003533D01*
X001264Y003501D01*
X001277Y003467D01*
X001287Y003432D01*
X001293Y003396D01*
X001295Y003360D01*
X001293Y003324D01*
X001287Y003288D01*
X001277Y003253D01*
X001264Y003219D01*
X001247Y003187D01*
X001227Y003157D01*
X001203Y003130D01*
X001177Y003105D01*
X001148Y003083D01*
X001117Y003064D01*
X001084Y003049D01*
X001050Y003037D01*
X001014Y003029D01*
X000978Y003025D01*
X000942Y003025D01*
X000906Y003029D01*
X000870Y003037D01*
X000836Y003049D01*
X000803Y003064D01*
X000772Y003083D01*
X000743Y003105D01*
X000717Y003130D01*
X000693Y003157D01*
X000673Y003187D01*
X000656Y003219D01*
X000643Y003253D01*
X000633Y003288D01*
X000627Y003324D01*
X000625Y003360D01*
X002450Y003585D02*
X002452Y003617D01*
X002458Y003648D01*
X002468Y003679D01*
X002481Y003708D01*
X002498Y003735D01*
X002518Y003760D01*
X002541Y003782D01*
X002566Y003802D01*
X002594Y003818D01*
X002624Y003830D01*
X002654Y003839D01*
X002686Y003844D01*
X002718Y003845D01*
X002750Y003842D01*
X002781Y003835D01*
X002811Y003824D01*
X002840Y003810D01*
X002867Y003792D01*
X002891Y003772D01*
X002913Y003748D01*
X002931Y003722D01*
X002946Y003694D01*
X002958Y003664D01*
X002966Y003633D01*
X002970Y003601D01*
X002970Y003569D01*
X002966Y003537D01*
X002958Y003506D01*
X002946Y003476D01*
X002931Y003448D01*
X002913Y003422D01*
X002891Y003398D01*
X002867Y003378D01*
X002840Y003360D01*
X002811Y003346D01*
X002781Y003335D01*
X002750Y003328D01*
X002718Y003325D01*
X002686Y003326D01*
X002654Y003331D01*
X002624Y003340D01*
X002594Y003352D01*
X002566Y003368D01*
X002541Y003388D01*
X002518Y003410D01*
X002498Y003435D01*
X002481Y003462D01*
X002468Y003491D01*
X002458Y003522D01*
X002452Y003553D01*
X002450Y003585D01*
X003750Y003585D02*
X003752Y003617D01*
X003758Y003648D01*
X003768Y003679D01*
X003781Y003708D01*
X003798Y003735D01*
X003818Y003760D01*
X003841Y003782D01*
X003866Y003802D01*
X003894Y003818D01*
X003924Y003830D01*
X003954Y003839D01*
X003986Y003844D01*
X004018Y003845D01*
X004050Y003842D01*
X004081Y003835D01*
X004111Y003824D01*
X004140Y003810D01*
X004167Y003792D01*
X004191Y003772D01*
X004213Y003748D01*
X004231Y003722D01*
X004246Y003694D01*
X004258Y003664D01*
X004266Y003633D01*
X004270Y003601D01*
X004270Y003569D01*
X004266Y003537D01*
X004258Y003506D01*
X004246Y003476D01*
X004231Y003448D01*
X004213Y003422D01*
X004191Y003398D01*
X004167Y003378D01*
X004140Y003360D01*
X004111Y003346D01*
X004081Y003335D01*
X004050Y003328D01*
X004018Y003325D01*
X003986Y003326D01*
X003954Y003331D01*
X003924Y003340D01*
X003894Y003352D01*
X003866Y003368D01*
X003841Y003388D01*
X003818Y003410D01*
X003798Y003435D01*
X003781Y003462D01*
X003768Y003491D01*
X003758Y003522D01*
X003752Y003553D01*
X003750Y003585D01*
X005425Y003360D02*
X005427Y003396D01*
X005433Y003432D01*
X005443Y003467D01*
X005456Y003501D01*
X005473Y003533D01*
X005493Y003563D01*
X005517Y003590D01*
X005543Y003615D01*
X005572Y003637D01*
X005603Y003656D01*
X005636Y003671D01*
X005670Y003683D01*
X005706Y003691D01*
X005742Y003695D01*
X005778Y003695D01*
X005814Y003691D01*
X005850Y003683D01*
X005884Y003671D01*
X005917Y003656D01*
X005948Y003637D01*
X005977Y003615D01*
X006003Y003590D01*
X006027Y003563D01*
X006047Y003533D01*
X006064Y003501D01*
X006077Y003467D01*
X006087Y003432D01*
X006093Y003396D01*
X006095Y003360D01*
X006093Y003324D01*
X006087Y003288D01*
X006077Y003253D01*
X006064Y003219D01*
X006047Y003187D01*
X006027Y003157D01*
X006003Y003130D01*
X005977Y003105D01*
X005948Y003083D01*
X005917Y003064D01*
X005884Y003049D01*
X005850Y003037D01*
X005814Y003029D01*
X005778Y003025D01*
X005742Y003025D01*
X005706Y003029D01*
X005670Y003037D01*
X005636Y003049D01*
X005603Y003064D01*
X005572Y003083D01*
X005543Y003105D01*
X005517Y003130D01*
X005493Y003157D01*
X005473Y003187D01*
X005456Y003219D01*
X005443Y003253D01*
X005433Y003288D01*
X005427Y003324D01*
X005425Y003360D01*
M02*
