G75*
G70*
%OFA0B0*%
%FSLAX24Y24*%
%IPPOS*%
%LPD*%
%AMOC8*
5,1,8,0,0,1.08239X$1,22.5*
%
%ADD10C,0.0397*%
%ADD11C,0.0135*%
%ADD12C,0.0080*%
D10*
X001560Y001530D03*
X001680Y001010D03*
X002360Y001250D03*
X002810Y001555D03*
X002860Y001010D03*
X003080Y000510D03*
X003640Y000510D03*
X003860Y001010D03*
X004360Y001250D03*
X003910Y001555D03*
X004320Y000660D03*
X005040Y001010D03*
X005160Y001530D03*
X005760Y001710D03*
X006210Y002660D03*
X006210Y004060D03*
X005510Y004300D03*
X005260Y004790D03*
X005500Y005260D03*
X005860Y004800D03*
X005060Y005700D03*
X004600Y005300D03*
X004035Y005655D03*
X004560Y005990D03*
X003960Y006190D03*
X003360Y006240D03*
X003360Y005660D03*
X002760Y006190D03*
X002585Y005680D03*
X002160Y005990D03*
X001660Y005700D03*
X002045Y005235D03*
X001460Y004790D03*
X001170Y005260D03*
X000860Y004800D03*
X001210Y004300D03*
X000510Y004060D03*
X000510Y002660D03*
X000960Y001710D03*
X002400Y000660D03*
D11*
X002477Y001977D02*
X002493Y001977D01*
X002477Y001977D02*
X002477Y002243D01*
X002493Y002243D01*
X002493Y001977D01*
X002493Y002111D02*
X002477Y002111D01*
X002243Y001977D02*
X002227Y001977D01*
X002227Y002243D01*
X002243Y002243D01*
X002243Y001977D01*
X002243Y002111D02*
X002227Y002111D01*
X001993Y001977D02*
X001977Y001977D01*
X001977Y002243D01*
X001993Y002243D01*
X001993Y001977D01*
X001993Y002111D02*
X001977Y002111D01*
X001743Y001977D02*
X001727Y001977D01*
X001727Y002243D01*
X001743Y002243D01*
X001743Y001977D01*
X001743Y002111D02*
X001727Y002111D01*
X001493Y001977D02*
X001477Y001977D01*
X001477Y002243D01*
X001493Y002243D01*
X001493Y001977D01*
X001493Y002111D02*
X001477Y002111D01*
X001243Y001977D02*
X001227Y001977D01*
X001227Y002243D01*
X001243Y002243D01*
X001243Y001977D01*
X001243Y002111D02*
X001227Y002111D01*
X001243Y002477D02*
X001227Y002477D01*
X001227Y002743D01*
X001243Y002743D01*
X001243Y002477D01*
X001243Y002611D02*
X001227Y002611D01*
X001477Y002477D02*
X001493Y002477D01*
X001477Y002477D02*
X001477Y002743D01*
X001493Y002743D01*
X001493Y002477D01*
X001493Y002611D02*
X001477Y002611D01*
X001727Y002477D02*
X001743Y002477D01*
X001727Y002477D02*
X001727Y002743D01*
X001743Y002743D01*
X001743Y002477D01*
X001743Y002611D02*
X001727Y002611D01*
X001977Y002477D02*
X001993Y002477D01*
X001977Y002477D02*
X001977Y002743D01*
X001993Y002743D01*
X001993Y002477D01*
X001993Y002611D02*
X001977Y002611D01*
X002227Y002477D02*
X002243Y002477D01*
X002227Y002477D02*
X002227Y002743D01*
X002243Y002743D01*
X002243Y002477D01*
X002243Y002611D02*
X002227Y002611D01*
X002477Y002477D02*
X002493Y002477D01*
X002477Y002477D02*
X002477Y002743D01*
X002493Y002743D01*
X002493Y002477D01*
X002493Y002611D02*
X002477Y002611D01*
X002727Y002477D02*
X002743Y002477D01*
X002727Y002477D02*
X002727Y002743D01*
X002743Y002743D01*
X002743Y002477D01*
X002743Y002611D02*
X002727Y002611D01*
X002977Y002477D02*
X002993Y002477D01*
X002977Y002477D02*
X002977Y002743D01*
X002993Y002743D01*
X002993Y002477D01*
X002993Y002611D02*
X002977Y002611D01*
X003227Y002477D02*
X003243Y002477D01*
X003227Y002477D02*
X003227Y002743D01*
X003243Y002743D01*
X003243Y002477D01*
X003243Y002611D02*
X003227Y002611D01*
X003477Y002477D02*
X003493Y002477D01*
X003477Y002477D02*
X003477Y002743D01*
X003493Y002743D01*
X003493Y002477D01*
X003493Y002611D02*
X003477Y002611D01*
X003727Y002477D02*
X003743Y002477D01*
X003727Y002477D02*
X003727Y002743D01*
X003743Y002743D01*
X003743Y002477D01*
X003743Y002611D02*
X003727Y002611D01*
X003977Y002477D02*
X003993Y002477D01*
X003977Y002477D02*
X003977Y002743D01*
X003993Y002743D01*
X003993Y002477D01*
X003993Y002611D02*
X003977Y002611D01*
X004227Y002477D02*
X004243Y002477D01*
X004227Y002477D02*
X004227Y002743D01*
X004243Y002743D01*
X004243Y002477D01*
X004243Y002611D02*
X004227Y002611D01*
X004477Y002477D02*
X004493Y002477D01*
X004477Y002477D02*
X004477Y002743D01*
X004493Y002743D01*
X004493Y002477D01*
X004493Y002611D02*
X004477Y002611D01*
X004727Y002477D02*
X004743Y002477D01*
X004727Y002477D02*
X004727Y002743D01*
X004743Y002743D01*
X004743Y002477D01*
X004743Y002611D02*
X004727Y002611D01*
X004977Y002477D02*
X004993Y002477D01*
X004977Y002477D02*
X004977Y002743D01*
X004993Y002743D01*
X004993Y002477D01*
X004993Y002611D02*
X004977Y002611D01*
X005227Y002477D02*
X005243Y002477D01*
X005227Y002477D02*
X005227Y002743D01*
X005243Y002743D01*
X005243Y002477D01*
X005243Y002611D02*
X005227Y002611D01*
X005477Y002477D02*
X005493Y002477D01*
X005477Y002477D02*
X005477Y002743D01*
X005493Y002743D01*
X005493Y002477D01*
X005493Y002611D02*
X005477Y002611D01*
X005493Y001977D02*
X005477Y001977D01*
X005477Y002243D01*
X005493Y002243D01*
X005493Y001977D01*
X005493Y002111D02*
X005477Y002111D01*
X005243Y001977D02*
X005227Y001977D01*
X005227Y002243D01*
X005243Y002243D01*
X005243Y001977D01*
X005243Y002111D02*
X005227Y002111D01*
X004993Y001977D02*
X004977Y001977D01*
X004977Y002243D01*
X004993Y002243D01*
X004993Y001977D01*
X004993Y002111D02*
X004977Y002111D01*
X004743Y001977D02*
X004727Y001977D01*
X004727Y002243D01*
X004743Y002243D01*
X004743Y001977D01*
X004743Y002111D02*
X004727Y002111D01*
X004493Y001977D02*
X004477Y001977D01*
X004477Y002243D01*
X004493Y002243D01*
X004493Y001977D01*
X004493Y002111D02*
X004477Y002111D01*
X004243Y001977D02*
X004227Y001977D01*
X004227Y002243D01*
X004243Y002243D01*
X004243Y001977D01*
X004243Y002111D02*
X004227Y002111D01*
X003993Y001977D02*
X003977Y001977D01*
X003977Y002243D01*
X003993Y002243D01*
X003993Y001977D01*
X003993Y002111D02*
X003977Y002111D01*
X003743Y001977D02*
X003727Y001977D01*
X003727Y002243D01*
X003743Y002243D01*
X003743Y001977D01*
X003743Y002111D02*
X003727Y002111D01*
X003493Y001977D02*
X003477Y001977D01*
X003477Y002243D01*
X003493Y002243D01*
X003493Y001977D01*
X003493Y002111D02*
X003477Y002111D01*
X003243Y001977D02*
X003227Y001977D01*
X003227Y002243D01*
X003243Y002243D01*
X003243Y001977D01*
X003243Y002111D02*
X003227Y002111D01*
X002993Y001977D02*
X002977Y001977D01*
X002977Y002243D01*
X002993Y002243D01*
X002993Y001977D01*
X002993Y002111D02*
X002977Y002111D01*
X002743Y001977D02*
X002727Y001977D01*
X002727Y002243D01*
X002743Y002243D01*
X002743Y001977D01*
X002743Y002111D02*
X002727Y002111D01*
D12*
X001735Y001710D02*
X001535Y001510D01*
X001735Y001710D02*
X001735Y002085D01*
X001760Y002110D01*
X001985Y002210D02*
X001985Y001660D01*
X001860Y001535D01*
X001860Y001235D01*
X001685Y001035D01*
X001710Y000960D01*
X002010Y001110D02*
X002010Y001435D01*
X002235Y001660D01*
X002235Y002060D01*
X002210Y002085D01*
X002485Y002085D02*
X002485Y001660D01*
X002360Y001535D01*
X002360Y001285D01*
X002335Y001260D01*
X002185Y000935D02*
X002010Y001110D01*
X002185Y000935D02*
X002410Y000660D01*
X002860Y001035D02*
X002985Y001035D01*
X003135Y001185D01*
X003135Y001710D01*
X002985Y001860D01*
X002985Y002060D01*
X003235Y002085D02*
X003235Y001835D01*
X003285Y001785D01*
X003285Y000835D01*
X003085Y000535D01*
X003085Y000510D01*
X003435Y000835D02*
X003635Y000635D01*
X003635Y000460D01*
X003435Y000835D02*
X003435Y001785D01*
X003485Y001835D01*
X003485Y002085D01*
X003460Y002110D01*
X003735Y002060D02*
X003735Y001860D01*
X003585Y001710D01*
X003585Y001185D01*
X003860Y001010D01*
X004360Y001310D02*
X004235Y001710D01*
X004235Y002285D01*
X004460Y002160D02*
X004485Y002135D01*
X004485Y001610D01*
X004685Y001410D01*
X004685Y001060D01*
X004610Y000985D01*
X004610Y000810D01*
X005060Y000985D02*
X004835Y001285D01*
X004835Y001535D01*
X004735Y001635D01*
X004735Y002185D01*
X004960Y002210D02*
X004985Y002185D01*
X004985Y001760D01*
X005110Y001635D01*
X005110Y001560D01*
X005235Y001860D02*
X005235Y002160D01*
X005235Y001860D02*
X005435Y001760D01*
X005735Y001735D01*
X005785Y001685D01*
X005535Y002085D02*
X005560Y002110D01*
X005910Y002110D01*
X006210Y002410D01*
X006210Y002685D01*
X005735Y002635D02*
X006360Y003260D01*
X006360Y003810D01*
X006210Y003960D01*
X006210Y004085D01*
X005910Y004210D02*
X005910Y004785D01*
X005885Y004810D01*
X005535Y004285D02*
X005135Y003985D01*
X005110Y003960D02*
X005110Y003035D01*
X004985Y002885D01*
X004985Y002710D01*
X005235Y002610D02*
X005235Y002910D01*
X005260Y002960D01*
X005260Y003635D01*
X005635Y003935D01*
X005910Y004210D01*
X005260Y004760D02*
X004960Y004460D01*
X004960Y003110D01*
X004735Y002860D01*
X004735Y002710D01*
X004735Y002685D01*
X004510Y002735D02*
X004485Y002710D01*
X004485Y002860D01*
X004810Y003185D01*
X004810Y004060D01*
X004810Y004085D02*
X004810Y004760D01*
X004585Y004985D01*
X004585Y005285D01*
X004610Y005310D01*
X004185Y005285D02*
X004460Y005710D01*
X004460Y005910D01*
X004510Y005960D01*
X004035Y005635D02*
X003985Y005560D01*
X003985Y004885D01*
X004485Y004385D01*
X004485Y003985D01*
X004510Y003985D02*
X004510Y003360D01*
X004285Y003135D01*
X004210Y003135D01*
X003985Y002985D01*
X003985Y002685D01*
X004210Y002660D02*
X004235Y002685D01*
X004235Y002935D01*
X004285Y002985D01*
X004360Y002985D01*
X004660Y003285D01*
X004660Y004010D01*
X004660Y004035D02*
X004660Y004510D01*
X004185Y004985D01*
X004185Y005285D01*
X003685Y005510D02*
X003685Y005960D01*
X003935Y006210D01*
X003385Y006235D02*
X003060Y005910D01*
X003060Y005435D01*
X003285Y005210D01*
X003285Y003210D01*
X003235Y003160D01*
X003235Y002635D01*
X003485Y002660D02*
X003485Y003160D01*
X003435Y003210D01*
X003435Y005285D01*
X003360Y005360D01*
X003360Y005660D01*
X003585Y005410D02*
X003685Y005510D01*
X003585Y005410D02*
X003585Y003310D01*
X003735Y003135D01*
X003735Y002635D01*
X004010Y002110D02*
X003985Y002085D01*
X003985Y001685D01*
X003910Y001610D01*
X003910Y001535D01*
X004360Y001310D02*
X004385Y001285D01*
X005535Y002635D02*
X005735Y002635D01*
X003135Y003310D02*
X003135Y005135D01*
X002910Y005360D01*
X002910Y005910D01*
X002760Y006160D01*
X002760Y006185D01*
X002585Y005635D02*
X002585Y005435D01*
X002835Y005185D01*
X002835Y004885D01*
X002260Y004310D01*
X002260Y003410D01*
X002735Y002935D01*
X002735Y002635D01*
X002985Y002610D02*
X002985Y003160D01*
X003135Y003310D01*
X002485Y002935D02*
X002485Y002735D01*
X002485Y002935D02*
X002110Y003310D01*
X002110Y004410D01*
X002560Y004860D01*
X002560Y005160D01*
X002385Y005335D01*
X002160Y005635D01*
X002160Y005985D01*
X001985Y005260D02*
X002060Y005235D01*
X002060Y004885D01*
X001960Y004785D01*
X001960Y003210D01*
X002235Y002935D01*
X002235Y002760D01*
X001985Y002760D02*
X001985Y002935D01*
X001810Y003110D01*
X001810Y004385D01*
X001460Y004785D01*
X001210Y004310D02*
X001660Y004060D01*
X001660Y003010D01*
X001760Y002910D01*
X001760Y002710D01*
X001485Y002660D02*
X001485Y003660D01*
X001135Y003960D01*
X000935Y004010D01*
X000810Y004285D01*
X000810Y004760D01*
X000510Y004060D02*
X000510Y003760D01*
X000360Y003610D01*
X000360Y003110D01*
X000860Y002835D01*
X001010Y002835D01*
X001210Y002635D01*
X001235Y002135D02*
X000885Y002135D01*
X000735Y002285D01*
X000735Y002435D01*
X000510Y002660D01*
X001235Y002135D02*
X001260Y002110D01*
X001485Y002135D02*
X001485Y001885D01*
X001360Y001785D01*
X001310Y001785D01*
X001185Y001710D01*
X000985Y001710D01*
X002735Y001610D02*
X002810Y001535D01*
X002735Y001610D02*
X002735Y002035D01*
M02*
