%
M48
M72
T01C0.0197
T02C0.0520
T03C0.0670
%
T01
X1315Y1365
X1735Y1105
X2185Y755
X2685Y1055
X2885Y505
X3355Y975
X3595Y505
X4035Y935
X4585Y855
X5085Y1155
X5535Y1555
X5785Y2055
X5985Y2555
X5235Y2055
X4585Y1665
X5935Y4055
X5785Y4605
X5385Y4205
X5235Y4755
X4535Y5005
X4985Y5505
X4485Y5805
X3985Y6005
X3435Y6105
X3305Y5605
X2855Y6075
X2635Y5505
X2235Y5855
X1785Y5555
X1435Y5255
X885Y4655
X1435Y4605
X1185Y4105
X635Y4155
X635Y2495
X1185Y2465
X1495Y2025
X885Y1855
T02
X2585Y3305
X3985Y3305
T03
X5685Y3305
X885Y3305
M30
