G75*
G70*
%OFA0B0*%
%FSLAX24Y24*%
%IPPOS*%
%LPD*%
%AMOC8*
5,1,8,0,0,1.08239X$1,22.5*
%
%ADD10C,0.0600*%
%ADD11C,0.0750*%
%ADD12C,0.0207*%
%ADD13C,0.0477*%
D10*
X002735Y003285D03*
X003785Y003285D03*
D11*
X005685Y003285D03*
X000885Y003285D03*
D12*
X002123Y004298D02*
X002123Y004572D01*
X002147Y004572D01*
X002147Y004298D01*
X002123Y004298D01*
X002123Y004504D02*
X002147Y004504D01*
X002373Y004572D02*
X002373Y004298D01*
X002373Y004572D02*
X002397Y004572D01*
X002397Y004298D01*
X002373Y004298D01*
X002373Y004504D02*
X002397Y004504D01*
X002623Y004572D02*
X002623Y004298D01*
X002623Y004572D02*
X002647Y004572D01*
X002647Y004298D01*
X002623Y004298D01*
X002623Y004504D02*
X002647Y004504D01*
X002873Y004572D02*
X002873Y004298D01*
X002873Y004572D02*
X002897Y004572D01*
X002897Y004298D01*
X002873Y004298D01*
X002873Y004504D02*
X002897Y004504D01*
X003123Y004572D02*
X003123Y004298D01*
X003123Y004572D02*
X003147Y004572D01*
X003147Y004298D01*
X003123Y004298D01*
X003123Y004504D02*
X003147Y004504D01*
X003373Y004572D02*
X003373Y004298D01*
X003373Y004572D02*
X003397Y004572D01*
X003397Y004298D01*
X003373Y004298D01*
X003373Y004504D02*
X003397Y004504D01*
X003623Y004572D02*
X003623Y004298D01*
X003623Y004572D02*
X003647Y004572D01*
X003647Y004298D01*
X003623Y004298D01*
X003623Y004504D02*
X003647Y004504D01*
X003873Y004572D02*
X003873Y004298D01*
X003873Y004572D02*
X003897Y004572D01*
X003897Y004298D01*
X003873Y004298D01*
X003873Y004504D02*
X003897Y004504D01*
X004123Y004572D02*
X004123Y004298D01*
X004123Y004572D02*
X004147Y004572D01*
X004147Y004298D01*
X004123Y004298D01*
X004123Y004504D02*
X004147Y004504D01*
X004373Y004572D02*
X004373Y004298D01*
X004373Y004572D02*
X004397Y004572D01*
X004397Y004298D01*
X004373Y004298D01*
X004373Y004504D02*
X004397Y004504D01*
X004123Y004798D02*
X004123Y005072D01*
X004147Y005072D01*
X004147Y004798D01*
X004123Y004798D01*
X004123Y005004D02*
X004147Y005004D01*
X003873Y005072D02*
X003873Y004798D01*
X003873Y005072D02*
X003897Y005072D01*
X003897Y004798D01*
X003873Y004798D01*
X003873Y005004D02*
X003897Y005004D01*
X003623Y005072D02*
X003623Y004798D01*
X003623Y005072D02*
X003647Y005072D01*
X003647Y004798D01*
X003623Y004798D01*
X003623Y005004D02*
X003647Y005004D01*
X003373Y005072D02*
X003373Y004798D01*
X003373Y005072D02*
X003397Y005072D01*
X003397Y004798D01*
X003373Y004798D01*
X003373Y005004D02*
X003397Y005004D01*
X003123Y005072D02*
X003123Y004798D01*
X003123Y005072D02*
X003147Y005072D01*
X003147Y004798D01*
X003123Y004798D01*
X003123Y005004D02*
X003147Y005004D01*
X002873Y005072D02*
X002873Y004798D01*
X002873Y005072D02*
X002897Y005072D01*
X002897Y004798D01*
X002873Y004798D01*
X002873Y005004D02*
X002897Y005004D01*
X002623Y005072D02*
X002623Y004798D01*
X002623Y005072D02*
X002647Y005072D01*
X002647Y004798D01*
X002623Y004798D01*
X002623Y005004D02*
X002647Y005004D01*
X002373Y005072D02*
X002373Y004798D01*
X002373Y005072D02*
X002397Y005072D01*
X002397Y004798D01*
X002373Y004798D01*
X002373Y005004D02*
X002397Y005004D01*
X002447Y002322D02*
X002447Y002048D01*
X002423Y002048D01*
X002423Y002322D01*
X002447Y002322D01*
X002447Y002254D02*
X002423Y002254D01*
X002197Y002322D02*
X002197Y002048D01*
X002173Y002048D01*
X002173Y002322D01*
X002197Y002322D01*
X002197Y002254D02*
X002173Y002254D01*
X002697Y002322D02*
X002697Y002048D01*
X002673Y002048D01*
X002673Y002322D01*
X002697Y002322D01*
X002697Y002254D02*
X002673Y002254D01*
X002947Y002322D02*
X002947Y002048D01*
X002923Y002048D01*
X002923Y002322D01*
X002947Y002322D01*
X002947Y002254D02*
X002923Y002254D01*
X003197Y002322D02*
X003197Y002048D01*
X003173Y002048D01*
X003173Y002322D01*
X003197Y002322D01*
X003197Y002254D02*
X003173Y002254D01*
X003447Y002322D02*
X003447Y002048D01*
X003423Y002048D01*
X003423Y002322D01*
X003447Y002322D01*
X003447Y002254D02*
X003423Y002254D01*
X003697Y002322D02*
X003697Y002048D01*
X003673Y002048D01*
X003673Y002322D01*
X003697Y002322D01*
X003697Y002254D02*
X003673Y002254D01*
X003947Y002322D02*
X003947Y002048D01*
X003923Y002048D01*
X003923Y002322D01*
X003947Y002322D01*
X003947Y002254D02*
X003923Y002254D01*
X004197Y002322D02*
X004197Y002048D01*
X004173Y002048D01*
X004173Y002322D01*
X004197Y002322D01*
X004197Y002254D02*
X004173Y002254D01*
X004447Y002322D02*
X004447Y002048D01*
X004423Y002048D01*
X004423Y002322D01*
X004447Y002322D01*
X004447Y002254D02*
X004423Y002254D01*
X004197Y001822D02*
X004197Y001548D01*
X004173Y001548D01*
X004173Y001822D01*
X004197Y001822D01*
X004197Y001754D02*
X004173Y001754D01*
X003947Y001822D02*
X003947Y001548D01*
X003923Y001548D01*
X003923Y001822D01*
X003947Y001822D01*
X003947Y001754D02*
X003923Y001754D01*
X003697Y001822D02*
X003697Y001548D01*
X003673Y001548D01*
X003673Y001822D01*
X003697Y001822D01*
X003697Y001754D02*
X003673Y001754D01*
X003447Y001822D02*
X003447Y001548D01*
X003423Y001548D01*
X003423Y001822D01*
X003447Y001822D01*
X003447Y001754D02*
X003423Y001754D01*
X003197Y001822D02*
X003197Y001548D01*
X003173Y001548D01*
X003173Y001822D01*
X003197Y001822D01*
X003197Y001754D02*
X003173Y001754D01*
X002947Y001822D02*
X002947Y001548D01*
X002923Y001548D01*
X002923Y001822D01*
X002947Y001822D01*
X002947Y001754D02*
X002923Y001754D01*
X002697Y001822D02*
X002697Y001548D01*
X002673Y001548D01*
X002673Y001822D01*
X002697Y001822D01*
X002697Y001754D02*
X002673Y001754D01*
X002447Y001822D02*
X002447Y001548D01*
X002423Y001548D01*
X002423Y001822D01*
X002447Y001822D01*
X002447Y001754D02*
X002423Y001754D01*
D13*
X001385Y001335D03*
X001735Y001085D03*
X002185Y000835D03*
X002585Y001185D03*
X002735Y000635D03*
X003285Y000985D03*
X003635Y000635D03*
X004135Y000735D03*
X004635Y000935D03*
X005085Y001285D03*
X004585Y001685D03*
X005235Y001985D03*
X005335Y002435D03*
X005735Y002135D03*
X005885Y002585D03*
X005885Y004035D03*
X005685Y004535D03*
X005335Y004185D03*
X005135Y004635D03*
X004535Y004985D03*
X004985Y005385D03*
X004535Y005685D03*
X004035Y005885D03*
X003485Y005985D03*
X003285Y005535D03*
X002835Y005935D03*
X002585Y005435D03*
X002235Y005785D03*
X001835Y005485D03*
X001485Y005285D03*
X001435Y004585D03*
X001235Y004135D03*
X000735Y004085D03*
X000935Y004585D03*
X000735Y002485D03*
X000935Y002035D03*
X001285Y002435D03*
X001535Y002035D03*
M02*
