%
M48
M72
T01C0.0197
T02C0.0520
T03C0.0670
%
T01
X1385Y1335
X1735Y1085
X2185Y835
X2585Y1185
X2735Y635
X3285Y985
X3635Y635
X4135Y735
X4635Y935
X5085Y1285
X4585Y1685
X5235Y1985
X5335Y2435
X5735Y2135
X5885Y2585
X5885Y4035
X5685Y4535
X5335Y4185
X5135Y4635
X4535Y4985
X4985Y5385
X4535Y5685
X4035Y5885
X3485Y5985
X3285Y5535
X2835Y5935
X2585Y5435
X2235Y5785
X1835Y5485
X1485Y5285
X1435Y4585
X1235Y4135
X735Y4085
X935Y4585
X735Y2485
X935Y2035
X1285Y2435
X1535Y2035
T02
X2735Y3285
X3785Y3285
T03
X5685Y3285
X885Y3285
M30
