G75*
G70*
%OFA0B0*%
%FSLAX24Y24*%
%IPPOS*%
%LPD*%
%AMOC8*
5,1,8,0,0,1.08239X$1,22.5*
%
%ADD10C,0.0397*%
%ADD11C,0.0100*%
D10*
X001385Y001335D03*
X001735Y001085D03*
X002185Y000835D03*
X002585Y001185D03*
X002735Y000635D03*
X003285Y000985D03*
X003635Y000635D03*
X004135Y000735D03*
X004635Y000935D03*
X005085Y001285D03*
X004585Y001685D03*
X005235Y001985D03*
X005335Y002435D03*
X005735Y002135D03*
X005885Y002585D03*
X005885Y004035D03*
X005685Y004535D03*
X005335Y004185D03*
X005135Y004635D03*
X004535Y004985D03*
X004985Y005385D03*
X004535Y005685D03*
X004035Y005885D03*
X003485Y005985D03*
X003285Y005535D03*
X002835Y005935D03*
X002585Y005435D03*
X002235Y005785D03*
X001835Y005485D03*
X001485Y005285D03*
X001435Y004585D03*
X001235Y004135D03*
X000735Y004085D03*
X000935Y004585D03*
X000735Y002485D03*
X000935Y002035D03*
X001285Y002435D03*
X001535Y002035D03*
D11*
X002185Y001535D02*
X001735Y001085D01*
X002185Y001535D02*
X003935Y001535D01*
X004135Y001335D01*
X004685Y001335D01*
X004935Y001585D01*
X004935Y001785D01*
X004785Y001935D01*
X004785Y003735D01*
X004585Y003935D01*
X004585Y004935D01*
X004535Y004985D01*
X004485Y004935D01*
X003285Y004935D02*
X001835Y004935D01*
X001485Y005285D01*
X003285Y004935D02*
X004585Y003635D01*
X004585Y001685D01*
M02*
