G75*
G70*
%OFA0B0*%
%FSLAX24Y24*%
%IPPOS*%
%LPD*%
%AMOC8*
5,1,8,0,0,1.08239X$1,22.5*
%
%ADD10C,0.0600*%
%ADD11C,0.0750*%
%ADD12C,0.0207*%
%ADD13C,0.0477*%
D10*
X002585Y003305D03*
X003985Y003305D03*
D11*
X005685Y003305D03*
X000885Y003305D03*
D12*
X002123Y004388D02*
X002123Y004662D01*
X002147Y004662D01*
X002147Y004388D01*
X002123Y004388D01*
X002123Y004594D02*
X002147Y004594D01*
X002373Y004662D02*
X002373Y004388D01*
X002373Y004662D02*
X002397Y004662D01*
X002397Y004388D01*
X002373Y004388D01*
X002373Y004594D02*
X002397Y004594D01*
X002623Y004662D02*
X002623Y004388D01*
X002623Y004662D02*
X002647Y004662D01*
X002647Y004388D01*
X002623Y004388D01*
X002623Y004594D02*
X002647Y004594D01*
X002873Y004662D02*
X002873Y004388D01*
X002873Y004662D02*
X002897Y004662D01*
X002897Y004388D01*
X002873Y004388D01*
X002873Y004594D02*
X002897Y004594D01*
X003123Y004662D02*
X003123Y004388D01*
X003123Y004662D02*
X003147Y004662D01*
X003147Y004388D01*
X003123Y004388D01*
X003123Y004594D02*
X003147Y004594D01*
X003373Y004662D02*
X003373Y004388D01*
X003373Y004662D02*
X003397Y004662D01*
X003397Y004388D01*
X003373Y004388D01*
X003373Y004594D02*
X003397Y004594D01*
X003623Y004662D02*
X003623Y004388D01*
X003623Y004662D02*
X003647Y004662D01*
X003647Y004388D01*
X003623Y004388D01*
X003623Y004594D02*
X003647Y004594D01*
X003873Y004662D02*
X003873Y004388D01*
X003873Y004662D02*
X003897Y004662D01*
X003897Y004388D01*
X003873Y004388D01*
X003873Y004594D02*
X003897Y004594D01*
X004123Y004662D02*
X004123Y004388D01*
X004123Y004662D02*
X004147Y004662D01*
X004147Y004388D01*
X004123Y004388D01*
X004123Y004594D02*
X004147Y004594D01*
X004373Y004662D02*
X004373Y004388D01*
X004373Y004662D02*
X004397Y004662D01*
X004397Y004388D01*
X004373Y004388D01*
X004373Y004594D02*
X004397Y004594D01*
X004123Y004888D02*
X004123Y005162D01*
X004147Y005162D01*
X004147Y004888D01*
X004123Y004888D01*
X004123Y005094D02*
X004147Y005094D01*
X003873Y005162D02*
X003873Y004888D01*
X003873Y005162D02*
X003897Y005162D01*
X003897Y004888D01*
X003873Y004888D01*
X003873Y005094D02*
X003897Y005094D01*
X003623Y005162D02*
X003623Y004888D01*
X003623Y005162D02*
X003647Y005162D01*
X003647Y004888D01*
X003623Y004888D01*
X003623Y005094D02*
X003647Y005094D01*
X003373Y005162D02*
X003373Y004888D01*
X003373Y005162D02*
X003397Y005162D01*
X003397Y004888D01*
X003373Y004888D01*
X003373Y005094D02*
X003397Y005094D01*
X003123Y005162D02*
X003123Y004888D01*
X003123Y005162D02*
X003147Y005162D01*
X003147Y004888D01*
X003123Y004888D01*
X003123Y005094D02*
X003147Y005094D01*
X002873Y005162D02*
X002873Y004888D01*
X002873Y005162D02*
X002897Y005162D01*
X002897Y004888D01*
X002873Y004888D01*
X002873Y005094D02*
X002897Y005094D01*
X002623Y005162D02*
X002623Y004888D01*
X002623Y005162D02*
X002647Y005162D01*
X002647Y004888D01*
X002623Y004888D01*
X002623Y005094D02*
X002647Y005094D01*
X002373Y005162D02*
X002373Y004888D01*
X002373Y005162D02*
X002397Y005162D01*
X002397Y004888D01*
X002373Y004888D01*
X002373Y005094D02*
X002397Y005094D01*
X002447Y002272D02*
X002447Y001998D01*
X002423Y001998D01*
X002423Y002272D01*
X002447Y002272D01*
X002447Y002204D02*
X002423Y002204D01*
X002197Y002272D02*
X002197Y001998D01*
X002173Y001998D01*
X002173Y002272D01*
X002197Y002272D01*
X002197Y002204D02*
X002173Y002204D01*
X002697Y002272D02*
X002697Y001998D01*
X002673Y001998D01*
X002673Y002272D01*
X002697Y002272D01*
X002697Y002204D02*
X002673Y002204D01*
X002947Y002272D02*
X002947Y001998D01*
X002923Y001998D01*
X002923Y002272D01*
X002947Y002272D01*
X002947Y002204D02*
X002923Y002204D01*
X003197Y002272D02*
X003197Y001998D01*
X003173Y001998D01*
X003173Y002272D01*
X003197Y002272D01*
X003197Y002204D02*
X003173Y002204D01*
X003447Y002272D02*
X003447Y001998D01*
X003423Y001998D01*
X003423Y002272D01*
X003447Y002272D01*
X003447Y002204D02*
X003423Y002204D01*
X003697Y002272D02*
X003697Y001998D01*
X003673Y001998D01*
X003673Y002272D01*
X003697Y002272D01*
X003697Y002204D02*
X003673Y002204D01*
X003947Y002272D02*
X003947Y001998D01*
X003923Y001998D01*
X003923Y002272D01*
X003947Y002272D01*
X003947Y002204D02*
X003923Y002204D01*
X004197Y002272D02*
X004197Y001998D01*
X004173Y001998D01*
X004173Y002272D01*
X004197Y002272D01*
X004197Y002204D02*
X004173Y002204D01*
X004447Y002272D02*
X004447Y001998D01*
X004423Y001998D01*
X004423Y002272D01*
X004447Y002272D01*
X004447Y002204D02*
X004423Y002204D01*
X004197Y001772D02*
X004197Y001498D01*
X004173Y001498D01*
X004173Y001772D01*
X004197Y001772D01*
X004197Y001704D02*
X004173Y001704D01*
X003947Y001772D02*
X003947Y001498D01*
X003923Y001498D01*
X003923Y001772D01*
X003947Y001772D01*
X003947Y001704D02*
X003923Y001704D01*
X003697Y001772D02*
X003697Y001498D01*
X003673Y001498D01*
X003673Y001772D01*
X003697Y001772D01*
X003697Y001704D02*
X003673Y001704D01*
X003447Y001772D02*
X003447Y001498D01*
X003423Y001498D01*
X003423Y001772D01*
X003447Y001772D01*
X003447Y001704D02*
X003423Y001704D01*
X003197Y001772D02*
X003197Y001498D01*
X003173Y001498D01*
X003173Y001772D01*
X003197Y001772D01*
X003197Y001704D02*
X003173Y001704D01*
X002947Y001772D02*
X002947Y001498D01*
X002923Y001498D01*
X002923Y001772D01*
X002947Y001772D01*
X002947Y001704D02*
X002923Y001704D01*
X002697Y001772D02*
X002697Y001498D01*
X002673Y001498D01*
X002673Y001772D01*
X002697Y001772D01*
X002697Y001704D02*
X002673Y001704D01*
X002447Y001772D02*
X002447Y001498D01*
X002423Y001498D01*
X002423Y001772D01*
X002447Y001772D01*
X002447Y001704D02*
X002423Y001704D01*
D13*
X001315Y001365D03*
X001735Y001105D03*
X002185Y000755D03*
X002685Y001055D03*
X002885Y000505D03*
X003355Y000975D03*
X003595Y000505D03*
X004035Y000935D03*
X004585Y000855D03*
X005085Y001155D03*
X005535Y001555D03*
X005785Y002055D03*
X005985Y002555D03*
X005235Y002055D03*
X004585Y001665D03*
X005935Y004055D03*
X005785Y004605D03*
X005385Y004205D03*
X005235Y004755D03*
X004535Y005005D03*
X004985Y005505D03*
X004485Y005805D03*
X003985Y006005D03*
X003435Y006105D03*
X003305Y005605D03*
X002855Y006075D03*
X002635Y005505D03*
X002235Y005855D03*
X001785Y005555D03*
X001435Y005255D03*
X000885Y004655D03*
X001435Y004605D03*
X001185Y004105D03*
X000635Y004155D03*
X000635Y002495D03*
X001185Y002465D03*
X001495Y002025D03*
X000885Y001855D03*
M02*
