G75*
G70*
%OFA0B0*%
%FSLAX24Y24*%
%IPPOS*%
%LPD*%
%AMOC8*
5,1,8,0,0,1.08239X$1,22.5*
%
%ADD10R,0.0150X0.0400*%
%ADD11C,0.0218*%
%ADD12C,0.0180*%
%ADD13C,0.0050*%
D10*
X000830Y002378D03*
X001080Y002378D03*
X001330Y002378D03*
X001580Y002378D03*
X001830Y002378D03*
X002080Y002378D03*
X002330Y002378D03*
X002580Y002378D03*
X002830Y002378D03*
X003080Y002378D03*
X003330Y002378D03*
X003580Y002378D03*
X003830Y002378D03*
X004080Y002378D03*
X004330Y002378D03*
X004580Y002378D03*
X004830Y002378D03*
X005080Y002378D03*
X005080Y002878D03*
X004830Y002878D03*
X004580Y002878D03*
X004330Y002878D03*
X004080Y002878D03*
X003830Y002878D03*
X003580Y002878D03*
X003330Y002878D03*
X003080Y002878D03*
X002830Y002878D03*
X002580Y002878D03*
X002330Y002878D03*
X002080Y002878D03*
X001830Y002878D03*
X001580Y002878D03*
X001330Y002878D03*
X001080Y002878D03*
X000830Y002878D03*
X001830Y004211D03*
X002080Y004211D03*
X002330Y004211D03*
X002580Y004211D03*
X002830Y004211D03*
X003080Y004211D03*
X003330Y004211D03*
X003580Y004211D03*
X003830Y004211D03*
X004080Y004211D03*
X004330Y004211D03*
X004580Y004211D03*
X004830Y004211D03*
X005080Y004211D03*
X005330Y004211D03*
X005580Y004211D03*
X005830Y004211D03*
X006080Y004211D03*
X006080Y004711D03*
X005830Y004711D03*
X005580Y004711D03*
X005330Y004711D03*
X005080Y004711D03*
X004830Y004711D03*
X004580Y004711D03*
X004330Y004711D03*
X004080Y004711D03*
X003830Y004711D03*
X003580Y004711D03*
X003330Y004711D03*
X003080Y004711D03*
X002830Y004711D03*
X002580Y004711D03*
X002330Y004711D03*
X002080Y004711D03*
X001830Y004711D03*
D11*
X001440Y001265D03*
X001690Y001095D03*
X001940Y000945D03*
X002220Y000805D03*
X002370Y001105D03*
X002720Y000935D03*
X002570Y000655D03*
X002970Y000555D03*
X003120Y000855D03*
X003520Y000805D03*
X003370Y000505D03*
X003810Y000515D03*
X003920Y000805D03*
X004270Y000605D03*
X004320Y000905D03*
X004720Y000805D03*
X004720Y001105D03*
X005070Y001355D03*
X005220Y001105D03*
X005620Y001405D03*
X005820Y001655D03*
X006020Y001905D03*
X005810Y002115D03*
X005470Y002005D03*
X005120Y002005D03*
X005350Y002872D03*
X005650Y002872D03*
X006070Y002855D03*
X006020Y002555D03*
X006270Y002405D03*
X006370Y002755D03*
X006390Y004234D03*
X006280Y004634D03*
X005990Y005174D03*
X005690Y005134D03*
X005430Y005454D03*
X005750Y005514D03*
X005460Y005804D03*
X005220Y005994D03*
X004970Y006144D03*
X004690Y006284D03*
X004540Y005984D03*
X004190Y006154D03*
X004340Y006424D03*
X003950Y006514D03*
X003790Y006234D03*
X003550Y006554D03*
X003390Y006284D03*
X003140Y006534D03*
X002990Y006284D03*
X002710Y006464D03*
X002590Y006184D03*
X002190Y006284D03*
X002190Y005984D03*
X001840Y005734D03*
X001690Y005984D03*
X001320Y005684D03*
X001090Y005434D03*
X000910Y005184D03*
X001090Y004984D03*
X001440Y005084D03*
X001790Y005084D03*
X001560Y004217D03*
X001260Y004217D03*
X000840Y004234D03*
X000890Y004534D03*
X000660Y004684D03*
X000540Y004334D03*
X000520Y002855D03*
X000620Y002455D03*
X000920Y001905D03*
X001220Y001955D03*
X001480Y001635D03*
X001170Y001555D03*
X001810Y001385D03*
X005100Y005704D03*
D12*
X005460Y003817D03*
X005710Y003667D03*
X005910Y003867D03*
X005460Y003517D03*
X005160Y003567D03*
X004890Y003657D03*
X004620Y003587D03*
X004580Y003312D03*
X004320Y003402D03*
X004350Y003677D03*
X004040Y003557D03*
X003960Y003827D03*
X004070Y003272D03*
X003800Y003222D03*
X003110Y003867D03*
X002840Y003817D03*
X002890Y003552D03*
X002910Y003282D03*
X002580Y003422D03*
X002590Y003697D03*
X002320Y003767D03*
X002300Y003422D03*
X002020Y003422D03*
X001750Y003522D03*
X001450Y003572D03*
X001200Y003432D03*
X001000Y003222D03*
X001450Y003272D03*
D13*
X001455Y003244D02*
X001605Y003094D01*
X001605Y003044D01*
X001805Y003044D02*
X001805Y003194D01*
X001555Y003444D01*
X001555Y003544D01*
X001505Y003594D01*
X001255Y003344D02*
X001255Y003144D01*
X001305Y003094D01*
X001305Y003044D01*
X001055Y003044D02*
X001055Y003194D01*
X000805Y002994D02*
X000705Y002994D01*
X000605Y002894D01*
X000605Y002444D02*
X000805Y002444D01*
X001055Y002244D02*
X001055Y002094D01*
X000955Y001994D01*
X001255Y001944D02*
X001305Y001994D01*
X001305Y002244D01*
X001555Y002294D02*
X001555Y001694D01*
X001505Y001644D01*
X001755Y001394D02*
X001855Y001494D01*
X001855Y002194D01*
X002055Y002244D02*
X002055Y001204D01*
X001945Y000964D01*
X002145Y001084D02*
X002155Y000844D01*
X002145Y001084D02*
X002305Y001394D01*
X002305Y002194D01*
X002555Y002194D02*
X002555Y001344D01*
X002355Y001144D01*
X002705Y001044D02*
X002755Y000944D01*
X002705Y001044D02*
X002705Y001994D01*
X002805Y002144D01*
X002805Y002244D01*
X003005Y002094D02*
X002855Y001894D01*
X002855Y001194D01*
X002925Y001044D01*
X002925Y000594D01*
X003155Y000894D02*
X003155Y000994D01*
X003105Y001094D01*
X003055Y001344D01*
X003055Y001894D01*
X003305Y002144D01*
X003305Y002244D01*
X003055Y002244D02*
X003005Y002094D01*
X003555Y002194D02*
X003705Y002094D01*
X003905Y001894D01*
X003905Y001244D01*
X003555Y000894D01*
X003905Y000844D02*
X003905Y001044D01*
X004055Y001194D01*
X004055Y001994D01*
X003855Y002194D01*
X004055Y002244D02*
X004105Y002244D01*
X004105Y002144D01*
X004205Y002044D01*
X004205Y001194D01*
X004125Y001044D01*
X004125Y000744D01*
X004205Y000644D01*
X004705Y001144D02*
X004355Y001494D01*
X004355Y002194D01*
X004555Y002244D02*
X004555Y001844D01*
X005005Y001394D01*
X005105Y001644D02*
X005755Y001644D01*
X005505Y002044D02*
X005505Y002394D01*
X005855Y002744D01*
X005855Y002994D01*
X005755Y003094D01*
X005555Y003094D01*
X005355Y002894D01*
X005305Y002844D02*
X005205Y002744D01*
X005105Y002744D01*
X005105Y002494D02*
X005305Y002494D01*
X005655Y002844D01*
X005955Y003194D02*
X006105Y003044D01*
X006105Y002944D01*
X006305Y003044D02*
X006305Y002794D01*
X006305Y003044D02*
X006055Y003294D01*
X004805Y003294D01*
X004555Y003044D01*
X004355Y003044D02*
X004355Y003144D01*
X004525Y003314D01*
X004255Y003394D02*
X004255Y003194D01*
X004105Y003044D01*
X004005Y003194D02*
X004065Y003264D01*
X004005Y003194D02*
X003865Y003024D01*
X003745Y003214D02*
X003785Y003234D01*
X003745Y003214D02*
X003645Y003114D01*
X003605Y003044D01*
X003355Y003044D02*
X003215Y003184D01*
X003035Y003424D01*
X002895Y003544D01*
X002905Y003344D02*
X002905Y003244D01*
X003055Y003094D01*
X003055Y003044D01*
X002855Y003044D02*
X002805Y003094D01*
X002795Y003154D01*
X002595Y003354D01*
X002355Y003344D02*
X002635Y003064D01*
X002305Y003044D02*
X002305Y003144D01*
X002055Y003394D01*
X002005Y003394D01*
X001805Y003344D02*
X001805Y003444D01*
X001805Y003344D02*
X002105Y003044D01*
X002655Y003694D02*
X002655Y003894D01*
X002805Y004044D01*
X002905Y003894D02*
X002875Y003834D01*
X002905Y003894D02*
X003055Y004044D01*
X003155Y003904D02*
X003135Y003864D01*
X003155Y003904D02*
X003255Y004004D01*
X003305Y004044D01*
X003625Y004034D02*
X003715Y003894D01*
X003845Y003684D01*
X004035Y003554D01*
X003985Y003824D02*
X004005Y003844D01*
X003855Y003994D01*
X003855Y004044D01*
X004055Y004044D02*
X004305Y003794D01*
X004305Y003694D01*
X004285Y004014D02*
X004655Y003644D01*
X004855Y003694D02*
X004905Y003694D01*
X004855Y003694D02*
X004605Y003944D01*
X004605Y004044D01*
X004805Y004044D02*
X005105Y003744D01*
X005105Y003644D01*
X005105Y003894D02*
X005355Y003644D01*
X005355Y003544D01*
X005405Y003494D01*
X005655Y003744D02*
X005655Y003944D01*
X005605Y003994D01*
X005605Y004044D01*
X005455Y003844D02*
X005305Y003994D01*
X005305Y004044D01*
X005105Y004044D02*
X005105Y003894D01*
X004955Y003194D02*
X005955Y003194D01*
X005855Y003894D02*
X005855Y004044D01*
X006105Y004094D02*
X006205Y004094D01*
X006305Y004194D01*
X006305Y004644D02*
X006105Y004644D01*
X005855Y004844D02*
X005855Y004994D01*
X005955Y005094D01*
X005655Y005144D02*
X005605Y005094D01*
X005605Y004844D01*
X005355Y004794D02*
X005355Y005394D01*
X005405Y005444D01*
X005155Y005694D02*
X005055Y005594D01*
X005055Y004894D01*
X004855Y004844D02*
X004855Y005884D01*
X004965Y006124D01*
X004765Y006004D02*
X004755Y006244D01*
X004765Y006004D02*
X004605Y005694D01*
X004605Y004894D01*
X004355Y004894D02*
X004355Y005744D01*
X004555Y005944D01*
X004205Y006044D02*
X004155Y006144D01*
X004205Y006044D02*
X004205Y005094D01*
X004105Y004944D01*
X004105Y004844D01*
X003855Y004844D02*
X003905Y004994D01*
X004055Y005194D01*
X004055Y005894D01*
X003985Y006044D01*
X003985Y006494D01*
X003755Y006194D02*
X003755Y006094D01*
X003805Y005994D01*
X003855Y005744D01*
X003855Y005194D01*
X003605Y004944D01*
X003605Y004844D01*
X003355Y004894D02*
X003205Y004994D01*
X003005Y005194D01*
X003005Y005844D01*
X003355Y006194D01*
X003005Y006244D02*
X003005Y006044D01*
X002855Y005894D01*
X002855Y005094D01*
X003055Y004894D01*
X002855Y004844D02*
X002805Y004844D01*
X002805Y004944D01*
X002705Y005044D01*
X002705Y005894D01*
X002785Y006044D01*
X002785Y006344D01*
X002705Y006444D01*
X002205Y005944D02*
X002555Y005594D01*
X002555Y004894D01*
X002355Y004844D02*
X002355Y005244D01*
X001905Y005694D01*
X001805Y005444D02*
X001155Y005444D01*
X001405Y005044D02*
X001405Y004694D01*
X001055Y004344D01*
X001055Y004094D01*
X001155Y003994D01*
X001355Y003994D01*
X001555Y004194D01*
X001605Y004244D02*
X001705Y004344D01*
X001805Y004344D01*
X001805Y004594D02*
X001605Y004594D01*
X001255Y004244D01*
X000955Y003894D02*
X000805Y004044D01*
X000805Y004144D01*
X000605Y004044D02*
X000605Y004294D01*
X000605Y004044D02*
X000855Y003794D01*
X002105Y003794D01*
X002355Y004044D01*
X002555Y004044D02*
X002555Y003944D01*
X002385Y003774D01*
X002105Y004044D02*
X001955Y003894D01*
X000955Y003894D01*
X001805Y004844D02*
X001805Y005094D01*
X002055Y005194D02*
X002055Y004894D01*
X002055Y005194D02*
X001805Y005444D01*
X004805Y003044D02*
X004955Y003194D01*
X005105Y002244D02*
X005105Y001994D01*
X004855Y001894D02*
X004855Y002194D01*
X004855Y001894D02*
X005105Y001644D01*
M02*
