G75*
G70*
%OFA0B0*%
%FSLAX24Y24*%
%IPPOS*%
%LPD*%
%AMOC8*
5,1,8,0,0,1.08239X$1,22.5*
%
%ADD10C,0.0080*%
%ADD11C,0.0050*%
%ADD12C,0.0100*%
%ADD13R,0.0450X0.0400*%
%ADD14R,0.0950X0.0300*%
%ADD15R,0.0150X0.0300*%
%ADD16R,0.0450X0.0100*%
%ADD17R,0.0450X0.0050*%
%ADD18R,0.0200X0.0300*%
D10*
X001316Y001795D02*
X001578Y001795D01*
X001595Y001860D02*
X001660Y001795D01*
X001791Y001795D01*
X001857Y001860D01*
X001857Y001926D01*
X001791Y001991D01*
X001595Y001991D01*
X001595Y001860D01*
X001595Y001991D02*
X001726Y002122D01*
X001857Y002188D01*
X002047Y001996D02*
X002100Y002048D01*
X002047Y001996D02*
X002047Y001734D01*
X002005Y001648D02*
X001848Y001648D01*
X001848Y001334D01*
X002005Y001334D01*
X002057Y001387D01*
X002057Y001596D01*
X002005Y001648D01*
X002211Y001544D02*
X002211Y001334D01*
X002211Y001439D02*
X002315Y001544D01*
X002368Y001544D01*
X002513Y001544D02*
X002565Y001544D01*
X002565Y001334D01*
X002513Y001334D02*
X002617Y001334D01*
X002859Y001334D02*
X002754Y001544D01*
X002565Y001648D02*
X002565Y001701D01*
X002531Y001734D02*
X002478Y001787D01*
X002478Y001891D01*
X002531Y001944D01*
X002635Y001944D01*
X002688Y001891D01*
X002688Y001839D01*
X002478Y001839D01*
X002531Y001734D02*
X002635Y001734D01*
X002841Y001734D02*
X003050Y001944D01*
X002841Y001944D02*
X003050Y001734D01*
X002964Y001544D02*
X002859Y001334D01*
X003117Y001387D02*
X003169Y001334D01*
X003274Y001334D01*
X003326Y001439D02*
X003117Y001439D01*
X003117Y001387D02*
X003117Y001491D01*
X003169Y001544D01*
X003274Y001544D01*
X003326Y001491D01*
X003326Y001439D01*
X003856Y001357D02*
X003987Y001488D01*
X003987Y001095D01*
X004117Y001095D02*
X003856Y001095D01*
X004145Y001095D02*
X004407Y001357D01*
X004407Y001422D01*
X004341Y001488D01*
X004210Y001488D01*
X004145Y001422D01*
X004145Y001095D02*
X004407Y001095D01*
X005900Y003063D02*
X006031Y003063D01*
X006096Y003129D01*
X006096Y003390D01*
X006031Y003456D01*
X005900Y003456D01*
X005834Y003390D01*
X005834Y003325D01*
X005900Y003259D01*
X006096Y003259D01*
X005900Y003063D02*
X005834Y003129D01*
X005474Y004980D02*
X005344Y004980D01*
X005278Y005046D01*
X005278Y005111D01*
X005344Y005176D01*
X005474Y005176D01*
X005540Y005111D01*
X005540Y005046D01*
X005474Y004980D01*
X005474Y005176D02*
X005540Y005242D01*
X005540Y005307D01*
X005474Y005373D01*
X005344Y005373D01*
X005278Y005307D01*
X005278Y005242D01*
X005344Y005176D01*
X003019Y005819D02*
X002757Y005819D01*
X002953Y006015D01*
X002953Y005623D01*
X001089Y003648D02*
X000827Y003648D01*
X000958Y003648D02*
X000958Y004041D01*
X000827Y003910D01*
X001447Y002188D02*
X001447Y001795D01*
X001316Y002057D02*
X001447Y002188D01*
X001995Y001891D02*
X002100Y001891D01*
X002237Y001734D02*
X002341Y001734D01*
X002289Y001734D02*
X002289Y002048D01*
X002237Y002048D01*
D11*
X001355Y001444D02*
X001155Y001244D01*
X001355Y001444D02*
X001505Y001444D01*
X001755Y001694D01*
X002155Y001194D02*
X002155Y000994D01*
X001955Y000694D01*
X002655Y000394D02*
X002755Y000494D01*
X002755Y000694D01*
X002955Y000844D01*
X002955Y001294D01*
X003605Y000594D02*
X003755Y000744D01*
X003755Y001094D01*
X003605Y000594D02*
X003605Y000294D01*
X004505Y000694D02*
X004505Y001344D01*
X004955Y001794D02*
X004955Y002144D01*
X005255Y002194D02*
X005305Y002194D01*
X005305Y002094D01*
X005275Y001994D02*
X005277Y002020D01*
X005283Y002046D01*
X005292Y002070D01*
X005305Y002093D01*
X005321Y002114D01*
X005340Y002132D01*
X005361Y002148D01*
X005385Y002160D01*
X005409Y002168D01*
X005435Y002173D01*
X005462Y002174D01*
X005488Y002171D01*
X005513Y002164D01*
X005537Y002154D01*
X005560Y002140D01*
X005580Y002124D01*
X005597Y002104D01*
X005612Y002082D01*
X005623Y002058D01*
X005631Y002033D01*
X005635Y002007D01*
X005635Y001981D01*
X005631Y001955D01*
X005623Y001930D01*
X005612Y001906D01*
X005597Y001884D01*
X005580Y001864D01*
X005560Y001848D01*
X005537Y001834D01*
X005513Y001824D01*
X005488Y001817D01*
X005462Y001814D01*
X005435Y001815D01*
X005409Y001820D01*
X005385Y001828D01*
X005361Y001840D01*
X005340Y001856D01*
X005321Y001874D01*
X005305Y001895D01*
X005292Y001918D01*
X005283Y001942D01*
X005277Y001968D01*
X005275Y001994D01*
X005305Y001894D02*
X005305Y001794D01*
X004955Y001794D01*
X005155Y001744D02*
X005255Y001644D01*
X005255Y001444D01*
X005555Y001144D01*
X004655Y000544D02*
X004505Y000694D01*
X005555Y002344D02*
X006005Y002344D01*
X006255Y002094D01*
X006205Y004044D02*
X006555Y004044D01*
X006555Y004394D01*
X006205Y004394D01*
X006205Y004044D01*
X006125Y004644D02*
X006127Y004670D01*
X006133Y004696D01*
X006142Y004720D01*
X006155Y004743D01*
X006171Y004764D01*
X006190Y004782D01*
X006211Y004798D01*
X006235Y004810D01*
X006259Y004818D01*
X006285Y004823D01*
X006312Y004824D01*
X006338Y004821D01*
X006363Y004814D01*
X006387Y004804D01*
X006410Y004790D01*
X006430Y004774D01*
X006447Y004754D01*
X006462Y004732D01*
X006473Y004708D01*
X006481Y004683D01*
X006485Y004657D01*
X006485Y004631D01*
X006481Y004605D01*
X006473Y004580D01*
X006462Y004556D01*
X006447Y004534D01*
X006430Y004514D01*
X006410Y004498D01*
X006387Y004484D01*
X006363Y004474D01*
X006338Y004467D01*
X006312Y004464D01*
X006285Y004465D01*
X006259Y004470D01*
X006235Y004478D01*
X006211Y004490D01*
X006190Y004506D01*
X006171Y004524D01*
X006155Y004545D01*
X006142Y004568D01*
X006133Y004592D01*
X006127Y004618D01*
X006125Y004644D01*
X005555Y005644D02*
X005405Y005644D01*
X005155Y005394D01*
X004755Y005544D02*
X004755Y006044D01*
X004905Y006344D01*
X004205Y006644D02*
X004105Y006344D01*
X003955Y006244D01*
X003955Y005794D01*
X004170Y005685D02*
X004170Y005640D01*
X004170Y005550D02*
X004125Y005550D01*
X004170Y005550D02*
X004170Y005369D01*
X004125Y005369D02*
X004215Y005369D01*
X004321Y005369D02*
X004456Y005369D01*
X004501Y005414D01*
X004501Y005504D01*
X004456Y005550D01*
X004321Y005550D01*
X004321Y005640D02*
X004321Y005369D01*
X004305Y005290D02*
X004215Y005245D01*
X004125Y005154D01*
X004260Y005154D01*
X004305Y005109D01*
X004305Y005064D01*
X004260Y005019D01*
X004170Y005019D01*
X004125Y005064D01*
X004125Y005154D01*
X004010Y005019D02*
X003830Y005019D01*
X003920Y005019D02*
X003920Y005290D01*
X003830Y005200D01*
X003875Y005369D02*
X003830Y005414D01*
X003830Y005504D01*
X003875Y005550D01*
X003965Y005550D01*
X004010Y005504D01*
X004010Y005459D01*
X003830Y005459D01*
X003875Y005369D02*
X003965Y005369D01*
X004419Y005200D02*
X004509Y005200D01*
X004464Y005245D02*
X004464Y005064D01*
X004509Y005019D01*
X004661Y005064D02*
X004706Y005019D01*
X004661Y005064D02*
X004661Y005245D01*
X004616Y005200D02*
X004706Y005200D01*
X005555Y005644D02*
X005705Y005794D01*
X003305Y006494D02*
X003155Y006344D01*
X003155Y005844D01*
X003305Y006494D02*
X003305Y006694D01*
X002405Y006394D02*
X002405Y005744D01*
X001955Y005294D02*
X001955Y004944D01*
X001655Y004894D02*
X001605Y004894D01*
X001605Y004994D01*
X001275Y005094D02*
X001277Y005120D01*
X001283Y005146D01*
X001292Y005170D01*
X001305Y005193D01*
X001321Y005214D01*
X001340Y005232D01*
X001361Y005248D01*
X001385Y005260D01*
X001409Y005268D01*
X001435Y005273D01*
X001462Y005274D01*
X001488Y005271D01*
X001513Y005264D01*
X001537Y005254D01*
X001560Y005240D01*
X001580Y005224D01*
X001597Y005204D01*
X001612Y005182D01*
X001623Y005158D01*
X001631Y005133D01*
X001635Y005107D01*
X001635Y005081D01*
X001631Y005055D01*
X001623Y005030D01*
X001612Y005006D01*
X001597Y004984D01*
X001580Y004964D01*
X001560Y004948D01*
X001537Y004934D01*
X001513Y004924D01*
X001488Y004917D01*
X001462Y004914D01*
X001435Y004915D01*
X001409Y004920D01*
X001385Y004928D01*
X001361Y004940D01*
X001340Y004956D01*
X001321Y004974D01*
X001305Y004995D01*
X001292Y005018D01*
X001283Y005042D01*
X001277Y005068D01*
X001275Y005094D01*
X001605Y005194D02*
X001605Y005294D01*
X001955Y005294D01*
X001755Y005344D02*
X001655Y005444D01*
X001655Y005644D01*
X001405Y005894D01*
X002355Y006444D02*
X002405Y006394D01*
X001355Y004744D02*
X000905Y004744D01*
X000705Y004944D01*
X000705Y003044D02*
X000355Y003044D01*
X000355Y002694D01*
X000705Y002694D01*
X000705Y003044D01*
X000425Y002444D02*
X000427Y002470D01*
X000433Y002496D01*
X000442Y002520D01*
X000455Y002543D01*
X000471Y002564D01*
X000490Y002582D01*
X000511Y002598D01*
X000535Y002610D01*
X000559Y002618D01*
X000585Y002623D01*
X000612Y002624D01*
X000638Y002621D01*
X000663Y002614D01*
X000687Y002604D01*
X000710Y002590D01*
X000730Y002574D01*
X000747Y002554D01*
X000762Y002532D01*
X000773Y002508D01*
X000781Y002483D01*
X000785Y002457D01*
X000785Y002431D01*
X000781Y002405D01*
X000773Y002380D01*
X000762Y002356D01*
X000747Y002334D01*
X000730Y002314D01*
X000710Y002298D01*
X000687Y002284D01*
X000663Y002274D01*
X000638Y002267D01*
X000612Y002264D01*
X000585Y002265D01*
X000559Y002270D01*
X000535Y002278D01*
X000511Y002290D01*
X000490Y002306D01*
X000471Y002324D01*
X000455Y002345D01*
X000442Y002368D01*
X000433Y002392D01*
X000427Y002418D01*
X000425Y002444D01*
D12*
X002505Y005044D02*
X002505Y005372D01*
X002669Y005535D01*
X002832Y005372D01*
X002832Y005044D01*
X002832Y005290D02*
X002505Y005290D01*
X004037Y002096D02*
X004282Y002096D01*
X004364Y002014D01*
X004364Y001932D01*
X004282Y001850D01*
X004037Y001850D01*
X004037Y001605D02*
X004037Y002096D01*
X004282Y001850D02*
X004364Y001769D01*
X004364Y001687D01*
X004282Y001605D01*
X004037Y001605D01*
D13*
X005480Y002494D03*
X001430Y004594D03*
D14*
X001680Y003794D03*
X005230Y003294D03*
D15*
X004780Y001944D03*
X002130Y005144D03*
D16*
X001430Y003994D03*
X005480Y003094D03*
D17*
X005480Y002269D03*
X001430Y004819D03*
D18*
X002305Y005144D03*
X004605Y001944D03*
M02*
