G75*
G70*
%OFA0B0*%
%FSLAX24Y24*%
%IPPOS*%
%LPD*%
%AMOC8*
5,1,8,0,0,1.08239X$1,22.5*
%
%ADD10C,0.0580*%
%ADD11C,0.0474*%
%ADD12R,0.0200X0.0450*%
%ADD13C,0.0298*%
D10*
X003455Y001694D03*
X003455Y003544D03*
X003455Y005394D03*
D11*
X006405Y003544D03*
X000505Y003544D03*
D12*
X000830Y002878D03*
X001080Y002878D03*
X001330Y002878D03*
X001580Y002878D03*
X001830Y002878D03*
X002080Y002878D03*
X002330Y002878D03*
X002580Y002878D03*
X002830Y002878D03*
X003080Y002878D03*
X003330Y002878D03*
X003580Y002878D03*
X003830Y002878D03*
X004080Y002878D03*
X004080Y002878D03*
X004330Y002878D03*
X004580Y002878D03*
X004830Y002878D03*
X005080Y002878D03*
X005080Y002378D03*
X004830Y002378D03*
X004580Y002378D03*
X004330Y002378D03*
X004080Y002378D03*
X003830Y002378D03*
X003580Y002378D03*
X003330Y002378D03*
X003080Y002378D03*
X002830Y002378D03*
X002580Y002378D03*
X002330Y002378D03*
X002080Y002378D03*
X001830Y002378D03*
X001580Y002378D03*
X001330Y002378D03*
X001080Y002378D03*
X000830Y002378D03*
X001830Y004211D03*
X002080Y004211D03*
X002330Y004211D03*
X002580Y004211D03*
X002830Y004211D03*
X002830Y004211D03*
X003080Y004211D03*
X003330Y004211D03*
X003580Y004211D03*
X003830Y004211D03*
X004080Y004211D03*
X004330Y004211D03*
X004580Y004211D03*
X004830Y004211D03*
X005080Y004211D03*
X005330Y004211D03*
X005580Y004211D03*
X005830Y004211D03*
X006080Y004211D03*
X006080Y004711D03*
X005830Y004711D03*
X005580Y004711D03*
X005330Y004711D03*
X005080Y004711D03*
X004830Y004711D03*
X004580Y004711D03*
X004330Y004711D03*
X004080Y004711D03*
X003830Y004711D03*
X003580Y004711D03*
X003330Y004711D03*
X003080Y004711D03*
X002830Y004711D03*
X002580Y004711D03*
X002330Y004711D03*
X002080Y004711D03*
X001830Y004711D03*
D13*
X001420Y001255D03*
X001690Y001095D03*
X001940Y000945D03*
X002220Y000805D03*
X002370Y001105D03*
X002720Y000935D03*
X002570Y000655D03*
X002970Y000555D03*
X003120Y000855D03*
X003520Y000805D03*
X003370Y000505D03*
X003820Y000505D03*
X003920Y000805D03*
X004270Y000605D03*
X004320Y000905D03*
X004720Y000805D03*
X004720Y001105D03*
X005070Y001355D03*
X005220Y001105D03*
X005620Y001405D03*
X005820Y001655D03*
X006020Y001905D03*
X005820Y002105D03*
X005470Y002005D03*
X005120Y002005D03*
X005350Y002872D03*
X005650Y002872D03*
X006070Y002855D03*
X006020Y002555D03*
X006270Y002405D03*
X006370Y002755D03*
X005710Y003667D03*
X005910Y003867D03*
X005460Y003817D03*
X005460Y003517D03*
X005160Y003567D03*
X004910Y003667D03*
X004610Y003667D03*
X004310Y003697D03*
X004020Y003687D03*
X003760Y003817D03*
X004040Y003262D03*
X003760Y003252D03*
X004290Y003392D03*
X004550Y003302D03*
X003150Y003272D03*
X002890Y003402D03*
X002600Y003392D03*
X002300Y003422D03*
X002620Y003697D03*
X002360Y003787D03*
X002000Y003422D03*
X001750Y003522D03*
X001450Y003572D03*
X001200Y003422D03*
X001000Y003222D03*
X001450Y003272D03*
X000620Y002455D03*
X000520Y002855D03*
X001220Y001955D03*
X000920Y001905D03*
X001170Y001555D03*
X001480Y001635D03*
X001810Y001385D03*
X002870Y003827D03*
X003150Y003837D03*
X001790Y005084D03*
X001440Y005084D03*
X001090Y004984D03*
X000890Y005184D03*
X001090Y005434D03*
X001290Y005684D03*
X001690Y005984D03*
X001840Y005734D03*
X002190Y005984D03*
X002190Y006284D03*
X002590Y006184D03*
X002640Y006484D03*
X002990Y006284D03*
X003090Y006584D03*
X003390Y006284D03*
X003540Y006584D03*
X003790Y006234D03*
X003940Y006534D03*
X004340Y006434D03*
X004190Y006154D03*
X004540Y005984D03*
X004690Y006284D03*
X004970Y006144D03*
X005220Y005994D03*
X005490Y005834D03*
X005740Y005534D03*
X005430Y005454D03*
X005690Y005134D03*
X005990Y005184D03*
X006290Y004634D03*
X006390Y004234D03*
X005100Y005704D03*
X001560Y004217D03*
X001260Y004217D03*
X000840Y004234D03*
X000890Y004534D03*
X000640Y004684D03*
X000540Y004334D03*
M02*
