G75*
G70*
%OFA0B0*%
%FSLAX24Y24*%
%IPPOS*%
%LPD*%
%AMOC8*
5,1,8,0,0,1.08239X$1,22.5*
%
%ADD10C,0.0218*%
%ADD11C,0.0050*%
D10*
X001420Y001255D03*
X001690Y001095D03*
X001940Y000945D03*
X002220Y000805D03*
X002370Y001105D03*
X002720Y000935D03*
X002570Y000655D03*
X002970Y000555D03*
X003120Y000855D03*
X003520Y000805D03*
X003370Y000505D03*
X003820Y000505D03*
X003920Y000805D03*
X004270Y000605D03*
X004320Y000905D03*
X004720Y000805D03*
X004720Y001105D03*
X005070Y001355D03*
X005220Y001105D03*
X005620Y001405D03*
X005820Y001655D03*
X006020Y001905D03*
X005820Y002105D03*
X005470Y002005D03*
X005120Y002005D03*
X005350Y002872D03*
X005650Y002872D03*
X006070Y002855D03*
X006020Y002555D03*
X006270Y002405D03*
X006370Y002755D03*
X005710Y003667D03*
X005910Y003867D03*
X005460Y003817D03*
X005460Y003517D03*
X005160Y003567D03*
X004910Y003667D03*
X004610Y003667D03*
X004310Y003697D03*
X004020Y003687D03*
X003760Y003817D03*
X004040Y003262D03*
X003760Y003252D03*
X004290Y003392D03*
X004550Y003302D03*
X003150Y003272D03*
X002890Y003402D03*
X002600Y003392D03*
X002300Y003422D03*
X002620Y003697D03*
X002360Y003787D03*
X002000Y003422D03*
X001750Y003522D03*
X001450Y003572D03*
X001200Y003422D03*
X001000Y003222D03*
X001450Y003272D03*
X000620Y002455D03*
X000520Y002855D03*
X001220Y001955D03*
X000920Y001905D03*
X001170Y001555D03*
X001480Y001635D03*
X001810Y001385D03*
X002870Y003827D03*
X003150Y003837D03*
X001790Y005084D03*
X001440Y005084D03*
X001090Y004984D03*
X000890Y005184D03*
X001090Y005434D03*
X001290Y005684D03*
X001690Y005984D03*
X001840Y005734D03*
X002190Y005984D03*
X002190Y006284D03*
X002590Y006184D03*
X002640Y006484D03*
X002990Y006284D03*
X003090Y006584D03*
X003390Y006284D03*
X003540Y006584D03*
X003790Y006234D03*
X003940Y006534D03*
X004340Y006434D03*
X004190Y006154D03*
X004540Y005984D03*
X004690Y006284D03*
X004970Y006144D03*
X005220Y005994D03*
X005490Y005834D03*
X005740Y005534D03*
X005430Y005454D03*
X005690Y005134D03*
X005990Y005184D03*
X006290Y004634D03*
X006390Y004234D03*
X005100Y005704D03*
X001560Y004217D03*
X001260Y004217D03*
X000840Y004234D03*
X000890Y004534D03*
X000640Y004684D03*
X000540Y004334D03*
D11*
X000705Y004744D02*
X001805Y004744D01*
X002655Y003894D01*
X002655Y003694D01*
X002905Y003844D02*
X002905Y003894D01*
X001955Y004844D01*
X001255Y004844D01*
X001155Y004944D01*
X001205Y005194D02*
X000955Y005194D01*
X001205Y005194D02*
X001355Y005344D01*
X001855Y005344D01*
X003155Y004044D01*
X003155Y003844D01*
X002905Y003344D02*
X002905Y003244D01*
X004805Y001344D01*
X004805Y001294D01*
X005005Y001094D01*
X005155Y001094D01*
X005405Y001394D02*
X005605Y001394D01*
X005405Y001394D02*
X005205Y001594D01*
X004805Y001594D01*
X003205Y003194D01*
X003205Y003244D01*
X003755Y003244D02*
X003755Y003044D01*
X005055Y001744D01*
X005555Y001744D01*
X005705Y001894D01*
X005955Y001894D01*
X005755Y002144D02*
X005655Y002244D01*
X004955Y002244D01*
X004005Y003194D01*
X004005Y003244D01*
X004255Y003194D02*
X004255Y003394D01*
X004255Y003194D02*
X005105Y002344D01*
X006205Y002344D01*
X005955Y002594D02*
X005155Y002594D01*
X004555Y003194D01*
X004555Y003294D01*
X004355Y003694D02*
X002405Y005644D01*
X002405Y006044D01*
X002305Y006244D01*
X002255Y006244D01*
X002555Y006194D02*
X002555Y005744D01*
X004555Y003744D01*
X004905Y003694D02*
X003855Y004744D01*
X003855Y005594D01*
X003555Y005894D01*
X003355Y005894D01*
X003195Y006044D01*
X003195Y006494D01*
X003155Y006544D01*
X003595Y006544D02*
X003595Y006094D01*
X004005Y005694D01*
X004005Y004844D01*
X005105Y003744D01*
X005105Y003594D01*
X005455Y003544D02*
X004355Y004644D01*
X004355Y005804D01*
X004315Y005944D01*
X004415Y006184D01*
X004395Y006344D01*
X004355Y006344D01*
X004905Y005784D02*
X004905Y004394D01*
X005455Y003844D01*
X005655Y003944D02*
X005655Y003694D01*
X005655Y003944D02*
X005205Y004394D01*
X005205Y005504D01*
X005455Y005754D01*
X005455Y005794D01*
X005205Y005984D02*
X005105Y005984D01*
X004905Y005784D01*
X005455Y005184D02*
X005455Y004344D01*
X005855Y003944D01*
X006105Y003794D02*
X005905Y003594D01*
X005905Y003444D01*
X005355Y002894D01*
X005655Y002894D02*
X006055Y003294D01*
X006055Y003594D01*
X006205Y003744D01*
X006255Y003794D02*
X006255Y004144D01*
X006355Y004244D01*
X006105Y004394D02*
X006305Y004594D01*
X006305Y004644D01*
X006105Y004394D02*
X006105Y003794D01*
X005905Y003594D01*
X005905Y003444D01*
X006055Y003594D02*
X006255Y003794D01*
X005455Y005184D02*
X005765Y005484D01*
X004005Y003844D02*
X004005Y003744D01*
X004005Y003844D02*
X002105Y005744D01*
X002105Y005794D01*
X001905Y005994D01*
X001755Y005994D01*
X001505Y005694D02*
X001305Y005694D01*
X001505Y005694D02*
X001705Y005494D01*
X002105Y005494D01*
X003705Y003894D01*
X003705Y003844D01*
X002555Y003394D02*
X004505Y001444D01*
X004505Y001044D01*
X004605Y000844D01*
X004655Y000844D01*
X004355Y000894D02*
X004355Y001344D01*
X002355Y003344D01*
X002005Y003394D02*
X003055Y002344D01*
X003055Y001494D01*
X003355Y001194D01*
X003555Y001194D01*
X003715Y001044D01*
X003715Y000594D01*
X003755Y000544D01*
X003315Y000544D02*
X003315Y000994D01*
X002905Y001394D01*
X002905Y002244D01*
X001805Y003344D01*
X001805Y003494D01*
X001455Y003544D02*
X002555Y002444D01*
X002555Y001284D01*
X002595Y001144D01*
X002495Y000904D01*
X002515Y000744D01*
X002555Y000744D01*
X002005Y001304D02*
X002005Y002694D01*
X001455Y003244D01*
X001255Y003144D02*
X001255Y003394D01*
X001255Y003144D02*
X001705Y002694D01*
X001705Y001584D01*
X001455Y001334D01*
X001455Y001294D01*
X001705Y001104D02*
X001805Y001104D01*
X002005Y001304D01*
X001455Y001904D02*
X001455Y002744D01*
X001055Y003144D01*
X000805Y003294D02*
X000805Y002694D01*
X000605Y002494D01*
X000605Y002444D01*
X000555Y002844D02*
X000655Y002944D01*
X000655Y003294D01*
X000855Y003494D01*
X000705Y003344D01*
X000805Y003294D02*
X001005Y003494D01*
X001005Y003644D01*
X001005Y003494D01*
X000805Y003294D01*
X000855Y003494D02*
X000855Y003794D01*
X001255Y004194D01*
X001555Y004194D02*
X001005Y003644D01*
X000955Y004494D02*
X001755Y004494D01*
X002355Y003894D01*
X002355Y003794D01*
X001455Y001904D02*
X001145Y001604D01*
M02*
