%
M48
M72
T01C0.0100
T02C0.0118
T03C0.0197
T04C0.0300
T05C0.0500
%
T01
X12722Y17192
X12894Y17398
X13144Y17538
X13142Y17238
X13444Y17488
X13714Y17388
X13994Y17388
X14274Y17388
X14284Y17663
X14526Y17743
X14812Y17817
X14624Y17294
X14883Y17190
X15522Y17254
X15734Y17523
X15654Y17793
X16044Y17643
X16014Y17368
X16253Y17304
X16314Y17553
X16584Y17623
X16854Y17533
X17129Y17497
X17404Y17633
X17573Y17828
X17140Y17824
X15764Y17238
X14026Y17700
T02
X13208Y18120
X12937Y18208
X12256Y16302
X17044Y16838
X17344Y16838
X18051Y18616
T03
X12773Y14569
X12447Y14874
X12151Y15224
X11871Y15638
X11672Y16072
X11526Y16515
X12022Y16683
X12363Y15713
X13053Y14952
X13121Y14288
X13539Y14085
X13974Y13935
X14205Y14341
X14437Y13810
X14890Y13748
X15367Y13742
X15810Y13809
X16256Y13912
X16678Y14074
X17093Y14282
X17459Y14548
X17827Y14823
X18123Y15160
X18359Y15544
X18606Y15941
X18758Y16360
X18863Y16817
X18919Y17278
X18312Y16665
X18095Y16084
X17607Y15931
X17478Y15146
X16538Y14592
X15365Y14242
X18378Y18164
X18747Y18689
X18567Y19127
X18345Y19531
X18090Y19925
X17750Y20231
X17402Y20529
X17020Y20783
X16607Y20981
X16166Y21107
X15720Y21221
X15265Y21269
X14807Y21262
X14683Y20758
X14357Y21158
X13895Y21038
X14113Y20631
X13465Y20831
X13067Y20588
X13220Y20136
X12674Y20311
X12345Y19986
X12049Y19620
X12432Y19341
X12100Y18831
X11803Y19195
X11611Y18762
X11482Y18313
X11937Y18264
X13102Y19154
X15678Y20745
X16823Y20359
X17631Y19764
X18870Y18206
T04
X18099Y17511
X12199Y17511
T05
X15149Y17511
X15149Y19361
X15149Y15661
M30
