G75*
G70*
%OFA0B0*%
%FSLAX24Y24*%
%IPPOS*%
%LPD*%
%AMOC8*
5,1,8,0,0,1.08239X$1,22.5*
%
%ADD10C,0.0580*%
%ADD11C,0.0380*%
%ADD12C,0.0477*%
%ADD13C,0.0298*%
%ADD14C,0.0280*%
D10*
X015149Y015661D03*
X015149Y017511D03*
X015149Y019361D03*
D11*
X012199Y017511D03*
X018099Y017511D03*
D12*
X012773Y014569D03*
X012447Y014874D03*
X012151Y015224D03*
X011871Y015638D03*
X011672Y016072D03*
X011526Y016515D03*
X012022Y016683D03*
X012363Y015713D03*
X013053Y014952D03*
X013121Y014288D03*
X013539Y014085D03*
X013974Y013935D03*
X014205Y014341D03*
X014437Y013810D03*
X014890Y013748D03*
X015367Y013742D03*
X015810Y013809D03*
X016256Y013912D03*
X016678Y014074D03*
X017093Y014282D03*
X017459Y014548D03*
X017827Y014823D03*
X018123Y015160D03*
X018359Y015544D03*
X018606Y015941D03*
X018758Y016360D03*
X018863Y016817D03*
X018919Y017278D03*
X018312Y016665D03*
X018095Y016084D03*
X017607Y015931D03*
X017478Y015146D03*
X016538Y014592D03*
X015365Y014242D03*
X018378Y018164D03*
X018747Y018689D03*
X018567Y019127D03*
X018345Y019531D03*
X018090Y019925D03*
X017750Y020231D03*
X017402Y020529D03*
X017020Y020783D03*
X016607Y020981D03*
X016166Y021107D03*
X015720Y021221D03*
X015265Y021269D03*
X014807Y021262D03*
X014683Y020758D03*
X014357Y021158D03*
X013895Y021038D03*
X014113Y020631D03*
X013465Y020831D03*
X013067Y020588D03*
X013220Y020136D03*
X012674Y020311D03*
X012345Y019986D03*
X012049Y019620D03*
X012432Y019341D03*
X012100Y018831D03*
X011803Y019195D03*
X011611Y018762D03*
X011482Y018313D03*
X011937Y018264D03*
X013102Y019154D03*
X015678Y020745D03*
X016823Y020359D03*
X017631Y019764D03*
X018870Y018206D03*
D13*
X018051Y018616D03*
X017344Y016838D03*
X017044Y016838D03*
X013208Y018120D03*
X012937Y018208D03*
X012256Y016302D03*
D14*
X012722Y017192D03*
X012894Y017398D03*
X013144Y017538D03*
X013142Y017238D03*
X013444Y017488D03*
X013714Y017388D03*
X013994Y017388D03*
X014274Y017388D03*
X014284Y017663D03*
X014526Y017743D03*
X014812Y017817D03*
X014624Y017294D03*
X014883Y017190D03*
X015522Y017254D03*
X015734Y017523D03*
X015654Y017793D03*
X016044Y017643D03*
X016014Y017368D03*
X016253Y017304D03*
X016314Y017553D03*
X016584Y017623D03*
X016854Y017533D03*
X017129Y017497D03*
X017404Y017633D03*
X017573Y017828D03*
X017140Y017824D03*
X015764Y017238D03*
X014026Y017700D03*
M02*
