  0
SECTION
  2
HEADER
  9
$ACADVER
  1
AC1015
  9
$ACADMAINTVER
 70
     6
  9
$DWGCODEPAGE
  3
ANSI_1252
  9
$INSBASE
 10
0.0
 20
0.0
 30
0.0
  9
$EXTMIN
 10
0.0
 20
0.0
 30
0.0
  9
$EXTMAX
 10
8.5
 20
11.0
 30
0.0
  9
$LIMMIN
 10
0.0
 20
0.0
  9
$LIMMAX
 10
8.5
 20
11.0
  9
$ORTHOMODE
 70
     0
  9
$REGENMODE
 70
     1
  9
$FILLMODE
 70
     1
  9
$QTEXTMODE
 70
     0
  9
$MIRRTEXT
 70
     1
  9
$LTSCALE
 40
1.0
  9
$ATTMODE
 70
     1
  9
$TEXTSIZE
 40
0.125
  9
$TRACEWID
 40
0.05
  9
$TEXTSTYLE
  7
Standard
  9
$CLAYER
  8
0
  9
$CELTYPE
  6
ByLayer
  9
$CECOLOR
 62
   256
  9
$CELTSCALE
 40
1.0
  9
$DISPSILH
 70
     0
  9
$DIMSCALE
 40
1.0
  9
$DIMASZ
 40
0.13
  9
$DIMEXO
 40
0.05
  9
$DIMDLI
 40
0.38
  9
$DIMRND
 40
0.0
  9
$DIMDLE
 40
0.0
  9
$DIMEXE
 40
0.125
  9
$DIMTP
 40
0.0
  9
$DIMTM
 40
0.0
  9
$DIMTXT
 40
0.125
  9
$DIMCEN
 40
0.09
  9
$DIMTSZ
 40
0.0
  9
$DIMTOL
 70
     0
  9
$DIMLIM
 70
     0
  9
$DIMTIH
 70
     1
  9
$DIMTOH
 70
     1
  9
$DIMSE1
 70
     0
  9
$DIMSE2
 70
     0
  9
$DIMTAD
 70
     0
  9
$DIMZIN
 70
     0
  9
$DIMBLK
  1

  9
$DIMASO
 70
     1
  9
$DIMSHO
 70
     1
  9
$DIMPOST
  1

  9
$DIMAPOST
  1

  9
$DIMALT
 70
     0
  9
$DIMALTD
 70
     2
  9
$DIMALTF
 40
25.4
  9
$DIMLFAC
 40
1.0
  9
$DIMTOFL
 70
     0
  9
$DIMTVP
 40
0.0
  9
$DIMTIX
 70
     0
  9
$DIMSOXD
 70
     0
  9
$DIMSAH
 70
     0
  9
$DIMBLK1
  1

  9
$DIMBLK2
  1

  9
$DIMSTYLE
  2
Standard
  9
$DIMCLRD
 70
     0
  9
$DIMCLRE
 70
     0
  9
$DIMCLRT
 70
     0
  9
$DIMTFAC
 40
1.0
  9
$DIMGAP
 40
0.06
  9
$DIMJUST
 70
     0
  9
$DIMSD1
 70
     0
  9
$DIMSD2
 70
     0
  9
$DIMTOLJ
 70
     1
  9
$DIMTZIN
 70
     0
  9
$DIMALTZ
 70
     0
  9
$DIMALTTZ
 70
     0
  9
$DIMUPT
 70
     0
  9
$DIMDEC
 70
     2
  9
$DIMTDEC
 70
     2
  9
$DIMALTU
 70
     2
  9
$DIMALTTD
 70
     2
  9
$DIMTXSTY
  7
Standard
  9
$DIMAUNIT
 70
     0
  9
$DIMADEC
 70
     2
  9
$DIMALTRND
 40
0.0
  9
$DIMAZIN
 70
     0
  9
$DIMDSEP
 70
    46
  9
$DIMATFIT
 70
     3
  9
$DIMFRAC
 70
     0
  9
$DIMLDRBLK
  1

  9
$DIMLUNIT
 70
     2
  9
$DIMLWD
 70
    -2
  9
$DIMLWE
 70
    -2
  9
$DIMTMOVE
 70
     0
  9
$LUNITS
 70
     2
  9
$LUPREC
 70
     2
  9
$SKETCHINC
 40
0.1
  9
$FILLETRAD
 40
0.5
  9
$AUNITS
 70
     0
  9
$AUPREC
 70
     2
  9
$MENU
  1
.
  9
$ELEVATION
 40
0.0
  9
$PELEVATION
 40
0.0
  9
$THICKNESS
 40
0.0
  9
$LIMCHECK
 70
     0
  9
$CHAMFERA
 40
0.5
  9
$CHAMFERB
 40
0.5
  9
$CHAMFERC
 40
1.0
  9
$CHAMFERD
 40
0.0
  9
$SKPOLY
 70
     0
  9
$TDCREATE
 40
2456328.821684398
  9
$TDUCREATE
 40
2456329.030017732
  9
$TDUPDATE
 40
2456328.821685787
  9
$TDUUPDATE
 40
2456329.03001912
  9
$TDINDWG
 40
0.0000000116
  9
$TDUSRTIMER
 40
0.0000000116
  9
$USRTIMER
 70
     1
  9
$ANGBASE
 50
0.0
  9
$ANGDIR
 70
     0
  9
$PDMODE
 70
     0
  9
$PDSIZE
 40
-1.0
  9
$PLINEWID
 40
0.0
  9
$SPLFRAME
 70
     0
  9
$SPLINETYPE
 70
     6
  9
$SPLINESEGS
 70
     8
  9
$HANDSEED
  5
2C2
  9
$SURFTAB1
 70
     6
  9
$SURFTAB2
 70
     6
  9
$SURFTYPE
 70
     6
  9
$SURFU
 70
     6
  9
$SURFV
 70
     6
  9
$UCSBASE
  2

  9
$UCSNAME
  2

  9
$UCSORG
 10
0.0
 20
0.0
 30
0.0
  9
$UCSXDIR
 10
1.0
 20
0.0
 30
0.0
  9
$UCSYDIR
 10
0.0
 20
1.0
 30
0.0
  9
$UCSORTHOREF
  2

  9
$UCSORTHOVIEW
 70
     0
  9
$UCSORGTOP
 10
0.0
 20
0.0
 30
0.0
  9
$UCSORGBOTTOM
 10
0.0
 20
0.0
 30
0.0
  9
$UCSORGLEFT
 10
0.0
 20
0.0
 30
0.0
  9
$UCSORGRIGHT
 10
0.0
 20
0.0
 30
0.0
  9
$UCSORGFRONT
 10
0.0
 20
0.0
 30
0.0
  9
$UCSORGBACK
 10
0.0
 20
0.0
 30
0.0
  9
$PUCSBASE
  2

  9
$PUCSNAME
  2

  9
$PUCSORG
 10
0.0
 20
0.0
 30
0.0
  9
$PUCSXDIR
 10
1.0
 20
0.0
 30
0.0
  9
$PUCSYDIR
 10
0.0
 20
1.0
 30
0.0
  9
$PUCSORTHOREF
  2

  9
$PUCSORTHOVIEW
 70
     0
  9
$PUCSORGTOP
 10
0.0
 20
0.0
 30
0.0
  9
$PUCSORGBOTTOM
 10
0.0
 20
0.0
 30
0.0
  9
$PUCSORGLEFT
 10
0.0
 20
0.0
 30
0.0
  9
$PUCSORGRIGHT
 10
0.0
 20
0.0
 30
0.0
  9
$PUCSORGFRONT
 10
0.0
 20
0.0
 30
0.0
  9
$PUCSORGBACK
 10
0.0
 20
0.0
 30
0.0
  9
$USERI1
 70
     0
  9
$USERI2
 70
     0
  9
$USERI3
 70
     0
  9
$USERI4
 70
     0
  9
$USERI5
 70
     0
  9
$USERR1
 40
0.0
  9
$USERR2
 40
0.0
  9
$USERR3
 40
0.0
  9
$USERR4
 40
0.0
  9
$USERR5
 40
0.0
  9
$WORLDVIEW
 70
     1
  9
$SHADEDGE
 70
     3
  9
$SHADEDIF
 70
    70
  9
$TILEMODE
 70
     1
  9
$MAXACTVP
 70
    64
  9
$PINSBASE
 10
0.0
 20
0.0
 30
0.0
  9
$PLIMCHECK
 70
     0
  9
$PEXTMIN
 10
1.0000000000E+20
 20
1.0000000000E+20
 30
1.0000000000E+20
  9
$PEXTMAX
 10
-1.0000000000E+20
 20
-1.0000000000E+20
 30
-1.0000000000E+20
  9
$PLIMMIN
 10
0.0
 20
0.0
  9
$PLIMMAX
 10
12.0
 20
9.0
  9
$UNITMODE
 70
     0
  9
$VISRETAIN
 70
     1
  9
$PLINEGEN
 70
     0
  9
$PSLTSCALE
 70
     1
  9
$TREEDEPTH
 70
  3020
  9
$CMLSTYLE
  2
Standard
  9
$CMLJUST
 70
     0
  9
$CMLSCALE
 40
1.0
  9
$PROXYGRAPHICS
 70
     1
  9
$MEASUREMENT
 70
     0
  9
$CELWEIGHT
370
    -1
  9
$ENDCAPS
280
     0
  9
$JOINSTYLE
280
     0
  9
$LWDISPLAY
290
     1
  9
$INSUNITS
 70
     1
  9
$HYPERLINKBASE
  1

  9
$STYLESHEET
  1

  9
$XEDIT
290
     1
  9
$CEPSNTYPE
380
     0
  9
$PSTYLEMODE
290
     1
  9
$FINGERPRINTGUID
  2
{A8BA66E1-D67C-4EEC-9896-EE2AF17B79E3}
  9
$VERSIONGUID
  2
{FAEB1C32-E019-11D5-929B-00C0DF256EC4}
  9
$EXTNAMES
290
     1
  9
$PSVPSCALE
 40
0.0
  9
$OLESTARTUP
290
     0
  0
ENDSEC
  0
SECTION
  2
CLASSES
  0
CLASS
  1
ACDBDICTIONARYWDFLT
  2
AcDbDictionaryWithDefault
  3
ObjectDBX Classes
 90
        0
280
     0
281
     0
  0
CLASS
  1
VISUALSTYLE
  2
AcDbVisualStyle
  3
ObjectDBX Classes
 90
     4095
280
     0
281
     0
  0
CLASS
  1
MATERIAL
  2
AcDbMaterial
  3
ObjectDBX Classes
 90
     1153
280
     0
281
     0
  0
CLASS
  1
ACDBPLACEHOLDER
  2
AcDbPlaceHolder
  3
ObjectDBX Classes
 90
        0
280
     0
281
     0
  0
CLASS
  1
LAYOUT
  2
AcDbLayout
  3
ObjectDBX Classes
 90
        0
280
     0
281
     0
  0
ENDSEC
  0
SECTION
  2
TABLES
  0
TABLE
  2
VPORT
  5
8
330
0
100
AcDbSymbolTable
 70
     1
  0
VPORT
  5
29
330
8
100
AcDbSymbolTableRecord
100
AcDbViewportTableRecord
  2
*Active
 70
     0
 10
0.0
 20
0.0
 11
1.0
 21
1.0
 12
4.25
 22
5.5
 13
0.0
 23
0.0
 14
0.5
 24
0.5
 15
0.5
 25
0.5
 16
0.0
 26
0.0
 36
1.0
 17
0.0
 27
0.0
 37
0.0
 40
11.0
 41
0.7727272727
 42
50.0
 43
0.0
 44
0.0
 50
0.0
 51
0.0
 71
     0
 72
  2000
 73
     1
 74
     3
 75
     0
 76
     0
 77
     0
 78
     0
281
     0
 65
     1
110
0.0
120
0.0
130
0.0
111
1.0
121
0.0
131
0.0
112
0.0
122
1.0
132
0.0
 79
     0
146
0.0
  0
ENDTAB
  0
TABLE
  2
LTYPE
  5
5
330
0
100
AcDbSymbolTable
 70
     6
  0
LTYPE
  5
14
330
5
100
AcDbSymbolTableRecord
100
AcDbLinetypeTableRecord
  2
ByBlock
 70
     0
  3

 72
    65
 73
     0
 40
0.0
  0
LTYPE
  5
15
330
5
100
AcDbSymbolTableRecord
100
AcDbLinetypeTableRecord
  2
ByLayer
 70
     0
  3

 72
    65
 73
     0
 40
0.0
  0
LTYPE
  5
16
330
5
100
AcDbSymbolTableRecord
100
AcDbLinetypeTableRecord
  2
Continuous
 70
     0
  3
Solid line
 72
    65
 73
     0
 40
0.0
  0
LTYPE
  5
3F
330
5
100
AcDbSymbolTableRecord
100
AcDbLinetypeTableRecord
  2
HIDDEN
 70
     0
  3
Hidden __ __ __ __ __ __ __ __ __ __ __ __ __ __
 72
    65
 73
     2
 40
0.075
 49
0.05
 74
     0
 49
-0.025
 74
     0
  0
LTYPE
  5
40
330
5
100
AcDbSymbolTableRecord
100
AcDbLinetypeTableRecord
  2
PHANTOM
 70
     0
  3
Phantom ______  __  __  ______  __  __  ______
 72
    65
 73
     6
 40
0.5
 49
0.25
 74
     0
 49
-0.05
 74
     0
 49
0.05
 74
     0
 49
-0.05
 74
     0
 49
0.05
 74
     0
 49
-0.05
 74
     0
  0
LTYPE
  5
41
330
5
100
AcDbSymbolTableRecord
100
AcDbLinetypeTableRecord
  2
CENTER
 70
     0
  3
Center ____ _ ____ _ ____ _ ____ _ ____ _ ____
 72
    65
 73
     4
 40
0.4
 49
0.25
 74
     0
 49
-0.05
 74
     0
 49
0.05
 74
     0
 49
-0.05
 74
     0
  0
LTYPE
  5
42
330
5
100
AcDbSymbolTableRecord
100
AcDbLinetypeTableRecord
  2
CENTERX2
 70
     0
  3
Center (2x) ________  __  ________  __  _____
 72
    65
 73
     4
 40
0.8
 49
0.5
 74
     0
 49
-0.1
 74
     0
 49
0.1
 74
     0
 49
-0.1
 74
     0
  0
LTYPE
  5
43
330
5
100
AcDbSymbolTableRecord
100
AcDbLinetypeTableRecord
  2
DOT2
 70
     0
  3
Dot (.5x) ........................................
 72
    65
 73
     2
 40
0.025
 49
0.0
 74
     0
 49
-0.025
 74
     0
  0
ENDTAB
  0
TABLE
  2
LAYER
  5
2
330
0
100
AcDbSymbolTable
 70
     2
  0
LAYER
  5
10
330
2
100
AcDbSymbolTableRecord
100
AcDbLayerTableRecord
  2
0
 70
     0
 62
     7
  6
Continuous
370
    -3
390
F
  0
LAYER
  5
44
330
2
100
AcDbSymbolTableRecord
100
AcDbLayerTableRecord
  2
FORMAT
 70
     0
 62
     7
  6
Continuous
370
    -3
390
F
  0
ENDTAB
  0
TABLE
  2
STYLE
  5
3
330
0
100
AcDbSymbolTable
 70
     5
  0
STYLE
  5
11
330
3
100
AcDbSymbolTableRecord
100
AcDbTextStyleTableRecord
  2
Standard
 70
     0
 40
0.0
 41
1.0
 50
0.0
 71
     0
 42
0.125
  3
txt
  4

  0
STYLE
  5
6A
330
3
100
AcDbSymbolTableRecord
100
AcDbTextStyleTableRecord
  2
SLDTEXTSTYLE0
 70
     0
 40
0.0
 41
0.75
 50
0.0
 71
     0
 42
0.2
  3
TXT
  4

  0
STYLE
  5
7A
330
3
100
AcDbSymbolTableRecord
100
AcDbTextStyleTableRecord
  2
SLDTEXTSTYLE1
 70
     0
 40
0.0
 41
0.6875
 50
0.0
 71
     0
 42
0.2
  3
TXT
  4

  0
STYLE
  5
96
330
3
100
AcDbSymbolTableRecord
100
AcDbTextStyleTableRecord
  2
SLDTEXTSTYLE2
 70
     0
 40
0.0
 41
0.6847826087
 50
0.0
 71
     0
 42
0.2
  3
TXT
  4

  0
STYLE
  5
9C
330
3
100
AcDbSymbolTableRecord
100
AcDbTextStyleTableRecord
  2
SLDTEXTSTYLE3
 70
     0
 40
0.0
 41
0.6944444444
 50
0.0
 71
     0
 42
0.2
  3
TXT
  4

  0
ENDTAB
  0
TABLE
  2
VIEW
  5
6
330
0
100
AcDbSymbolTable
 70
     0
  0
ENDTAB
  0
TABLE
  2
UCS
  5
7
330
0
100
AcDbSymbolTable
 70
     0
  0
ENDTAB
  0
TABLE
  2
APPID
  5
9
330
0
100
AcDbSymbolTable
 70
     1
  0
APPID
  5
12
330
9
100
AcDbSymbolTableRecord
100
AcDbRegAppTableRecord
  2
ACAD
 70
     0
  0
ENDTAB
  0
TABLE
  2
DIMSTYLE
  5
A
330
0
100
AcDbSymbolTable
 70
     1
100
AcDbDimStyleTable
  0
DIMSTYLE
105
27
330
A
100
AcDbSymbolTableRecord
100
AcDbDimStyleTableRecord
  2
Standard
 70
     0
178
     0
340
11
  0
ENDTAB
  0
TABLE
  2
BLOCK_RECORD
  5
1
330
0
100
AcDbSymbolTable
 70
     3
  0
BLOCK_RECORD
  5
1F
330
1
100
AcDbSymbolTableRecord
100
AcDbBlockTableRecord
  2
*Model_Space
340
22
  0
BLOCK_RECORD
  5
1B
330
1
100
AcDbSymbolTableRecord
100
AcDbBlockTableRecord
  2
*Paper_Space
340
1E
  0
BLOCK_RECORD
  5
23
330
1
100
AcDbSymbolTableRecord
100
AcDbBlockTableRecord
  2
*Paper_Space0
340
26
  0
BLOCK_RECORD
  5
6E
330
1
100
AcDbSymbolTableRecord
100
AcDbBlockTableRecord
  2
SW_NOTE_0
340
0
102
{BLKREFS
331
78
102
}
  0
BLOCK_RECORD
  5
83
330
1
100
AcDbSymbolTableRecord
100
AcDbBlockTableRecord
  2
SW_NOTE_1
340
0
102
{BLKREFS
331
92
102
}
  0
ENDTAB
  0
ENDSEC
  0
SECTION
  2
BLOCKS
  0
BLOCK
  5
20
330
1F
100
AcDbEntity
  8
0
100
AcDbBlockBegin
  2
*Model_Space
 70
     0
 10
0.0
 20
0.0
 30
0.0
  3
*Model_Space
  1

  0
ENDBLK
  5
21
330
1F
100
AcDbEntity
  8
0
100
AcDbBlockEnd
  0
BLOCK
  5
1C
330
1B
100
AcDbEntity
 67
     1
  8
0
100
AcDbBlockBegin
  2
*Paper_Space
 70
     0
 10
0.0
 20
0.0
 30
0.0
  3
*Paper_Space
  1

  0
ENDBLK
  5
1D
330
1B
100
AcDbEntity
 67
     1
  8
0
100
AcDbBlockEnd
  0
BLOCK
  5
24
330
23
100
AcDbEntity
  8
0
100
AcDbBlockBegin
  2
*Paper_Space0
 70
     0
 10
0.0
 20
0.0
 30
0.0
  3
*Paper_Space0
  1

  0
ENDBLK
  5
25
330
23
100
AcDbEntity
  8
0
100
AcDbBlockEnd
  0
BLOCK
  5
6F
330
6E
100
AcDbEntity
  8
0
100
AcDbBlockBegin
  2
SW_NOTE_0
 70
     0
 10
0.0
 20
0.0
 30
0.0
  3
SW_NOTE_0
  1

  0
MTEXT
  5
71
330
6E
100
AcDbEntity
  8
0
  6
Continuous
 62
     0
370
     0
100
AcDbMText
 10
0.0
 20
0.0773440644
 30
0.0
 40
0.06
 41
0.0
 71
     1
 72
     1
  1
THE INFORMATION CONTAINED IN THIS
  7
SLDTEXTSTYLE0
 73
     1
 44
1.0
  0
MTEXT
  5
72
330
6E
100
AcDbEntity
  8
0
  6
Continuous
 62
     0
370
     0
100
AcDbMText
 10
0.0
 20
-0.0220260102
 30
0.0
 40
0.06
 41
0.0
 71
     1
 72
     1
  1
DRAWING IS THE SOLE PROPERTY OF
  7
SLDTEXTSTYLE0
 73
     1
 44
1.0
  0
MTEXT
  5
73
330
6E
100
AcDbEntity
  8
0
  6
Continuous
 62
     0
370
     0
100
AcDbMText
 10
0.0
 20
-0.1213960848
 30
0.0
 40
0.06
 41
0.0
 71
     1
 72
     1
  1
<INSERT COMPANY NAME HERE>.  ANY
  7
SLDTEXTSTYLE0
 73
     1
 44
1.0
  0
MTEXT
  5
74
330
6E
100
AcDbEntity
  8
0
  6
Continuous
 62
     0
370
     0
100
AcDbMText
 10
0.0
 20
-0.2207661593
 30
0.0
 40
0.06
 41
0.0
 71
     1
 72
     1
  1
REPRODUCTION IN PART OR AS A WHOLE
  7
SLDTEXTSTYLE0
 73
     1
 44
1.0
  0
MTEXT
  5
75
330
6E
100
AcDbEntity
  8
0
  6
Continuous
 62
     0
370
     0
100
AcDbMText
 10
0.0
 20
-0.3201362339
 30
0.0
 40
0.06
 41
0.0
 71
     1
 72
     1
  1
WITHOUT THE WRITTEN PERMISSION OF
  7
SLDTEXTSTYLE0
 73
     1
 44
1.0
  0
MTEXT
  5
76
330
6E
100
AcDbEntity
  8
0
  6
Continuous
 62
     0
370
     0
100
AcDbMText
 10
0.0
 20
-0.4195063085
 30
0.0
 40
0.06
 41
0.0
 71
     1
 72
     1
  1
<INSERT COMPANY NAME HERE> IS
  7
SLDTEXTSTYLE0
 73
     1
 44
1.0
  0
MTEXT
  5
77
330
6E
100
AcDbEntity
  8
0
  6
Continuous
 62
     0
370
     0
100
AcDbMText
 10
0.0
 20
-0.518876383
 30
0.0
 40
0.06
 41
0.0
 71
     1
 72
     1
  1
PROHIBITED.
  7
SLDTEXTSTYLE0
 73
     1
 44
1.0
  0
ENDBLK
  5
70
330
6E
100
AcDbEntity
  8
0
100
AcDbBlockEnd
  0
BLOCK
  5
84
330
83
100
AcDbEntity
  8
0
100
AcDbBlockBegin
  2
SW_NOTE_1
 70
     0
 10
0.0
 20
0.0
 30
0.0
  3
SW_NOTE_1
  1

  0
MTEXT
  5
86
330
83
100
AcDbEntity
  8
0
  6
Continuous
 62
     0
370
     0
100
AcDbMText
 10
0.0
 20
0.0805667337
 30
0.0
 40
0.0625
 41
0.0
 71
     1
 72
     1
  1
DIMENSIONS ARE IN INCHES
  7
SLDTEXTSTYLE0
 73
     1
 44
1.0
  0
MTEXT
  5
87
330
83
100
AcDbEntity
  8
0
  6
Continuous
 62
     0
370
     0
100
AcDbMText
 10
0.0
 20
-0.0213033461
 30
0.0
 40
0.0625
 41
0.0
 71
     1
 72
     1
  1
TOLERANCES:
  7
SLDTEXTSTYLE0
 73
     1
 44
1.0
  0
MTEXT
  5
88
330
83
100
AcDbEntity
  8
0
  6
Continuous
 62
     0
370
     0
100
AcDbMText
 10
0.0
 20
-0.123173426
 30
0.0
 40
0.0625
 41
0.0
 71
     1
 72
     1
  1
FRACTIONAL
  7
SLDTEXTSTYLE0
 73
     1
 44
1.0
  0
MTEXT
  5
89
330
83
100
AcDbEntity
  8
0
  6
Continuous
 62
     0
370
     0
100
AcDbMText
 10
0.4976779574
 20
-0.123173426
 30
0.0
 40
0.0625
 41
0.0
 71
     1
 72
     1
  1
%%p
  7
SLDTEXTSTYLE0
 73
     1
 44
1.0
  0
MTEXT
  5
8A
330
83
100
AcDbEntity
  8
0
  6
Continuous
 62
     0
370
     0
100
AcDbMText
 10
0.0
 20
-0.2250435058
 30
0.0
 40
0.0625
 41
0.0
 71
     1
 72
     1
  1
ANGULAR: MACH
  7
SLDTEXTSTYLE0
 73
     1
 44
1.0
  0
MTEXT
  5
8B
330
83
100
AcDbEntity
  8
0
  6
Continuous
 62
     0
370
     0
100
AcDbMText
 10
0.6955512249
 20
-0.2250435058
 30
0.0
 40
0.0625
 41
0.0
 71
     1
 72
     1
  1
%%p
  7
SLDTEXTSTYLE0
 73
     1
 44
1.0
  0
MTEXT
  5
8C
330
83
100
AcDbEntity
  8
0
  6
Continuous
 62
     0
370
     0
100
AcDbMText
 10
0.8722699639
 20
-0.2250435058
 30
0.0
 40
0.0625
 41
0.0
 71
     1
 72
     1
  1
BEND
  7
SLDTEXTSTYLE0
 73
     1
 44
1.0
  0
MTEXT
  5
8D
330
83
100
AcDbEntity
  8
0
  6
Continuous
 62
     0
370
     0
100
AcDbMText
 10
1.10369359
 20
-0.2250435058
 30
0.0
 40
0.0625
 41
0.0
 71
     1
 72
     1
  1
%%p
  7
SLDTEXTSTYLE0
 73
     1
 44
1.0
  0
MTEXT
  5
8E
330
83
100
AcDbEntity
  8
0
  6
Continuous
 62
     0
370
     0
100
AcDbMText
 10
0.0
 20
-0.3269135857
 30
0.0
 40
0.0625
 41
0.0
 71
     1
 72
     1
  1
TWO PLACE DECIMAL
  7
SLDTEXTSTYLE0
 73
     1
 44
1.0
  0
MTEXT
  5
8F
330
83
100
AcDbEntity
  8
0
  6
Continuous
 62
     0
370
     0
100
AcDbMText
 10
0.941764314
 20
-0.3269135857
 30
0.0
 40
0.0625
 41
0.0
 71
     1
 72
     1
  1
%%p
  7
SLDTEXTSTYLE0
 73
     1
 44
1.0
  0
MTEXT
  5
90
330
83
100
AcDbEntity
  8
0
  6
Continuous
 62
     0
370
     0
100
AcDbMText
 10
0.0
 20
-0.4287836655
 30
0.0
 40
0.0625
 41
0.0
 71
     1
 72
     1
  1
THREE PLACE DECIMAL
  7
SLDTEXTSTYLE0
 73
     1
 44
1.0
  0
MTEXT
  5
91
330
83
100
AcDbEntity
  8
0
  6
Continuous
 62
     0
370
     0
100
AcDbMText
 10
0.9363498099
 20
-0.4287836655
 30
0.0
 40
0.0625
 41
0.0
 71
     1
 72
     1
  1
%%p
  7
SLDTEXTSTYLE0
 73
     1
 44
1.0
  0
ENDBLK
  5
85
330
83
100
AcDbEntity
  8
0
100
AcDbBlockEnd
  0
ENDSEC
  0
SECTION
  2
ENTITIES
  0
LINE
  5
45
330
1F
100
AcDbEntity
  8
0
  6
Continuous
 62
     7
370
     0
100
AcDbLine
 10
3.125
 20
0.25
 30
0.0
 11
3.125
 21
1.75
 31
0.0
  0
LINE
  5
46
330
1F
100
AcDbEntity
  8
0
  6
Continuous
 62
     7
370
     0
100
AcDbLine
 10
3.125
 20
1.75
 30
0.0
 11
8.125
 21
1.75
 31
0.0
  0
LINE
  5
47
330
1F
100
AcDbEntity
  8
0
  6
Continuous
 62
     7
370
     0
100
AcDbLine
 10
4.4419886686
 20
1.75
 30
0.0
 11
4.4419886686
 21
0.25
 31
0.0
  0
LINE
  5
48
330
1F
100
AcDbEntity
  8
0
  6
Continuous
 62
     7
370
     0
100
AcDbLine
 10
5.8066489986
 20
1.75
 30
0.0
 11
5.8066489986
 21
0.25
 31
0.0
  0
LINE
  5
49
330
1F
100
AcDbEntity
  8
0
  6
Continuous
 62
     7
370
     0
100
AcDbLine
 10
0.375
 20
10.75
 30
0.0
 11
8.125
 21
10.75
 31
0.0
  0
LINE
  5
4A
330
1F
100
AcDbEntity
  8
0
  6
Continuous
 62
     7
370
     0
100
AcDbLine
 10
0.375
 20
10.75
 30
0.0
 11
0.375
 21
0.25
 31
0.0
  0
LINE
  5
4B
330
1F
100
AcDbEntity
  8
0
  6
Continuous
 62
     7
370
     0
100
AcDbLine
 10
5.8066489986
 20
0.375
 30
0.0
 11
8.125
 21
0.375
 31
0.0
  0
LINE
  5
4C
330
1F
100
AcDbEntity
  8
0
  6
Continuous
 62
     7
370
     0
100
AcDbLine
 10
8.125
 20
0.25
 30
0.0
 11
8.125
 21
10.75
 31
0.0
  0
LINE
  5
4D
330
1F
100
AcDbEntity
  8
0
  6
Continuous
 62
     7
370
     0
100
AcDbLine
 10
5.8066489986
 20
0.625
 30
0.0
 11
8.125
 21
0.625
 31
0.0
  0
LINE
  5
4E
330
1F
100
AcDbEntity
  8
0
  6
Continuous
 62
     7
370
     0
100
AcDbLine
 10
4.4419886686
 20
0.85
 30
0.0
 11
5.8066489986
 21
0.85
 31
0.0
  0
LINE
  5
4F
330
1F
100
AcDbEntity
  8
0
  6
Continuous
 62
     7
370
     0
100
AcDbLine
 10
6.0073578799
 20
0.625
 30
0.0
 11
6.0073578799
 21
0.375
 31
0.0
  0
LINE
  5
50
330
1F
100
AcDbEntity
  8
0
  6
Continuous
 62
     7
370
     0
100
AcDbLine
 10
7.4436488056
 20
0.375
 30
0.0
 11
7.4436488056
 21
0.25
 31
0.0
  0
LINE
  5
51
330
1F
100
AcDbEntity
  8
0
  6
Continuous
 62
     7
370
     0
100
AcDbLine
 10
7.8718261005
 20
0.625
 30
0.0
 11
7.8718261005
 21
0.375
 31
0.0
  0
LINE
  5
52
330
1F
100
AcDbEntity
  8
0
  6
Continuous
 62
     7
370
     0
100
AcDbLine
 10
6.2742097441
 20
0.375
 30
0.0
 11
6.2742097441
 21
0.25
 31
0.0
  0
LINE
  5
53
330
1F
100
AcDbEntity
  8
0
  6
Continuous
 62
     7
370
     0
100
AcDbLine
 10
5.344545244
 20
1.75
 30
0.0
 11
5.344545244
 21
0.85
 31
0.0
  0
LINE
  5
54
330
1F
100
AcDbEntity
  8
0
  6
Continuous
 62
     7
370
     0
100
AcDbLine
 10
3.125
 20
0.4774485307
 30
0.0
 11
4.4419886686
 21
0.4774485307
 31
0.0
  0
LINE
  5
55
330
1F
100
AcDbEntity
  8
0
  6
Continuous
 62
     7
370
     0
100
AcDbLine
 10
4.4419886686
 20
1.6
 30
0.0
 11
5.8066489986
 21
1.6
 31
0.0
  0
LINE
  5
56
330
1F
100
AcDbEntity
  8
0
  6
Continuous
 62
     7
370
     0
100
AcDbLine
 10
4.8685032061
 20
1.75
 30
0.0
 11
4.8685032061
 21
0.85
 31
0.0
  0
LINE
  5
57
330
1F
100
AcDbEntity
  8
0
  6
Continuous
 62
     7
370
     0
100
AcDbLine
 10
3.125
 20
0.7274485307
 30
0.0
 11
4.4419886686
 21
0.7274485307
 31
0.0
  0
LINE
  5
58
330
1F
100
AcDbEntity
  8
0
  6
Continuous
 62
     7
370
     0
100
AcDbLine
 10
4.4419886686
 20
0.9726424113
 30
0.0
 11
3.125
 21
0.9726424113
 31
0.0
  0
LINE
  5
59
330
1F
100
AcDbEntity
  8
0
  6
Continuous
 62
     7
370
     0
100
AcDbLine
 10
2.0925117755
 20
0.25
 30
0.0
 11
2.0925117755
 21
1.75
 31
0.0
  0
LINE
  5
5A
330
1F
100
AcDbEntity
  8
0
  6
Continuous
 62
     7
370
     0
100
AcDbLine
 10
2.0925117755
 20
1.75
 30
0.0
 11
3.125
 21
1.75
 31
0.0
  0
LINE
  5
5B
330
1F
100
AcDbEntity
  8
0
  6
Continuous
 62
     7
370
     0
100
AcDbLine
 10
3.125
 20
0.4774485307
 30
0.0
 11
2.0925117755
 21
0.4774485307
 31
0.0
  0
LINE
  5
5C
330
1F
100
AcDbEntity
  8
0
  6
Continuous
 62
     7
370
     0
100
AcDbLine
 10
2.0925117755
 20
1.15
 30
0.0
 11
0.375
 21
1.15
 31
0.0
  0
LINE
  5
5D
330
1F
100
AcDbEntity
  8
0
  6
Continuous
 62
     7
370
     0
100
AcDbLine
 10
8.125
 20
0.25
 30
0.0
 11
0.375
 21
0.25
 31
0.0
  0
LINE
  5
5E
330
1F
100
AcDbEntity
  8
0
  6
Continuous
 62
     7
370
     0
100
AcDbLine
 10
2.6142417755
 20
1.75
 30
0.0
 11
2.6142417755
 21
0.4774485307
 31
0.0
  0
LINE
  5
5F
330
1F
100
AcDbEntity
  8
0
  6
Continuous
 62
     7
370
     0
100
AcDbLine
 10
4.4419886686
 20
1.45
 30
0.0
 11
8.125
 21
1.45
 31
0.0
  0
LINE
  5
60
330
1F
100
AcDbEntity
  8
0
  6
Continuous
 62
     7
370
     0
100
AcDbLine
 10
4.4419886686
 20
1.3
 30
0.0
 11
5.8066489986
 21
1.3
 31
0.0
  0
LINE
  5
61
330
1F
100
AcDbEntity
  8
0
  6
Continuous
 62
     7
370
     0
100
AcDbLine
 10
4.4419886686
 20
1.15
 30
0.0
 11
5.8066489986
 21
1.15
 31
0.0
  0
LINE
  5
62
330
1F
100
AcDbEntity
  8
0
  6
Continuous
 62
     7
370
     0
100
AcDbLine
 10
4.4419886686
 20
1.0
 30
0.0
 11
5.8066489986
 21
1.0
 31
0.0
  0
LINE
  5
63
330
1F
100
AcDbEntity
  8
0
  6
Continuous
 62
     7
370
     0
100
AcDbLine
 10
2.0925117755
 20
1.6
 30
0.0
 11
3.125
 21
1.6
 31
0.0
  0
LINE
  5
64
330
1F
100
AcDbEntity
  8
0
  6
Continuous
 62
     7
370
     0
100
AcDbLine
 10
2.0925117755
 20
1.45
 30
0.0
 11
3.125
 21
1.45
 31
0.0
  0
LINE
  5
65
330
1F
100
AcDbEntity
  8
0
  6
Continuous
 62
     7
370
     0
100
AcDbLine
 10
2.0925117755
 20
1.3
 30
0.0
 11
3.125
 21
1.3
 31
0.0
  0
LINE
  5
66
330
1F
100
AcDbEntity
  8
0
  6
Continuous
 62
     7
370
     0
100
AcDbLine
 10
2.0925117755
 20
1.15
 30
0.0
 11
3.125
 21
1.15
 31
0.0
  0
LINE
  5
67
330
1F
100
AcDbEntity
  8
0
  6
Continuous
 62
     7
370
     0
100
AcDbLine
 10
2.0925117755
 20
1.0
 30
0.0
 11
3.125
 21
1.0
 31
0.0
  0
LINE
  5
68
330
1F
100
AcDbEntity
  8
0
  6
Continuous
 62
     7
370
     0
100
AcDbLine
 10
2.0925117755
 20
0.85
 30
0.0
 11
3.125
 21
0.85
 31
0.0
  0
LINE
  5
69
330
1F
100
AcDbEntity
  8
0
  6
Continuous
 62
     7
370
     0
100
AcDbLine
 10
2.0925117755
 20
0.7
 30
0.0
 11
3.125
 21
0.7
 31
0.0
  0
MTEXT
  5
6B
330
1F
100
AcDbEntity
  8
0
  6
Continuous
 62
     7
370
     0
100
AcDbMText
 10
6.292880895
 20
0.3389726629
 30
0.0
 40
0.05
 41
0.0
 71
     1
 72
     1
  1
WEIGHT:
  7
SLDTEXTSTYLE0
 73
     1
 44
1.0
  0
MTEXT
  5
6C
330
1F
100
AcDbEntity
  8
0
  6
Continuous
 62
     7
370
     0
100
AcDbMText
 10
6.9457542462
 20
0.5451064708
 30
0.0
 40
0.125
 41
0.0
 71
     2
 72
     1
  1
flexDrive_spring_16drives_rev1.0
  7
SLDTEXTSTYLE0
 73
     1
 44
1.0
  0
MTEXT
  5
6D
330
1F
100
AcDbEntity
  8
0
  6
Continuous
 62
     7
370
     0
100
AcDbMText
 10
0.6526292164
 20
1.0930424413
 30
0.0
 40
0.06
 41
0.0
 71
     1
 72
     1
  1
PROPRIETARY AND CONFIDENTIAL
  7
SLDTEXTSTYLE0
 73
     1
 44
1.0
  0
INSERT
  5
78
330
1F
100
AcDbEntity
  8
0
  6
Continuous
 62
     7
370
     0
100
AcDbBlockReference
  2
SW_NOTE_0
 10
0.5031614308
 20
0.8948876626
 30
0.0
  0
MTEXT
  5
79
330
1F
100
AcDbEntity
  8
0
  6
Continuous
 62
     7
370
     0
100
AcDbMText
 10
4.4844266197
 20
0.8200064524
 30
0.0
 40
0.0520833333
 41
0.0
 71
     1
 72
     1
  1
COMMENTS:
  7
SLDTEXTSTYLE0
 73
     1
 44
1.0
  0
MTEXT
  5
7B
330
1F
100
AcDbEntity
  8
0
  6
Continuous
 62
     7
370
     0
100
AcDbMText
 10
7.4604380838
 20
0.3384941321
 30
0.0
 40
0.05
 41
0.0
 71
     1
 72
     1
  1
SHEET 1 OF 1
  7
SLDTEXTSTYLE1
 73
     1
 44
1.0
  0
MTEXT
  5
7C
330
1F
100
AcDbEntity
  8
0
  6
Continuous
 62
     7
370
     0
100
AcDbMText
 10
4.4820155693
 20
0.9589694829
 30
0.0
 40
0.0520833333
 41
0.0
 71
     1
 72
     1
  1
Q.A.
  7
SLDTEXTSTYLE0
 73
     1
 44
1.0
  0
MTEXT
  5
7D
330
1F
100
AcDbEntity
  8
0
  6
Continuous
 62
     7
370
     0
100
AcDbMText
 10
4.4781393238
 20
1.1063026196
 30
0.0
 40
0.0520833333
 41
0.0
 71
     1
 72
     1
  1
MFG APPR.
  7
SLDTEXTSTYLE0
 73
     1
 44
1.0
  0
MTEXT
  5
7E
330
1F
100
AcDbEntity
  8
0
  6
Continuous
 62
     7
370
     0
100
AcDbMText
 10
4.4776828737
 20
1.255229751
 30
0.0
 40
0.0520833333
 41
0.0
 71
     1
 72
     1
  1
ENG APPR.
  7
SLDTEXTSTYLE0
 73
     1
 44
1.0
  0
MTEXT
  5
7F
330
1F
100
AcDbEntity
  8
0
  6
Continuous
 62
     7
370
     0
100
AcDbMText
 10
4.4771695014
 20
1.3976228129
 30
0.0
 40
0.0520833333
 41
0.0
 71
     1
 72
     1
  1
CHECKED
  7
SLDTEXTSTYLE0
 73
     1
 44
1.0
  0
MTEXT
  5
80
330
1F
100
AcDbEntity
  8
0
  6
Continuous
 62
     7
370
     0
100
AcDbMText
 10
4.4747749285
 20
1.5573838686
 30
0.0
 40
0.0520833333
 41
0.0
 71
     1
 72
     1
  1
DRAWN
  7
SLDTEXTSTYLE0
 73
     1
 44
1.0
  0
MTEXT
  5
81
330
1F
100
AcDbEntity
  8
0
  6
Continuous
 62
     7
370
     0
100
AcDbMText
 10
5.4876462028
 20
1.7027965001
 30
0.0
 40
0.0520833333
 41
0.0
 71
     1
 72
     1
  1
DATE
  7
SLDTEXTSTYLE0
 73
     1
 44
1.0
  0
MTEXT
  5
82
330
1F
100
AcDbEntity
  8
0
  6
Continuous
 62
     7
370
     0
100
AcDbMText
 10
5.0062161281
 20
1.7048215571
 30
0.0
 40
0.0520833333
 41
0.0
 71
     1
 72
     1
  1
NAME
  7
SLDTEXTSTYLE0
 73
     1
 44
1.0
  0
INSERT
  5
92
330
1F
100
AcDbEntity
  8
0
  6
Continuous
 62
     7
370
     0
100
AcDbBlockReference
  2
SW_NOTE_1
 10
3.176659696
 20
1.5917401208
 30
0.0
  0
MTEXT
  5
93
330
1F
100
AcDbEntity
  8
0
  6
Continuous
 62
     7
370
     0
100
AcDbMText
 10
2.1538407251
 20
0.627776306
 30
0.0
 40
0.0625
 41
0.0
 71
     1
 72
     1
  1
NEXT ASSY
  7
SLDTEXTSTYLE0
 73
     1
 44
1.0
  0
MTEXT
  5
94
330
1F
100
AcDbEntity
  8
0
  6
Continuous
 62
     7
370
     0
100
AcDbMText
 10
2.6920103565
 20
0.6298850942
 30
0.0
 40
0.0625
 41
0.0
 71
     1
 72
     1
  1
USED ON
  7
SLDTEXTSTYLE0
 73
     1
 44
1.0
  0
MTEXT
  5
95
330
1F
100
AcDbEntity
  8
0
  6
Continuous
 62
     7
370
     0
100
AcDbMText
 10
2.3429984944
 20
0.3871538561
 30
0.0
 40
0.0625
 41
0.0
 71
     1
 72
     1
  1
APPLICATION
  7
SLDTEXTSTYLE0
 73
     1
 44
1.0
  0
MTEXT
  5
97
330
1F
100
AcDbEntity
  8
0
  6
Continuous
 62
     7
370
     0
100
AcDbMText
 10
3.2483846481
 20
0.3954447667
 30
0.0
 40
0.0625
 41
0.0
 71
     1
 72
     1
  1
DO  NOT  SCALE  DRAWING
  7
SLDTEXTSTYLE2
 73
     1
 44
1.0
  0
MTEXT
  5
98
330
1F
100
AcDbEntity
  8
0
  6
Continuous
 62
     7
370
     0
100
AcDbMText
 10
3.1686148436
 20
0.6843172438
 30
0.0
 40
0.0520833333
 41
0.0
 71
     1
 72
     1
  1
FINISH
  7
SLDTEXTSTYLE0
 73
     1
 44
1.0
  0
MTEXT
  5
99
330
1F
100
AcDbEntity
  8
0
  6
Continuous
 62
     7
370
     0
100
AcDbMText
 10
3.1697828319
 20
0.9393931759
 30
0.0
 40
0.0520833333
 41
0.0
 71
     1
 72
     1
  1
MATERIAL
  7
SLDTEXTSTYLE0
 73
     1
 44
1.0
  0
MTEXT
  5
9A
330
1F
100
AcDbEntity
  8
0
  6
Continuous
 62
     7
370
     0
100
AcDbMText
 10
7.9125760889
 20
0.5967191242
 30
0.0
 40
0.0520833333
 41
0.0
 71
     1
 72
     1
  1
REV.
  7
SLDTEXTSTYLE0
 73
     1
 44
1.0
  0
MTEXT
  5
9B
330
1F
100
AcDbEntity
  8
0
  6
Continuous
 62
     7
370
     0
100
AcDbMText
 10
5.8569047006
 20
0.5342872308
 30
0.0
 40
0.125
 41
0.0
 71
     1
 72
     1
  1
A
  7
SLDTEXTSTYLE0
 73
     1
 44
1.0
  0
MTEXT
  5
9D
330
1F
100
AcDbEntity
  8
0
  6
Continuous
 62
     7
370
     0
100
AcDbMText
 10
6.0326201596
 20
0.5998128918
 30
0.0
 40
0.0520833333
 41
0.0
 71
     1
 72
     1
  1
DWG.  NO.
  7
SLDTEXTSTYLE3
 73
     1
 44
1.0
  0
MTEXT
  5
9E
330
1F
100
AcDbEntity
  8
0
  6
Continuous
 62
     7
370
     0
100
AcDbMText
 10
5.8376851904
 20
0.6039036644
 30
0.0
 40
0.0520833333
 41
0.0
 71
     1
 72
     1
  1
SIZE
  7
SLDTEXTSTYLE0
 73
     1
 44
1.0
  0
MTEXT
  5
9F
330
1F
100
AcDbEntity
  8
0
  6
Continuous
 62
     7
370
     0
100
AcDbMText
 10
5.8328421992
 20
0.3416976713
 30
0.0
 40
0.0520833333
 41
0.0
 71
     1
 72
     1
  1
SCALE:1:1
  7
SLDTEXTSTYLE0
 73
     1
 44
1.0
  0
LINE
  5
A0
330
1F
100
AcDbEntity
  8
0
  6
Continuous
 62
     7
370
    15
100
AcDbLine
 10
4.5355815213
 20
5.7745367086
 30
0.0
 11
4.4526647725
 21
5.7850115209
 31
0.0
  0
ARC
  5
A1
330
1F
100
AcDbEntity
  8
0
  6
Continuous
 62
     7
370
    15
100
AcDbCircle
 10
4.2195181354
 20
5.8149970652
 30
0.0
 40
0.2350669331392184
100
AcDbArc
 50
352.6712852329
 51
5.4789939977
  0
LINE
  5
A2
330
1F
100
AcDbEntity
  8
0
  6
Continuous
 62
     7
370
    15
100
AcDbLine
 10
4.453511176
 20
5.8374414619
 30
0.0
 11
4.5365260437
 21
5.8479287408
 31
0.0
  0
LINE
  5
A3
330
1F
100
AcDbEntity
  8
0
  6
Continuous
 62
     7
370
    15
100
AcDbLine
 10
4.5365260437
 20
5.8479287408
 30
0.0
 11
4.5357075065
 21
5.8544078126
 31
0.0
  0
LINE
  5
A4
330
1F
100
AcDbEntity
  8
0
  6
Continuous
 62
     7
370
    15
100
AcDbLine
 10
4.5357075065
 20
5.8544078126
 30
0.0
 11
4.452797211
 21
5.8439337336
 31
0.0
  0
ARC
  5
A5
330
1F
100
AcDbEntity
  8
0
  6
Continuous
 62
     7
370
    15
100
AcDbCircle
 10
4.2195181354
 20
5.8149970652
 30
0.0
 40
0.2350669331392179
100
AcDbArc
 50
7.0710388591
 51
19.8791554049
  0
LINE
  5
A6
330
1F
100
AcDbEntity
  8
0
  6
Continuous
 62
     7
370
    15
100
AcDbLine
 10
4.4405778188
 20
5.8949285578
 30
0.0
 11
4.5183705334
 21
5.9257289353
 31
0.0
  0
LINE
  5
A7
330
1F
100
AcDbEntity
  8
0
  6
Continuous
 62
     7
370
    15
100
AcDbLine
 10
4.5183705334
 20
5.9257289353
 30
0.0
 11
4.5159664012
 21
5.9318008652
 31
0.0
  0
LINE
  5
A8
330
1F
100
AcDbEntity
  8
0
  6
Continuous
 62
     7
370
    15
100
AcDbLine
 10
4.5159664012
 20
5.9318008652
 30
0.0
 11
4.4382718054
 21
5.9010395006
 31
0.0
  0
ARC
  5
A9
330
1F
100
AcDbEntity
  8
0
  6
Continuous
 62
     7
370
    15
100
AcDbCircle
 10
4.2195181354
 20
5.8149970652
 30
0.0
 40
0.2350669331392179
100
AcDbArc
 50
21.4712001939
 51
34.2797145618
  0
LINE
  5
AA
330
1F
100
AcDbEntity
  8
0
  6
Continuous
 62
     7
370
    15
100
AcDbLine
 10
4.413753382
 20
5.9473945784
 30
0.0
 11
4.4814372134
 21
5.9965697303
 31
0.0
  0
LINE
  5
AB
330
1F
100
AcDbEntity
  8
0
  6
Continuous
 62
     7
370
    15
100
AcDbLine
 10
4.4814372134
 20
5.9965697303
 30
0.0
 11
4.4775985511
 21
6.0018531893
 31
0.0
  0
LINE
  5
AC
330
1F
100
AcDbEntity
  8
0
  6
Continuous
 62
     7
370
    15
100
AcDbLine
 10
4.4775985511
 20
6.0018531893
 30
0.0
 11
4.4100000787
 21
5.95273993
 31
0.0
  0
ARC
  5
AD
330
1F
100
AcDbEntity
  8
0
  6
Continuous
 62
     7
370
    15
100
AcDbCircle
 10
4.2195181354
 20
5.8149970652
 30
0.0
 40
0.2350669331392178
100
AcDbArc
 50
35.8717591001
 51
48.6806363342
  0
LINE
  5
AE
330
1F
100
AcDbEntity
  8
0
  6
Continuous
 62
     7
370
    15
100
AcDbLine
 10
4.3747223129
 20
5.9915419084
 30
0.0
 11
4.4280467635
 21
6.0560001371
 31
0.0
  0
LINE
  5
AF
330
1F
100
AcDbEntity
  8
0
  6
Continuous
 62
     7
370
    15
100
AcDbLine
 10
4.4280467635
 20
6.0560001371
 30
0.0
 11
4.423014835
 21
6.060162929
 31
0.0
  0
LINE
  5
B0
330
1F
100
AcDbEntity
  8
0
  6
Continuous
 62
     7
370
    15
100
AcDbLine
 10
4.423014835
 20
6.060162929
 30
0.0
 11
4.3697575569
 21
5.995785806
 31
0.0
  0
ARC
  5
B1
330
1F
100
AcDbEntity
  8
0
  6
Continuous
 62
     7
370
    15
100
AcDbCircle
 10
4.2195181354
 20
5.8149970652
 30
0.0
 40
0.2350669331392186
100
AcDbArc
 50
50.2726804595
 51
63.0818628032
  0
LINE
  5
B2
330
1F
100
AcDbEntity
  8
0
  6
Continuous
 62
     7
370
    15
100
AcDbLine
 10
4.3259369965
 20
6.0245954999
 30
0.0
 11
4.3615539983
 21
6.1002857722
 31
0.0
  0
LINE
  5
B3
330
1F
100
AcDbEntity
  8
0
  6
Continuous
 62
     7
370
    15
100
AcDbLine
 10
4.3615539983
 20
6.1002857722
 30
0.0
 11
4.3556450133
 21
6.1030662467
 31
0.0
  0
LINE
  5
B4
330
1F
100
AcDbEntity
  8
0
  6
Continuous
 62
     7
370
    15
100
AcDbLine
 10
4.3556450133
 20
6.1030662467
 30
0.0
 11
4.3200725975
 21
6.02747116
 31
0.0
  0
ARC
  5
B5
330
1F
100
AcDbEntity
  8
0
  6
Continuous
 62
     7
370
    15
100
AcDbCircle
 10
4.2195181354
 20
5.8149970652
 30
0.0
 40
0.2350669331392181
100
AcDbArc
 50
64.6739063797
 51
77.4833169047
  0
LINE
  5
B6
330
1F
100
AcDbEntity
  8
0
  6
Continuous
 62
     7
370
    15
100
AcDbLine
 10
4.2704627306
 20
6.0444771102
 30
0.0
 11
4.2861369629
 21
6.126643961
 31
0.0
  0
LINE
  5
B7
330
1F
100
AcDbEntity
  8
0
  6
Continuous
 62
     7
370
    15
100
AcDbLine
 10
4.2861369629
 20
6.126643961
 30
0.0
 11
4.2797219837
 21
6.1278675869
 31
0.0
  0
LINE
  5
B8
330
1F
100
AcDbEntity
  8
0
  6
Continuous
 62
     7
370
    15
100
AcDbLine
 10
4.2797219837
 20
6.1278675869
 30
0.0
 11
4.2640675512
 21
6.0458039882
 31
0.0
  0
ARC
  5
B9
330
1F
100
AcDbEntity
  8
0
  6
Continuous
 62
     7
370
    15
100
AcDbCircle
 10
4.2195181354
 20
5.8149970652
 30
0.0
 40
0.2350669331392181
100
AcDbArc
 50
79.0753598316
 51
91.8849072719
  0
LINE
  5
BA
330
1F
100
AcDbEntity
  8
0
  6
Continuous
 62
     7
370
    15
100
AcDbLine
 10
4.2117863285
 20
6.0499368605
 30
0.0
 11
4.2065341091
 21
6.1334185628
 31
0.0
  0
LINE
  5
BB
330
1F
100
AcDbEntity
  8
0
  6
Continuous
 62
     7
370
    15
100
AcDbLine
 10
4.2065341091
 20
6.1334185628
 30
0.0
 11
4.2000163178
 21
6.1330084875
 31
0.0
  0
LINE
  5
BC
330
1F
100
AcDbEntity
  8
0
  6
Continuous
 62
     7
370
    15
100
AcDbLine
 10
4.2000163178
 20
6.1330084875
 30
0.0
 11
4.2052620838
 21
6.0496313574
 31
0.0
  0
ARC
  5
BD
330
1F
100
AcDbEntity
  8
0
  6
Continuous
 62
     7
370
    15
100
AcDbCircle
 10
4.2195181354
 20
5.8149970652
 30
0.0
 40
0.2350669331392181
100
AcDbArc
 50
93.4769494894
 51
106.2865339759
  0
LINE
  5
BE
330
1F
100
AcDbEntity
  8
0
  6
Continuous
 62
     7
370
    15
100
AcDbLine
 10
4.1535956807
 20
6.0406311147
 30
0.0
 11
4.127747446
 21
6.1201839557
 31
0.0
  0
LINE
  5
BF
330
1F
100
AcDbEntity
  8
0
  6
Continuous
 62
     7
370
    15
100
AcDbLine
 10
4.127747446
 20
6.1201839557
 30
0.0
 11
4.1215364777
 21
6.1181658456
 31
0.0
  0
LINE
  5
C0
330
1F
100
AcDbEntity
  8
0
  6
Continuous
 62
     7
370
    15
100
AcDbLine
 10
4.1215364777
 20
6.1181658456
 30
0.0
 11
4.1473524461
 21
6.0387124435
 31
0.0
  0
ARC
  5
C1
330
1F
100
AcDbEntity
  8
0
  6
Continuous
 62
     7
370
    15
100
AcDbCircle
 10
4.2195181354
 20
5.8149970652
 30
0.0
 40
0.2350669331392185
100
AcDbArc
 50
107.878575469
 51
120.6880948049
  0
LINE
  5
C2
330
1F
100
AcDbEntity
  8
0
  6
Continuous
 62
     7
370
    15
100
AcDbLine
 10
4.0995483184
 20
6.0171447726
 30
0.0
 11
4.0547272095
 21
6.0877715834
 31
0.0
  0
LINE
  5
C3
330
1F
100
AcDbEntity
  8
0
  6
Continuous
 62
     7
370
    15
100
AcDbLine
 10
4.0547272095
 20
6.0877715834
 30
0.0
 11
4.0492133399
 21
6.0842723038
 31
0.0
  0
LINE
  5
C4
330
1F
100
AcDbEntity
  8
0
  6
Continuous
 62
     7
370
    15
100
AcDbLine
 10
4.0492133399
 20
6.0842723038
 30
0.0
 11
4.0939784227
 21
6.0137336387
 31
0.0
  0
ARC
  5
C5
330
1F
100
AcDbEntity
  8
0
  6
Continuous
 62
     7
370
    15
100
AcDbCircle
 10
4.2195181354
 20
5.8149970652
 30
0.0
 40
0.235066933139219
100
AcDbArc
 50
122.2801356042
 51
135.0894916867
  0
LINE
  5
C6
330
1F
100
AcDbEntity
  8
0
  6
Continuous
 62
     7
370
    15
100
AcDbLine
 10
4.0530412956
 20
5.980954604
 30
0.0
 11
3.9920618134
 21
6.0382181825
 31
0.0
  0
LINE
  5
C7
330
1F
100
AcDbEntity
  8
0
  6
Continuous
 62
     7
370
    15
100
AcDbLine
 10
3.9920618134
 20
6.0382181825
 30
0.0
 11
3.9875913184
 21
6.0334575842
 31
0.0
  0
LINE
  5
C8
330
1F
100
AcDbEntity
  8
0
  6
Continuous
 62
     7
370
    15
100
AcDbLine
 10
3.9875913184
 20
6.0334575842
 30
0.0
 11
4.0484948282
 21
5.9762654315
 31
0.0
  0
ARC
  5
C9
330
1F
100
AcDbEntity
  8
0
  6
Continuous
 62
     7
370
    15
100
AcDbCircle
 10
4.2195181354
 20
5.8149970652
 30
0.0
 40
0.2350669331392188
100
AcDbArc
 50
136.681531866
 51
149.4906368503
  0
LINE
  5
CA
330
1F
100
AcDbEntity
  8
0
  6
Continuous
 62
     7
370
    15
100
AcDbLine
 10
4.0169970587
 20
5.9343356759
 30
0.0
 11
3.9436884789
 21
5.9746374504
 31
0.0
  0
LINE
  5
CB
330
1F
100
AcDbEntity
  8
0
  6
Continuous
 62
     7
370
    15
100
AcDbLine
 10
3.9436884789
 20
5.9746374504
 30
0.0
 11
3.9405423686
 21
5.9689145831
 31
0.0
  0
LINE
  5
CC
330
1F
100
AcDbEntity
  8
0
  6
Continuous
 62
     7
370
    15
100
AcDbLine
 10
3.9405423686
 20
5.9689145831
 30
0.0
 11
4.0137597228
 21
5.9286629681
 31
0.0
  0
ARC
  5
CD
330
1F
100
AcDbEntity
  8
0
  6
Continuous
 62
     7
370
    15
100
AcDbCircle
 10
4.2195181354
 20
5.8149970652
 30
0.0
 40
0.2350669331392188
100
AcDbArc
 50
151.0826765221
 51
163.8914583415
  0
LINE
  5
CE
330
1F
100
AcDbEntity
  8
0
  6
Continuous
 62
     7
370
    15
100
AcDbLine
 10
3.993680408
 20
5.8802182078
 30
0.0
 11
3.9126468375
 21
5.9010241007
 31
0.0
  0
LINE
  5
CF
330
1F
100
AcDbEntity
  8
0
  6
Continuous
 62
     7
370
    15
100
AcDbLine
 10
3.9126468375
 20
5.9010241007
 30
0.0
 11
3.9110226696
 21
5.8946987338
 31
0.0
  0
LINE
  5
D0
330
1F
100
AcDbEntity
  8
0
  6
Continuous
 62
     7
370
    15
100
AcDbLine
 10
3.9110226696
 20
5.8946987338
 30
0.0
 11
3.991955628
 21
5.8739186539
 31
0.0
  0
ARC
  5
D1
330
1F
100
AcDbEntity
  8
0
  6
Continuous
 62
     7
370
    15
100
AcDbCircle
 10
4.2195181354
 20
5.8149970652
 30
0.0
 40
0.2350669331392192
100
AcDbArc
 50
165.4834976496
 51
178.2919045434
  0
LINE
  5
D2
330
1F
100
AcDbEntity
  8
0
  6
Continuous
 62
     7
370
    15
100
AcDbLine
 10
3.9845556468
 20
5.8220038003
 30
0.0
 11
3.90088724
 21
5.8220038003
 31
0.0
  0
LINE
  5
D3
330
1F
100
AcDbEntity
  8
0
  6
Continuous
 62
     7
370
    15
100
AcDbLine
 10
3.90088724
 20
5.8220038003
 30
0.0
 11
3.90088724
 21
5.815473249
 31
0.0
  0
LINE
  5
D4
330
1F
100
AcDbEntity
  8
0
  6
Continuous
 62
     7
370
    15
100
AcDbLine
 10
3.90088724
 20
5.815473249
 30
0.0
 11
3.9844516613
 21
5.815473249
 31
0.0
  0
ARC
  5
D5
330
1F
100
AcDbEntity
  8
0
  6
Continuous
 62
     7
370
    15
100
AcDbCircle
 10
4.2195181354
 20
5.8149970652
 30
0.0
 40
0.2350669331392189
100
AcDbArc
 50
179.8839436542
 51
186.024143057
  0
LINE
  5
D6
330
1F
100
AcDbEntity
  8
0
  6
Continuous
 62
     7
370
    15
100
AcDbLine
 10
3.985749353
 20
5.7903273929
 30
0.0
 11
3.8215563031
 21
5.7730000997
 31
0.0
  0
LINE
  5
D7
330
1F
100
AcDbEntity
  8
0
  6
Continuous
 62
     7
370
    15
100
AcDbLine
 10
3.8215544507
 20
5.7730176389
 30
0.0
 11
3.8215563075
 21
5.7730000401
 31
0.0
  0
LINE
  5
D8
330
1F
100
AcDbEntity
  8
0
  6
Continuous
 62
     7
370
    15
100
AcDbLine
 10
3.6177167779
 20
5.7514887482
 30
0.0
 11
3.8215543965
 21
5.7730176995
 31
0.0
  0
LINE
  5
D9
330
1F
100
AcDbEntity
  8
0
  6
Continuous
 62
     7
370
    15
100
AcDbLine
 10
3.6177167779
 20
5.8100082188
 30
0.0
 11
3.6177167779
 21
5.7514887482
 31
0.0
  0
LINE
  5
DA
330
1F
100
AcDbEntity
  8
0
  6
Continuous
 62
     7
370
    15
100
AcDbLine
 10
3.6475303935
 20
5.8077445916
 30
0.0
 11
3.6177167779
 21
5.8100082188
 31
0.0
  0
LINE
  5
DB
330
1F
100
AcDbEntity
  8
0
  6
Continuous
 62
     7
370
    15
100
AcDbLine
 10
3.6475303935
 20
5.7815786806
 30
0.0
 11
3.6475303935
 21
5.8077445916
 31
0.0
  0
LINE
  5
DC
330
1F
100
AcDbEntity
  8
0
  6
Continuous
 62
     7
370
    15
100
AcDbLine
 10
3.6653877338
 20
5.7815786806
 30
0.0
 11
3.6475303935
 21
5.7815786806
 31
0.0
  0
LINE
  5
DD
330
1F
100
AcDbEntity
  8
0
  6
Continuous
 62
     7
370
    15
100
AcDbLine
 10
3.6653877338
 20
5.843526885
 30
0.0
 11
3.6653877338
 21
5.7815786806
 31
0.0
  0
LINE
  5
DE
330
1F
100
AcDbEntity
  8
0
  6
Continuous
 62
     7
370
    15
100
AcDbLine
 10
3.6457110145
 20
5.843526885
 30
0.0
 11
3.6653877338
 21
5.843526885
 31
0.0
  0
LINE
  5
DF
330
1F
100
AcDbEntity
  8
0
  6
Continuous
 62
     7
370
    15
100
AcDbLine
 10
3.6475303935
 20
5.8188236637
 30
0.0
 11
3.6457110145
 21
5.843526885
 31
0.0
  0
LINE
  5
E0
330
1F
100
AcDbEntity
  8
0
  6
Continuous
 62
     7
370
    15
100
AcDbLine
 10
3.6177167779
 20
5.8166277957
 30
0.0
 11
3.6475303935
 21
5.8188236637
 31
0.0
  0
LINE
  5
E1
330
1F
100
AcDbEntity
  8
0
  6
Continuous
 62
     7
370
    15
100
AcDbLine
 10
3.6177167779
 20
5.8780443395
 30
0.0
 11
3.6177167779
 21
5.8166277957
 31
0.0
  0
LINE
  5
E2
330
1F
100
AcDbEntity
  8
0
  6
Continuous
 62
     7
370
    15
100
AcDbLine
 10
3.6894566291
 20
5.8705243864
 30
0.0
 11
3.6177167779
 21
5.8780443395
 31
0.0
  0
LINE
  5
E3
330
1F
100
AcDbEntity
  8
0
  6
Continuous
 62
     7
370
    15
100
AcDbLine
 10
3.6894566291
 20
5.8128860789
 30
0.0
 11
3.6894566291
 21
5.8705243864
 31
0.0
  0
LINE
  5
E4
330
1F
100
AcDbEntity
  8
0
  6
Continuous
 62
     7
370
    15
100
AcDbLine
 10
3.7710586731
 20
5.8183462692
 30
0.0
 11
3.6894566291
 21
5.8128860789
 31
0.0
  0
LINE
  5
E5
330
1F
100
AcDbEntity
  8
0
  6
Continuous
 62
     7
370
    15
100
AcDbLine
 10
3.7710586731
 20
5.8619707386
 30
0.0
 11
3.7710586731
 21
5.8183462692
 31
0.0
  0
LINE
  5
E6
330
1F
100
AcDbEntity
  8
0
  6
Continuous
 62
     7
370
    15
100
AcDbLine
 10
3.8217057547
 20
5.8566617599
 30
0.0
 11
3.7710586731
 21
5.8619707386
 31
0.0
  0
ARC
  5
E7
330
1F
100
AcDbEntity
  8
0
  6
Continuous
 62
     7
370
    15
100
AcDbCircle
 10
4.2195181354
 20
5.8149970652
 30
0.0
 40
0.3999883576920478
100
AcDbArc
 50
171.9402938582
 51
174.0209439631
  0
LINE
  5
E8
330
1F
100
AcDbEntity
  8
0
  6
Continuous
 62
     7
370
    15
100
AcDbLine
 10
3.652300085
 20
5.9057509661
 30
0.0
 11
3.8234806942
 21
5.87107746
 31
0.0
  0
LINE
  5
E9
330
1F
100
AcDbEntity
  8
0
  6
Continuous
 62
     7
370
    15
100
AcDbLine
 10
3.5332769133
 20
5.9208901646
 30
0.0
 11
3.652300085
 21
5.9057509661
 31
0.0
  0
LINE
  5
EA
330
1F
100
AcDbEntity
  8
0
  6
Continuous
 62
     7
370
    15
100
AcDbLine
 10
3.4724707891
 20
5.9264704734
 30
0.0
 11
3.5332769133
 21
5.9208901646
 31
0.0
  0
LINE
  5
EB
330
1F
100
AcDbEntity
  8
0
  6
Continuous
 62
     7
370
    15
100
AcDbLine
 10
3.4008880894
 20
5.9398515989
 30
0.0
 11
3.4724707891
 21
5.9264704734
 31
0.0
  0
LINE
  5
EC
330
1F
100
AcDbEntity
  8
0
  6
Continuous
 62
     7
370
    15
100
AcDbLine
 10
3.3848029752
 20
5.9446517967
 30
0.0
 11
3.4008880894
 21
5.9398515989
 31
0.0
  0
LINE
  5
ED
330
1F
100
AcDbEntity
  8
0
  6
Continuous
 62
     7
370
    15
100
AcDbLine
 10
3.378644293
 20
5.954209513
 30
0.0
 11
3.3848029752
 21
5.9446517967
 31
0.0
  0
LINE
  5
EE
330
1F
100
AcDbEntity
  8
0
  6
Continuous
 62
     7
370
    15
100
AcDbLine
 10
3.3800137038
 20
5.961535135
 30
0.0
 11
3.378644293
 21
5.954209513
 31
0.0
  0
LINE
  5
EF
330
1F
100
AcDbEntity
  8
0
  6
Continuous
 62
     7
370
    15
100
AcDbLine
 10
3.4018107587
 20
5.9592437882
 30
0.0
 11
3.3800137038
 21
5.961535135
 31
0.0
  0
LINE
  5
F0
330
1F
100
AcDbEntity
  8
0
  6
Continuous
 62
     7
370
    15
100
AcDbLine
 10
3.4024824109
 20
5.9570287071
 30
0.0
 11
3.4018107587
 21
5.9592437882
 31
0.0
  0
LINE
  5
F1
330
1F
100
AcDbEntity
  8
0
  6
Continuous
 62
     7
370
    15
100
AcDbLine
 10
3.4156859251
 20
5.9545606289
 30
0.0
 11
3.4024824109
 21
5.9570287071
 31
0.0
  0
LINE
  5
F2
330
1F
100
AcDbEntity
  8
0
  6
Continuous
 62
     7
370
    15
100
AcDbLine
 10
3.4188600484
 20
5.9556657495
 30
0.0
 11
3.4156859251
 21
5.9545606289
 31
0.0
  0
ARC
  5
F3
330
1F
100
AcDbEntity
  8
0
  6
Continuous
 62
     7
370
    15
100
AcDbCircle
 10
3.4253329437
 20
5.9370753684
 30
0.0
 40
0.0196850393700785
100
AcDbArc
 50
79.4117647059
 51
109.1971985424
  0
LINE
  5
F4
330
1F
100
AcDbEntity
  8
0
  6
Continuous
 62
     7
370
    15
100
AcDbLine
 10
3.4581257815
 20
5.9509712971
 30
0.0
 11
3.4289500119
 21
5.9564251807
 31
0.0
  0
ARC
  5
F5
330
1F
100
AcDbEntity
  8
0
  6
Continuous
 62
     7
370
    15
100
AcDbCircle
 10
3.4609086214
 20
5.9568057601
 30
0.0
 40
0.006464118033531
100
AcDbArc
 50
244.499688537
 51
95.0964238338
  0
LINE
  5
F6
330
1F
100
AcDbEntity
  8
0
  6
Continuous
 62
     7
370
    15
100
AcDbLine
 10
3.4270125676
 20
5.96947323
 30
0.0
 11
3.4603344093
 21
5.9632443686
 31
0.0
  0
ARC
  5
F7
330
1F
100
AcDbEntity
  8
0
  6
Continuous
 62
     7
370
    15
100
AcDbCircle
 10
3.4306296899
 20
5.9888231161
 30
0.0
 40
0.0196850393700785
100
AcDbArc
 50
231.5699571877
 51
259.4117647059
  0
LINE
  5
F8
330
1F
100
AcDbEntity
  8
0
  6
Continuous
 62
     7
370
    15
100
AcDbLine
 10
3.4169234841
 20
5.9756853716
 30
0.0
 11
3.4183942405
 21
5.9734025313
 31
0.0
  0
LINE
  5
F9
330
1F
100
AcDbEntity
  8
0
  6
Continuous
 62
     7
370
    15
100
AcDbLine
 10
3.4063627261
 20
5.9776596288
 30
0.0
 11
3.4169234841
 21
5.9756853716
 31
0.0
  0
LINE
  5
FA
330
1F
100
AcDbEntity
  8
0
  6
Continuous
 62
     7
370
    15
100
AcDbLine
 10
3.404927976
 20
5.9759197422
 30
0.0
 11
3.4063627261
 21
5.9776596288
 31
0.0
  0
LINE
  5
FB
330
1F
100
AcDbEntity
  8
0
  6
Continuous
 62
     7
370
    15
100
AcDbLine
 10
3.3837379675
 20
5.9814583982
 30
0.0
 11
3.404927976
 21
5.9759197422
 31
0.0
  0
LINE
  5
FC
330
1F
100
AcDbEntity
  8
0
  6
Continuous
 62
     7
370
    15
100
AcDbLine
 10
3.3853759219
 20
5.9902206037
 30
0.0
 11
3.3837379675
 21
5.9814583982
 31
0.0
  0
LINE
  5
FD
330
1F
100
AcDbEntity
  8
0
  6
Continuous
 62
     7
370
    15
100
AcDbLine
 10
3.3947025675
 20
5.9976098783
 30
0.0
 11
3.3853759219
 21
5.9902206037
 31
0.0
  0
LINE
  5
FE
330
1F
100
AcDbEntity
  8
0
  6
Continuous
 62
     7
370
    15
100
AcDbLine
 10
3.4109756328
 20
5.9957931393
 30
0.0
 11
3.3947025675
 21
5.9976098783
 31
0.0
  0
LINE
  5
FF
330
1F
100
AcDbEntity
  8
0
  6
Continuous
 62
     7
370
    15
100
AcDbLine
 10
3.4922223076
 20
5.9806055414
 30
0.0
 11
3.4109756328
 21
5.9957931393
 31
0.0
  0
LINE
  5
100
330
1F
100
AcDbEntity
  8
0
  6
Continuous
 62
     7
370
    15
100
AcDbLine
 10
3.5411226094
 20
5.9631326099
 30
0.0
 11
3.4922223076
 21
5.9806055414
 31
0.0
  0
LINE
  5
101
330
1F
100
AcDbEntity
  8
0
  6
Continuous
 62
     7
370
    15
100
AcDbLine
 10
3.6585446396
 20
5.9391564069
 30
0.0
 11
3.5411226094
 21
5.9631326099
 31
0.0
  0
LINE
  5
102
330
1F
100
AcDbEntity
  8
0
  6
Continuous
 62
     7
370
    15
100
AcDbLine
 10
3.8312752042
 20
5.9112162897
 30
0.0
 11
3.6585446396
 21
5.9391564069
 31
0.0
  0
ARC
  5
103
330
1F
100
AcDbEntity
  8
0
  6
Continuous
 62
     7
370
    15
100
AcDbCircle
 10
4.2195181354
 20
5.8149970652
 30
0.0
 40
0.3999883576920471
100
AcDbArc
 50
161.3520585641
 51
166.0806928677
  0
LINE
  5
104
330
1F
100
AcDbEntity
  8
0
  6
Continuous
 62
     7
370
    15
100
AcDbLine
 10
3.6786340742
 20
6.0084318466
 30
0.0
 11
3.8405287373
 21
5.9428941637
 31
0.0
  0
LINE
  5
105
330
1F
100
AcDbEntity
  8
0
  6
Continuous
 62
     7
370
    15
100
AcDbLine
 10
3.5644191669
 20
6.0451835954
 30
0.0
 11
3.6786340742
 21
6.0084318466
 31
0.0
  0
LINE
  5
106
330
1F
100
AcDbEntity
  8
0
  6
Continuous
 62
     7
370
    15
100
AcDbLine
 10
3.5056738322
 20
6.0618419496
 30
0.0
 11
3.5644191669
 21
6.0451835954
 31
0.0
  0
LINE
  5
107
330
1F
100
AcDbEntity
  8
0
  6
Continuous
 62
     7
370
    15
100
AcDbLine
 10
3.4377686833
 20
6.0881485124
 30
0.0
 11
3.5056738322
 21
6.0618419496
 31
0.0
  0
LINE
  5
108
330
1F
100
AcDbEntity
  8
0
  6
Continuous
 62
     7
370
    15
100
AcDbLine
 10
3.4228395091
 20
6.0958226104
 30
0.0
 11
3.4377686833
 21
6.0881485124
 31
0.0
  0
LINE
  5
109
330
1F
100
AcDbEntity
  8
0
  6
Continuous
 62
     7
370
    15
100
AcDbLine
 10
3.4185419321
 20
6.1063491955
 30
0.0
 11
3.4228395091
 21
6.0958226104
 31
0.0
  0
LINE
  5
10A
330
1F
100
AcDbEntity
  8
0
  6
Continuous
 62
     7
370
    15
100
AcDbLine
 10
3.4212341143
 20
6.1132986219
 30
0.0
 11
3.4185419321
 21
6.1063491955
 31
0.0
  0
LINE
  5
10B
330
1F
100
AcDbEntity
  8
0
  6
Continuous
 62
     7
370
    15
100
AcDbLine
 10
3.4422390317
 20
6.1070411608
 30
0.0
 11
3.4212341143
 21
6.1132986219
 31
0.0
  0
LINE
  5
10C
330
1F
100
AcDbEntity
  8
0
  6
Continuous
 62
     7
370
    15
100
AcDbLine
 10
3.4424923221
 20
6.1047402807
 30
0.0
 11
3.4422390317
 21
6.1070411608
 31
0.0
  0
LINE
  5
10D
330
1F
100
AcDbEntity
  8
0
  6
Continuous
 62
     7
370
    15
100
AcDbLine
 10
3.4550173641
 20
6.0998880168
 30
0.0
 11
3.4424923221
 21
6.1047402807
 31
0.0
  0
LINE
  5
10E
330
1F
100
AcDbEntity
  8
0
  6
Continuous
 62
     7
370
    15
100
AcDbLine
 10
3.4583406457
 20
6.1003910776
 30
0.0
 11
3.4550173641
 21
6.0998880168
 31
0.0
  0
ARC
  5
10F
330
1F
100
AcDbEntity
  8
0
  6
Continuous
 62
     7
370
    15
100
AcDbCircle
 10
3.4612872851
 20
6.0809278993
 30
0.0
 40
0.0196850393700788
100
AcDbArc
 50
68.8235294118
 51
98.6089632483
  0
LINE
  5
110
330
1F
100
AcDbEntity
  8
0
  6
Continuous
 62
     7
370
    15
100
AcDbLine
 10
3.4960750498
 20
6.0885616676
 30
0.0
 11
3.4683983428
 21
6.0992836104
 31
0.0
  0
ARC
  5
111
330
1F
100
AcDbEntity
  8
0
  6
Continuous
 62
     7
370
    15
100
AcDbCircle
 10
3.4998826693
 20
6.09378533
 30
0.0
 40
0.0064641180335303
100
AcDbArc
 50
233.9114532429
 51
84.5081885397
  0
LINE
  5
112
330
1F
100
AcDbEntity
  8
0
  6
Continuous
 62
     7
370
    15
100
AcDbLine
 10
3.4688914305
 20
6.1124655648
 30
0.0
 11
3.500501252
 21
6.1002197729
 31
0.0
  0
ARC
  5
113
330
1F
100
AcDbEntity
  8
0
  6
Continuous
 62
     7
370
    15
100
AcDbCircle
 10
3.4760024679
 20
6.1308212687
 30
0.0
 40
0.0196850393700788
100
AcDbArc
 50
220.9817218936
 51
248.8235294118
  0
LINE
  5
114
330
1F
100
AcDbEntity
  8
0
  6
Continuous
 62
     7
370
    15
100
AcDbLine
 10
3.4601155852
 20
6.1204258062
 30
0.0
 11
3.4611418
 21
6.1179115286
 31
0.0
  0
LINE
  5
115
330
1F
100
AcDbEntity
  8
0
  6
Continuous
 62
     7
370
    15
100
AcDbLine
 10
3.4500973409
 20
6.1243068547
 30
0.0
 11
3.4601155852
 21
6.1204258062
 31
0.0
  0
LINE
  5
116
330
1F
100
AcDbEntity
  8
0
  6
Continuous
 62
     7
370
    15
100
AcDbLine
 10
3.4483674275
 20
6.1228602981
 30
0.0
 11
3.4500973409
 21
6.1243068547
 31
0.0
  0
LINE
  5
117
330
1F
100
AcDbEntity
  8
0
  6
Continuous
 62
     7
370
    15
100
AcDbLine
 10
3.4285559231
 20
6.1321983102
 30
0.0
 11
3.4483674275
 21
6.1228602981
 31
0.0
  0
LINE
  5
118
330
1F
100
AcDbEntity
  8
0
  6
Continuous
 62
     7
370
    15
100
AcDbLine
 10
3.4317759525
 20
6.1405102542
 30
0.0
 11
3.4285559231
 21
6.1321983102
 31
0.0
  0
LINE
  5
119
330
1F
100
AcDbEntity
  8
0
  6
Continuous
 62
     7
370
    15
100
AcDbLine
 10
3.4423016576
 20
6.1460600567
 30
0.0
 11
3.4317759525
 21
6.1405102542
 31
0.0
  0
LINE
  5
11A
330
1F
100
AcDbEntity
  8
0
  6
Continuous
 62
     7
370
    15
100
AcDbLine
 10
3.4579637167
 20
6.1412840586
 30
0.0
 11
3.4423016576
 21
6.1460600567
 31
0.0
  0
LINE
  5
11B
330
1F
100
AcDbEntity
  8
0
  6
Continuous
 62
     7
370
    15
100
AcDbLine
 10
3.535036453
 20
6.1114260035
 30
0.0
 11
3.4579637167
 21
6.1412840586
 31
0.0
  0
LINE
  5
11C
330
1F
100
AcDbEntity
  8
0
  6
Continuous
 62
     7
370
    15
100
AcDbLine
 10
3.5798933481
 20
6.0852652257
 30
0.0
 11
3.535036453
 21
6.1114260035
 31
0.0
  0
LINE
  5
11D
330
1F
100
AcDbEntity
  8
0
  6
Continuous
 62
     7
370
    15
100
AcDbLine
 10
3.690910519
 20
6.0401210139
 30
0.0
 11
3.5798933481
 21
6.0852652257
 31
0.0
  0
LINE
  5
11E
330
1F
100
AcDbEntity
  8
0
  6
Continuous
 62
     7
370
    15
100
AcDbLine
 10
3.8555660036
 20
5.9809174978
 30
0.0
 11
3.690910519
 21
6.0401210139
 31
0.0
  0
ARC
  5
11F
330
1F
100
AcDbEntity
  8
0
  6
Continuous
 62
     7
370
    15
100
AcDbCircle
 10
4.2195181354
 20
5.8149970652
 30
0.0
 40
0.399988357692047
100
AcDbArc
 50
150.7638232699
 51
155.4924575736
  0
LINE
  5
120
330
1F
100
AcDbEntity
  8
0
  6
Continuous
 62
     7
370
    15
100
AcDbLine
 10
3.7233871305
 20
6.1045254165
 30
0.0
 11
3.8704827112
 21
6.0103556511
 31
0.0
  0
LINE
  5
121
330
1F
100
AcDbEntity
  8
0
  6
Continuous
 62
     7
370
    15
100
AcDbLine
 10
3.6178701894
 20
6.1616383701
 30
0.0
 11
3.7233871305
 21
6.1045254165
 31
0.0
  0
LINE
  5
122
330
1F
100
AcDbEntity
  8
0
  6
Continuous
 62
     7
370
    15
100
AcDbLine
 10
3.5631860078
 20
6.1888074696
 30
0.0
 11
3.6178701894
 21
6.1616383701
 31
0.0
  0
LINE
  5
123
330
1F
100
AcDbEntity
  8
0
  6
Continuous
 62
     7
370
    15
100
AcDbLine
 10
3.5012709497
 20
6.2271437867
 30
0.0
 11
3.5631860078
 21
6.1888074696
 31
0.0
  0
LINE
  5
124
330
1F
100
AcDbEntity
  8
0
  6
Continuous
 62
     7
370
    15
100
AcDbLine
 10
3.4880061296
 20
6.2374302812
 30
0.0
 11
3.5012709497
 21
6.2271437867
 31
0.0
  0
LINE
  5
125
330
1F
100
AcDbEntity
  8
0
  6
Continuous
 62
     7
370
    15
100
AcDbLine
 10
3.4857159561
 20
6.2485674326
 30
0.0
 11
3.4880061296
 21
6.2374302812
 31
0.0
  0
LINE
  5
126
330
1F
100
AcDbEntity
  8
0
  6
Continuous
 62
     7
370
    15
100
AcDbLine
 10
3.4896392441
 20
6.2549037994
 30
0.0
 11
3.4857159561
 21
6.2485674326
 31
0.0
  0
LINE
  5
127
330
1F
100
AcDbEntity
  8
0
  6
Continuous
 62
     7
370
    15
100
AcDbLine
 10
3.5091365922
 20
6.2448931817
 30
0.0
 11
3.4896392441
 21
6.2549037994
 31
0.0
  0
LINE
  5
128
330
1F
100
AcDbEntity
  8
0
  6
Continuous
 62
     7
370
    15
100
AcDbLine
 10
3.5089627942
 20
6.2425849683
 30
0.0
 11
3.5091365922
 21
6.2448931817
 31
0.0
  0
LINE
  5
129
330
1F
100
AcDbEntity
  8
0
  6
Continuous
 62
     7
370
    15
100
AcDbLine
 10
3.520383009
 20
6.23551381
 30
0.0
 11
3.5089627942
 21
6.2425849683
 31
0.0
  0
LINE
  5
12A
330
1F
100
AcDbEntity
  8
0
  6
Continuous
 62
     7
370
    15
100
AcDbLine
 10
3.5237420768
 20
6.235397798
 30
0.0
 11
3.520383009
 21
6.23551381
 31
0.0
  0
ARC
  5
12B
330
1F
100
AcDbEntity
  8
0
  6
Continuous
 62
     7
370
    15
100
AcDbCircle
 10
3.5230622688
 20
6.2157244746
 30
0.0
 40
0.0196850393700798
100
AcDbArc
 50
58.2352941176
 51
88.0207279542
  0
LINE
  5
12C
330
1F
100
AcDbEntity
  8
0
  6
Continuous
 62
     7
370
    15
100
AcDbLine
 10
3.5586603668
 20
6.2168360258
 30
0.0
 11
3.533425045
 21
6.2324609786
 31
0.0
  0
ARC
  5
12D
330
1F
100
AcDbEntity
  8
0
  6
Continuous
 62
     7
370
    15
100
AcDbCircle
 10
3.5633630399
 20
6.2212710999
 30
0.0
 40
0.0064641180335309
100
AcDbArc
 50
223.3232179487
 51
73.9199532456
  0
LINE
  5
12E
330
1F
100
AcDbEntity
  8
0
  6
Continuous
 62
     7
370
    15
100
AcDbLine
 10
3.5363319447
 20
6.2453278966
 30
0.0
 11
3.5651535184
 21
6.2274822895
 31
0.0
  0
ARC
  5
12F
330
1F
100
AcDbEntity
  8
0
  6
Continuous
 62
     7
370
    15
100
AcDbCircle
 10
3.5466947801
 20
6.2620644069
 30
0.0
 40
0.0196850393700787
100
AcDbArc
 50
210.3934865995
 51
238.2352941176
  0
LINE
  5
130
330
1F
100
AcDbEntity
  8
0
  6
Continuous
 62
     7
370
    15
100
AcDbLine
 10
3.5291682408
 20
6.2547650543
 30
0.0
 11
3.5297150078
 21
6.2521049917
 31
0.0
  0
LINE
  5
131
330
1F
100
AcDbEntity
  8
0
  6
Continuous
 62
     7
370
    15
100
AcDbLine
 10
3.5200337997
 20
6.2604210423
 30
0.0
 11
3.5291682408
 21
6.2547650543
 31
0.0
  0
LINE
  5
132
330
1F
100
AcDbEntity
  8
0
  6
Continuous
 62
     7
370
    15
100
AcDbLine
 10
3.5180674624
 20
6.2593169484
 30
0.0
 11
3.5200337997
 21
6.2604210423
 31
0.0
  0
LINE
  5
133
330
1F
100
AcDbEntity
  8
0
  6
Continuous
 62
     7
370
    15
100
AcDbLine
 10
3.5003091208
 20
6.2721362003
 30
0.0
 11
3.5180674624
 21
6.2593169484
 31
0.0
  0
LINE
  5
134
330
1F
100
AcDbEntity
  8
0
  6
Continuous
 62
     7
370
    15
100
AcDbLine
 10
3.5050016666
 20
6.2797149661
 30
0.0
 11
3.5003091208
 21
6.2721362003
 31
0.0
  0
LINE
  5
135
330
1F
100
AcDbEntity
  8
0
  6
Continuous
 62
     7
370
    15
100
AcDbLine
 10
3.5163679087
 20
6.2832362454
 30
0.0
 11
3.5050016666
 21
6.2797149661
 31
0.0
  0
LINE
  5
136
330
1F
100
AcDbEntity
  8
0
  6
Continuous
 62
     7
370
    15
100
AcDbLine
 10
3.5308856876
 20
6.2756636395
 30
0.0
 11
3.5163679087
 21
6.2832362454
 31
0.0
  0
LINE
  5
137
330
1F
100
AcDbEntity
  8
0
  6
Continuous
 62
     7
370
    15
100
AcDbLine
 10
3.6011596225
 20
6.2321519555
 30
0.0
 11
3.5308856876
 21
6.2756636395
 31
0.0
  0
LINE
  5
138
330
1F
100
AcDbEntity
  8
0
  6
Continuous
 62
     7
370
    15
100
AcDbLine
 10
3.6404458886
 20
6.1981941745
 30
0.0
 11
3.6011596225
 21
6.2321519555
 31
0.0
  0
LINE
  5
139
330
1F
100
AcDbEntity
  8
0
  6
Continuous
 62
     7
370
    15
100
AcDbLine
 10
3.7412774705
 20
6.1334192961
 30
0.0
 11
3.6404458886
 21
6.1981941745
 31
0.0
  0
LINE
  5
13A
330
1F
100
AcDbEntity
  8
0
  6
Continuous
 62
     7
370
    15
100
AcDbLine
 10
3.8922508731
 20
6.0449682912
 30
0.0
 11
3.7412774705
 21
6.1334192961
 31
0.0
  0
ARC
  5
13B
330
1F
100
AcDbEntity
  8
0
  6
Continuous
 62
     7
370
    15
100
AcDbCircle
 10
4.2195181354
 20
5.8149970652
 30
0.0
 40
0.3999883576920473
100
AcDbArc
 50
140.1755879758
 51
144.9042222795
  0
LINE
  5
13C
330
1F
100
AcDbEntity
  8
0
  6
Continuous
 62
     7
370
    15
100
AcDbLine
 10
3.785035405
 20
6.1907594337
 30
0.0
 11
3.9123228546
 21
6.0711644153
 31
0.0
  0
LINE
  5
13D
330
1F
100
AcDbEntity
  8
0
  6
Continuous
 62
     7
370
    15
100
AcDbLine
 10
3.6918095753
 20
6.2662886678
 30
0.0
 11
3.785035405
 21
6.1907594337
 31
0.0
  0
LINE
  5
13E
330
1F
100
AcDbEntity
  8
0
  6
Continuous
 62
     7
370
    15
100
AcDbLine
 10
3.6430488986
 20
6.3030433499
 30
0.0
 11
3.6918095753
 21
6.2662886678
 31
0.0
  0
LINE
  5
13F
330
1F
100
AcDbEntity
  8
0
  6
Continuous
 62
     7
370
    15
100
AcDbLine
 10
3.5892322403
 20
6.3521036632
 30
0.0
 11
3.6430488986
 21
6.3030433499
 31
0.0
  0
LINE
  5
140
330
1F
100
AcDbEntity
  8
0
  6
Continuous
 62
     7
370
    15
100
AcDbLine
 10
3.5780833557
 20
6.3646526115
 30
0.0
 11
3.5892322403
 21
6.3521036632
 31
0.0
  0
LINE
  5
141
330
1F
100
AcDbEntity
  8
0
  6
Continuous
 62
     7
370
    15
100
AcDbLine
 10
3.5778786114
 20
6.3760209069
 30
0.0
 11
3.5780833557
 21
6.3646526115
 31
0.0
  0
LINE
  5
142
330
1F
100
AcDbEntity
  8
0
  6
Continuous
 62
     7
370
    15
100
AcDbLine
 10
3.5828993934
 20
6.3815284699
 30
0.0
 11
3.5778786114
 21
6.3760209069
 31
0.0
  0
LINE
  5
143
330
1F
100
AcDbEntity
  8
0
  6
Continuous
 62
     7
370
    15
100
AcDbLine
 10
3.6002255133
 20
6.3681056916
 30
0.0
 11
3.5828993934
 21
6.3815284699
 31
0.0
  0
LINE
  5
144
330
1F
100
AcDbEntity
  8
0
  6
Continuous
 62
     7
370
    15
100
AcDbLine
 10
3.5996303468
 20
6.3658687575
 30
0.0
 11
3.6002255133
 21
6.3681056916
 31
0.0
  0
LINE
  5
145
330
1F
100
AcDbEntity
  8
0
  6
Continuous
 62
     7
370
    15
100
AcDbLine
 10
3.6095569255
 20
6.3568195287
 30
0.0
 11
3.5996303468
 21
6.3658687575
 31
0.0
  0
LINE
  5
146
330
1F
100
AcDbEntity
  8
0
  6
Continuous
 62
     7
370
    15
100
AcDbLine
 10
3.6128375276
 20
6.3560882571
 30
0.0
 11
3.6095569255
 21
6.3568195287
 31
0.0
  0
ARC
  5
147
330
1F
100
AcDbEntity
  8
0
  6
Continuous
 62
     7
370
    15
100
AcDbCircle
 10
3.6085542217
 20
6.3368747586
 30
0.0
 40
0.019685039370079
100
AcDbArc
 50
47.6470588235
 51
77.4324926601
  0
LINE
  5
148
330
1F
100
AcDbEntity
  8
0
  6
Continuous
 62
     7
370
    15
100
AcDbLine
 10
3.6437505438
 20
6.3314262487
 30
0.0
 11
3.6218159172
 21
6.3514222577
 31
0.0
  0
ARC
  5
149
330
1F
100
AcDbEntity
  8
0
  6
Continuous
 62
     7
370
    15
100
AcDbCircle
 10
3.6491879853
 20
6.3349216948
 30
0.0
 40
0.0064641180335308
100
AcDbArc
 50
212.7349826546
 51
63.3317179515
  0
LINE
  5
14A
330
1F
100
AcDbEntity
  8
0
  6
Continuous
 62
     7
370
    15
100
AcDbLine
 10
3.6270376302
 20
6.3635359044
 30
0.0
 11
3.6520891808
 21
6.3406981149
 31
0.0
  0
ARC
  5
14B
330
1F
100
AcDbEntity
  8
0
  6
Continuous
 62
     7
370
    15
100
AcDbCircle
 10
3.6402992848
 20
6.3780832029
 30
0.0
 40
0.019685039370079
100
AcDbArc
 50
199.8052513054
 51
227.6470588235
  0
LINE
  5
14C
330
1F
100
AcDbEntity
  8
0
  6
Continuous
 62
     7
370
    15
100
AcDbLine
 10
3.6217299715
 20
6.3741286354
 30
0.0
 11
3.6217786643
 21
6.3714135734
 31
0.0
  0
LINE
  5
14D
330
1F
100
AcDbEntity
  8
0
  6
Continuous
 62
     7
370
    15
100
AcDbLine
 10
3.6137902632
 20
6.3813668451
 30
0.0
 11
3.6217299715
 21
6.3741286354
 31
0.0
  0
LINE
  5
14E
330
1F
100
AcDbEntity
  8
0
  6
Continuous
 62
     7
370
    15
100
AcDbLine
 10
3.6116545279
 20
6.3806426135
 30
0.0
 11
3.6137902632
 21
6.3813668451
 31
0.0
  0
LINE
  5
14F
330
1F
100
AcDbEntity
  8
0
  6
Continuous
 62
     7
370
    15
100
AcDbLine
 10
3.5965541957
 20
6.3965067769
 30
0.0
 11
3.6116545279
 21
6.3806426135
 31
0.0
  0
LINE
  5
150
330
1F
100
AcDbEntity
  8
0
  6
Continuous
 62
     7
370
    15
100
AcDbLine
 10
3.602559393
 20
6.4030943808
 30
0.0
 11
3.5965541957
 21
6.3965067769
 31
0.0
  0
LINE
  5
151
330
1F
100
AcDbEntity
  8
0
  6
Continuous
 62
     7
370
    15
100
AcDbLine
 10
3.6143791231
 20
6.4044671649
 30
0.0
 11
3.602559393
 21
6.4030943808
 31
0.0
  0
LINE
  5
152
330
1F
100
AcDbEntity
  8
0
  6
Continuous
 62
     7
370
    15
100
AcDbLine
 10
3.6272582143
 20
6.3943557884
 30
0.0
 11
3.6143791231
 21
6.4044671649
 31
0.0
  0
LINE
  5
153
330
1F
100
AcDbEntity
  8
0
  6
Continuous
 62
     7
370
    15
100
AcDbLine
 10
3.688340362
 20
6.338672085
 30
0.0
 11
3.6272582143
 21
6.3943557884
 31
0.0
  0
LINE
  5
154
330
1F
100
AcDbEntity
  8
0
  6
Continuous
 62
     7
370
    15
100
AcDbLine
 10
3.720717828
 20
6.298073754
 30
0.0
 11
3.688340362
 21
6.338672085
 31
0.0
  0
LINE
  5
155
330
1F
100
AcDbEntity
  8
0
  6
Continuous
 62
     7
370
    15
100
AcDbLine
 10
3.8079303938
 20
6.2158740502
 30
0.0
 11
3.720717828
 21
6.298073754
 31
0.0
  0
LINE
  5
156
330
1F
100
AcDbEntity
  8
0
  6
Continuous
 62
     7
370
    15
100
AcDbLine
 10
3.9400802272
 20
6.1011879084
 30
0.0
 11
3.8079303938
 21
6.2158740502
 31
0.0
  0
ARC
  5
157
330
1F
100
AcDbEntity
  8
0
  6
Continuous
 62
     7
370
    15
100
AcDbCircle
 10
4.2195181354
 20
5.8149970652
 30
0.0
 40
0.3999883576920466
100
AcDbArc
 50
129.5873526817
 51
134.3159869854
  0
LINE
  5
158
330
1F
100
AcDbEntity
  8
0
  6
Continuous
 62
     7
370
    15
100
AcDbLine
 10
3.8614793886
 20
6.264197372
 30
0.0
 11
3.9646240237
 21
6.1232496936
 31
0.0
  0
LINE
  5
159
330
1F
100
AcDbEntity
  8
0
  6
Continuous
 62
     7
370
    15
100
AcDbLine
 10
3.7837193802
 20
6.3555708231
 30
0.0
 11
3.8614793886
 21
6.264197372
 31
0.0
  0
LINE
  5
15A
330
1F
100
AcDbEntity
  8
0
  6
Continuous
 62
     7
370
    15
100
AcDbLine
 10
3.7425426025
 20
6.4006594489
 30
0.0
 11
3.7837193802
 21
6.3555708231
 31
0.0
  0
LINE
  5
15B
330
1F
100
AcDbEntity
  8
0
  6
Continuous
 62
     7
370
    15
100
AcDbLine
 10
3.6986572162
 20
6.4587730976
 30
0.0
 11
3.7425426025
 21
6.4006594489
 31
0.0
  0
LINE
  5
15C
330
1F
100
AcDbEntity
  8
0
  6
Continuous
 62
     7
370
    15
100
AcDbLine
 10
3.6900039828
 20
6.4731571181
 30
0.0
 11
3.6986572162
 21
6.4587730976
 31
0.0
  0
LINE
  5
15D
330
1F
100
AcDbEntity
  8
0
  6
Continuous
 62
     7
370
    15
100
AcDbLine
 10
3.6918917077
 20
6.4843693619
 30
0.0
 11
3.6900039828
 21
6.4731571181
 31
0.0
  0
LINE
  5
15E
330
1F
100
AcDbEntity
  8
0
  6
Continuous
 62
     7
370
    15
100
AcDbLine
 10
3.6978389723
 20
6.4888605367
 30
0.0
 11
3.6918917077
 21
6.4843693619
 31
0.0
  0
LINE
  5
15F
330
1F
100
AcDbEntity
  8
0
  6
Continuous
 62
     7
370
    15
100
AcDbLine
 10
3.7124035374
 20
6.4724827525
 30
0.0
 11
3.6978389723
 21
6.4888605367
 31
0.0
  0
LINE
  5
160
330
1F
100
AcDbEntity
  8
0
  6
Continuous
 62
     7
370
    15
100
AcDbLine
 10
3.7114075356
 20
6.47039307
 30
0.0
 11
3.7124035374
 21
6.4724827525
 31
0.0
  0
LINE
  5
161
330
1F
100
AcDbEntity
  8
0
  6
Continuous
 62
     7
370
    15
100
AcDbLine
 10
3.7195022687
 20
6.4596739138
 30
0.0
 11
3.7114075356
 21
6.47039307
 31
0.0
  0
LINE
  5
162
330
1F
100
AcDbEntity
  8
0
  6
Continuous
 62
     7
370
    15
100
AcDbLine
 10
3.7225926463
 20
6.4583524624
 30
0.0
 11
3.7195022687
 21
6.4596739138
 31
0.0
  0
ARC
  5
163
330
1F
100
AcDbEntity
  8
0
  6
Continuous
 62
     7
370
    15
100
AcDbCircle
 10
3.7148518179
 20
6.4402531237
 30
0.0
 40
0.0196850393700798
100
AcDbArc
 50
37.0588235294
 51
66.844257366
  0
LINE
  5
164
330
1F
100
AcDbEntity
  8
0
  6
Continuous
 62
     7
370
    15
100
AcDbLine
 10
3.7484476277
 20
6.4284301681
 30
0.0
 11
3.7305608076
 21
6.4521159745
 31
0.0
  0
ARC
  5
165
330
1F
100
AcDbEntity
  8
0
  6
Continuous
 62
     7
370
    15
100
AcDbCircle
 10
3.7544348399
 20
6.4308668801
 30
0.0
 40
0.0064641180335311
100
AcDbArc
 50
202.1467473605
 51
52.7434826573
  0
LINE
  5
166
330
1F
100
AcDbEntity
  8
0
  6
Continuous
 62
     7
370
    15
100
AcDbLine
 10
3.7379194293
 20
6.463063928
 30
0.0
 11
3.7583481
 21
6.4360118672
 31
0.0
  0
ARC
  5
167
330
1F
100
AcDbEntity
  8
0
  6
Continuous
 62
     7
370
    15
100
AcDbCircle
 10
3.7536283927
 20
6.4749267759
 30
0.0
 40
0.0196850393700791
100
AcDbArc
 50
189.2170160112
 51
217.0588235294
  0
LINE
  5
168
330
1F
100
AcDbEntity
  8
0
  6
Continuous
 62
     7
370
    15
100
AcDbLine
 10
3.7346486537
 20
6.4744515831
 30
0.0
 11
3.7341975123
 21
6.4717737741
 31
0.0
  0
LINE
  5
169
330
1F
100
AcDbEntity
  8
0
  6
Continuous
 62
     7
370
    15
100
AcDbLine
 10
3.7281739819
 20
6.4830253241
 30
0.0
 11
3.7346486537
 21
6.4744515831
 31
0.0
  0
LINE
  5
16A
330
1F
100
AcDbEntity
  8
0
  6
Continuous
 62
     7
370
    15
100
AcDbLine
 10
3.725941741
 20
6.4827061811
 30
0.0
 11
3.7281739819
 21
6.4830253241
 31
0.0
  0
LINE
  5
16B
330
1F
100
AcDbEntity
  8
0
  6
Continuous
 62
     7
370
    15
100
AcDbLine
 10
3.7140134788
 20
6.5010747956
 30
0.0
 11
3.725941741
 21
6.4827061811
 31
0.0
  0
LINE
  5
16C
330
1F
100
AcDbEntity
  8
0
  6
Continuous
 62
     7
370
    15
100
AcDbLine
 10
3.7211268766
 20
6.5064468402
 30
0.0
 11
3.7140134788
 21
6.5010747956
 31
0.0
  0
LINE
  5
16D
330
1F
100
AcDbEntity
  8
0
  6
Continuous
 62
     7
370
    15
100
AcDbLine
 10
3.7329974995
 20
6.505624343
 30
0.0
 11
3.7211268766
 21
6.5064468402
 31
0.0
  0
LINE
  5
16E
330
1F
100
AcDbEntity
  8
0
  6
Continuous
 62
     7
370
    15
100
AcDbLine
 10
3.7437995214
 20
6.4933185652
 30
0.0
 11
3.7329974995
 21
6.505624343
 31
0.0
  0
LINE
  5
16F
330
1F
100
AcDbEntity
  8
0
  6
Continuous
 62
     7
370
    15
100
AcDbLine
 10
3.7936097326
 20
6.4273592205
 30
0.0
 11
3.7437995214
 21
6.4933185652
 31
0.0
  0
LINE
  5
170
330
1F
100
AcDbEntity
  8
0
  6
Continuous
 62
     7
370
    15
100
AcDbLine
 10
3.8179760645
 20
6.3815026569
 30
0.0
 11
3.7936097326
 21
6.4273592205
 31
0.0
  0
LINE
  5
171
330
1F
100
AcDbEntity
  8
0
  6
Continuous
 62
     7
370
    15
100
AcDbLine
 10
3.8885993553
 20
6.2846773754
 30
0.0
 11
3.8179760645
 21
6.3815026569
 31
0.0
  0
LINE
  5
172
330
1F
100
AcDbEntity
  8
0
  6
Continuous
 62
     7
370
    15
100
AcDbLine
 10
3.9974256448
 20
6.1476614916
 30
0.0
 11
3.8885993553
 21
6.2846773754
 31
0.0
  0
ARC
  5
173
330
1F
100
AcDbEntity
  8
0
  6
Continuous
 62
     7
370
    15
100
AcDbCircle
 10
4.2195181354
 20
5.8149970652
 30
0.0
 40
0.3999883576920472
100
AcDbArc
 50
118.9991173876
 51
123.7277516913
  0
LINE
  5
174
330
1F
100
AcDbEntity
  8
0
  6
Continuous
 62
     7
370
    15
100
AcDbLine
 10
3.9501160713
 20
6.3223383003
 30
0.0
 11
4.0256052659
 21
6.1648377198
 31
0.0
  0
LINE
  5
175
330
1F
100
AcDbEntity
  8
0
  6
Continuous
 62
     7
370
    15
100
AcDbLine
 10
3.8904699203
 20
6.4264443244
 30
0.0
 11
3.9501160713
 21
6.3223383003
 31
0.0
  0
LINE
  5
176
330
1F
100
AcDbEntity
  8
0
  6
Continuous
 62
     7
370
    15
100
AcDbLine
 10
3.8582791589
 20
6.4783314583
 30
0.0
 11
3.8904699203
 21
6.4264443244
 31
0.0
  0
LINE
  5
177
330
1F
100
AcDbEntity
  8
0
  6
Continuous
 62
     7
370
    15
100
AcDbLine
 10
3.8258194139
 20
6.5435196386
 30
0.0
 11
3.8582791589
 21
6.4783314583
 31
0.0
  0
LINE
  5
178
330
1F
100
AcDbEntity
  8
0
  6
Continuous
 62
     7
370
    15
100
AcDbLine
 10
3.8199564816
 20
6.5592485769
 30
0.0
 11
3.8258194139
 21
6.5435196386
 31
0.0
  0
LINE
  5
179
330
1F
100
AcDbEntity
  8
0
  6
Continuous
 62
     7
370
    15
100
AcDbLine
 10
3.8238722897
 20
6.5699231469
 30
0.0
 11
3.8199564816
 21
6.5592485769
 31
0.0
  0
LINE
  5
17A
330
1F
100
AcDbEntity
  8
0
  6
Continuous
 62
     7
370
    15
100
AcDbLine
 10
3.8305436393
 20
6.5732451085
 30
0.0
 11
3.8238722897
 21
6.5699231469
 31
0.0
  0
LINE
  5
17B
330
1F
100
AcDbEntity
  8
0
  6
Continuous
 62
     7
370
    15
100
AcDbLine
 10
3.8418507753
 20
6.5544696454
 30
0.0
 11
3.8305436393
 21
6.5732451085
 31
0.0
  0
LINE
  5
17C
330
1F
100
AcDbEntity
  8
0
  6
Continuous
 62
     7
370
    15
100
AcDbLine
 10
3.8404878177
 20
6.552598787
 30
0.0
 11
3.8418507753
 21
6.5544696454
 31
0.0
  0
LINE
  5
17D
330
1F
100
AcDbEntity
  8
0
  6
Continuous
 62
     7
370
    15
100
AcDbLine
 10
3.8464751219
 20
6.5405748993
 30
0.0
 11
3.8404878177
 21
6.552598787
 31
0.0
  0
LINE
  5
17E
330
1F
100
AcDbEntity
  8
0
  6
Continuous
 62
     7
370
    15
100
AcDbLine
 10
3.8492699696
 20
6.5387078542
 30
0.0
 11
3.8464751219
 21
6.5405748993
 31
0.0
  0
ARC
  5
17F
330
1F
100
AcDbEntity
  8
0
  6
Continuous
 62
     7
370
    15
100
AcDbCircle
 10
3.8383352202
 20
6.5223391437
 30
0.0
 40
0.0196850393700783
100
AcDbArc
 50
26.4705882353
 51
56.2560220718
  0
LINE
  5
180
330
1F
100
AcDbEntity
  8
0
  6
Continuous
 62
     7
370
    15
100
AcDbLine
 10
3.8691864862
 20
6.5045440088
 30
0.0
 11
3.8559565724
 21
6.5311135419
 31
0.0
  0
ARC
  5
181
330
1F
100
AcDbEntity
  8
0
  6
Continuous
 62
     7
370
    15
100
AcDbCircle
 10
3.8755195483
 20
6.5058393574
 30
0.0
 40
0.0064641180335305
100
AcDbArc
 50
191.5585120664
 51
42.1552473632
  0
LINE
  5
182
330
1F
100
AcDbEntity
  8
0
  6
Continuous
 62
     7
370
    15
100
AcDbLine
 10
3.8652014522
 20
6.5405229799
 30
0.0
 11
3.880311611
 21
6.5101777037
 31
0.0
  0
ARC
  5
183
330
1F
100
AcDbEntity
  8
0
  6
Continuous
 62
     7
370
    15
100
AcDbCircle
 10
3.8828228171
 20
6.5492972341
 30
0.0
 40
0.0196850393700789
100
AcDbArc
 50
178.6287807171
 51
206.4705882353
  0
LINE
  5
184
330
1F
100
AcDbEntity
  8
0
  6
Continuous
 62
     7
370
    15
100
AcDbLine
 10
3.8640788785
 20
6.5523177769
 30
0.0
 11
3.8631434494
 21
6.5497681531
 31
0.0
  0
LINE
  5
185
330
1F
100
AcDbEntity
  8
0
  6
Continuous
 62
     7
370
    15
100
AcDbLine
 10
3.8592899739
 20
6.5619351858
 30
0.0
 11
3.8640788785
 21
6.5523177769
 31
0.0
  0
LINE
  5
186
330
1F
100
AcDbEntity
  8
0
  6
Continuous
 62
     7
370
    15
100
AcDbLine
 10
3.8570370532
 20
6.5620316914
 30
0.0
 11
3.8592899739
 21
6.5619351858
 31
0.0
  0
LINE
  5
187
330
1F
100
AcDbEntity
  8
0
  6
Continuous
 62
     7
370
    15
100
AcDbLine
 10
3.848687123
 20
6.5822793775
 30
0.0
 11
3.8570370532
 21
6.5620316914
 31
0.0
  0
LINE
  5
188
330
1F
100
AcDbEntity
  8
0
  6
Continuous
 62
     7
370
    15
100
AcDbLine
 10
3.8566664308
 20
6.5862525316
 30
0.0
 11
3.848687123
 21
6.5822793775
 31
0.0
  0
LINE
  5
189
330
1F
100
AcDbEntity
  8
0
  6
Continuous
 62
     7
370
    15
100
AcDbLine
 10
3.8681838845
 20
6.5832629128
 30
0.0
 11
3.8566664308
 21
6.5862525316
 31
0.0
  0
LINE
  5
18A
330
1F
100
AcDbEntity
  8
0
  6
Continuous
 62
     7
370
    15
100
AcDbLine
 10
3.8765408546
 20
6.5691819021
 30
0.0
 11
3.8681838845
 21
6.5832629128
 31
0.0
  0
LINE
  5
18B
330
1F
100
AcDbEntity
  8
0
  6
Continuous
 62
     7
370
    15
100
AcDbLine
 10
3.913382949
 20
6.4951929435
 30
0.0
 11
3.8765408546
 21
6.5691819021
 31
0.0
  0
LINE
  5
18C
330
1F
100
AcDbEntity
  8
0
  6
Continuous
 62
     7
370
    15
100
AcDbLine
 10
3.9289081696
 20
6.4456401293
 30
0.0
 11
3.913382949
 21
6.4951929435
 31
0.0
  0
LINE
  5
18D
330
1F
100
AcDbEntity
  8
0
  6
Continuous
 62
     7
370
    15
100
AcDbLine
 10
3.9805374665
 20
6.3374864454
 30
0.0
 11
3.9289081696
 21
6.4456401293
 31
0.0
  0
LINE
  5
18E
330
1F
100
AcDbEntity
  8
0
  6
Continuous
 62
     7
370
    15
100
AcDbLine
 10
4.062334135
 20
6.1828066722
 30
0.0
 11
3.9805374665
 21
6.3374864454
 31
0.0
  0
ARC
  5
18F
330
1F
100
AcDbEntity
  8
0
  6
Continuous
 62
     7
370
    15
100
AcDbCircle
 10
4.2195181354
 20
5.8149970652
 30
0.0
 40
0.3999883576920478
100
AcDbArc
 50
108.4108820935
 51
113.1395163971
  0
LINE
  5
190
330
1F
100
AcDbEntity
  8
0
  6
Continuous
 62
     7
370
    15
100
AcDbLine
 10
4.0479269414
 20
6.3632023883
 30
0.0
 11
4.0931900985
 21
6.1945124437
 31
0.0
  0
LINE
  5
191
330
1F
100
AcDbEntity
  8
0
  6
Continuous
 62
     7
370
    15
100
AcDbLine
 10
4.0084256644
 20
6.4764955062
 30
0.0
 11
4.0479269414
 21
6.3632023883
 31
0.0
  0
LINE
  5
192
330
1F
100
AcDbEntity
  8
0
  6
Continuous
 62
     7
370
    15
100
AcDbLine
 10
3.9863173864
 20
6.533414422
 30
0.0
 11
4.0084256644
 21
6.4764955062
 31
0.0
  0
LINE
  5
193
330
1F
100
AcDbEntity
  8
0
  6
Continuous
 62
     7
370
    15
100
AcDbLine
 10
3.96638855
 20
6.6034572128
 30
0.0
 11
3.9863173864
 21
6.533414422
 31
0.0
  0
LINE
  5
194
330
1F
100
AcDbEntity
  8
0
  6
Continuous
 62
     7
370
    15
100
AcDbLine
 10
3.9635156765
 20
6.6199954485
 30
0.0
 11
3.96638855
 21
6.6034572128
 31
0.0
  0
LINE
  5
195
330
1F
100
AcDbEntity
  8
0
  6
Continuous
 62
     7
370
    15
100
AcDbLine
 10
3.9693262494
 20
6.6297689089
 30
0.0
 11
3.9635156765
 21
6.6199954485
 31
0.0
  0
LINE
  5
196
330
1F
100
AcDbEntity
  8
0
  6
Continuous
 62
     7
370
    15
100
AcDbLine
 10
3.9764943532
 20
6.6318081387
 30
0.0
 11
3.9693262494
 21
6.6297689089
 31
0.0
  0
LINE
  5
197
330
1F
100
AcDbEntity
  8
0
  6
Continuous
 62
     7
370
    15
100
AcDbLine
 10
3.9841590647
 20
6.6112750425
 30
0.0
 11
3.9764943532
 21
6.6318081387
 31
0.0
  0
LINE
  5
198
330
1F
100
AcDbEntity
  8
0
  6
Continuous
 62
     7
370
    15
100
AcDbLine
 10
3.9824754975
 20
6.6096863675
 30
0.0
 11
3.9841590647
 21
6.6112750425
 31
0.0
  0
LINE
  5
199
330
1F
100
AcDbEntity
  8
0
  6
Continuous
 62
     7
370
    15
100
AcDbLine
 10
3.9861513617
 20
6.5967669435
 30
0.0
 11
3.9824754975
 21
6.6096863675
 31
0.0
  0
LINE
  5
19A
330
1F
100
AcDbEntity
  8
0
  6
Continuous
 62
     7
370
    15
100
AcDbLine
 10
3.9885556406
 20
6.5944182506
 30
0.0
 11
3.9861513617
 21
6.5967669435
 31
0.0
  0
ARC
  5
19B
330
1F
100
AcDbEntity
  8
0
  6
Continuous
 62
     7
370
    15
100
AcDbCircle
 10
3.9747993496
 20
6.5803374775
 30
0.0
 40
0.0196850393700788
100
AcDbArc
 50
15.8823529412
 51
45.6677867777
  0
LINE
  5
19C
330
1F
100
AcDbEntity
  8
0
  6
Continuous
 62
     7
370
    15
100
AcDbLine
 10
4.0018555136
 20
6.5571764941
 30
0.0
 11
3.9937329141
 21
6.5857245377
 31
0.0
  0
ARC
  5
19D
330
1F
100
AcDbEntity
  8
0
  6
Continuous
 62
     7
370
    15
100
AcDbCircle
 10
4.0083187161
 20
6.5572860291
 30
0.0
 40
0.0064641180335314
100
AcDbArc
 50
180.9702767723
 51
31.5670120691
  0
LINE
  5
19E
330
1F
100
AcDbEntity
  8
0
  6
Continuous
 62
     7
370
    15
100
AcDbLine
 10
4.0045494558
 20
6.5932748505
 30
0.0
 11
4.0138263087
 21
6.5606700538
 31
0.0
  0
ARC
  5
19F
330
1F
100
AcDbEntity
  8
0
  6
Continuous
 62
     7
370
    15
100
AcDbCircle
 10
4.0234829966
 20
6.5986619807
 30
0.0
 40
0.0196850393700791
100
AcDbArc
 50
168.040545423
 51
195.8823529412
  0
LINE
  5
1A0
330
1F
100
AcDbEntity
  8
0
  6
Continuous
 62
     7
370
    15
100
AcDbLine
 10
4.0056132169
 20
6.6050752208
 30
0.0
 11
4.0042251796
 21
6.6027411944
 31
0.0
  0
LINE
  5
1A1
330
1F
100
AcDbEntity
  8
0
  6
Continuous
 62
     7
370
    15
100
AcDbLine
 10
4.0026730242
 20
6.6154089414
 30
0.0
 11
4.0056132169
 21
6.6050752208
 31
0.0
  0
LINE
  5
1A2
330
1F
100
AcDbEntity
  8
0
  6
Continuous
 62
     7
370
    15
100
AcDbLine
 10
4.0004761295
 20
6.6159175756
 30
0.0
 11
4.0026730242
 21
6.6154089414
 31
0.0
  0
LINE
  5
1A3
330
1F
100
AcDbEntity
  8
0
  6
Continuous
 62
     7
370
    15
100
AcDbLine
 10
3.9959889147
 20
6.6373550079
 30
0.0
 11
4.0004761295
 21
6.6159175756
 31
0.0
  0
LINE
  5
1A4
330
1F
100
AcDbEntity
  8
0
  6
Continuous
 62
     7
370
    15
100
AcDbLine
 10
4.004562509
 20
6.6397943397
 30
0.0
 11
3.9959889147
 21
6.6373550079
 31
0.0
  0
LINE
  5
1A5
330
1F
100
AcDbEntity
  8
0
  6
Continuous
 62
     7
370
    15
100
AcDbLine
 10
4.0153344646
 20
6.6347390915
 30
0.0
 11
4.004562509
 21
6.6397943397
 31
0.0
  0
LINE
  5
1A6
330
1F
100
AcDbEntity
  8
0
  6
Continuous
 62
     7
370
    15
100
AcDbLine
 10
4.0209617062
 20
6.6193624424
 30
0.0
 11
4.0153344646
 21
6.6347390915
 31
0.0
  0
LINE
  5
1A7
330
1F
100
AcDbEntity
  8
0
  6
Continuous
 62
     7
370
    15
100
AcDbLine
 10
4.0435811116
 20
6.5398635741
 30
0.0
 11
4.0209617062
 21
6.6193624424
 31
0.0
  0
LINE
  5
1A8
330
1F
100
AcDbEntity
  8
0
  6
Continuous
 62
     7
370
    15
100
AcDbLine
 10
4.0497367871
 20
6.4883017431
 30
0.0
 11
4.0435811116
 21
6.5398635741
 31
0.0
  0
LINE
  5
1A9
330
1F
100
AcDbEntity
  8
0
  6
Continuous
 62
     7
370
    15
100
AcDbLine
 10
4.0806137238
 20
6.3725027075
 30
0.0
 11
4.0497367871
 21
6.4883017431
 31
0.0
  0
LINE
  5
1AA
330
1F
100
AcDbEntity
  8
0
  6
Continuous
 62
     7
370
    15
100
AcDbLine
 10
4.13259531
 20
6.2054265176
 30
0.0
 11
4.0806137238
 21
6.3725027075
 31
0.0
  0
ARC
  5
1AB
330
1F
100
AcDbEntity
  8
0
  6
Continuous
 62
     7
370
    15
100
AcDbCircle
 10
4.2195181354
 20
5.8149970652
 30
0.0
 40
0.3999883576920474
100
AcDbArc
 50
97.8226467993
 51
102.551281103
  0
LINE
  5
1AC
330
1F
100
AcDbEntity
  8
0
  6
Continuous
 62
     7
370
    15
100
AcDbLine
 10
4.151580944
 20
6.3853980785
 30
0.0
 11
4.1650769081
 21
6.2112631968
 31
0.0
  0
LINE
  5
1AD
330
1F
100
AcDbEntity
  8
0
  6
Continuous
 62
     7
370
    15
100
AcDbLine
 10
4.1335698987
 20
6.5040204149
 30
0.0
 11
4.151580944
 21
6.3853980785
 31
0.0
  0
LINE
  5
1AE
330
1F
100
AcDbEntity
  8
0
  6
Continuous
 62
     7
370
    15
100
AcDbLine
 10
4.1222969356
 20
6.5640324949
 30
0.0
 11
4.1335698987
 21
6.5040204149
 31
0.0
  0
LINE
  5
1AF
330
1F
100
AcDbEntity
  8
0
  6
Continuous
 62
     7
370
    15
100
AcDbLine
 10
4.1155776265
 20
6.6365445373
 30
0.0
 11
4.1222969356
 21
6.5640324949
 31
0.0
  0
LINE
  5
1B0
330
1F
100
AcDbEntity
  8
0
  6
Continuous
 62
     7
370
    15
100
AcDbLine
 10
4.1157926374
 20
6.65332917
 30
0.0
 11
4.1155776265
 21
6.6365445373
 31
0.0
  0
LINE
  5
1B1
330
1F
100
AcDbEntity
  8
0
  6
Continuous
 62
     7
370
    15
100
AcDbLine
 10
4.123300124
 20
6.6618682981
 30
0.0
 11
4.1157926374
 21
6.65332917
 31
0.0
  0
LINE
  5
1B2
330
1F
100
AcDbEntity
  8
0
  6
Continuous
 62
     7
370
    15
100
AcDbLine
 10
4.1307209316
 20
6.6625561568
 30
0.0
 11
4.123300124
 21
6.6618682981
 31
0.0
  0
LINE
  5
1B3
330
1F
100
AcDbEntity
  8
0
  6
Continuous
 62
     7
370
    15
100
AcDbLine
 10
4.1344821548
 20
6.6409641396
 30
0.0
 11
4.1307209316
 21
6.6625561568
 31
0.0
  0
LINE
  5
1B4
330
1F
100
AcDbEntity
  8
0
  6
Continuous
 62
     7
370
    15
100
AcDbLine
 10
4.1325354706
 20
6.639711914
 30
0.0
 11
4.1344821548
 21
6.6409641396
 31
0.0
  0
LINE
  5
1B5
330
1F
100
AcDbEntity
  8
0
  6
Continuous
 62
     7
370
    15
100
AcDbLine
 10
4.1337747897
 20
6.6263369485
 30
0.0
 11
4.1325354706
 21
6.639711914
 31
0.0
  0
LINE
  5
1B6
330
1F
100
AcDbEntity
  8
0
  6
Continuous
 62
     7
370
    15
100
AcDbLine
 10
4.1357063673
 20
6.6235863936
 30
0.0
 11
4.1337747897
 21
6.6263369485
 31
0.0
  0
ARC
  5
1B7
330
1F
100
AcDbEntity
  8
0
  6
Continuous
 62
     7
370
    15
100
AcDbCircle
 10
4.1195970837
 20
6.6122730615
 30
0.0
 40
0.0196850393700783
100
AcDbArc
 50
5.2941176471
 51
35.0795514836
  0
LINE
  5
1B8
330
1F
100
AcDbEntity
  8
0
  6
Continuous
 62
     7
370
    15
100
AcDbLine
 10
4.141936842
 20
6.5845350848
 30
0.0
 11
4.139198167
 21
6.61408925
 31
0.0
  0
ARC
  5
1B9
330
1F
100
AcDbEntity
  8
0
  6
Continuous
 62
     7
370
    15
100
AcDbCircle
 10
4.1483100267
 20
6.5834549403
 30
0.0
 40
0.006464118033531
100
AcDbArc
 50
170.3820414781
 51
20.978776775
  0
LINE
  5
1BA
330
1F
100
AcDbEntity
  8
0
  6
Continuous
 62
     7
370
    15
100
AcDbLine
 10
4.1512178015
 20
6.6195237739
 30
0.0
 11
4.1543457254
 21
6.5857691238
 31
0.0
  0
ARC
  5
1BB
330
1F
100
AcDbEntity
  8
0
  6
Continuous
 62
     7
370
    15
100
AcDbCircle
 10
4.1708189178
 20
6.6213399585
 30
0.0
 40
0.0196850393700782
100
AcDbArc
 50
157.4523101289
 51
185.2941176471
  0
LINE
  5
1BC
330
1F
100
AcDbEntity
  8
0
  6
Continuous
 62
     7
370
    15
100
AcDbLine
 10
4.1544318177
 20
6.6309275622
 30
0.0
 11
4.1526385451
 21
6.6288883324
 31
0.0
  0
LINE
  5
1BD
330
1F
100
AcDbEntity
  8
0
  6
Continuous
 62
     7
370
    15
100
AcDbLine
 10
4.1534405091
 20
6.6416255986
 30
0.0
 11
4.1544318177
 21
6.6309275622
 31
0.0
  0
LINE
  5
1BE
330
1F
100
AcDbEntity
  8
0
  6
Continuous
 62
     7
370
    15
100
AcDbLine
 10
4.1513745863
 20
6.6425293481
 30
0.0
 11
4.1534405091
 21
6.6416255986
 31
0.0
  0
LINE
  5
1BF
330
1F
100
AcDbEntity
  8
0
  6
Continuous
 62
     7
370
    15
100
AcDbLine
 10
4.1509027651
 20
6.6644261352
 30
0.0
 11
4.1513745863
 21
6.6425293481
 31
0.0
  0
LINE
  5
1C0
330
1F
100
AcDbEntity
  8
0
  6
Continuous
 62
     7
370
    15
100
AcDbLine
 10
4.1597787826
 20
6.6652486324
 30
0.0
 11
4.1509027651
 21
6.6644261352
 31
0.0
  0
LINE
  5
1C1
330
1F
100
AcDbEntity
  8
0
  6
Continuous
 62
     7
370
    15
100
AcDbLine
 10
4.1694382843
 20
6.6583002326
 30
0.0
 11
4.1597787826
 21
6.6652486324
 31
0.0
  0
LINE
  5
1C2
330
1F
100
AcDbEntity
  8
0
  6
Continuous
 62
     7
370
    15
100
AcDbLine
 10
4.1721442531
 20
6.6421512458
 30
0.0
 11
4.1694382843
 21
6.6583002326
 31
0.0
  0
LINE
  5
1C3
330
1F
100
AcDbEntity
  8
0
  6
Continuous
 62
     7
370
    15
100
AcDbLine
 10
4.179770685
 20
6.5598496099
 30
0.0
 11
4.1721442531
 21
6.6421512458
 31
0.0
  0
LINE
  5
1C4
330
1F
100
AcDbEntity
  8
0
  6
Continuous
 62
     7
370
    15
100
AcDbLine
 10
4.1763469379
 20
6.5080346352
 30
0.0
 11
4.179770685
 21
6.5598496099
 31
0.0
  0
LINE
  5
1C5
330
1F
100
AcDbEntity
  8
0
  6
Continuous
 62
     7
370
    15
100
AcDbLine
 10
4.1854200731
 20
6.3885334823
 30
0.0
 11
4.1763469379
 21
6.5080346352
 31
0.0
  0
LINE
  5
1C6
330
1F
100
AcDbEntity
  8
0
  6
Continuous
 62
     7
370
    15
100
AcDbLine
 10
4.2058166241
 20
6.2147507432
 30
0.0
 11
4.1854200731
 21
6.3885334823
 31
0.0
  0
ARC
  5
1C7
330
1F
100
AcDbEntity
  8
0
  6
Continuous
 62
     7
370
    15
100
AcDbCircle
 10
4.2195181354
 20
5.8149970652
 30
0.0
 40
0.3999883576920468
100
AcDbArc
 50
90.4286773004
 51
91.9630458089
  0
LINE
  5
1C8
330
1F
100
AcDbEntity
  8
0
  6
Continuous
 62
     7
370
    15
100
AcDbLine
 10
4.2094782618
 20
6.4120124911
 30
0.0
 11
4.2165255137
 21
6.2149742606
 31
0.0
  0
LINE
  5
1C9
330
1F
100
AcDbEntity
  8
0
  6
Continuous
 62
     7
370
    15
100
AcDbLine
 10
4.2698043516
 20
6.4058578422
 30
0.0
 11
4.2094782618
 21
6.4120124911
 31
0.0
  0
LINE
  5
1CA
330
1F
100
AcDbEntity
  8
0
  6
Continuous
 62
     7
370
    15
100
AcDbLine
 10
4.2654765616
 20
6.3765797004
 30
0.0
 11
4.2698043516
 21
6.4058578422
 31
0.0
  0
LINE
  5
1CB
330
1F
100
AcDbEntity
  8
0
  6
Continuous
 62
     7
370
    15
100
AcDbLine
 10
4.2409657647
 20
6.3796822512
 30
0.0
 11
4.2654765616
 21
6.3765797004
 31
0.0
  0
LINE
  5
1CC
330
1F
100
AcDbEntity
  8
0
  6
Continuous
 62
     7
370
    15
100
AcDbLine
 10
4.2409657647
 20
6.3653469235
 30
0.0
 11
4.2409657647
 21
6.3796822512
 31
0.0
  0
LINE
  5
1CD
330
1F
100
AcDbEntity
  8
0
  6
Continuous
 62
     7
370
    15
100
AcDbLine
 10
4.2639035797
 20
6.3624435437
 30
0.0
 11
4.2409657647
 21
6.3653469235
 31
0.0
  0
LINE
  5
1CE
330
1F
100
AcDbEntity
  8
0
  6
Continuous
 62
     7
370
    15
100
AcDbLine
 10
4.2598377334
 20
6.2815465182
 30
0.0
 11
4.2639035797
 21
6.3624435437
 31
0.0
  0
LINE
  5
1CF
330
1F
100
AcDbEntity
  8
0
  6
Continuous
 62
     7
370
    15
100
AcDbLine
 10
4.2639035797
 20
6.2813086277
 30
0.0
 11
4.2598377334
 21
6.2815465182
 31
0.0
  0
LINE
  5
1D0
330
1F
100
AcDbEntity
  8
0
  6
Continuous
 62
     7
370
    15
100
AcDbLine
 10
4.2738081587
 20
6.3606498311
 30
0.0
 11
4.2639035797
 21
6.2813086277
 31
0.0
  0
LINE
  5
1D1
330
1F
100
AcDbEntity
  8
0
  6
Continuous
 62
     7
370
    15
100
AcDbLine
 10
4.2972109016
 20
6.3582275124
 30
0.0
 11
4.2738081587
 21
6.3606498311
 31
0.0
  0
LINE
  5
1D2
330
1F
100
AcDbEntity
  8
0
  6
Continuous
 62
     7
370
    15
100
AcDbLine
 10
4.2972109016
 20
6.3722648169
 30
0.0
 11
4.2972109016
 21
6.3582275124
 31
0.0
  0
LINE
  5
1D3
330
1F
100
AcDbEntity
  8
0
  6
Continuous
 62
     7
370
    15
100
AcDbLine
 10
4.2751089303
 20
6.3753063551
 30
0.0
 11
4.2972109016
 21
6.3722648169
 31
0.0
  0
LINE
  5
1D4
330
1F
100
AcDbEntity
  8
0
  6
Continuous
 62
     7
370
    15
100
AcDbLine
 10
4.2757527895
 20
6.4052509425
 30
0.0
 11
4.2751089303
 21
6.3753063551
 31
0.0
  0
LINE
  5
1D5
330
1F
100
AcDbEntity
  8
0
  6
Continuous
 62
     7
370
    15
100
AcDbLine
 10
4.333655974
 20
6.3993435708
 30
0.0
 11
4.2757527895
 21
6.4052509425
 31
0.0
  0
LINE
  5
1D6
330
1F
100
AcDbEntity
  8
0
  6
Continuous
 62
     7
370
    15
100
AcDbLine
 10
4.2964087909
 20
6.20752544
 30
0.0
 11
4.333655974
 21
6.3993435708
 31
0.0
  0
ARC
  5
1D7
330
1F
100
AcDbEntity
  8
0
  6
Continuous
 62
     7
370
    15
100
AcDbCircle
 10
4.2195181354
 20
5.8149970652
 30
0.0
 40
0.3999883576920466
100
AcDbArc
 50
76.6461762111
 51
78.9169230959
  0
LINE
  5
1D8
330
1F
100
AcDbEntity
  8
0
  6
Continuous
 62
     7
370
    15
100
AcDbLine
 10
4.3622211773
 20
6.3714217867
 30
0.0
 11
4.3119010119
 21
6.2041706254
 31
0.0
  0
LINE
  5
1D9
330
1F
100
AcDbEntity
  8
0
  6
Continuous
 62
     7
370
    15
100
AcDbLine
 10
4.388277823
 20
6.4885402204
 30
0.0
 11
4.3622211773
 21
6.3714217867
 31
0.0
  0
LINE
  5
1DA
330
1F
100
AcDbEntity
  8
0
  6
Continuous
 62
     7
370
    15
100
AcDbLine
 10
4.3994447473
 20
6.5485722469
 30
0.0
 11
4.388277823
 21
6.4885402204
 31
0.0
  0
LINE
  5
1DB
330
1F
100
AcDbEntity
  8
0
  6
Continuous
 62
     7
370
    15
100
AcDbLine
 10
4.4193737304
 20
6.6186147444
 30
0.0
 11
4.3994447473
 21
6.5485722469
 31
0.0
  0
LINE
  5
1DC
330
1F
100
AcDbEntity
  8
0
  6
Continuous
 62
     7
370
    15
100
AcDbLine
 10
4.425637498
 20
6.6341885112
 30
0.0
 11
4.4193737304
 21
6.6186147444
 31
0.0
  0
LINE
  5
1DD
330
1F
100
AcDbEntity
  8
0
  6
Continuous
 62
     7
370
    15
100
AcDbLine
 10
4.4357227682
 20
6.6394391172
 30
0.0
 11
4.425637498
 21
6.6341885112
 31
0.0
  0
LINE
  5
1DE
330
1F
100
AcDbEntity
  8
0
  6
Continuous
 62
     7
370
    15
100
AcDbLine
 10
4.4428907254
 20
6.6373995941
 30
0.0
 11
4.4357227682
 21
6.6394391172
 31
0.0
  0
LINE
  5
1DF
330
1F
100
AcDbEntity
  8
0
  6
Continuous
 62
     7
370
    15
100
AcDbLine
 10
4.438598135
 20
6.6159067224
 30
0.0
 11
4.4428907254
 21
6.6373995941
 31
0.0
  0
LINE
  5
1E0
330
1F
100
AcDbEntity
  8
0
  6
Continuous
 62
     7
370
    15
100
AcDbLine
 10
4.4363304012
 20
6.6154423811
 30
0.0
 11
4.438598135
 21
6.6159067224
 31
0.0
  0
LINE
  5
1E1
330
1F
100
AcDbEntity
  8
0
  6
Continuous
 62
     7
370
    15
100
AcDbLine
 10
4.432654537
 20
6.602522957
 30
0.0
 11
4.4363304012
 21
6.6154423811
 31
0.0
  0
LINE
  5
1E2
330
1F
100
AcDbEntity
  8
0
  6
Continuous
 62
     7
370
    15
100
AcDbLine
 10
4.433462221
 20
6.599260248
 30
0.0
 11
4.432654537
 21
6.602522957
 31
0.0
  0
ARC
  5
1E3
330
1F
100
AcDbEntity
  8
0
  6
Continuous
 62
     7
370
    15
100
AcDbCircle
 10
4.4143538388
 20
6.5945304381
 30
0.0
 40
0.0196850393700794
100
AcDbArc
 50
344.1176470588
 51
13.9030808954
  0
LINE
  5
1E4
330
1F
100
AcDbEntity
  8
0
  6
Continuous
 62
     7
370
    15
100
AcDbLine
 10
4.4251647968
 20
6.5605952547
 30
0.0
 11
4.4332873963
 21
6.5891432982
 31
0.0
  0
ARC
  5
1E5
330
1F
100
AcDbEntity
  8
0
  6
Continuous
 62
     7
370
    15
100
AcDbCircle
 10
4.4307175548
 20
6.5572860291
 30
0.0
 40
0.0064641180335309
100
AcDbArc
 50
149.2055708899
 51
359.8023061867
  0
LINE
  5
1E6
330
1F
100
AcDbEntity
  8
0
  6
Continuous
 62
     7
370
    15
100
AcDbLine
 10
4.4464584975
 20
6.5898687031
 30
0.0
 11
4.4371816447
 21
6.5572636131
 31
0.0
  0
ARC
  5
1E7
330
1F
100
AcDbEntity
  8
0
  6
Continuous
 62
     7
370
    15
100
AcDbCircle
 10
4.4653921177
 20
6.5844816071
 30
0.0
 40
0.0196850393700786
100
AcDbArc
 50
136.2758395406
 51
164.1176470588
  0
LINE
  5
1E8
330
1F
100
AcDbEntity
  8
0
  6
Continuous
 62
     7
370
    15
100
AcDbLine
 10
4.453575122
 20
6.5993415004
 30
0.0
 11
4.4511661498
 21
6.5980875149
 31
0.0
  0
LINE
  5
1E9
330
1F
100
AcDbEntity
  8
0
  6
Continuous
 62
     7
370
    15
100
AcDbLine
 10
4.4565153147
 20
6.609675221
 30
0.0
 11
4.453575122
 21
6.5993415004
 31
0.0
  0
LINE
  5
1EA
330
1F
100
AcDbEntity
  8
0
  6
Continuous
 62
     7
370
    15
100
AcDbLine
 10
4.4549153465
 20
6.6112641893
 30
0.0
 11
4.4565153147
 21
6.609675221
 31
0.0
  0
LINE
  5
1EB
330
1F
100
AcDbEntity
  8
0
  6
Continuous
 62
     7
370
    15
100
AcDbLine
 10
4.4623854335
 20
6.6318527248
 30
0.0
 11
4.4549153465
 21
6.6112641893
 31
0.0
  0
LINE
  5
1EC
330
1F
100
AcDbEntity
  8
0
  6
Continuous
 62
     7
370
    15
100
AcDbLine
 10
4.4709590278
 20
6.629413393
 30
0.0
 11
4.4623854335
 21
6.6318527248
 31
0.0
  0
LINE
  5
1ED
330
1F
100
AcDbEntity
  8
0
  6
Continuous
 62
     7
370
    15
100
AcDbLine
 10
4.4774562861
 20
6.6194448681
 30
0.0
 11
4.4709590278
 21
6.629413393
 31
0.0
  0
LINE
  5
1EE
330
1F
100
AcDbEntity
  8
0
  6
Continuous
 62
     7
370
    15
100
AcDbLine
 10
4.474145911
 20
6.6034088134
 30
0.0
 11
4.4774562861
 21
6.6194448681
 31
0.0
  0
LINE
  5
1EF
330
1F
100
AcDbEntity
  8
0
  6
Continuous
 62
     7
370
    15
100
AcDbLine
 10
4.4515265056
 20
6.5239099451
 30
0.0
 11
4.474145911
 21
6.6034088134
 31
0.0
  0
LINE
  5
1F0
330
1F
100
AcDbEntity
  8
0
  6
Continuous
 62
     7
370
    15
100
AcDbLine
 10
4.4296162254
 20
6.476830489
 30
0.0
 11
4.4515265056
 21
6.5239099451
 31
0.0
  0
LINE
  5
1F1
330
1F
100
AcDbEntity
  8
0
  6
Continuous
 62
     7
370
    15
100
AcDbLine
 10
4.3949079597
 20
6.3621214674
 30
0.0
 11
4.4296162254
 21
6.476830489
 31
0.0
  0
LINE
  5
1F2
330
1F
100
AcDbEntity
  8
0
  6
Continuous
 62
     7
370
    15
100
AcDbLine
 10
4.3511494385
 20
6.1927058245
 30
0.0
 11
4.3949079597
 21
6.3621214674
 31
0.0
  0
ARC
  5
1F3
330
1F
100
AcDbEntity
  8
0
  6
Continuous
 62
     7
370
    15
100
AcDbCircle
 10
4.2195181354
 20
5.8149970652
 30
0.0
 40
0.3999883576920463
100
AcDbArc
 50
66.057940917
 51
70.7865752207
  0
LINE
  5
1F4
330
1F
100
AcDbEntity
  8
0
  6
Continuous
 62
     7
370
    15
100
AcDbLine
 10
4.4620341709
 20
6.335725879
 30
0.0
 11
4.3818384973
 21
6.1805690047
 31
0.0
  0
LINE
  5
1F5
330
1F
100
AcDbEntity
  8
0
  6
Continuous
 62
     7
370
    15
100
AcDbLine
 10
4.5091675998
 20
6.4460625244
 30
0.0
 11
4.4620341709
 21
6.335725879
 31
0.0
  0
LINE
  5
1F6
330
1F
100
AcDbEntity
  8
0
  6
Continuous
 62
     7
370
    15
100
AcDbLine
 10
4.5311752655
 20
6.5030201598
 30
0.0
 11
4.5091675998
 21
6.4460625244
 31
0.0
  0
LINE
  5
1F7
330
1F
100
AcDbEntity
  8
0
  6
Continuous
 62
     7
370
    15
100
AcDbLine
 10
4.5636351572
 20
6.56820834
 30
0.0
 11
4.5311752655
 21
6.5030201598
 31
0.0
  0
LINE
  5
1F8
330
1F
100
AcDbEntity
  8
0
  6
Continuous
 62
     7
370
    15
100
AcDbLine
 10
4.5726540264
 20
6.5823659098
 30
0.0
 11
4.5636351572
 21
6.56820834
 31
0.0
  0
LINE
  5
1F9
330
1F
100
AcDbEntity
  8
0
  6
Continuous
 62
     7
370
    15
100
AcDbLine
 10
4.5835321674
 20
6.5856737916
 30
0.0
 11
4.5726540264
 21
6.5823659098
 31
0.0
  0
LINE
  5
1FA
330
1F
100
AcDbEntity
  8
0
  6
Continuous
 62
     7
370
    15
100
AcDbLine
 10
4.590203517
 20
6.58235183
 30
0.0
 11
4.5835321674
 21
6.5856737916
 31
0.0
  0
LINE
  5
1FB
330
1F
100
AcDbEntity
  8
0
  6
Continuous
 62
     7
370
    15
100
AcDbLine
 10
4.582034718
 20
6.5620140916
 30
0.0
 11
4.590203517
 21
6.58235183
 31
0.0
  0
LINE
  5
1FC
330
1F
100
AcDbEntity
  8
0
  6
Continuous
 62
     7
370
    15
100
AcDbLine
 10
4.5797203447
 20
6.5619741987
 30
0.0
 11
4.582034718
 21
6.5620140916
 31
0.0
  0
LINE
  5
1FD
330
1F
100
AcDbEntity
  8
0
  6
Continuous
 62
     7
370
    15
100
AcDbLine
 10
4.5737330406
 20
6.5499500176
 30
0.0
 11
4.5797203447
 21
6.5619741987
 31
0.0
  0
LINE
  5
1FE
330
1F
100
AcDbEntity
  8
0
  6
Continuous
 62
     7
370
    15
100
AcDbLine
 10
4.5739273716
 20
6.5465946164
 30
0.0
 11
4.5737330406
 21
6.5499500176
 31
0.0
  0
ARC
  5
1FF
330
1F
100
AcDbEntity
  8
0
  6
Continuous
 62
     7
370
    15
100
AcDbCircle
 10
4.5542752721
 20
6.5454564345
 30
0.0
 40
0.0196850393700789
100
AcDbArc
 50
333.5294117647
 51
3.3148456012
  0
LINE
  5
200
330
1F
100
AcDbEntity
  8
0
  6
Continuous
 62
     7
370
    15
100
AcDbLine
 10
4.5586665879
 20
6.5101125845
 30
0.0
 11
4.5718966484
 21
6.5366821176
 31
0.0
  0
ARC
  5
201
330
1F
100
AcDbEntity
  8
0
  6
Continuous
 62
     7
370
    15
100
AcDbCircle
 10
4.5635167225
 20
6.5058393574
 30
0.0
 40
0.0064641180335315
100
AcDbArc
 50
138.6173355958
 51
349.2140708926
  0
LINE
  5
202
330
1F
100
AcDbEntity
  8
0
  6
Continuous
 62
     7
370
    15
100
AcDbLine
 10
4.5849766707
 20
6.5349749373
 30
0.0
 11
4.5698666586
 21
6.5046296612
 31
0.0
  0
ARC
  5
203
330
1F
100
AcDbEntity
  8
0
  6
Continuous
 62
     7
370
    15
100
AcDbCircle
 10
4.6025980594
 20
6.5262004448
 30
0.0
 40
0.0196850393700793
100
AcDbArc
 50
125.6876042465
 51
153.5294117647
  0
LINE
  5
204
330
1F
100
AcDbEntity
  8
0
  6
Continuous
 62
     7
370
    15
100
AcDbLine
 10
4.5937127698
 20
6.5429787382
 30
0.0
 11
4.5911144531
 21
6.5421888006
 31
0.0
  0
LINE
  5
205
330
1F
100
AcDbEntity
  8
0
  6
Continuous
 62
     7
370
    15
100
AcDbLine
 10
4.5985016744
 20
6.5525961471
 30
0.0
 11
4.5937127698
 21
6.5429787382
 31
0.0
  0
LINE
  5
206
330
1F
100
AcDbEntity
  8
0
  6
Continuous
 62
     7
370
    15
100
AcDbLine
 10
4.5972208492
 20
6.5544520456
 30
0.0
 11
4.5985016744
 21
6.5525961471
 31
0.0
  0
LINE
  5
207
330
1F
100
AcDbEntity
  8
0
  6
Continuous
 62
     7
370
    15
100
AcDbLine
 10
4.6083470007
 20
6.573317561
 30
0.0
 11
4.5972208492
 21
6.5544520456
 31
0.0
  0
LINE
  5
208
330
1F
100
AcDbEntity
  8
0
  6
Continuous
 62
     7
370
    15
100
AcDbLine
 10
4.6163264552
 20
6.5693441136
 30
0.0
 11
4.6083470007
 21
6.573317561
 31
0.0
  0
LINE
  5
209
330
1F
100
AcDbEntity
  8
0
  6
Continuous
 62
     7
370
    15
100
AcDbLine
 10
4.6208812826
 20
6.5583515739
 30
0.0
 11
4.6163264552
 21
6.5693441136
 31
0.0
  0
LINE
  5
20A
330
1F
100
AcDbEntity
  8
0
  6
Continuous
 62
     7
370
    15
100
AcDbLine
 10
4.6146805809
 20
6.5431969756
 30
0.0
 11
4.6208812826
 21
6.5583515739
 31
0.0
  0
LINE
  5
20B
330
1F
100
AcDbEntity
  8
0
  6
Continuous
 62
     7
370
    15
100
AcDbLine
 10
4.5778384865
 20
6.469208017
 30
0.0
 11
4.6146805809
 21
6.5431969756
 31
0.0
  0
LINE
  5
20C
330
1F
100
AcDbEntity
  8
0
  6
Continuous
 62
     7
370
    15
100
AcDbLine
 10
4.5476504352
 20
6.4269561851
 30
0.0
 11
4.5778384865
 21
6.469208017
 31
0.0
  0
LINE
  5
20D
330
1F
100
AcDbEntity
  8
0
  6
Continuous
 62
     7
370
    15
100
AcDbLine
 10
4.4924555662
 20
6.3205780274
 30
0.0
 11
4.5476504352
 21
6.4269561851
 31
0.0
  0
LINE
  5
20E
330
1F
100
AcDbEntity
  8
0
  6
Continuous
 62
     7
370
    15
100
AcDbLine
 10
4.4183120227
 20
6.1620873116
 30
0.0
 11
4.4924555662
 21
6.3205780274
 31
0.0
  0
ARC
  5
20F
330
1F
100
AcDbEntity
  8
0
  6
Continuous
 62
     7
370
    15
100
AcDbCircle
 10
4.2195181354
 20
5.8149970652
 30
0.0
 40
0.3999883576920458
100
AcDbArc
 50
55.4697056229
 51
60.1983399265
  0
LINE
  5
210
330
1F
100
AcDbEntity
  8
0
  6
Continuous
 62
     7
370
    15
100
AcDbLine
 10
4.5535886066
 20
6.2822972962
 30
0.0
 11
4.4462483266
 21
6.1445181679
 31
0.0
  0
LINE
  5
211
330
1F
100
AcDbEntity
  8
0
  6
Continuous
 62
     7
370
    15
100
AcDbLine
 10
4.6201937172
 20
6.3820945967
 30
0.0
 11
4.5535886066
 21
6.2822972962
 31
0.0
  0
LINE
  5
212
330
1F
100
AcDbEntity
  8
0
  6
Continuous
 62
     7
370
    15
100
AcDbLine
 10
4.6522926664
 20
6.4340383433
 30
0.0
 11
4.6201937172
 21
6.3820945967
 31
0.0
  0
LINE
  5
213
330
1F
100
AcDbEntity
  8
0
  6
Continuous
 62
     7
370
    15
100
AcDbLine
 10
4.6961780527
 20
6.4921522853
 30
0.0
 11
4.6522926664
 21
6.4340383433
 31
0.0
  0
LINE
  5
214
330
1F
100
AcDbEntity
  8
0
  6
Continuous
 62
     7
370
    15
100
AcDbLine
 10
4.7076449069
 20
6.5044114237
 30
0.0
 11
4.6961780527
 21
6.4921522853
 31
0.0
  0
LINE
  5
215
330
1F
100
AcDbEntity
  8
0
  6
Continuous
 62
     7
370
    15
100
AcDbLine
 10
4.7189457364
 20
6.5056642359
 30
0.0
 11
4.7076449069
 21
6.5044114237
 31
0.0
  0
LINE
  5
216
330
1F
100
AcDbEntity
  8
0
  6
Continuous
 62
     7
370
    15
100
AcDbLine
 10
4.724893001
 20
6.5011730611
 30
0.0
 11
4.7189457364
 21
6.5056642359
 31
0.0
  0
LINE
  5
217
330
1F
100
AcDbEntity
  8
0
  6
Continuous
 62
     7
370
    15
100
AcDbLine
 10
4.7131260703
 20
6.4826824214
 30
0.0
 11
4.724893001
 21
6.5011730611
 31
0.0
  0
LINE
  5
218
330
1F
100
AcDbEntity
  8
0
  6
Continuous
 62
     7
370
    15
100
AcDbLine
 10
4.7108439633
 20
6.4830684436
 30
0.0
 11
4.7131260703
 21
6.4826824214
 31
0.0
  0
LINE
  5
219
330
1F
100
AcDbEntity
  8
0
  6
Continuous
 62
     7
370
    15
100
AcDbLine
 10
4.7027492302
 20
6.4723492874
 30
0.0
 11
4.7108439633
 21
6.4830684436
 31
0.0
  0
LINE
  5
21A
330
1F
100
AcDbEntity
  8
0
  6
Continuous
 62
     7
370
    15
100
AcDbLine
 10
4.7023236084
 20
6.4690152993
 30
0.0
 11
4.7027492302
 21
6.4723492874
 31
0.0
  0
ARC
  5
21B
330
1F
100
AcDbEntity
  8
0
  6
Continuous
 62
     7
370
    15
100
AcDbCircle
 10
4.6827969526
 20
6.4715075132
 30
0.0
 40
0.0196850393700801
100
AcDbArc
 50
322.9411764706
 51
352.7266103071
  0
LINE
  5
21C
330
1F
100
AcDbEntity
  8
0
  6
Continuous
 62
     7
370
    15
100
AcDbLine
 10
4.6806192458
 20
6.4359587745
 30
0.0
 11
4.6985059192
 21
6.4596445808
 31
0.0
  0
ARC
  5
21D
330
1F
100
AcDbEntity
  8
0
  6
Continuous
 62
     7
370
    15
100
AcDbCircle
 10
4.6846014309
 20
6.4308668801
 30
0.0
 40
0.0064641180335316
100
AcDbArc
 50
128.0291003017
 51
338.6258355985
  0
LINE
  5
21E
330
1F
100
AcDbEntity
  8
0
  6
Continuous
 62
     7
370
    15
100
AcDbLine
 10
4.7110495876
 20
6.4555628947
 30
0.0
 11
4.6906209169
 21
6.4285111272
 31
0.0
  0
ARC
  5
21F
330
1F
100
AcDbEntity
  8
0
  6
Continuous
 62
     7
370
    15
100
AcDbCircle
 10
4.7267586738
 20
6.4437001045
 30
0.0
 40
0.0196850393700791
100
AcDbArc
 50
115.0993689524
 51
142.9411764706
  0
LINE
  5
220
330
1F
100
AcDbEntity
  8
0
  6
Continuous
 62
     7
370
    15
100
AcDbLine
 10
4.7211075781
 20
6.4618251957
 30
0.0
 11
4.7184083559
 21
6.4615262924
 31
0.0
  0
LINE
  5
221
330
1F
100
AcDbEntity
  8
0
  6
Continuous
 62
     7
370
    15
100
AcDbLine
 10
4.7275822499
 20
6.4703989366
 30
0.0
 11
4.7211075781
 21
6.4618251957
 31
0.0
  0
LINE
  5
222
330
1F
100
AcDbEntity
  8
0
  6
Continuous
 62
     7
370
    15
100
AcDbLine
 10
4.7266644206
 20
6.4724586995
 30
0.0
 11
4.7275822499
 21
6.4703989366
 31
0.0
  0
LINE
  5
223
330
1F
100
AcDbEntity
  8
0
  6
Continuous
 62
     7
370
    15
100
AcDbLine
 10
4.7410675075
 20
6.4889585089
 30
0.0
 11
4.7266644206
 21
6.4724586995
 31
0.0
  0
LINE
  5
224
330
1F
100
AcDbEntity
  8
0
  6
Continuous
 62
     7
370
    15
100
AcDbLine
 10
4.748181052
 20
6.4835867576
 30
0.0
 11
4.7410675075
 21
6.4889585089
 31
0.0
  0
LINE
  5
225
330
1F
100
AcDbEntity
  8
0
  6
Continuous
 62
     7
370
    15
100
AcDbLine
 10
4.7506382769
 20
6.4719441988
 30
0.0
 11
4.748181052
 21
6.4835867576
 31
0.0
  0
LINE
  5
226
330
1F
100
AcDbEntity
  8
0
  6
Continuous
 62
     7
370
    15
100
AcDbLine
 10
4.7417585928
 20
6.4581870243
 30
0.0
 11
4.7506382769
 21
6.4719441988
 31
0.0
  0
LINE
  5
227
330
1F
100
AcDbEntity
  8
0
  6
Continuous
 62
     7
370
    15
100
AcDbLine
 10
4.6919482349
 20
6.3922273863
 30
0.0
 11
4.7417585928
 21
6.4581870243
 31
0.0
  0
LINE
  5
228
330
1F
100
AcDbEntity
  8
0
  6
Continuous
 62
     7
370
    15
100
AcDbLine
 10
4.6545105341
 20
6.3562422554
 30
0.0
 11
4.6919482349
 21
6.3922273863
 31
0.0
  0
LINE
  5
229
330
1F
100
AcDbEntity
  8
0
  6
Continuous
 62
     7
370
    15
100
AcDbLine
 10
4.5807084266
 20
6.2618172928
 30
0.0
 11
4.6545105341
 21
6.3562422554
 31
0.0
  0
LINE
  5
22A
330
1F
100
AcDbEntity
  8
0
  6
Continuous
 62
     7
370
    15
100
AcDbLine
 10
4.478704845
 20
6.1196492152
 30
0.0
 11
4.5807084266
 21
6.2618172928
 31
0.0
  0
ARC
  5
22B
330
1F
100
AcDbEntity
  8
0
  6
Continuous
 62
     7
370
    15
100
AcDbCircle
 10
4.2195181354
 20
5.8149970652
 30
0.0
 40
0.3999883576920462
100
AcDbArc
 50
44.8814703288
 51
49.6101046324
  0
LINE
  5
22C
330
1F
100
AcDbEntity
  8
0
  6
Continuous
 62
     7
370
    15
100
AcDbLine
 10
4.6337665337
 20
6.2129554173
 30
0.0
 11
4.5029371251
 21
6.0972458473
 31
0.0
  0
LINE
  5
22D
330
1F
100
AcDbEntity
  8
0
  6
Continuous
 62
     7
370
    15
100
AcDbLine
 10
4.7175752989
 20
6.2988145588
 30
0.0
 11
4.6337665337
 21
6.2129554173
 31
0.0
  0
LINE
  5
22E
330
1F
100
AcDbEntity
  8
0
  6
Continuous
 62
     7
370
    15
100
AcDbLine
 10
4.7586722908
 20
6.3439760771
 30
0.0
 11
4.7175752989
 21
6.2988145588
 31
0.0
  0
LINE
  5
22F
330
1F
100
AcDbEntity
  8
0
  6
Continuous
 62
     7
370
    15
100
AcDbLine
 10
4.8124889491
 20
6.3930363903
 30
0.0
 11
4.7586722908
 21
6.3439760771
 31
0.0
  0
LINE
  5
230
330
1F
100
AcDbEntity
  8
0
  6
Continuous
 62
     7
370
    15
100
AcDbLine
 10
4.8260129262
 20
6.4029796888
 30
0.0
 11
4.8124889491
 21
6.3930363903
 31
0.0
  0
LINE
  5
231
330
1F
100
AcDbEntity
  8
0
  6
Continuous
 62
     7
370
    15
100
AcDbLine
 10
4.8373515952
 20
6.4021346052
 30
0.0
 11
4.8260129262
 21
6.4029796888
 31
0.0
  0
LINE
  5
232
330
1F
100
AcDbEntity
  8
0
  6
Continuous
 62
     7
370
    15
100
AcDbLine
 10
4.8423725239
 20
6.3966270422
 30
0.0
 11
4.8373515952
 21
6.4021346052
 31
0.0
  0
LINE
  5
233
330
1F
100
AcDbEntity
  8
0
  6
Continuous
 62
     7
370
    15
100
AcDbLine
 10
4.8274082967
 20
6.3806135738
 30
0.0
 11
4.8423725239
 21
6.3966270422
 31
0.0
  0
LINE
  5
234
330
1F
100
AcDbEntity
  8
0
  6
Continuous
 62
     7
370
    15
100
AcDbLine
 10
4.8252358952
 20
6.3814123113
 30
0.0
 11
4.8274082967
 21
6.3806135738
 31
0.0
  0
LINE
  5
235
330
1F
100
AcDbEntity
  8
0
  6
Continuous
 62
     7
370
    15
100
AcDbLine
 10
4.8153093165
 20
6.3723633758
 30
0.0
 11
4.8252358952
 21
6.3814123113
 31
0.0
  0
LINE
  5
236
330
1F
100
AcDbEntity
  8
0
  6
Continuous
 62
     7
370
    15
100
AcDbLine
 10
4.8142785551
 20
6.3691640261
 30
0.0
 11
4.8153093165
 21
6.3723633758
 31
0.0
  0
ARC
  5
237
330
1F
100
AcDbEntity
  8
0
  6
Continuous
 62
     7
370
    15
100
AcDbCircle
 10
4.7955422287
 20
6.375201916
 30
0.0
 40
0.0196850393700789
100
AcDbArc
 50
312.3529411765
 51
342.138375013
  0
LINE
  5
238
330
1F
100
AcDbEntity
  8
0
  6
Continuous
 62
     7
370
    15
100
AcDbLine
 10
4.7868695117
 20
6.3406585154
 30
0.0
 11
4.808803845
 21
6.3606545244
 31
0.0
  0
ARC
  5
239
330
1F
100
AcDbEntity
  8
0
  6
Continuous
 62
     7
370
    15
100
AcDbCircle
 10
4.7898482855
 20
6.3349216948
 30
0.0
 40
0.0064641180335307
100
AcDbArc
 50
117.4408650076
 51
328.0376003044
  0
LINE
  5
23A
330
1F
100
AcDbEntity
  8
0
  6
Continuous
 62
     7
370
    15
100
AcDbLine
 10
4.8203842179
 20
6.3543373707
 30
0.0
 11
4.795332374
 21
6.3314998745
 31
0.0
  0
ARC
  5
23B
330
1F
100
AcDbEntity
  8
0
  6
Continuous
 62
     7
370
    15
100
AcDbCircle
 10
4.8336458201
 20
6.3397900361
 30
0.0
 40
0.0196850393700785
100
AcDbArc
 50
104.5111336583
 51
132.3529411765
  0
LINE
  5
23C
330
1F
100
AcDbEntity
  8
0
  6
Continuous
 62
     7
370
    15
100
AcDbLine
 10
4.8314216371
 20
6.3586449209
 30
0.0
 11
4.8287133217
 21
6.3588470253
 31
0.0
  0
LINE
  5
23D
330
1F
100
AcDbEntity
  8
0
  6
Continuous
 62
     7
370
    15
100
AcDbLine
 10
4.8393611987
 20
6.3658831306
 30
0.0
 11
4.8314216371
 21
6.3586449209
 31
0.0
  0
LINE
  5
23E
330
1F
100
AcDbEntity
  8
0
  6
Continuous
 62
     7
370
    15
100
AcDbLine
 10
4.8388373114
 20
6.3680763586
 30
0.0
 11
4.8393611987
 21
6.3658831306
 31
0.0
  0
LINE
  5
23F
330
1F
100
AcDbEntity
  8
0
  6
Continuous
 62
     7
370
    15
100
AcDbLine
 10
4.8560273261
 20
6.3816487352
 30
0.0
 11
4.8388373114
 21
6.3680763586
 31
0.0
  0
LINE
  5
240
330
1F
100
AcDbEntity
  8
0
  6
Continuous
 62
     7
370
    15
100
AcDbLine
 10
4.8620323768
 20
6.3750611313
 30
0.0
 11
4.8560273261
 21
6.3816487352
 31
0.0
  0
LINE
  5
241
330
1F
100
AcDbEntity
  8
0
  6
Continuous
 62
     7
370
    15
100
AcDbLine
 10
4.8623086936
 20
6.3631654287
 30
0.0
 11
4.8620323768
 21
6.3750611313
 31
0.0
  0
LINE
  5
242
330
1F
100
AcDbEntity
  8
0
  6
Continuous
 62
     7
370
    15
100
AcDbLine
 10
4.8510521569
 20
6.3512738328
 30
0.0
 11
4.8623086936
 21
6.3631654287
 31
0.0
  0
LINE
  5
243
330
1F
100
AcDbEntity
  8
0
  6
Continuous
 62
     7
370
    15
100
AcDbLine
 10
4.7899703026
 20
6.295590276
 30
0.0
 11
4.8510521569
 21
6.3512738328
 31
0.0
  0
LINE
  5
244
330
1F
100
AcDbEntity
  8
0
  6
Continuous
 62
     7
370
    15
100
AcDbLine
 10
4.7465574707
 20
6.2670967918
 30
0.0
 11
4.7899703026
 21
6.295590276
 31
0.0
  0
LINE
  5
245
330
1F
100
AcDbEntity
  8
0
  6
Continuous
 62
     7
370
    15
100
AcDbLine
 10
4.6566615226
 20
6.1878408007
 30
0.0
 11
4.7465574707
 21
6.2670967918
 31
0.0
  0
LINE
  5
246
330
1F
100
AcDbEntity
  8
0
  6
Continuous
 62
     7
370
    15
100
AcDbLine
 10
4.5302713693
 20
6.0668364786
 30
0.0
 11
4.6566615226
 21
6.1878408007
 31
0.0
  0
ARC
  5
247
330
1F
100
AcDbEntity
  8
0
  6
Continuous
 62
     7
370
    15
100
AcDbCircle
 10
4.2195181354
 20
5.8149970652
 30
0.0
 40
0.399988357692046
100
AcDbArc
 50
34.2932350346
 51
39.0218693383
  0
LINE
  5
248
330
1F
100
AcDbEntity
  8
0
  6
Continuous
 62
     7
370
    15
100
AcDbLine
 10
4.6998379305
 20
6.1300614015
 30
0.0
 11
4.5499744884
 21
6.0403618378
 31
0.0
  0
LINE
  5
249
330
1F
100
AcDbEntity
  8
0
  6
Continuous
 62
     7
370
    15
100
AcDbLine
 10
4.7979961032
 20
6.1990589112
 30
0.0
 11
4.6998379305
 21
6.1300614015
 31
0.0
  0
LINE
  5
24A
330
1F
100
AcDbEntity
  8
0
  6
Continuous
 62
     7
370
    15
100
AcDbLine
 10
4.8466918073
 20
6.2358998322
 30
0.0
 11
4.7979961032
 21
6.1990589112
 31
0.0
  0
LINE
  5
24B
330
1F
100
AcDbEntity
  8
0
  6
Continuous
 62
     7
370
    15
100
AcDbLine
 10
4.9086070121
 20
6.2742360027
 30
0.0
 11
4.8466918073
 21
6.2358998322
 31
0.0
  0
LINE
  5
24C
330
1F
100
AcDbEntity
  8
0
  6
Continuous
 62
     7
370
    15
100
AcDbLine
 10
4.9237278774
 20
6.2815251052
 30
0.0
 11
4.9086070121
 21
6.2742360027
 31
0.0
  0
LINE
  5
24D
330
1F
100
AcDbEntity
  8
0
  6
Continuous
 62
     7
370
    15
100
AcDbLine
 10
4.9347180704
 20
6.2786108722
 30
0.0
 11
4.9237278774
 21
6.2815251052
 31
0.0
  0
LINE
  5
24E
330
1F
100
AcDbEntity
  8
0
  6
Continuous
 62
     7
370
    15
100
AcDbLine
 10
4.9386413584
 20
6.272274652
 30
0.0
 11
4.9347180704
 21
6.2786108722
 31
0.0
  0
LINE
  5
24F
330
1F
100
AcDbEntity
  8
0
  6
Continuous
 62
     7
370
    15
100
AcDbLine
 10
4.9209896424
 20
6.2592833621
 30
0.0
 11
4.9386413584
 21
6.272274652
 31
0.0
  0
LINE
  5
250
330
1F
100
AcDbEntity
  8
0
  6
Continuous
 62
     7
370
    15
100
AcDbLine
 10
4.9190008653
 20
6.2604678284
 30
0.0
 11
4.9209896424
 21
6.2592833621
 31
0.0
  0
LINE
  5
251
330
1F
100
AcDbEntity
  8
0
  6
Continuous
 62
     7
370
    15
100
AcDbLine
 10
4.9075806506
 20
6.2533966701
 30
0.0
 11
4.9190008653
 21
6.2604678284
 31
0.0
  0
LINE
  5
252
330
1F
100
AcDbEntity
  8
0
  6
Continuous
 62
     7
370
    15
100
AcDbLine
 10
4.9059793624
 20
6.2504415176
 30
0.0
 11
4.9075806506
 21
6.2533966701
 31
0.0
  0
ARC
  5
253
330
1F
100
AcDbEntity
  8
0
  6
Continuous
 62
     7
370
    15
100
AcDbCircle
 10
4.888671695
 20
6.2598192144
 30
0.0
 40
0.0196850393700795
100
AcDbArc
 50
301.7647058824
 51
331.5501397189
  0
LINE
  5
254
330
1F
100
AcDbEntity
  8
0
  6
Continuous
 62
     7
370
    15
100
AcDbLine
 10
4.8737993075
 20
6.2274576498
 30
0.0
 11
4.8990344827
 21
6.2430826026
 31
0.0
  0
ARC
  5
255
330
1F
100
AcDbEntity
  8
0
  6
Continuous
 62
     7
370
    15
100
AcDbCircle
 10
4.8756732309
 20
6.2212710999
 30
0.0
 40
0.0064641180335307
100
AcDbArc
 50
106.8526297134
 51
317.4493650103
  0
LINE
  5
256
330
1F
100
AcDbEntity
  8
0
  6
Continuous
 62
     7
370
    15
100
AcDbLine
 10
4.9092567379
 20
6.2347452856
 30
0.0
 11
4.8804353108
 21
6.2168998251
 31
0.0
  0
ARC
  5
257
330
1F
100
AcDbEntity
  8
0
  6
Continuous
 62
     7
370
    15
100
AcDbCircle
 10
4.9196195846
 20
6.2180087726
 30
0.0
 40
0.0196850393700785
100
AcDbArc
 50
93.9228983642
 51
121.7647058824
  0
LINE
  5
258
330
1F
100
AcDbEntity
  8
0
  6
Continuous
 62
     7
370
    15
100
AcDbLine
 10
4.9208978301
 20
6.2369514201
 30
0.0
 11
4.9182728204
 21
6.2376476387
 31
0.0
  0
LINE
  5
259
330
1F
100
AcDbEntity
  8
0
  6
Continuous
 62
     7
370
    15
100
AcDbLine
 10
4.9300324179
 20
6.2426072614
 30
0.0
 11
4.9208978301
 21
6.2369514201
 31
0.0
  0
LINE
  5
25A
330
1F
100
AcDbEntity
  8
0
  6
Continuous
 62
     7
370
    15
100
AcDbLine
 10
4.9299203659
 20
6.2448595954
 30
0.0
 11
4.9300324179
 21
6.2426072614
 31
0.0
  0
LINE
  5
25B
330
1F
100
AcDbEntity
  8
0
  6
Continuous
 62
     7
370
    15
100
AcDbLine
 10
4.9493115285
 20
6.2550421044
 30
0.0
 11
4.9299203659
 21
6.2448595954
 31
0.0
  0
LINE
  5
25C
330
1F
100
AcDbEntity
  8
0
  6
Continuous
 62
     7
370
    15
100
AcDbLine
 10
4.9540039276
 20
6.2474633386
 30
0.0
 11
4.9493115285
 21
6.2550421044
 31
0.0
  0
LINE
  5
25D
330
1F
100
AcDbEntity
  8
0
  6
Continuous
 62
     7
370
    15
100
AcDbLine
 10
4.9520896564
 20
6.2357192876
 30
0.0
 11
4.9540039276
 21
6.2474633386
 31
0.0
  0
LINE
  5
25E
330
1F
100
AcDbEntity
  8
0
  6
Continuous
 62
     7
370
    15
100
AcDbLine
 10
4.9388399428
 20
6.2260987988
 30
0.0
 11
4.9520896564
 21
6.2357192876
 31
0.0
  0
LINE
  5
25F
330
1F
100
AcDbEntity
  8
0
  6
Continuous
 62
     7
370
    15
100
AcDbLine
 10
4.868566008
 20
6.1825869681
 30
0.0
 11
4.9388399428
 21
6.2260987988
 31
0.0
  0
LINE
  5
260
330
1F
100
AcDbEntity
  8
0
  6
Continuous
 62
     7
370
    15
100
AcDbLine
 10
4.8206567214
 20
6.1625557595
 30
0.0
 11
4.868566008
 21
6.1825869681
 31
0.0
  0
LINE
  5
261
330
1F
100
AcDbEntity
  8
0
  6
Continuous
 62
     7
370
    15
100
AcDbLine
 10
4.7177281238
 20
6.101167522
 30
0.0
 11
4.8206567214
 21
6.1625557595
 31
0.0
  0
LINE
  5
262
330
1F
100
AcDbEntity
  8
0
  6
Continuous
 62
     7
370
    15
100
AcDbLine
 10
4.5712555758
 20
6.0054476544
 30
0.0
 11
4.7177281238
 21
6.101167522
 31
0.0
  0
ARC
  5
263
330
1F
100
AcDbEntity
  8
0
  6
Continuous
 62
     7
370
    15
100
AcDbCircle
 10
4.2195181354
 20
5.8149970652
 30
0.0
 40
0.3999883576920461
100
AcDbArc
 50
23.7049997405
 51
28.4336340442
  0
LINE
  5
264
330
1F
100
AcDbEntity
  8
0
  6
Continuous
 62
     7
370
    15
100
AcDbLine
 10
4.7495523695
 20
6.0364384031
 30
0.0
 11
4.5857585416
 21
5.9758034369
 31
0.0
  0
LINE
  5
265
330
1F
100
AcDbEntity
  8
0
  6
Continuous
 62
     7
370
    15
100
AcDbLine
 10
4.8587177484
 20
6.0862244146
 30
0.0
 11
4.7495523695
 21
6.0364384031
 31
0.0
  0
LINE
  5
266
330
1F
100
AcDbEntity
  8
0
  6
Continuous
 62
     7
370
    15
100
AcDbLine
 10
4.9133536772
 20
6.1134901663
 30
0.0
 11
4.8587177484
 21
6.0862244146
 31
0.0
  0
LINE
  5
267
330
1F
100
AcDbEntity
  8
0
  6
Continuous
 62
     7
370
    15
100
AcDbLine
 10
4.9812589728
 20
6.1397968758
 30
0.0
 11
4.9133536772
 21
6.1134901663
 31
0.0
  0
LINE
  5
268
330
1F
100
AcDbEntity
  8
0
  6
Continuous
 62
     7
370
    15
100
AcDbLine
 10
4.9974616389
 20
6.1441833317
 30
0.0
 11
4.9812589728
 21
6.1397968758
 31
0.0
  0
LINE
  5
269
330
1F
100
AcDbEntity
  8
0
  6
Continuous
 62
     7
370
    15
100
AcDbLine
 10
5.0077293603
 20
6.1392993882
 30
0.0
 11
4.9974616389
 21
6.1441833317
 31
0.0
  0
LINE
  5
26A
330
1F
100
AcDbEntity
  8
0
  6
Continuous
 62
     7
370
    15
100
AcDbLine
 10
5.0104215426
 20
6.1323499618
 30
0.0
 11
5.0077293603
 21
6.1392993882
 31
0.0
  0
LINE
  5
26B
330
1F
100
AcDbEntity
  8
0
  6
Continuous
 62
     7
370
    15
100
AcDbLine
 10
4.9906830773
 20
6.1228234852
 30
0.0
 11
5.0104215426
 21
6.1323499618
 31
0.0
  0
LINE
  5
26C
330
1F
100
AcDbEntity
  8
0
  6
Continuous
 62
     7
370
    15
100
AcDbLine
 10
4.9889459773
 20
6.1243532008
 30
0.0
 11
4.9906830773
 21
6.1228234852
 31
0.0
  0
LINE
  5
26D
330
1F
100
AcDbEntity
  8
0
  6
Continuous
 62
     7
370
    15
100
AcDbLine
 10
4.9764207887
 20
6.1195009369
 30
0.0
 11
4.9889459773
 21
6.1243532008
 31
0.0
  0
LINE
  5
26E
330
1F
100
AcDbEntity
  8
0
  6
Continuous
 62
     7
370
    15
100
AcDbLine
 10
4.9743038265
 20
6.1168903004
 30
0.0
 11
4.9764207887
 21
6.1195009369
 31
0.0
  0
ARC
  5
26F
330
1F
100
AcDbEntity
  8
0
  6
Continuous
 62
     7
370
    15
100
AcDbCircle
 10
4.9590139395
 20
6.1292886281
 30
0.0
 40
0.019685039370079
100
AcDbArc
 50
291.1764705882
 51
320.9619044248
  0
LINE
  5
270
330
1F
100
AcDbEntity
  8
0
  6
Continuous
 62
     7
370
    15
100
AcDbLine
 10
4.9384483473
 20
6.1002108264
 30
0.0
 11
4.9661249076
 21
6.1109329159
 31
0.0
  0
ARC
  5
271
330
1F
100
AcDbEntity
  8
0
  6
Continuous
 62
     7
370
    15
100
AcDbCircle
 10
4.9391536015
 20
6.09378533
 30
0.0
 40
0.0064641180335307
100
AcDbArc
 50
96.2643944193
 51
306.8611297162
  0
LINE
  5
272
330
1F
100
AcDbEntity
  8
0
  6
Continuous
 62
     7
370
    15
100
AcDbLine
 10
4.9746411559
 20
6.1008592322
 30
0.0
 11
4.9430313344
 21
6.0886134404
 31
0.0
  0
ARC
  5
273
330
1F
100
AcDbEntity
  8
0
  6
Continuous
 62
     7
370
    15
100
AcDbCircle
 10
4.9817522339
 20
6.0825034287
 30
0.0
 40
0.0196850393700798
100
AcDbArc
 50
83.3346630701
 51
111.1764705882
  0
LINE
  5
274
330
1F
100
AcDbEntity
  8
0
  6
Continuous
 62
     7
370
    15
100
AcDbLine
 10
4.986489339
 20
6.1008887119
 30
0.0
 11
4.9840371007
 21
6.1020554317
 31
0.0
  0
LINE
  5
275
330
1F
100
AcDbEntity
  8
0
  6
Continuous
 62
     7
370
    15
100
AcDbLine
 10
4.99650773
 20
6.1047697604
 30
0.0
 11
4.986489339
 21
6.1008887119
 31
0.0
  0
LINE
  5
276
330
1F
100
AcDbEntity
  8
0
  6
Continuous
 62
     7
370
    15
100
AcDbLine
 10
4.9968116198
 20
6.1070042012
 30
0.0
 11
4.99650773
 21
6.1047697604
 31
0.0
  0
LINE
  5
277
330
1F
100
AcDbEntity
  8
0
  6
Continuous
 62
     7
370
    15
100
AcDbLine
 10
5.0177433513
 20
6.1134502734
 30
0.0
 11
4.9968116198
 21
6.1070042012
 31
0.0
  0
LINE
  5
278
330
1F
100
AcDbEntity
  8
0
  6
Continuous
 62
     7
370
    15
100
AcDbLine
 10
5.0209635274
 20
6.1051383295
 30
0.0
 11
5.0177433513
 21
6.1134502734
 31
0.0
  0
LINE
  5
279
330
1F
100
AcDbEntity
  8
0
  6
Continuous
 62
     7
370
    15
100
AcDbLine
 10
5.0169237875
 20
6.0939460321
 30
0.0
 11
5.0209635274
 21
6.1051383295
 31
0.0
  0
LINE
  5
27A
330
1F
100
AcDbEntity
  8
0
  6
Continuous
 62
     7
370
    15
100
AcDbLine
 10
5.002131745
 20
6.0869238599
 30
0.0
 11
5.0169237875
 21
6.0939460321
 31
0.0
  0
LINE
  5
27B
330
1F
100
AcDbEntity
  8
0
  6
Continuous
 62
     7
370
    15
100
AcDbLine
 10
4.9250590087
 20
6.0570658048
 30
0.0
 11
5.002131745
 21
6.0869238599
 31
0.0
  0
LINE
  5
27C
330
1F
100
AcDbEntity
  8
0
  6
Continuous
 62
     7
370
    15
100
AcDbLine
 10
4.8742850619
 20
6.0461788639
 30
0.0
 11
4.9250590087
 21
6.0570658048
 31
0.0
  0
LINE
  5
27D
330
1F
100
AcDbEntity
  8
0
  6
Continuous
 62
     7
370
    15
100
AcDbLine
 10
4.7618288143
 20
6.0047490892
 30
0.0
 11
4.8742850619
 21
6.0461788639
 31
0.0
  0
LINE
  5
27E
330
1F
100
AcDbEntity
  8
0
  6
Continuous
 62
     7
370
    15
100
AcDbLine
 10
4.6002618008
 20
5.9375733052
 30
0.0
 11
4.7618288143
 21
6.0047490892
 31
0.0
  0
ARC
  5
27F
330
1F
100
AcDbEntity
  8
0
  6
Continuous
 62
     7
370
    15
100
AcDbCircle
 10
4.2195181354
 20
5.8149970652
 30
0.0
 40
0.3999883576920469
100
AcDbArc
 50
13.1167644464
 51
17.8453987501
  0
LINE
  5
280
330
1F
100
AcDbEntity
  8
0
  6
Continuous
 62
     7
370
    15
100
AcDbLine
 10
4.781217337
 20
5.9352743317
 30
0.0
 11
4.6090706457
 21
5.9057690059
 31
0.0
  0
LINE
  5
281
330
1F
100
AcDbEntity
  8
0
  6
Continuous
 62
     7
370
    15
100
AcDbLine
 10
4.8976719651
 20
5.9641536915
 30
0.0
 11
4.781217337
 21
5.9352743317
 31
0.0
  0
LINE
  5
282
330
1F
100
AcDbEntity
  8
0
  6
Continuous
 62
     7
370
    15
100
AcDbLine
 10
4.9563878201
 20
5.9809158845
 30
0.0
 11
4.8976719651
 21
5.9641536915
 31
0.0
  0
LINE
  5
283
330
1F
100
AcDbEntity
  8
0
  6
Continuous
 62
     7
370
    15
100
AcDbLine
 10
5.0279705932
 20
5.9942970099
 30
0.0
 11
4.9563878201
 21
5.9809158845
 31
0.0
  0
LINE
  5
284
330
1F
100
AcDbEntity
  8
0
  6
Continuous
 62
     7
370
    15
100
AcDbLine
 10
5.0447035999
 20
5.9956315145
 30
0.0
 11
5.0279705932
 21
5.9942970099
 31
0.0
  0
LINE
  5
285
330
1F
100
AcDbEntity
  8
0
  6
Continuous
 62
     7
370
    15
100
AcDbLine
 10
5.053898907
 20
5.9889440317
 30
0.0
 11
5.0447035999
 21
5.9956315145
 31
0.0
  0
LINE
  5
286
330
1F
100
AcDbEntity
  8
0
  6
Continuous
 62
     7
370
    15
100
AcDbLine
 10
5.0552684645
 20
5.9816184097
 30
0.0
 11
5.053898907
 21
5.9889440317
 31
0.0
  0
LINE
  5
287
330
1F
100
AcDbEntity
  8
0
  6
Continuous
 62
     7
370
    15
100
AcDbLine
 10
5.0341155622
 20
5.975880876
 30
0.0
 11
5.0552684645
 21
5.9816184097
 31
0.0
  0
LINE
  5
288
330
1F
100
AcDbEntity
  8
0
  6
Continuous
 62
     7
370
    15
100
AcDbLine
 10
5.0326890987
 20
5.9777037749
 30
0.0
 11
5.0341155622
 21
5.975880876
 31
0.0
  0
LINE
  5
289
330
1F
100
AcDbEntity
  8
0
  6
Continuous
 62
     7
370
    15
100
AcDbLine
 10
5.0194854379
 20
5.9752356968
 30
0.0
 11
5.0326890987
 21
5.9777037749
 31
0.0
  0
LINE
  5
28A
330
1F
100
AcDbEntity
  8
0
  6
Continuous
 62
     7
370
    15
100
AcDbLine
 10
5.0169249608
 20
5.9730584553
 30
0.0
 11
5.0194854379
 21
5.9752356968
 31
0.0
  0
ARC
  5
28B
330
1F
100
AcDbEntity
  8
0
  6
Continuous
 62
     7
370
    15
100
AcDbCircle
 10
5.0041735413
 20
5.9880552196
 30
0.0
 40
0.0196850393700791
100
AcDbArc
 50
280.5882352941
 51
310.3736691307
  0
LINE
  5
28C
330
1F
100
AcDbEntity
  8
0
  6
Continuous
 62
     7
370
    15
100
AcDbLine
 10
4.9786148967
 20
5.9632514086
 30
0.0
 11
5.0077906663
 21
5.9687052922
 31
0.0
  0
ARC
  5
28D
330
1F
100
AcDbEntity
  8
0
  6
Continuous
 62
     7
370
    15
100
AcDbCircle
 10
4.9781276494
 20
5.9568057601
 30
0.0
 40
0.0064641180335306
100
AcDbArc
 50
85.6761591252
 51
296.272894422
  0
LINE
  5
28E
330
1F
100
AcDbEntity
  8
0
  6
Continuous
 62
     7
370
    15
100
AcDbLine
 10
5.0143108043
 20
5.9572382913
 30
0.0
 11
4.9809891092
 21
5.95100943
 31
0.0
  0
ARC
  5
28F
330
1F
100
AcDbEntity
  8
0
  6
Continuous
 62
     7
370
    15
100
AcDbCircle
 10
5.0179279152
 20
5.9378884765
 30
0.0
 40
0.0196850393700793
100
AcDbArc
 50
72.7464277759
 51
100.5882352941
  0
LINE
  5
290
330
1F
100
AcDbEntity
  8
0
  6
Continuous
 62
     7
370
    15
100
AcDbLine
 10
5.0259627497
 20
5.9550902362
 30
0.0
 11
5.0237665884
 21
5.956687711
 31
0.0
  0
LINE
  5
291
330
1F
100
AcDbEntity
  8
0
  6
Continuous
 62
     7
370
    15
100
AcDbLine
 10
5.0365235077
 20
5.9570643467
 30
0.0
 11
5.0259627497
 21
5.9550902362
 31
0.0
  0
LINE
  5
292
330
1F
100
AcDbEntity
  8
0
  6
Continuous
 62
     7
370
    15
100
AcDbLine
 10
5.0372327795
 20
5.9592050686
 30
0.0
 11
5.0365235077
 21
5.9570643467
 31
0.0
  0
LINE
  5
293
330
1F
100
AcDbEntity
  8
0
  6
Continuous
 62
     7
370
    15
100
AcDbLine
 10
5.0589925815
 20
5.9616951465
 30
0.0
 11
5.0372327795
 21
5.9592050686
 31
0.0
  0
LINE
  5
294
330
1F
100
AcDbEntity
  8
0
  6
Continuous
 62
     7
370
    15
100
AcDbLine
 10
5.0606305359
 20
5.9529329411
 30
0.0
 11
5.0589925815
 21
5.9616951465
 31
0.0
  0
LINE
  5
295
330
1F
100
AcDbEntity
  8
0
  6
Continuous
 62
     7
370
    15
100
AcDbLine
 10
5.0546031922
 20
5.9426734329
 30
0.0
 11
5.0606305359
 21
5.9529329411
 31
0.0
  0
LINE
  5
296
330
1F
100
AcDbEntity
  8
0
  6
Continuous
 62
     7
370
    15
100
AcDbLine
 10
5.0387727617
 20
5.9384889346
 30
0.0
 11
5.0546031922
 21
5.9426734329
 31
0.0
  0
LINE
  5
297
330
1F
100
AcDbEntity
  8
0
  6
Continuous
 62
     7
370
    15
100
AcDbLine
 10
4.9575259403
 20
5.9233013367
 30
0.0
 11
5.0387727617
 21
5.9384889346
 31
0.0
  0
LINE
  5
298
330
1F
100
AcDbEntity
  8
0
  6
Continuous
 62
     7
370
    15
100
AcDbLine
 10
4.9056159266
 20
5.9219295792
 30
0.0
 11
4.9575259403
 21
5.9233013367
 31
0.0
  0
LINE
  5
299
330
1F
100
AcDbEntity
  8
0
  6
Continuous
 62
     7
370
    15
100
AcDbLine
 10
4.7874620382
 20
5.901868891
 30
0.0
 11
4.9056159266
 21
5.9219295792
 31
0.0
  0
LINE
  5
29A
330
1F
100
AcDbEntity
  8
0
  6
Continuous
 62
     7
370
    15
100
AcDbLine
 10
4.6163022555
 20
5.8655247242
 30
0.0
 11
4.7874620382
 21
5.901868891
 31
0.0
  0
ARC
  5
29B
330
1F
100
AcDbEntity
  8
0
  6
Continuous
 62
     7
370
    15
100
AcDbCircle
 10
4.2195181354
 20
5.8149970652
 30
0.0
 40
0.3999883576920467
100
AcDbArc
 50
2.5285291523
 51
7.257163456
  0
LINE
  5
29C
330
1F
100
AcDbEntity
  8
0
  6
Continuous
 62
     7
370
    15
100
AcDbLine
 10
4.7937542589
 20
5.8300144944
 30
0.0
 11
4.6191170496
 21
5.8326433173
 31
0.0
  0
LINE
  5
29D
330
1F
100
AcDbEntity
  8
0
  6
Continuous
 62
     7
370
    15
100
AcDbLine
 10
4.9135326085
 20
5.8370035203
 30
0.0
 11
4.7937542589
 21
5.8300144944
 31
0.0
  0
LINE
  5
29E
330
1F
100
AcDbEntity
  8
0
  6
Continuous
 62
     7
370
    15
100
AcDbLine
 10
4.9743287595
 20
5.8426913346
 30
0.0
 11
4.9135326085
 21
5.8370035203
 31
0.0
  0
LINE
  5
29F
330
1F
100
AcDbEntity
  8
0
  6
Continuous
 62
     7
370
    15
100
AcDbLine
 10
5.0471514383
 20
5.8426913346
 30
0.0
 11
4.9743287595
 21
5.8426913346
 31
0.0
  0
LINE
  5
2A0
330
1F
100
AcDbEntity
  8
0
  6
Continuous
 62
     7
370
    15
100
AcDbLine
 10
5.0638445521
 20
5.8409285683
 30
0.0
 11
5.0471514383
 21
5.8426913346
 31
0.0
  0
LINE
  5
2A1
330
1F
100
AcDbEntity
  8
0
  6
Continuous
 62
     7
370
    15
100
AcDbLine
 10
5.0716547552
 20
5.8326651704
 30
0.0
 11
5.0638445521
 21
5.8409285683
 31
0.0
  0
LINE
  5
2A2
330
1F
100
AcDbEntity
  8
0
  6
Continuous
 62
     7
370
    15
100
AcDbLine
 10
5.0716547552
 20
5.8252126832
 30
0.0
 11
5.0716547552
 21
5.8326651704
 31
0.0
  0
LINE
  5
2A3
330
1F
100
AcDbEntity
  8
0
  6
Continuous
 62
     7
370
    15
100
AcDbLine
 10
5.0498078342
 20
5.8234597434
 30
0.0
 11
5.0716547552
 21
5.8252126832
 31
0.0
  0
LINE
  5
2A4
330
1F
100
AcDbEntity
  8
0
  6
Continuous
 62
     7
370
    15
100
AcDbLine
 10
5.0487404066
 20
5.8255136397
 30
0.0
 11
5.0498078342
 21
5.8234597434
 31
0.0
  0
LINE
  5
2A5
330
1F
100
AcDbEntity
  8
0
  6
Continuous
 62
     7
370
    15
100
AcDbLine
 10
5.0353082417
 20
5.8255136397
 30
0.0
 11
5.0487404066
 21
5.8255136397
 31
0.0
  0
LINE
  5
2A6
330
1F
100
AcDbEntity
  8
0
  6
Continuous
 62
     7
370
    15
100
AcDbLine
 10
5.0323913688
 20
5.8238440057
 30
0.0
 11
5.0353082417
 21
5.8255136397
 31
0.0
  0
ARC
  5
2A7
330
1F
100
AcDbEntity
  8
0
  6
Continuous
 62
     7
370
    15
100
AcDbCircle
 10
5.0226126444
 20
5.8409285231
 30
0.0
 40
0.0196850393700796
100
AcDbArc
 50
270.0
 51
299.7854338365
  0
LINE
  5
2A8
330
1F
100
AcDbEntity
  8
0
  6
Continuous
 62
     7
370
    15
100
AcDbLine
 10
4.9929317446
 20
5.821243489
 30
0.0
 11
5.0226126284
 21
5.821243489
 31
0.0
  0
ARC
  5
2A9
330
1F
100
AcDbEntity
  8
0
  6
Continuous
 62
     7
370
    15
100
AcDbCircle
 10
4.9912681601
 20
5.8149970652
 30
0.0
 40
0.006464118033531
100
AcDbArc
 50
75.0879238311
 51
285.6846591279
  0
LINE
  5
2AA
330
1F
100
AcDbEntity
  8
0
  6
Continuous
 62
     7
370
    15
100
AcDbLine
 10
5.0269146054
 20
5.8087735931
 30
0.0
 11
4.993015637
 21
5.8087735931
 31
0.0
  0
ARC
  5
2AB
330
1F
100
AcDbEntity
  8
0
  6
Continuous
 62
     7
370
    15
100
AcDbCircle
 10
5.026914709
 20
5.7890886046
 30
0.0
 40
0.0196850393700788
100
AcDbArc
 50
62.1581924818
 51
90.0
  0
LINE
  5
2AC
330
1F
100
AcDbEntity
  8
0
  6
Continuous
 62
     7
370
    15
100
AcDbLine
 10
5.0379734376
 20
5.8045210422
 30
0.0
 11
5.0361081525
 21
5.8064948594
 31
0.0
  0
LINE
  5
2AD
330
1F
100
AcDbEntity
  8
0
  6
Continuous
 62
     7
370
    15
100
AcDbLine
 10
5.0487172335
 20
5.8045210422
 30
0.0
 11
5.0379734376
 21
5.8045210422
 31
0.0
  0
LINE
  5
2AE
330
1F
100
AcDbEntity
  8
0
  6
Continuous
 62
     7
370
    15
100
AcDbLine
 10
5.0498078342
 20
5.8064948594
 30
0.0
 11
5.0487172335
 21
5.8045210422
 31
0.0
  0
LINE
  5
2AF
330
1F
100
AcDbEntity
  8
0
  6
Continuous
 62
     7
370
    15
100
AcDbLine
 10
5.0716547552
 20
5.8049443173
 30
0.0
 11
5.0498078342
 21
5.8064948594
 31
0.0
  0
LINE
  5
2B0
330
1F
100
AcDbEntity
  8
0
  6
Continuous
 62
     7
370
    15
100
AcDbLine
 10
5.0716547552
 20
5.7960303136
 30
0.0
 11
5.0716547552
 21
5.8049443173
 31
0.0
  0
LINE
  5
2B1
330
1F
100
AcDbEntity
  8
0
  6
Continuous
 62
     7
370
    15
100
AcDbLine
 10
5.0638445521
 20
5.7870530973
 30
0.0
 11
5.0716547552
 21
5.7960303136
 31
0.0
  0
LINE
  5
2B2
330
1F
100
AcDbEntity
  8
0
  6
Continuous
 62
     7
370
    15
100
AcDbLine
 10
5.0475148741
 20
5.7858486846
 30
0.0
 11
5.0638445521
 21
5.7870530973
 31
0.0
  0
LINE
  5
2B3
330
1F
100
AcDbEntity
  8
0
  6
Continuous
 62
     7
370
    15
100
AcDbLine
 10
4.9648606556
 20
5.7858486846
 30
0.0
 11
5.0475148741
 21
5.7858486846
 31
0.0
  0
LINE
  5
2B4
330
1F
100
AcDbEntity
  8
0
  6
Continuous
 62
     7
370
    15
100
AcDbLine
 10
4.9135824746
 20
5.7940386033
 30
0.0
 11
4.9648606556
 21
5.7858486846
 31
0.0
  0
LINE
  5
2B5
330
1F
100
AcDbEntity
  8
0
  6
Continuous
 62
     7
370
    15
100
AcDbLine
 10
4.7937542589
 20
5.7960303136
 30
0.0
 11
4.9135824746
 21
5.7940386033
 31
0.0
  0
LINE
  5
2B6
330
1F
100
AcDbEntity
  8
0
  6
Continuous
 62
     7
370
    15
100
AcDbLine
 10
4.6188307596
 20
5.7917556164
 30
0.0
 11
4.7937542589
 21
5.7960303136
 31
0.0
  0
ARC
  5
2B7
330
1F
100
AcDbEntity
  8
0
  6
Continuous
 62
     7
370
    15
100
AcDbCircle
 10
4.2195181354
 20
5.8149970652
 30
0.0
 40
0.399988357692047
100
AcDbArc
 50
354.924513061
 51
356.6689281618
  0
LINE
  5
2B8
330
1F
100
AcDbEntity
  8
0
  6
Continuous
 62
     7
370
    15
100
AcDbLine
 10
4.6858853983
 20
5.777443755
 30
0.0
 11
4.6179381566
 21
5.7796108766
 31
0.0
  0
LINE
  5
2B9
330
1F
100
AcDbEntity
  8
0
  6
Continuous
 62
     7
370
    15
100
AcDbLine
 10
4.6888119512
 20
5.7377081074
 30
0.0
 11
4.6858853983
 21
5.777443755
 31
0.0
  0
LINE
  5
2BA
330
1F
100
AcDbEntity
  8
0
  6
Continuous
 62
     7
370
    15
100
AcDbLine
 10
4.7320305986
 20
5.7239842259
 30
0.0
 11
4.6888119512
 21
5.7377081074
 31
0.0
  0
LINE
  5
2BB
330
1F
100
AcDbEntity
  8
0
  6
Continuous
 62
     7
370
    15
100
AcDbLine
 10
4.7483737698
 20
5.7754508714
 30
0.0
 11
4.7320305986
 21
5.7239842259
 31
0.0
  0
LINE
  5
2BC
330
1F
100
AcDbEntity
  8
0
  6
Continuous
 62
     7
370
    15
100
AcDbLine
 10
4.7769144801
 20
5.7745406686
 30
0.0
 11
4.7483737698
 21
5.7754508714
 31
0.0
  0
LINE
  5
2BD
330
1F
100
AcDbEntity
  8
0
  6
Continuous
 62
     7
370
    15
100
AcDbLine
 10
4.7457801464
 20
5.6642530093
 30
0.0
 11
4.7769144801
 21
5.7745406686
 31
0.0
  0
LINE
  5
2BE
330
1F
100
AcDbEntity
  8
0
  6
Continuous
 62
     7
370
    15
100
AcDbLine
 10
4.4454971086
 20
5.750267029
 30
0.0
 11
4.7457801464
 21
5.6642530093
 31
0.0
  0
ARC
  5
2BF
330
1F
100
AcDbEntity
  8
0
  6
Continuous
 62
     7
370
    15
100
AcDbCircle
 10
4.2195181354
 20
5.8149970652
 30
0.0
 40
0.2350669331392184
100
AcDbArc
 50
344.0160178089
 51
351.079240482
  0
LINE
  5
2C0
330
1F
100
AcDbEntity
  8
0
  6
Continuous
 62
     7
370
    15
100
AcDbLine
 10
4.4517416631
 20
5.778545649
 30
0.0
 11
4.5347631307
 21
5.7680576368
 31
0.0
  0
LINE
  5
2C1
330
1F
100
AcDbEntity
  8
0
  6
Continuous
 62
     7
370
    15
100
AcDbLine
 10
4.5347631307
 20
5.7680576368
 30
0.0
 11
4.5355815213
 21
5.7745367086
 31
0.0
  0
ENDSEC
  0
SECTION
  2
OBJECTS
  0
DICTIONARY
  5
C
330
0
100
AcDbDictionary
281
     1
  3
ACAD_GROUP
350
D
  3
ACAD_LAYOUT
350
1A
  3
ACAD_MLINESTYLE
350
17
  3
ACAD_PLOTSETTINGS
350
19
  3
ACAD_PLOTSTYLENAME
350
E
  0
DICTIONARY
  5
D
102
{ACAD_REACTORS
330
C
102
}
330
C
100
AcDbDictionary
281
     1
  0
DICTIONARY
  5
1A
102
{ACAD_REACTORS
330
C
102
}
330
C
100
AcDbDictionary
281
     1
  3
Layout1
350
1E
  3
Layout2
350
26
  3
Model
350
22
  0
DICTIONARY
  5
17
102
{ACAD_REACTORS
330
C
102
}
330
C
100
AcDbDictionary
281
     1
  3
Standard
350
18
  0
DICTIONARY
  5
19
102
{ACAD_REACTORS
330
C
102
}
330
C
100
AcDbDictionary
281
     1
  0
ACDBDICTIONARYWDFLT
  5
E
102
{ACAD_REACTORS
330
C
102
}
330
C
100
AcDbDictionary
281
     1
  3
Normal
350
F
100
AcDbDictionaryWithDefault
340
F
  0
LAYOUT
  5
1E
102
{ACAD_REACTORS
330
1A
102
}
330
1A
100
AcDbPlotSettings
  1

  2
none_device
  4

  6

 40
0.0
 41
0.0
 42
0.0
 43
0.0
 44
0.0
 45
0.0
 46
0.0
 47
0.0
 48
0.0
 49
0.0
140
0.0
141
0.0
142
1.0
143
1.0
 70
   688
 72
     0
 73
     0
 74
     5
  7

 75
    16
147
1.0
148
0.0
149
0.0
100
AcDbLayout
  1
Layout1
 70
     1
 71
     1
 10
0.0
 20
0.0
 11
12.0
 21
9.0
 12
0.0
 22
0.0
 32
0.0
 14
1.0000000000E+20
 24
1.0000000000E+20
 34
1.0000000000E+20
 15
-1.0000000000E+20
 25
-1.0000000000E+20
 35
-1.0000000000E+20
146
0.0
 13
0.0
 23
0.0
 33
0.0
 16
1.0
 26
0.0
 36
0.0
 17
0.0
 27
1.0
 37
0.0
 76
     0
330
1B
  0
LAYOUT
  5
26
102
{ACAD_REACTORS
330
1A
102
}
330
1A
100
AcDbPlotSettings
  1

  2
none_device
  4

  6

 40
0.0
 41
0.0
 42
0.0
 43
0.0
 44
0.0
 45
0.0
 46
0.0
 47
0.0
 48
0.0
 49
0.0
140
0.0
141
0.0
142
1.0
143
1.0
 70
   688
 72
     0
 73
     0
 74
     5
  7

 75
    16
147
1.0
148
0.0
149
0.0
100
AcDbLayout
  1
Layout2
 70
     1
 71
     2
 10
0.0
 20
0.0
 11
0.0
 21
0.0
 12
0.0
 22
0.0
 32
0.0
 14
0.0
 24
0.0
 34
0.0
 15
0.0
 25
0.0
 35
0.0
146
0.0
 13
0.0
 23
0.0
 33
0.0
 16
1.0
 26
0.0
 36
0.0
 17
0.0
 27
1.0
 37
0.0
 76
     0
330
23
  0
LAYOUT
  5
22
102
{ACAD_REACTORS
330
1A
102
}
330
1A
100
AcDbPlotSettings
  1

  2
none_device
  4

  6

 40
0.0
 41
0.0
 42
0.0
 43
0.0
 44
0.0
 45
0.0
 46
0.0
 47
0.0
 48
0.0
 49
0.0
140
0.0
141
0.0
142
1.0
143
1.0
 70
  1712
 72
     0
 73
     0
 74
     0
  7

 75
     0
147
1.0
148
0.0
149
0.0
100
AcDbLayout
  1
Model
 70
     1
 71
     0
 10
0.0
 20
0.0
 11
8.5
 21
11.0
 12
0.0
 22
0.0
 32
0.0
 14
0.0
 24
0.0
 34
0.0
 15
8.5
 25
11.0
 35
0.0
146
0.0
 13
0.0
 23
0.0
 33
0.0
 16
1.0
 26
0.0
 36
0.0
 17
0.0
 27
1.0
 37
0.0
 76
     0
330
1F
331
29
  0
MLINESTYLE
  5
18
102
{ACAD_REACTORS
330
17
102
}
330
17
100
AcDbMlineStyle
  2
Standard
 70
     0
  3

 62
   256
 51
90.0
 52
90.0
 71
     2
 49
0.5
 62
   256
  6
BYLAYER
 49
-0.5
 62
   256
  6
BYLAYER
  0
ACDBPLACEHOLDER
  5
F
102
{ACAD_REACTORS
330
E
102
}
330
E
  0
ENDSEC
  0
EOF
