  0
SECTION
  2
HEADER
  9
$ACADVER
  1
AC1015
  9
$ACADMAINTVER
 70
     6
  9
$DWGCODEPAGE
  3
ANSI_1252
  9
$INSBASE
 10
0.0
 20
0.0
 30
0.0
  9
$EXTMIN
 10
30.5960974448
 20
46.0711019189
 30
0.0
  9
$EXTMAX
 10
73.3690728281
 20
71.3781095204
 30
0.0
  9
$LIMMIN
 10
0.0
 20
0.0
  9
$LIMMAX
 10
420.0
 20
297.0
  9
$ORTHOMODE
 70
     0
  9
$REGENMODE
 70
     1
  9
$FILLMODE
 70
     1
  9
$QTEXTMODE
 70
     0
  9
$MIRRTEXT
 70
     1
  9
$LTSCALE
 40
1.0
  9
$ATTMODE
 70
     1
  9
$TEXTSIZE
 40
3.5
  9
$TRACEWID
 40
1.0
  9
$TEXTSTYLE
  7
Standard
  9
$CLAYER
  8
0
  9
$CELTYPE
  6
ByLayer
  9
$CECOLOR
 62
   256
  9
$CELTSCALE
 40
1.0
  9
$DISPSILH
 70
     0
  9
$DIMSCALE
 40
1.0
  9
$DIMASZ
 40
3.302
  9
$DIMEXO
 40
1.0
  9
$DIMDLI
 40
3.75
  9
$DIMRND
 40
0.0
  9
$DIMDLE
 40
0.0
  9
$DIMEXE
 40
1.0
  9
$DIMTP
 40
0.0
  9
$DIMTM
 40
0.0
  9
$DIMTXT
 40
3.5
  9
$DIMCEN
 40
2.5
  9
$DIMTSZ
 40
0.0
  9
$DIMTOL
 70
     0
  9
$DIMLIM
 70
     0
  9
$DIMTIH
 70
     1
  9
$DIMTOH
 70
     1
  9
$DIMSE1
 70
     0
  9
$DIMSE2
 70
     0
  9
$DIMTAD
 70
     1
  9
$DIMZIN
 70
     0
  9
$DIMBLK
  1

  9
$DIMASO
 70
     1
  9
$DIMSHO
 70
     1
  9
$DIMPOST
  1

  9
$DIMAPOST
  1

  9
$DIMALT
 70
     0
  9
$DIMALTD
 70
     3
  9
$DIMALTF
 40
0.0393700787
  9
$DIMLFAC
 40
1.0
  9
$DIMTOFL
 70
     1
  9
$DIMTVP
 40
0.0
  9
$DIMTIX
 70
     0
  9
$DIMSOXD
 70
     0
  9
$DIMSAH
 70
     0
  9
$DIMBLK1
  1

  9
$DIMBLK2
  1

  9
$DIMSTYLE
  2
ISO-25
  9
$DIMCLRD
 70
     0
  9
$DIMCLRE
 70
     0
  9
$DIMCLRT
 70
     0
  9
$DIMTFAC
 40
1.0
  9
$DIMGAP
 40
1.524
  9
$DIMJUST
 70
     0
  9
$DIMSD1
 70
     0
  9
$DIMSD2
 70
     0
  9
$DIMTOLJ
 70
     0
  9
$DIMTZIN
 70
     0
  9
$DIMALTZ
 70
     0
  9
$DIMALTTZ
 70
     0
  9
$DIMUPT
 70
     0
  9
$DIMDEC
 70
     3
  9
$DIMTDEC
 70
     3
  9
$DIMALTU
 70
     2
  9
$DIMALTTD
 70
     3
  9
$DIMTXSTY
  7
Standard
  9
$DIMAUNIT
 70
     0
  9
$DIMADEC
 70
     2
  9
$DIMALTRND
 40
0.0
  9
$DIMAZIN
 70
     0
  9
$DIMDSEP
 70
    44
  9
$DIMATFIT
 70
     3
  9
$DIMFRAC
 70
     0
  9
$DIMLDRBLK
  1

  9
$DIMLUNIT
 70
     2
  9
$DIMLWD
 70
    -2
  9
$DIMLWE
 70
    -2
  9
$DIMTMOVE
 70
     0
  9
$LUNITS
 70
     2
  9
$LUPREC
 70
     2
  9
$SKETCHINC
 40
1.0
  9
$FILLETRAD
 40
10.0
  9
$AUNITS
 70
     0
  9
$AUPREC
 70
     2
  9
$MENU
  1
.
  9
$ELEVATION
 40
0.0
  9
$PELEVATION
 40
0.0
  9
$THICKNESS
 40
0.0
  9
$LIMCHECK
 70
     0
  9
$CHAMFERA
 40
10.0
  9
$CHAMFERB
 40
10.0
  9
$CHAMFERC
 40
20.0
  9
$CHAMFERD
 40
0.0
  9
$SKPOLY
 70
     0
  9
$TDCREATE
 40
2457630.652122268
  9
$TDUCREATE
 40
2457630.818788935
  9
$TDUPDATE
 40
2457630.652169329
  9
$TDUUPDATE
 40
2457630.818835995
  9
$TDINDWG
 40
0.0000000116
  9
$TDUSRTIMER
 40
0.0000000116
  9
$USRTIMER
 70
     1
  9
$ANGBASE
 50
0.0
  9
$ANGDIR
 70
     0
  9
$PDMODE
 70
     0
  9
$PDSIZE
 40
-1.0
  9
$PLINEWID
 40
0.0
  9
$SPLFRAME
 70
     0
  9
$SPLINETYPE
 70
     6
  9
$SPLINESEGS
 70
     8
  9
$HANDSEED
  5
1C5
  9
$SURFTAB1
 70
     6
  9
$SURFTAB2
 70
     6
  9
$SURFTYPE
 70
     6
  9
$SURFU
 70
     6
  9
$SURFV
 70
     6
  9
$UCSBASE
  2

  9
$UCSNAME
  2

  9
$UCSORG
 10
0.0
 20
0.0
 30
0.0
  9
$UCSXDIR
 10
1.0
 20
0.0
 30
0.0
  9
$UCSYDIR
 10
0.0
 20
1.0
 30
0.0
  9
$UCSORTHOREF
  2

  9
$UCSORTHOVIEW
 70
     0
  9
$UCSORGTOP
 10
0.0
 20
0.0
 30
0.0
  9
$UCSORGBOTTOM
 10
0.0
 20
0.0
 30
0.0
  9
$UCSORGLEFT
 10
0.0
 20
0.0
 30
0.0
  9
$UCSORGRIGHT
 10
0.0
 20
0.0
 30
0.0
  9
$UCSORGFRONT
 10
0.0
 20
0.0
 30
0.0
  9
$UCSORGBACK
 10
0.0
 20
0.0
 30
0.0
  9
$PUCSBASE
  2

  9
$PUCSNAME
  2

  9
$PUCSORG
 10
0.0
 20
0.0
 30
0.0
  9
$PUCSXDIR
 10
1.0
 20
0.0
 30
0.0
  9
$PUCSYDIR
 10
0.0
 20
1.0
 30
0.0
  9
$PUCSORTHOREF
  2

  9
$PUCSORTHOVIEW
 70
     0
  9
$PUCSORGTOP
 10
0.0
 20
0.0
 30
0.0
  9
$PUCSORGBOTTOM
 10
0.0
 20
0.0
 30
0.0
  9
$PUCSORGLEFT
 10
0.0
 20
0.0
 30
0.0
  9
$PUCSORGRIGHT
 10
0.0
 20
0.0
 30
0.0
  9
$PUCSORGFRONT
 10
0.0
 20
0.0
 30
0.0
  9
$PUCSORGBACK
 10
0.0
 20
0.0
 30
0.0
  9
$USERI1
 70
     0
  9
$USERI2
 70
     0
  9
$USERI3
 70
     0
  9
$USERI4
 70
     0
  9
$USERI5
 70
     0
  9
$USERR1
 40
0.0
  9
$USERR2
 40
0.0
  9
$USERR3
 40
0.0
  9
$USERR4
 40
0.0
  9
$USERR5
 40
0.0
  9
$WORLDVIEW
 70
     1
  9
$SHADEDGE
 70
     3
  9
$SHADEDIF
 70
    70
  9
$TILEMODE
 70
     1
  9
$MAXACTVP
 70
    64
  9
$PINSBASE
 10
0.0
 20
0.0
 30
0.0
  9
$PLIMCHECK
 70
     0
  9
$PEXTMIN
 10
1.0000000000E+20
 20
1.0000000000E+20
 30
1.0000000000E+20
  9
$PEXTMAX
 10
-1.0000000000E+20
 20
-1.0000000000E+20
 30
-1.0000000000E+20
  9
$PLIMMIN
 10
0.0
 20
0.0
  9
$PLIMMAX
 10
420.0
 20
297.0
  9
$UNITMODE
 70
     0
  9
$VISRETAIN
 70
     1
  9
$PLINEGEN
 70
     0
  9
$PSLTSCALE
 70
     1
  9
$TREEDEPTH
 70
  3020
  9
$CMLSTYLE
  2
Standard
  9
$CMLJUST
 70
     0
  9
$CMLSCALE
 40
20.0
  9
$PROXYGRAPHICS
 70
     1
  9
$MEASUREMENT
 70
     1
  9
$CELWEIGHT
370
    -1
  9
$ENDCAPS
280
     0
  9
$JOINSTYLE
280
     0
  9
$LWDISPLAY
290
     1
  9
$INSUNITS
 70
     4
  9
$HYPERLINKBASE
  1

  9
$STYLESHEET
  1

  9
$XEDIT
290
     1
  9
$CEPSNTYPE
380
     0
  9
$PSTYLEMODE
290
     1
  9
$FINGERPRINTGUID
  2
{211F141F-A3DE-4470-BD2B-E837592DBFCB}
  9
$VERSIONGUID
  2
{FAEB1C32-E019-11D5-929B-00C0DF256EC4}
  9
$EXTNAMES
290
     1
  9
$PSVPSCALE
 40
0.0
  9
$OLESTARTUP
290
     0
  0
ENDSEC
  0
SECTION
  2
CLASSES
  0
CLASS
  1
ACDBDICTIONARYWDFLT
  2
AcDbDictionaryWithDefault
  3
ObjectDBX Classes
 90
        0
280
     0
281
     0
  0
CLASS
  1
VISUALSTYLE
  2
AcDbVisualStyle
  3
ObjectDBX Classes
 90
     4095
280
     0
281
     0
  0
CLASS
  1
MATERIAL
  2
AcDbMaterial
  3
ObjectDBX Classes
 90
     1153
280
     0
281
     0
  0
CLASS
  1
ACDBPLACEHOLDER
  2
AcDbPlaceHolder
  3
ObjectDBX Classes
 90
        0
280
     0
281
     0
  0
CLASS
  1
LAYOUT
  2
AcDbLayout
  3
ObjectDBX Classes
 90
        0
280
     0
281
     0
  0
ENDSEC
  0
SECTION
  2
TABLES
  0
TABLE
  2
VPORT
  5
8
330
0
100
AcDbSymbolTable
 70
     1
  0
VPORT
  5
29
330
8
100
AcDbSymbolTableRecord
100
AcDbViewportTableRecord
  2
*Active
 70
     0
 10
0.0
 20
0.0
 11
1.0
 21
1.0
 12
51.9825851365
 22
58.7246057196
 13
0.0
 23
0.0
 14
10.0
 24
10.0
 15
10.0
 25
10.0
 16
0.0
 26
0.0
 36
1.0
 17
0.0
 27
0.0
 37
0.0
 40
25.8131477535
 41
1.6901632961
 42
50.0
 43
0.0
 44
0.0
 50
0.0
 51
0.0
 71
     0
 72
   100
 73
     1
 74
     3
 75
     0
 76
     0
 77
     0
 78
     0
281
     0
 65
     1
110
0.0
120
0.0
130
0.0
111
1.0
121
0.0
131
0.0
112
0.0
122
1.0
132
0.0
 79
     0
146
0.0
  0
ENDTAB
  0
TABLE
  2
LTYPE
  5
5
330
0
100
AcDbSymbolTable
 70
     6
  0
LTYPE
  5
14
330
5
100
AcDbSymbolTableRecord
100
AcDbLinetypeTableRecord
  2
ByBlock
 70
     0
  3

 72
    65
 73
     0
 40
0.0
  0
LTYPE
  5
15
330
5
100
AcDbSymbolTableRecord
100
AcDbLinetypeTableRecord
  2
ByLayer
 70
     0
  3

 72
    65
 73
     0
 40
0.0
  0
LTYPE
  5
16
330
5
100
AcDbSymbolTableRecord
100
AcDbLinetypeTableRecord
  2
Continuous
 70
     0
  3
Solid line
 72
    65
 73
     0
 40
0.0
  0
LTYPE
  5
3F
330
5
100
AcDbSymbolTableRecord
100
AcDbLinetypeTableRecord
  2
HIDDEN
 70
     0
  3
Hidden __ __ __ __ __ __ __ __ __ __ __ __ __ __
 72
    65
 73
     2
 40
1.905
 49
1.27
 74
     0
 49
-0.635
 74
     0
  0
LTYPE
  5
40
330
5
100
AcDbSymbolTableRecord
100
AcDbLinetypeTableRecord
  2
PHANTOM
 70
     0
  3
Phantom ______  __  __  ______  __  __  ______
 72
    65
 73
     6
 40
12.7
 49
6.35
 74
     0
 49
-1.27
 74
     0
 49
1.27
 74
     0
 49
-1.27
 74
     0
 49
1.27
 74
     0
 49
-1.27
 74
     0
  0
LTYPE
  5
41
330
5
100
AcDbSymbolTableRecord
100
AcDbLinetypeTableRecord
  2
CENTER
 70
     0
  3
Center ____ _ ____ _ ____ _ ____ _ ____ _ ____
 72
    65
 73
     4
 40
10.16
 49
6.35
 74
     0
 49
-1.27
 74
     0
 49
1.27
 74
     0
 49
-1.27
 74
     0
  0
LTYPE
  5
42
330
5
100
AcDbSymbolTableRecord
100
AcDbLinetypeTableRecord
  2
CENTERX2
 70
     0
  3
Center (2x) ________  __  ________  __  _____
 72
    65
 73
     4
 40
20.32
 49
12.7
 74
     0
 49
-2.54
 74
     0
 49
2.54
 74
     0
 49
-2.54
 74
     0
  0
LTYPE
  5
43
330
5
100
AcDbSymbolTableRecord
100
AcDbLinetypeTableRecord
  2
DOT2
 70
     0
  3
Dot (.5x) ........................................
 72
    65
 73
     2
 40
0.635
 49
0.0
 74
     0
 49
-0.635
 74
     0
  0
ENDTAB
  0
TABLE
  2
LAYER
  5
2
330
0
100
AcDbSymbolTable
 70
     1
  0
LAYER
  5
10
330
2
100
AcDbSymbolTableRecord
100
AcDbLayerTableRecord
  2
0
 70
     0
 62
     7
  6
Continuous
370
    -3
390
F
  0
ENDTAB
  0
TABLE
  2
STYLE
  5
3
330
0
100
AcDbSymbolTable
 70
     1
  0
STYLE
  5
11
330
3
100
AcDbSymbolTableRecord
100
AcDbTextStyleTableRecord
  2
Standard
 70
     0
 40
0.0
 41
1.0
 50
0.0
 71
     0
 42
3.5
  3
txt
  4

  0
ENDTAB
  0
TABLE
  2
VIEW
  5
6
330
0
100
AcDbSymbolTable
 70
     0
  0
ENDTAB
  0
TABLE
  2
UCS
  5
7
330
0
100
AcDbSymbolTable
 70
     0
  0
ENDTAB
  0
TABLE
  2
APPID
  5
9
330
0
100
AcDbSymbolTable
 70
     1
  0
APPID
  5
12
330
9
100
AcDbSymbolTableRecord
100
AcDbRegAppTableRecord
  2
ACAD
 70
     0
  0
ENDTAB
  0
TABLE
  2
DIMSTYLE
  5
A
330
0
100
AcDbSymbolTable
 70
     1
100
AcDbDimStyleTable
  0
DIMSTYLE
105
27
330
A
100
AcDbSymbolTableRecord
100
AcDbDimStyleTableRecord
  2
ISO-25
 70
     0
 41
2.5
 42
0.625
 43
3.75
 44
1.25
 73
     0
 74
     0
 77
     1
 78
     8
140
2.5
141
2.5
143
0.0393700787
147
0.625
171
     3
172
     1
178
     0
271
     2
272
     2
274
     3
278
    44
283
     0
284
     8
340
11
  0
ENDTAB
  0
TABLE
  2
BLOCK_RECORD
  5
1
330
0
100
AcDbSymbolTable
 70
     1
  0
BLOCK_RECORD
  5
1F
330
1
100
AcDbSymbolTableRecord
100
AcDbBlockTableRecord
  2
*Model_Space
340
22
  0
BLOCK_RECORD
  5
1B
330
1
100
AcDbSymbolTableRecord
100
AcDbBlockTableRecord
  2
*Paper_Space
340
1E
  0
BLOCK_RECORD
  5
23
330
1
100
AcDbSymbolTableRecord
100
AcDbBlockTableRecord
  2
*Paper_Space0
340
26
  0
ENDTAB
  0
ENDSEC
  0
SECTION
  2
BLOCKS
  0
BLOCK
  5
20
330
1F
100
AcDbEntity
  8
0
100
AcDbBlockBegin
  2
*Model_Space
 70
     0
 10
0.0
 20
0.0
 30
0.0
  3
*Model_Space
  1

  0
ENDBLK
  5
21
330
1F
100
AcDbEntity
  8
0
100
AcDbBlockEnd
  0
BLOCK
  5
1C
330
1B
100
AcDbEntity
 67
     1
  8
0
100
AcDbBlockBegin
  2
*Paper_Space
 70
     0
 10
0.0
 20
0.0
 30
0.0
  3
*Paper_Space
  1

  0
ENDBLK
  5
1D
330
1B
100
AcDbEntity
 67
     1
  8
0
100
AcDbBlockEnd
  0
BLOCK
  5
24
330
23
100
AcDbEntity
  8
0
100
AcDbBlockBegin
  2
*Paper_Space0
 70
     0
 10
0.0
 20
0.0
 30
0.0
  3
*Paper_Space0
  1

  0
ENDBLK
  5
25
330
23
100
AcDbEntity
  8
0
100
AcDbBlockEnd
  0
ENDSEC
  0
SECTION
  2
ENTITIES
  0
LINE
  5
44
330
1F
100
AcDbEntity
  8
0
  6
Continuous
 62
     7
370
    15
100
AcDbLine
 10
59.842390637
 20
48.6615799504
 30
0.0
 11
59.8782501666
 21
48.9454373556
 31
0.0
  0
LINE
  5
45
330
1F
100
AcDbEntity
  8
0
  6
Continuous
 62
     7
370
    15
100
AcDbLine
 10
57.9598900621
 20
48.899395078
 30
0.0
 11
59.842390637
 21
48.6615799504
 31
0.0
  0
ARC
  5
46
330
1F
100
AcDbEntity
  8
0
  6
Continuous
 62
     7
370
    15
100
AcDbCircle
 10
51.841
 20
49.9
 30
0.0
 40
6.200163368983482
100
AcDbArc
 50
344.0160178089
 51
350.7127833479
  0
LINE
  5
47
330
1F
100
AcDbEntity
  8
0
  6
Continuous
 62
     7
370
    15
100
AcDbLine
 10
57.8014570953
 20
48.1926696229
 30
0.0
 11
65.2080571557
 21
46.0711019189
 31
0.0
  0
LINE
  5
48
330
1F
100
AcDbEntity
  8
0
  6
Continuous
 62
     7
370
    15
100
AcDbLine
 10
65.2080571557
 20
46.0711019189
 30
0.0
 11
65.9988669419
 21
48.8724063315
 31
0.0
  0
LINE
  5
49
330
1F
100
AcDbEntity
  8
0
  6
Continuous
 62
     7
370
    15
100
AcDbLine
 10
65.9988669419
 20
48.8724063315
 30
0.0
 11
65.2739329487
 21
48.8955265691
 31
0.0
  0
LINE
  5
4A
330
1F
100
AcDbEntity
  8
0
  6
Continuous
 62
     7
370
    15
100
AcDbLine
 10
65.2739329487
 20
48.8955265691
 30
0.0
 11
64.8588201106
 21
47.5882722692
 31
0.0
  0
LINE
  5
4B
330
1F
100
AcDbEntity
  8
0
  6
Continuous
 62
     7
370
    15
100
AcDbLine
 10
64.8588201106
 20
47.5882722692
 30
0.0
 11
63.7610632966
 21
47.9368601045
 31
0.0
  0
LINE
  5
4C
330
1F
100
AcDbEntity
  8
0
  6
Continuous
 62
     7
370
    15
100
AcDbLine
 10
63.7610632966
 20
47.9368601045
 30
0.0
 11
63.6867301809
 21
48.9461470468
 31
0.0
  0
LINE
  5
4D
330
1F
100
AcDbEntity
  8
0
  6
Continuous
 62
     7
370
    15
100
AcDbLine
 10
63.6867301809
 20
48.9461470468
 30
0.0
 11
61.9608681481
 21
49.0011897687
 31
0.0
  0
ARC
  5
4E
330
1F
100
AcDbEntity
  8
0
  6
Continuous
 62
     7
370
    15
100
AcDbCircle
 10
51.841
 20
49.9
 30
0.0
 40
10.15970428537799
100
AcDbArc
 50
354.924513061
 51
357.310049772
  0
LINE
  5
4F
330
1F
100
AcDbEntity
  8
0
  6
Continuous
 62
     7
370
    15
100
AcDbLine
 10
61.9895095322
 20
49.4231924484
 30
0.0
 11
66.426597085
 21
49.5562550953
 31
0.0
  0
LINE
  5
50
330
1F
100
AcDbEntity
  8
0
  6
Continuous
 62
     7
370
    15
100
AcDbLine
 10
66.426597085
 20
49.5562550953
 30
0.0
 11
69.5963449598
 21
49.5181373614
 31
0.0
  0
LINE
  5
51
330
1F
100
AcDbEntity
  8
0
  6
Continuous
 62
     7
370
    15
100
AcDbLine
 10
69.5963449598
 20
49.5181373614
 30
0.0
 11
71.1334506277
 21
49.1902217525
 31
0.0
  0
LINE
  5
52
330
1F
100
AcDbEntity
  8
0
  6
Continuous
 62
     7
370
    15
100
AcDbLine
 10
71.1334506277
 20
49.1902217525
 30
0.0
 11
73.3690728281
 21
49.4461970288
 31
0.0
  0
LINE
  5
53
330
1F
100
AcDbEntity
  8
0
  6
Continuous
 62
     7
370
    15
100
AcDbLine
 10
73.3690728281
 20
49.4461970288
 30
0.0
 11
73.3690728281
 21
49.5414527654
 31
0.0
  0
LINE
  5
54
330
1F
100
AcDbEntity
  8
0
  6
Continuous
 62
     7
370
    15
100
AcDbLine
 10
73.3690728281
 20
49.5414527654
 30
0.0
 11
73.0256172788
 21
49.59
 31
0.0
  0
LINE
  5
55
330
1F
100
AcDbEntity
  8
0
  6
Continuous
 62
     7
370
    15
100
AcDbLine
 10
73.0256172788
 20
49.59
 30
0.0
 11
71.4434506277
 21
49.59
 31
0.0
  0
LINE
  5
56
330
1F
100
AcDbEntity
  8
0
  6
Continuous
 62
     7
370
    15
100
AcDbLine
 10
71.4434506277
 20
49.59
 30
0.0
 11
71.0668930514
 21
49.7138682301
 31
0.0
  0
LINE
  5
57
330
1F
100
AcDbEntity
  8
0
  6
Continuous
 62
     7
370
    15
100
AcDbLine
 10
71.0668930514
 20
49.7138682301
 30
0.0
 11
71.0668930514
 21
50.0861317699
 31
0.0
  0
LINE
  5
58
330
1F
100
AcDbEntity
  8
0
  6
Continuous
 62
     7
370
    15
100
AcDbLine
 10
71.0668930514
 20
50.0861317699
 30
0.0
 11
71.4434506277
 21
50.21
 31
0.0
  0
LINE
  5
59
330
1F
100
AcDbEntity
  8
0
  6
Continuous
 62
     7
370
    15
100
AcDbLine
 10
71.4434506277
 20
50.21
 30
0.0
 11
73.0256172788
 21
50.21
 31
0.0
  0
LINE
  5
5A
330
1F
100
AcDbEntity
  8
0
  6
Continuous
 62
     7
370
    15
100
AcDbLine
 10
73.0256172788
 20
50.21
 30
0.0
 11
73.3690728281
 21
50.2585472346
 31
0.0
  0
LINE
  5
5B
330
1F
100
AcDbEntity
  8
0
  6
Continuous
 62
     7
370
    15
100
AcDbLine
 10
73.3690728281
 20
50.2585472346
 30
0.0
 11
73.3690728281
 21
50.3538029712
 31
0.0
  0
LINE
  5
5C
330
1F
100
AcDbEntity
  8
0
  6
Continuous
 62
     7
370
    15
100
AcDbLine
 10
73.3690728281
 20
50.3538029712
 30
0.0
 11
71.1334506277
 21
50.6097782475
 31
0.0
  0
LINE
  5
5D
330
1F
100
AcDbEntity
  8
0
  6
Continuous
 62
     7
370
    15
100
AcDbLine
 10
71.1334506277
 20
50.6097782475
 30
0.0
 11
69.5963449598
 21
50.2818626386
 31
0.0
  0
LINE
  5
5E
330
1F
100
AcDbEntity
  8
0
  6
Continuous
 62
     7
370
    15
100
AcDbLine
 10
69.5963449598
 20
50.2818626386
 30
0.0
 11
66.426597085
 21
50.2437449047
 31
0.0
  0
LINE
  5
5F
330
1F
100
AcDbEntity
  8
0
  6
Continuous
 62
     7
370
    15
100
AcDbLine
 10
66.426597085
 20
50.2437449047
 30
0.0
 11
61.9895095322
 21
50.3768075516
 31
0.0
  0
ARC
  5
60
330
1F
100
AcDbEntity
  8
0
  6
Continuous
 62
     7
370
    15
100
AcDbCircle
 10
51.841
 20
49.9
 30
0.0
 40
10.15970428537799
100
AcDbArc
 50
2.689950228
 51
7.8982850661
  0
LINE
  5
61
330
1F
100
AcDbEntity
  8
0
  6
Continuous
 62
     7
370
    15
100
AcDbLine
 10
61.9043250297
 20
51.2960947362
 30
0.0
 11
66.2414125379
 21
52.242204437
 31
0.0
  0
LINE
  5
62
330
1F
100
AcDbEntity
  8
0
  6
Continuous
 62
     7
370
    15
100
AcDbLine
 10
66.2414125379
 20
52.242204437
 30
0.0
 11
69.3641935468
 21
52.7871753735
 31
0.0
  0
LINE
  5
63
330
1F
100
AcDbEntity
  8
0
  6
Continuous
 62
     7
370
    15
100
AcDbLine
 10
69.3641935468
 20
52.7871753735
 30
0.0
 11
70.9353814047
 21
52.7472855763
 31
0.0
  0
LINE
  5
64
330
1F
100
AcDbEntity
  8
0
  6
Continuous
 62
     7
370
    15
100
AcDbLine
 10
70.9353814047
 20
52.7472855763
 30
0.0
 11
73.0859025552
 21
53.4096968885
 31
0.0
  0
LINE
  5
65
330
1F
100
AcDbEntity
  8
0
  6
Continuous
 62
     7
370
    15
100
AcDbLine
 10
73.0859025552
 20
53.4096968885
 30
0.0
 11
73.0683993596
 21
53.5033307151
 31
0.0
  0
LINE
  5
66
330
1F
100
AcDbEntity
  8
0
  6
Continuous
 62
     7
370
    15
100
AcDbLine
 10
73.0683993596
 20
53.5033307151
 30
0.0
 11
72.7218712627
 21
53.4879415492
 31
0.0
  0
LINE
  5
67
330
1F
100
AcDbEntity
  8
0
  6
Continuous
 62
     7
370
    15
100
AcDbLine
 10
72.7218712627
 20
53.4879415492
 30
0.0
 11
71.1666440054
 21
53.19721919
 31
0.0
  0
LINE
  5
68
330
1F
100
AcDbEntity
  8
0
  6
Continuous
 62
     7
370
    15
100
AcDbLine
 10
71.1666440054
 20
53.19721919
 30
0.0
 11
70.7737373099
 21
53.249786055
 31
0.0
  0
LINE
  5
69
330
1F
100
AcDbEntity
  8
0
  6
Continuous
 62
     7
370
    15
100
AcDbLine
 10
70.7737373099
 20
53.249786055
 30
0.0
 11
70.7053340639
 21
53.6157111006
 31
0.0
  0
LINE
  5
6A
330
1F
100
AcDbEntity
  8
0
  6
Continuous
 62
     7
370
    15
100
AcDbLine
 10
70.7053340639
 20
53.6157111006
 30
0.0
 11
71.0527193043
 21
53.8066625118
 31
0.0
  0
LINE
  5
6B
330
1F
100
AcDbEntity
  8
0
  6
Continuous
 62
     7
370
    15
100
AcDbLine
 10
71.0527193043
 20
53.8066625118
 30
0.0
 11
72.6079465616
 21
54.097384871
 31
0.0
  0
LINE
  5
6C
330
1F
100
AcDbEntity
  8
0
  6
Continuous
 62
     7
370
    15
100
AcDbLine
 10
72.6079465616
 20
54.097384871
 30
0.0
 11
72.9366335966
 21
54.2082152883
 31
0.0
  0
LINE
  5
6D
330
1F
100
AcDbEntity
  8
0
  6
Continuous
 62
     7
370
    15
100
AcDbLine
 10
72.9366335966
 20
54.2082152883
 30
0.0
 11
72.9191304009
 21
54.3018491149
 31
0.0
  0
LINE
  5
6E
330
1F
100
AcDbEntity
  8
0
  6
Continuous
 62
     7
370
    15
100
AcDbLine
 10
72.9191304009
 20
54.3018491149
 30
0.0
 11
70.6745385832
 21
54.1426714243
 31
0.0
  0
LINE
  5
6F
330
1F
100
AcDbEntity
  8
0
  6
Continuous
 62
     7
370
    15
100
AcDbLine
 10
70.6745385832
 20
54.1426714243
 30
0.0
 11
69.2238593954
 21
53.5378967765
 31
0.0
  0
LINE
  5
70
330
1F
100
AcDbEntity
  8
0
  6
Continuous
 62
     7
370
    15
100
AcDbLine
 10
69.2238593954
 20
53.5378967765
 30
0.0
 11
66.1150866169
 21
52.9179884259
 31
0.0
  0
LINE
  5
71
330
1F
100
AcDbEntity
  8
0
  6
Continuous
 62
     7
370
    15
100
AcDbLine
 10
66.1150866169
 20
52.9179884259
 30
0.0
 11
61.7290987143
 21
52.23347273
 31
0.0
  0
ARC
  5
72
330
1F
100
AcDbEntity
  8
0
  6
Continuous
 62
     7
370
    15
100
AcDbCircle
 10
51.841
 20
49.9
 30
0.0
 40
10.15970428537799
100
AcDbArc
 50
13.2781855221
 51
18.4865203603
  0
LINE
  5
73
330
1F
100
AcDbEntity
  8
0
  6
Continuous
 62
     7
370
    15
100
AcDbLine
 10
61.476446063
 20
53.1214546921
 30
0.0
 11
65.5658392132
 21
54.8483928157
 31
0.0
  0
LINE
  5
74
330
1F
100
AcDbEntity
  8
0
  6
Continuous
 62
     7
370
    15
100
AcDbLine
 10
65.5658392132
 20
54.8483928157
 30
0.0
 11
68.5353107943
 21
55.9578940911
 31
0.0
  0
LINE
  5
75
330
1F
100
AcDbEntity
  8
0
  6
Continuous
 62
     7
370
    15
100
AcDbLine
 10
68.5353107943
 20
55.9578940911
 30
0.0
 11
70.0870759242
 21
56.2073885048
 31
0.0
  0
LINE
  5
76
330
1F
100
AcDbEntity
  8
0
  6
Continuous
 62
     7
370
    15
100
AcDbLine
 10
70.0870759242
 20
56.2073885048
 30
0.0
 11
72.0792626062
 21
57.25367823
 31
0.0
  0
LINE
  5
77
330
1F
100
AcDbEntity
  8
0
  6
Continuous
 62
     7
370
    15
100
AcDbLine
 10
72.0792626062
 20
57.25367823
 30
0.0
 11
72.0448522653
 21
57.342501559
 31
0.0
  0
LINE
  5
78
330
1F
100
AcDbEntity
  8
0
  6
Continuous
 62
     7
370
    15
100
AcDbLine
 10
72.0448522653
 20
57.342501559
 30
0.0
 11
71.7070522196
 21
57.2637000522
 31
0.0
  0
LINE
  5
79
330
1F
100
AcDbEntity
  8
0
  6
Continuous
 62
     7
370
    15
100
AcDbLine
 10
71.7070522196
 20
57.2637000522
 30
0.0
 11
70.2317257551
 21
56.692155535
 31
0.0
  0
LINE
  5
7A
330
1F
100
AcDbEntity
  8
0
  6
Continuous
 62
     7
370
    15
100
AcDbLine
 10
70.2317257551
 20
56.692155535
 30
0.0
 11
69.8358499066
 21
56.6716309334
 31
0.0
  0
LINE
  5
7B
330
1F
100
AcDbEntity
  8
0
  6
Continuous
 62
     7
370
    15
100
AcDbLine
 10
69.8358499066
 20
56.6716309334
 30
0.0
 11
69.7013728052
 21
57.0187563463
 31
0.0
  0
LINE
  5
7C
330
1F
100
AcDbEntity
  8
0
  6
Continuous
 62
     7
370
    15
100
AcDbLine
 10
69.7013728052
 20
57.0187563463
 30
0.0
 11
70.007755922
 21
57.2702883172
 31
0.0
  0
LINE
  5
7D
330
1F
100
AcDbEntity
  8
0
  6
Continuous
 62
     7
370
    15
100
AcDbLine
 10
70.007755922
 20
57.2702883172
 30
0.0
 11
71.4830823865
 21
57.8418328344
 31
0.0
  0
LINE
  5
7E
330
1F
100
AcDbEntity
  8
0
  6
Continuous
 62
     7
370
    15
100
AcDbLine
 10
71.4830823865
 20
57.8418328344
 30
0.0
 11
71.7858078644
 21
58.0111722375
 31
0.0
  0
LINE
  5
7F
330
1F
100
AcDbEntity
  8
0
  6
Continuous
 62
     7
370
    15
100
AcDbLine
 10
71.7858078644
 20
58.0111722375
 30
0.0
 11
71.7513975234
 21
58.0999955665
 31
0.0
  0
LINE
  5
80
330
1F
100
AcDbEntity
  8
0
  6
Continuous
 62
     7
370
    15
100
AcDbLine
 10
71.7513975234
 20
58.0999955665
 30
0.0
 11
69.5742729707
 21
57.5310855144
 31
0.0
  0
LINE
  5
81
330
1F
100
AcDbEntity
  8
0
  6
Continuous
 62
     7
370
    15
100
AcDbLine
 10
69.5742729707
 20
57.5310855144
 30
0.0
 11
68.2594214027
 21
56.6700467029
 31
0.0
  0
LINE
  5
82
330
1F
100
AcDbEntity
  8
0
  6
Continuous
 62
     7
370
    15
100
AcDbLine
 10
68.2594214027
 20
56.6700467029
 30
0.0
 11
65.3174892489
 21
55.4894579709
 31
0.0
  0
LINE
  5
83
330
1F
100
AcDbEntity
  8
0
  6
Continuous
 62
     7
370
    15
100
AcDbLine
 10
65.3174892489
 20
55.4894579709
 30
0.0
 11
61.1319605542
 21
54.0106742933
 31
0.0
  0
ARC
  5
84
330
1F
100
AcDbEntity
  8
0
  6
Continuous
 62
     7
370
    15
100
AcDbCircle
 10
51.841
 20
49.9
 30
0.0
 40
10.15970428537798
100
AcDbArc
 50
23.8664208162
 51
29.0747556544
  0
LINE
  5
85
330
1F
100
AcDbEntity
  8
0
  6
Continuous
 62
     7
370
    15
100
AcDbLine
 10
60.720443537
 20
54.8371118722
 30
0.0
 11
64.4228829502
 21
57.286069612
 31
0.0
  0
LINE
  5
86
330
1F
100
AcDbEntity
  8
0
  6
Continuous
 62
     7
370
    15
100
AcDbLine
 10
64.4228829502
 20
57.286069612
 30
0.0
 11
67.1379233103
 21
58.922318491
 31
0.0
  0
LINE
  5
87
330
1F
100
AcDbEntity
  8
0
  6
Continuous
 62
     7
370
    15
100
AcDbLine
 10
67.1379233103
 20
58.922318491
 30
0.0
 11
68.6174222118
 21
59.4527008825
 31
0.0
  0
LINE
  5
88
330
1F
100
AcDbEntity
  8
0
  6
Continuous
 62
     7
370
    15
100
AcDbLine
 10
68.6174222118
 20
59.4527008825
 30
0.0
 11
70.3834328973
 21
60.8472388792
 31
0.0
  0
LINE
  5
89
330
1F
100
AcDbEntity
  8
0
  6
Continuous
 62
     7
370
    15
100
AcDbLine
 10
70.3834328973
 20
60.8472388792
 30
0.0
 11
70.3332872139
 21
60.9282269386
 31
0.0
  0
LINE
  5
8A
330
1F
100
AcDbEntity
  8
0
  6
Continuous
 62
     7
370
    15
100
AcDbLine
 10
70.3332872139
 20
60.9282269386
 30
0.0
 11
70.0157185948
 21
60.7886965817
 31
0.0
  0
LINE
  5
8B
330
1F
100
AcDbEntity
  8
0
  6
Continuous
 62
     7
370
    15
100
AcDbLine
 10
70.0157185948
 20
60.7886965817
 30
0.0
 11
68.6705333964
 21
59.9557931695
 31
0.0
  0
LINE
  5
8C
330
1F
100
AcDbEntity
  8
0
  6
Continuous
 62
     7
370
    15
100
AcDbLine
 10
68.6705333964
 20
59.9557931695
 30
0.0
 11
68.2851694722
 21
59.862876042
 31
0.0
  0
LINE
  5
8D
330
1F
100
AcDbEntity
  8
0
  6
Continuous
 62
     7
370
    15
100
AcDbLine
 10
68.2851694722
 20
59.862876042
 30
0.0
 11
68.0891979718
 21
60.1793808826
 31
0.0
  0
LINE
  5
8E
330
1F
100
AcDbEntity
  8
0
  6
Continuous
 62
     7
370
    15
100
AcDbLine
 10
68.0891979718
 20
60.1793808826
 30
0.0
 11
68.3441454554
 21
60.4829277937
 31
0.0
  0
LINE
  5
8F
330
1F
100
AcDbEntity
  8
0
  6
Continuous
 62
     7
370
    15
100
AcDbLine
 10
68.3441454554
 20
60.4829277937
 30
0.0
 11
69.6893306538
 21
61.3158312059
 31
0.0
  0
LINE
  5
90
330
1F
100
AcDbEntity
  8
0
  6
Continuous
 62
     7
370
    15
100
AcDbLine
 10
69.6893306538
 20
61.3158312059
 30
0.0
 11
69.9557856215
 21
61.5379129444
 31
0.0
  0
LINE
  5
91
330
1F
100
AcDbEntity
  8
0
  6
Continuous
 62
     7
370
    15
100
AcDbLine
 10
69.9557856215
 20
61.5379129444
 30
0.0
 11
69.9056399381
 21
61.6189010038
 31
0.0
  0
LINE
  5
92
330
1F
100
AcDbEntity
  8
0
  6
Continuous
 62
     7
370
    15
100
AcDbLine
 10
69.9056399381
 20
61.6189010038
 30
0.0
 11
67.8701220159
 21
60.6596321397
 31
0.0
  0
LINE
  5
93
330
1F
100
AcDbEntity
  8
0
  6
Continuous
 62
     7
370
    15
100
AcDbLine
 10
67.8701220159
 20
60.6596321397
 30
0.0
 11
66.7358737608
 21
59.5716508086
 31
0.0
  0
LINE
  5
94
330
1F
100
AcDbEntity
  8
0
  6
Continuous
 62
     7
370
    15
100
AcDbLine
 10
66.7358737608
 20
59.5716508086
 30
0.0
 11
64.0609662029
 21
57.8705852286
 31
0.0
  0
LINE
  5
95
330
1F
100
AcDbEntity
  8
0
  6
Continuous
 62
     7
370
    15
100
AcDbLine
 10
64.0609662029
 20
57.8705852286
 30
0.0
 11
60.2184298757
 21
55.6478917738
 31
0.0
  0
ARC
  5
96
330
1F
100
AcDbEntity
  8
0
  6
Continuous
 62
     7
370
    15
100
AcDbCircle
 10
51.841
 20
49.9
 30
0.0
 40
10.15970428537799
100
AcDbArc
 50
34.4546561103
 51
39.6629909485
  0
LINE
  5
97
330
1F
100
AcDbEntity
  8
0
  6
Continuous
 62
     7
370
    15
100
AcDbLine
 10
59.6620622111
 20
56.3846416289
 30
0.0
 11
62.8514657536
 21
59.4722226663
 31
0.0
  0
LINE
  5
98
330
1F
100
AcDbEntity
  8
0
  6
Continuous
 62
     7
370
    15
100
AcDbLine
 10
62.8514657536
 20
59.4722226663
 30
0.0
 11
65.2196174497
 21
61.5794986558
 31
0.0
  0
LINE
  5
99
330
1F
100
AcDbEntity
  8
0
  6
Continuous
 62
     7
370
    15
100
AcDbLine
 10
65.2196174497
 20
61.5794986558
 30
0.0
 11
66.5764675622
 21
62.372707489
 31
0.0
  0
LINE
  5
9A
330
1F
100
AcDbEntity
  8
0
  6
Continuous
 62
     7
370
    15
100
AcDbLine
 10
66.5764675622
 20
62.372707489
 30
0.0
 11
68.0561628753
 21
64.0680044381
 31
0.0
  0
LINE
  5
9B
330
1F
100
AcDbEntity
  8
0
  6
Continuous
 62
     7
370
    15
100
AcDbLine
 10
68.0561628753
 20
64.0680044381
 30
0.0
 11
67.9919895006
 21
64.1383992768
 31
0.0
  0
LINE
  5
9C
330
1F
100
AcDbEntity
  8
0
  6
Continuous
 62
     7
370
    15
100
AcDbLine
 10
67.9919895006
 20
64.1383992768
 30
0.0
 11
67.7054667265
 21
63.9428916087
 31
0.0
  0
LINE
  5
9D
330
1F
100
AcDbEntity
  8
0
  6
Continuous
 62
     7
370
    15
100
AcDbLine
 10
67.7054667265
 20
63.9428916087
 30
0.0
 11
66.5362314627
 21
62.8769928283
 31
0.0
  0
LINE
  5
9E
330
1F
100
AcDbEntity
  8
0
  6
Continuous
 62
     7
370
    15
100
AcDbLine
 10
66.5362314627
 20
62.8769928283
 30
0.0
 11
66.174502569
 21
62.7148473562
 31
0.0
  0
LINE
  5
9F
330
1F
100
AcDbEntity
  8
0
  6
Continuous
 62
     7
370
    15
100
AcDbLine
 10
66.174502569
 20
62.7148473562
 30
0.0
 11
65.9237102439
 21
62.9899534317
 31
0.0
  0
LINE
  5
A0
330
1F
100
AcDbEntity
  8
0
  6
Continuous
 62
     7
370
    15
100
AcDbLine
 10
65.9237102439
 20
62.9899534317
 30
0.0
 11
66.1185401637
 21
63.335178357
 31
0.0
  0
LINE
  5
A1
330
1F
100
AcDbEntity
  8
0
  6
Continuous
 62
     7
370
    15
100
AcDbLine
 10
66.1185401637
 20
63.335178357
 30
0.0
 11
67.2877754274
 21
64.4010771374
 31
0.0
  0
LINE
  5
A2
330
1F
100
AcDbEntity
  8
0
  6
Continuous
 62
     7
370
    15
100
AcDbLine
 10
67.2877754274
 20
64.4010771374
 30
0.0
 11
67.5088860805
 21
64.6683384841
 31
0.0
  0
LINE
  5
A3
330
1F
100
AcDbEntity
  8
0
  6
Continuous
 62
     7
370
    15
100
AcDbLine
 10
67.5088860805
 20
64.6683384841
 30
0.0
 11
67.4447127058
 21
64.7387333228
 31
0.0
  0
LINE
  5
A4
330
1F
100
AcDbEntity
  8
0
  6
Continuous
 62
     7
370
    15
100
AcDbLine
 10
67.4447127058
 20
64.7387333228
 30
0.0
 11
65.6201185356
 21
63.4217723973
 31
0.0
  0
LINE
  5
A5
330
1F
100
AcDbEntity
  8
0
  6
Continuous
 62
     7
370
    15
100
AcDbLine
 10
65.6201185356
 20
63.4217723973
 30
0.0
 11
64.7050990575
 21
62.1438984459
 31
0.0
  0
LINE
  5
A6
330
1F
100
AcDbEntity
  8
0
  6
Continuous
 62
     7
370
    15
100
AcDbLine
 10
64.7050990575
 20
62.1438984459
 30
0.0
 11
62.388306864
 21
59.980283766
 31
0.0
  0
LINE
  5
A7
330
1F
100
AcDbEntity
  8
0
  6
Continuous
 62
     7
370
    15
100
AcDbLine
 10
62.388306864
 20
59.980283766
 30
0.0
 11
59.0196158704
 21
57.0893716938
 31
0.0
  0
ARC
  5
A8
330
1F
100
AcDbEntity
  8
0
  6
Continuous
 62
     7
370
    15
100
AcDbCircle
 10
51.841
 20
49.9
 30
0.0
 40
10.15970428537798
100
AcDbArc
 50
45.0428914044
 51
50.2512262426
  0
LINE
  5
A9
330
1F
100
AcDbEntity
  8
0
  6
Continuous
 62
     7
370
    15
100
AcDbLine
 10
58.337343992
 20
57.7113446924
 30
0.0
 11
60.9051003514
 21
61.3324051584
 31
0.0
  0
LINE
  5
AA
330
1F
100
AcDbEntity
  8
0
  6
Continuous
 62
     7
370
    15
100
AcDbLine
 10
60.9051003514
 20
61.3324051584
 30
0.0
 11
62.8457188176
 21
63.8389475019
 31
0.0
  0
LINE
  5
AB
330
1F
100
AcDbEntity
  8
0
  6
Continuous
 62
     7
370
    15
100
AcDbLine
 10
62.8457188176
 20
63.8389475019
 30
0.0
 11
64.0337142379
 21
64.8679710012
 31
0.0
  0
LINE
  5
AC
330
1F
100
AcDbEntity
  8
0
  6
Continuous
 62
     7
370
    15
100
AcDbLine
 10
64.0337142379
 20
64.8679710012
 30
0.0
 11
65.1767049295
 21
66.8062955985
 31
0.0
  0
LINE
  5
AD
330
1F
100
AcDbEntity
  8
0
  6
Continuous
 62
     7
370
    15
100
AcDbLine
 10
65.1767049295
 20
66.8062955985
 30
0.0
 11
65.1006892108
 21
66.8637000046
 31
0.0
  0
LINE
  5
AE
330
1F
100
AcDbEntity
  8
0
  6
Continuous
 62
     7
370
    15
100
AcDbLine
 10
65.1006892108
 20
66.8637000046
 30
0.0
 11
64.8549694711
 21
66.6188728045
 31
0.0
  0
LINE
  5
AF
330
1F
100
AcDbEntity
  8
0
  6
Continuous
 62
     7
370
    15
100
AcDbLine
 10
64.8549694711
 20
66.6188728045
 30
0.0
 11
63.9015010466
 21
65.3562765605
 31
0.0
  0
LINE
  5
B0
330
1F
100
AcDbEntity
  8
0
  6
Continuous
 62
     7
370
    15
100
AcDbLine
 10
63.9015010466
 20
65.3562765605
 30
0.0
 11
63.575725427
 21
65.1304244134
 31
0.0
  0
LINE
  5
B1
330
1F
100
AcDbEntity
  8
0
  6
Continuous
 62
     7
370
    15
100
AcDbLine
 10
63.575725427
 20
65.1304244134
 30
0.0
 11
63.2786527091
 21
65.3547633163
 31
0.0
  0
LINE
  5
B2
330
1F
100
AcDbEntity
  8
0
  6
Continuous
 62
     7
370
    15
100
AcDbLine
 10
63.2786527091
 20
65.3547633163
 30
0.0
 11
63.4067303657
 21
65.7299100351
 31
0.0
  0
LINE
  5
B3
330
1F
100
AcDbEntity
  8
0
  6
Continuous
 62
     7
370
    15
100
AcDbLine
 10
63.4067303657
 20
65.7299100351
 30
0.0
 11
64.3601987902
 21
66.9925062791
 31
0.0
  0
LINE
  5
B4
330
1F
100
AcDbEntity
  8
0
  6
Continuous
 62
     7
370
    15
100
AcDbLine
 10
64.3601987902
 20
66.9925062791
 30
0.0
 11
64.5284354707
 21
67.2958459694
 31
0.0
  0
LINE
  5
B5
330
1F
100
AcDbEntity
  8
0
  6
Continuous
 62
     7
370
    15
100
AcDbLine
 10
64.5284354707
 20
67.2958459694
 30
0.0
 11
64.452419752
 21
67.3532503755
 31
0.0
  0
LINE
  5
B6
330
1F
100
AcDbEntity
  8
0
  6
Continuous
 62
     7
370
    15
100
AcDbLine
 10
64.452419752
 20
67.3532503755
 30
0.0
 11
62.9008836998
 21
65.7234449134
 31
0.0
  0
LINE
  5
B7
330
1F
100
AcDbEntity
  8
0
  6
Continuous
 62
     7
370
    15
100
AcDbLine
 10
62.9008836998
 20
65.7234449134
 30
0.0
 11
62.2362528896
 21
64.2991948065
 31
0.0
  0
LINE
  5
B8
330
1F
100
AcDbEntity
  8
0
  6
Continuous
 62
     7
370
    15
100
AcDbLine
 10
62.2362528896
 20
64.2991948065
 30
0.0
 11
60.35647164
 21
61.7467103296
 31
0.0
  0
LINE
  5
B9
330
1F
100
AcDbEntity
  8
0
  6
Continuous
 62
     7
370
    15
100
AcDbLine
 10
60.35647164
 20
61.7467103296
 30
0.0
 11
57.5763427115
 21
58.2860261834
 31
0.0
  0
ARC
  5
BA
330
1F
100
AcDbEntity
  8
0
  6
Continuous
 62
     7
370
    15
100
AcDbCircle
 10
51.841
 20
49.9
 30
0.0
 40
10.15970428537799
100
AcDbArc
 50
55.6311266986
 51
60.8394615367
  0
LINE
  5
BB
330
1F
100
AcDbEntity
  8
0
  6
Continuous
 62
     7
370
    15
100
AcDbLine
 10
56.7914005697
 20
58.7720417811
 30
0.0
 11
58.650067883
 21
62.8032708044
 31
0.0
  0
LINE
  5
BC
330
1F
100
AcDbEntity
  8
0
  6
Continuous
 62
     7
370
    15
100
AcDbLine
 10
58.650067883
 20
62.8032708044
 30
0.0
 11
60.097067685
 21
65.6237222087
 31
0.0
  0
LINE
  5
BD
330
1F
100
AcDbEntity
  8
0
  6
Continuous
 62
     7
370
    15
100
AcDbLine
 10
60.097067685
 20
65.6237222087
 30
0.0
 11
61.0757526538
 21
66.8535182132
 31
0.0
  0
LINE
  5
BE
330
1F
100
AcDbEntity
  8
0
  6
Continuous
 62
     7
370
    15
100
AcDbLine
 10
61.0757526538
 20
66.8535182132
 30
0.0
 11
61.8431155467
 21
68.9688631391
 31
0.0
  0
LINE
  5
BF
330
1F
100
AcDbEntity
  8
0
  6
Continuous
 62
     7
370
    15
100
AcDbLine
 10
61.8431155467
 20
68.9688631391
 30
0.0
 11
61.7578461081
 21
69.0113222745
 31
0.0
  0
LINE
  5
C0
330
1F
100
AcDbEntity
  8
0
  6
Continuous
 62
     7
370
    15
100
AcDbLine
 10
61.7578461081
 20
69.0113222745
 30
0.0
 11
61.5612970939
 21
68.7255128391
 31
0.0
  0
LINE
  5
C1
330
1F
100
AcDbEntity
  8
0
  6
Continuous
 62
     7
370
    15
100
AcDbLine
 10
61.5612970939
 20
68.7255128391
 30
0.0
 11
60.8560647323
 21
67.3092153322
 31
0.0
  0
LINE
  5
C2
330
1F
100
AcDbEntity
  8
0
  6
Continuous
 62
     7
370
    15
100
AcDbLine
 10
60.8560647323
 20
67.3092153322
 30
0.0
 11
60.5773362848
 21
67.027347634
 31
0.0
  0
LINE
  5
C3
330
1F
100
AcDbEntity
  8
0
  6
Continuous
 62
     7
370
    15
100
AcDbLine
 10
60.5773362848
 20
67.027347634
 30
0.0
 11
60.2440996293
 21
67.1932797722
 31
0.0
  0
LINE
  5
C4
330
1F
100
AcDbEntity
  8
0
  6
Continuous
 62
     7
370
    15
100
AcDbLine
 10
60.2440996293
 20
67.1932797722
 30
0.0
 11
60.3010634916
 21
67.5855731128
 31
0.0
  0
LINE
  5
C5
330
1F
100
AcDbEntity
  8
0
  6
Continuous
 62
     7
370
    15
100
AcDbLine
 10
60.3010634916
 20
67.5855731128
 30
0.0
 11
61.0062958533
 21
69.0018706197
 31
0.0
  0
LINE
  5
C6
330
1F
100
AcDbEntity
  8
0
  6
Continuous
 62
     7
370
    15
100
AcDbLine
 10
61.0062958533
 20
69.0018706197
 30
0.0
 11
61.1159294628
 21
69.3309587842
 31
0.0
  0
LINE
  5
C7
330
1F
100
AcDbEntity
  8
0
  6
Continuous
 62
     7
370
    15
100
AcDbLine
 10
61.1159294628
 20
69.3309587842
 30
0.0
 11
61.0306600242
 21
69.3734179196
 31
0.0
  0
LINE
  5
C8
330
1F
100
AcDbEntity
  8
0
  6
Continuous
 62
     7
370
    15
100
AcDbLine
 10
61.0306600242
 20
69.3734179196
 30
0.0
 11
59.8050177895
 21
67.4862689912
 31
0.0
  0
LINE
  5
C9
330
1F
100
AcDbEntity
  8
0
  6
Continuous
 62
     7
370
    15
100
AcDbLine
 10
59.8050177895
 20
67.4862689912
 30
0.0
 11
59.4134088522
 21
65.964143858
 31
0.0
  0
LINE
  5
CA
330
1F
100
AcDbEntity
  8
0
  6
Continuous
 62
     7
370
    15
100
AcDbLine
 10
59.4134088522
 20
65.964143858
 30
0.0
 11
58.0346522424
 21
63.1097113816
 31
0.0
  0
LINE
  5
CB
330
1F
100
AcDbEntity
  8
0
  6
Continuous
 62
     7
370
    15
100
AcDbLine
 10
58.0346522424
 20
63.1097113816
 30
0.0
 11
55.9377593353
 21
59.1971046092
 31
0.0
  0
ARC
  5
CC
330
1F
100
AcDbEntity
  8
0
  6
Continuous
 62
     7
370
    15
100
AcDbCircle
 10
51.841
 20
49.9
 30
0.0
 40
10.15970428537799
100
AcDbArc
 50
66.2193619927
 51
71.4276968309
  0
LINE
  5
CD
330
1F
100
AcDbEntity
  8
0
  6
Continuous
 62
     7
370
    15
100
AcDbLine
 10
55.0768771933
 20
59.5306121278
 30
0.0
 11
56.1631607743
 21
63.8347310389
 31
0.0
  0
LINE
  5
CE
330
1F
100
AcDbEntity
  8
0
  6
Continuous
 62
     7
370
    15
100
AcDbLine
 10
56.1631607743
 20
63.8347310389
 30
0.0
 11
57.0672660694
 21
66.8730444142
 31
0.0
  0
LINE
  5
CF
330
1F
100
AcDbEntity
  8
0
  6
Continuous
 62
     7
370
    15
100
AcDbLine
 10
57.0672660694
 20
66.8730444142
 30
0.0
 11
57.803312644
 21
68.2617336958
 31
0.0
  0
LINE
  5
D0
330
1F
100
AcDbEntity
  8
0
  6
Continuous
 62
     7
370
    15
100
AcDbLine
 10
57.803312644
 20
68.2617336958
 30
0.0
 11
58.1689161152
 21
70.4820634162
 31
0.0
  0
LINE
  5
D1
330
1F
100
AcDbEntity
  8
0
  6
Continuous
 62
     7
370
    15
100
AcDbLine
 10
58.1689161152
 20
70.4820634162
 30
0.0
 11
58.0772967052
 21
70.5081313859
 31
0.0
  0
LINE
  5
D2
330
1F
100
AcDbEntity
  8
0
  6
Continuous
 62
     7
370
    15
100
AcDbLine
 10
58.0772967052
 20
70.5081313859
 30
0.0
 11
57.9366116574
 21
70.1910726126
 31
0.0
  0
LINE
  5
D3
330
1F
100
AcDbEntity
  8
0
  6
Continuous
 62
     7
370
    15
100
AcDbLine
 10
57.9366116574
 20
70.1910726126
 30
0.0
 11
57.5036312009
 21
68.6693041558
 31
0.0
  0
LINE
  5
D4
330
1F
100
AcDbEntity
  8
0
  6
Continuous
 62
     7
370
    15
100
AcDbLine
 10
57.5036312009
 20
68.6693041558
 30
0.0
 11
57.2814416885
 21
68.341019573
 31
0.0
  0
LINE
  5
D5
330
1F
100
AcDbEntity
  8
0
  6
Continuous
 62
     7
370
    15
100
AcDbLine
 10
57.2814416885
 20
68.341019573
 30
0.0
 11
56.9233890699
 21
68.4428943264
 31
0.0
  0
LINE
  5
D6
330
1F
100
AcDbEntity
  8
0
  6
Continuous
 62
     7
370
    15
100
AcDbLine
 10
56.9233890699
 20
68.4428943264
 30
0.0
 11
56.9072993021
 21
68.8389752096
 31
0.0
  0
LINE
  5
D7
330
1F
100
AcDbEntity
  8
0
  6
Continuous
 62
     7
370
    15
100
AcDbLine
 10
56.9072993021
 20
68.8389752096
 30
0.0
 11
57.3402797587
 21
70.3607436665
 31
0.0
  0
LINE
  5
D8
330
1F
100
AcDbEntity
  8
0
  6
Continuous
 62
     7
370
    15
100
AcDbLine
 10
57.3402797587
 20
70.3607436665
 30
0.0
 11
57.3875768561
 21
70.7043736025
 31
0.0
  0
LINE
  5
D9
330
1F
100
AcDbEntity
  8
0
  6
Continuous
 62
     7
370
    15
100
AcDbLine
 10
57.3875768561
 20
70.7043736025
 30
0.0
 11
57.295957446
 21
70.7304415722
 31
0.0
  0
LINE
  5
DA
330
1F
100
AcDbEntity
  8
0
  6
Continuous
 62
     7
370
    15
100
AcDbLine
 10
57.295957446
 20
70.7304415722
 30
0.0
 11
56.4379468052
 21
68.6502137708
 31
0.0
  0
LINE
  5
DB
330
1F
100
AcDbEntity
  8
0
  6
Continuous
 62
     7
370
    15
100
AcDbLine
 10
56.4379468052
 20
68.6502137708
 30
0.0
 11
56.3326955135
 21
67.0820477572
 31
0.0
  0
LINE
  5
DC
330
1F
100
AcDbEntity
  8
0
  6
Continuous
 62
     7
370
    15
100
AcDbLine
 10
56.3326955135
 20
67.0820477572
 30
0.0
 11
55.5019154462
 21
64.0228715558
 31
0.0
  0
LINE
  5
DD
330
1F
100
AcDbEntity
  8
0
  6
Continuous
 62
     7
370
    15
100
AcDbLine
 10
55.5019154462
 20
64.0228715558
 30
0.0
 11
54.1596657334
 21
59.7915812883
 31
0.0
  0
ARC
  5
DE
330
1F
100
AcDbEntity
  8
0
  6
Continuous
 62
     7
370
    15
100
AcDbCircle
 10
51.841
 20
49.9
 30
0.0
 40
10.15970428537799
100
AcDbArc
 50
76.8075972868
 51
78.9169230959
  0
LINE
  5
DF
330
1F
100
AcDbEntity
  8
0
  6
Continuous
 62
     7
370
    15
100
AcDbLine
 10
53.7940214919
 20
59.8702205702
 30
0.0
 11
54.7401029429
 21
64.7423982723
 31
0.0
  0
LINE
  5
E0
330
1F
100
AcDbEntity
  8
0
  6
Continuous
 62
     7
370
    15
100
AcDbLine
 10
54.7401029429
 20
64.7423982723
 30
0.0
 11
53.3698278694
 21
64.8821980416
 31
0.0
  0
LINE
  5
E1
330
1F
100
AcDbEntity
  8
0
  6
Continuous
 62
     7
370
    15
100
AcDbLine
 10
53.3698278694
 20
64.8821980416
 30
0.0
 11
53.300329713
 21
64.1253426597
 31
0.0
  0
LINE
  5
E2
330
1F
100
AcDbEntity
  8
0
  6
Continuous
 62
     7
370
    15
100
AcDbLine
 10
53.300329713
 20
64.1253426597
 30
0.0
 11
53.8143956028
 21
64.0546005521
 31
0.0
  0
LINE
  5
E3
330
1F
100
AcDbEntity
  8
0
  6
Continuous
 62
     7
370
    15
100
AcDbLine
 10
53.8143956028
 20
64.0546005521
 30
0.0
 11
53.8143956028
 21
63.6980497574
 31
0.0
  0
LINE
  5
E4
330
1F
100
AcDbEntity
  8
0
  6
Continuous
 62
     7
370
    15
100
AcDbLine
 10
53.8143956028
 20
63.6980497574
 30
0.0
 11
53.2624104705
 21
63.7551839211
 31
0.0
  0
LINE
  5
E5
330
1F
100
AcDbEntity
  8
0
  6
Continuous
 62
     7
370
    15
100
AcDbLine
 10
53.2624104705
 20
63.7551839211
 30
0.0
 11
53.087715457
 21
61.700660527
 31
0.0
  0
LINE
  5
E6
330
1F
100
AcDbEntity
  8
0
  6
Continuous
 62
     7
370
    15
100
AcDbLine
 10
53.087715457
 20
61.700660527
 30
0.0
 11
52.7083508348
 21
61.754583122
 31
0.0
  0
LINE
  5
E7
330
1F
100
AcDbEntity
  8
0
  6
Continuous
 62
     7
370
    15
100
AcDbLine
 10
52.7083508348
 20
61.754583122
 30
0.0
 11
52.8960481226
 21
63.8142962739
 31
0.0
  0
LINE
  5
E8
330
1F
100
AcDbEntity
  8
0
  6
Continuous
 62
     7
370
    15
100
AcDbLine
 10
52.8960481226
 20
63.8142962739
 30
0.0
 11
52.3857710984
 21
63.8788883023
 31
0.0
  0
LINE
  5
E9
330
1F
100
AcDbEntity
  8
0
  6
Continuous
 62
     7
370
    15
100
AcDbLine
 10
52.3857710984
 20
63.8788883023
 30
0.0
 11
52.3857710984
 21
64.2430048199
 31
0.0
  0
LINE
  5
EA
330
1F
100
AcDbEntity
  8
0
  6
Continuous
 62
     7
370
    15
100
AcDbLine
 10
52.3857710984
 20
64.2430048199
 30
0.0
 11
52.9481171524
 21
64.1718217751
 31
0.0
  0
LINE
  5
EB
330
1F
100
AcDbEntity
  8
0
  6
Continuous
 62
     7
370
    15
100
AcDbLine
 10
52.9481171524
 20
64.1718217751
 30
0.0
 11
52.9995297792
 21
64.9199770165
 31
0.0
  0
LINE
  5
EC
330
1F
100
AcDbEntity
  8
0
  6
Continuous
 62
     7
370
    15
100
AcDbLine
 10
52.9995297792
 20
64.9199770165
 30
0.0
 11
51.5859878794
 21
65.0641910035
 31
0.0
  0
LINE
  5
ED
330
1F
100
AcDbEntity
  8
0
  6
Continuous
 62
     7
370
    15
100
AcDbLine
 10
51.5859878794
 20
65.0641910035
 30
0.0
 11
51.7649875256
 21
60.0594199278
 31
0.0
  0
ARC
  5
EE
330
1F
100
AcDbEntity
  8
0
  6
Continuous
 62
     7
370
    15
100
AcDbCircle
 10
51.841
 20
49.9
 30
0.0
 40
10.159704285378
100
AcDbArc
 50
90.4286773004
 51
92.6041674191
  0
LINE
  5
EF
330
1F
100
AcDbEntity
  8
0
  6
Continuous
 62
     7
370
    15
100
AcDbLine
 10
51.3793872491
 20
60.0492120302
 30
0.0
 11
50.8374894347
 21
64.4550942776
 31
0.0
  0
LINE
  5
F0
330
1F
100
AcDbEntity
  8
0
  6
Continuous
 62
     7
370
    15
100
AcDbLine
 10
50.8374894347
 20
64.4550942776
 30
0.0
 11
50.5829771287
 21
67.6148376276
 31
0.0
  0
LINE
  5
F1
330
1F
100
AcDbEntity
  8
0
  6
Continuous
 62
     7
370
    15
100
AcDbLine
 10
50.5829771287
 20
67.6148376276
 30
0.0
 11
50.7676676892
 21
69.1756425089
 31
0.0
  0
LINE
  5
F2
330
1F
100
AcDbEntity
  8
0
  6
Continuous
 62
     7
370
    15
100
AcDbLine
 10
50.7676676892
 20
69.1756425089
 30
0.0
 11
50.3065071654
 21
71.3781095204
 31
0.0
  0
LINE
  5
F3
330
1F
100
AcDbEntity
  8
0
  6
Continuous
 62
     7
370
    15
100
AcDbLine
 10
50.3065071654
 20
71.3781095204
 30
0.0
 11
50.2116577731
 21
71.3693204299
 31
0.0
  0
LINE
  5
F4
330
1F
100
AcDbEntity
  8
0
  6
Continuous
 62
     7
370
    15
100
AcDbLine
 10
50.2116577731
 20
71.3693204299
 30
0.0
 11
50.1950077125
 21
71.0228506277
 31
0.0
  0
LINE
  5
F5
330
1F
100
AcDbEntity
  8
0
  6
Continuous
 62
     7
370
    15
100
AcDbLine
 10
50.1950077125
 20
71.0228506277
 30
0.0
 11
50.3409916338
 21
69.4474332205
 31
0.0
  0
LINE
  5
F6
330
1F
100
AcDbEntity
  8
0
  6
Continuous
 62
     7
370
    15
100
AcDbLine
 10
50.3409916338
 20
69.4474332205
 30
0.0
 11
50.2523961535
 21
69.0610528541
 31
0.0
  0
LINE
  5
F7
330
1F
100
AcDbEntity
  8
0
  6
Continuous
 62
     7
370
    15
100
AcDbLine
 10
50.2523961535
 20
69.0610528541
 30
0.0
 11
49.8817206243
 21
69.026704708
 31
0.0
  0
LINE
  5
F8
330
1F
100
AcDbEntity
  8
0
  6
Continuous
 62
     7
370
    15
100
AcDbLine
 10
49.8817206243
 20
69.026704708
 30
0.0
 11
49.7236364445
 21
69.3902268377
 31
0.0
  0
LINE
  5
F9
330
1F
100
AcDbEntity
  8
0
  6
Continuous
 62
     7
370
    15
100
AcDbLine
 10
49.7236364445
 20
69.3902268377
 30
0.0
 11
49.5776525232
 21
70.9656442448
 31
0.0
  0
LINE
  5
FA
330
1F
100
AcDbEntity
  8
0
  6
Continuous
 62
     7
370
    15
100
AcDbLine
 10
49.5776525232
 20
70.9656442448
 30
0.0
 11
49.4976223024
 21
71.3031552996
 31
0.0
  0
LINE
  5
FB
330
1F
100
AcDbEntity
  8
0
  6
Continuous
 62
     7
370
    15
100
AcDbLine
 10
49.4976223024
 20
71.3031552996
 30
0.0
 11
49.4027729101
 21
71.2943662091
 31
0.0
  0
LINE
  5
FC
330
1F
100
AcDbEntity
  8
0
  6
Continuous
 62
     7
370
    15
100
AcDbLine
 10
49.4027729101
 20
71.2943662091
 30
0.0
 11
49.354166772
 21
69.04466236
 31
0.0
  0
LINE
  5
FD
330
1F
100
AcDbEntity
  8
0
  6
Continuous
 62
     7
370
    15
100
AcDbLine
 10
49.354166772
 20
69.04466236
 30
0.0
 11
49.822509769
 21
67.5443699492
 31
0.0
  0
LINE
  5
FE
330
1F
100
AcDbEntity
  8
0
  6
Continuous
 62
     7
370
    15
100
AcDbLine
 10
49.822509769
 20
67.5443699492
 30
0.0
 11
50.1529323357
 21
64.3916607208
 31
0.0
  0
LINE
  5
FF
330
1F
100
AcDbEntity
  8
0
  6
Continuous
 62
     7
370
    15
100
AcDbLine
 10
50.1529323357
 20
64.3916607208
 30
0.0
 11
50.4298400999
 21
59.9612235291
 31
0.0
  0
ARC
  5
100
330
1F
100
AcDbEntity
  8
0
  6
Continuous
 62
     7
370
    15
100
AcDbCircle
 10
51.841
 20
49.9
 30
0.0
 40
10.159704285378
100
AcDbArc
 50
97.984067875
 51
103.1924027132
  0
LINE
  5
101
330
1F
100
AcDbEntity
  8
0
  6
Continuous
 62
     7
370
    15
100
AcDbLine
 10
49.5223342666
 20
59.7915812883
 30
0.0
 11
48.1800845538
 21
64.0228715558
 31
0.0
  0
LINE
  5
102
330
1F
100
AcDbEntity
  8
0
  6
Continuous
 62
     7
370
    15
100
AcDbLine
 10
48.1800845538
 20
64.0228715558
 30
0.0
 11
47.3493044865
 21
67.0820477572
 31
0.0
  0
LINE
  5
103
330
1F
100
AcDbEntity
  8
0
  6
Continuous
 62
     7
370
    15
100
AcDbLine
 10
47.3493044865
 20
67.0820477572
 30
0.0
 11
47.2440531948
 21
68.6502137708
 31
0.0
  0
LINE
  5
104
330
1F
100
AcDbEntity
  8
0
  6
Continuous
 62
     7
370
    15
100
AcDbLine
 10
47.2440531948
 20
68.6502137708
 30
0.0
 11
46.386042554
 21
70.7304415722
 31
0.0
  0
LINE
  5
105
330
1F
100
AcDbEntity
  8
0
  6
Continuous
 62
     7
370
    15
100
AcDbLine
 10
46.386042554
 20
70.7304415722
 30
0.0
 11
46.2944231439
 21
70.7043736025
 31
0.0
  0
LINE
  5
106
330
1F
100
AcDbEntity
  8
0
  6
Continuous
 62
     7
370
    15
100
AcDbLine
 10
46.2944231439
 20
70.7043736025
 30
0.0
 11
46.3417202413
 21
70.3607436665
 31
0.0
  0
LINE
  5
107
330
1F
100
AcDbEntity
  8
0
  6
Continuous
 62
     7
370
    15
100
AcDbLine
 10
46.3417202413
 20
70.3607436665
 30
0.0
 11
46.7747006979
 21
68.8389752096
 31
0.0
  0
LINE
  5
108
330
1F
100
AcDbEntity
  8
0
  6
Continuous
 62
     7
370
    15
100
AcDbLine
 10
46.7747006979
 20
68.8389752096
 30
0.0
 11
46.7586109301
 21
68.4428943264
 31
0.0
  0
LINE
  5
109
330
1F
100
AcDbEntity
  8
0
  6
Continuous
 62
     7
370
    15
100
AcDbLine
 10
46.7586109301
 20
68.4428943264
 30
0.0
 11
46.4005583115
 21
68.341019573
 31
0.0
  0
LINE
  5
10A
330
1F
100
AcDbEntity
  8
0
  6
Continuous
 62
     7
370
    15
100
AcDbLine
 10
46.4005583115
 20
68.341019573
 30
0.0
 11
46.1783687991
 21
68.6693041558
 31
0.0
  0
LINE
  5
10B
330
1F
100
AcDbEntity
  8
0
  6
Continuous
 62
     7
370
    15
100
AcDbLine
 10
46.1783687991
 20
68.6693041558
 30
0.0
 11
45.7453883426
 21
70.1910726126
 31
0.0
  0
LINE
  5
10C
330
1F
100
AcDbEntity
  8
0
  6
Continuous
 62
     7
370
    15
100
AcDbLine
 10
45.7453883426
 20
70.1910726126
 30
0.0
 11
45.6047032948
 21
70.5081313859
 31
0.0
  0
LINE
  5
10D
330
1F
100
AcDbEntity
  8
0
  6
Continuous
 62
     7
370
    15
100
AcDbLine
 10
45.6047032948
 20
70.5081313859
 30
0.0
 11
45.5130838848
 21
70.4820634162
 31
0.0
  0
LINE
  5
10E
330
1F
100
AcDbEntity
  8
0
  6
Continuous
 62
     7
370
    15
100
AcDbLine
 10
45.5130838848
 20
70.4820634162
 30
0.0
 11
45.878687356
 21
68.2617336958
 31
0.0
  0
LINE
  5
10F
330
1F
100
AcDbEntity
  8
0
  6
Continuous
 62
     7
370
    15
100
AcDbLine
 10
45.878687356
 20
68.2617336958
 30
0.0
 11
46.6147339306
 21
66.8730444142
 31
0.0
  0
LINE
  5
110
330
1F
100
AcDbEntity
  8
0
  6
Continuous
 62
     7
370
    15
100
AcDbLine
 10
46.6147339306
 20
66.8730444142
 30
0.0
 11
47.5188392257
 21
63.8347310389
 31
0.0
  0
LINE
  5
111
330
1F
100
AcDbEntity
  8
0
  6
Continuous
 62
     7
370
    15
100
AcDbLine
 10
47.5188392257
 20
63.8347310389
 30
0.0
 11
48.6051228067
 21
59.5306121278
 31
0.0
  0
ARC
  5
112
330
1F
100
AcDbEntity
  8
0
  6
Continuous
 62
     7
370
    15
100
AcDbCircle
 10
51.841
 20
49.9
 30
0.0
 40
10.15970428537799
100
AcDbArc
 50
108.5723031691
 51
113.7806380073
  0
LINE
  5
113
330
1F
100
AcDbEntity
  8
0
  6
Continuous
 62
     7
370
    15
100
AcDbLine
 10
47.7442406647
 20
59.1971046092
 30
0.0
 11
45.6473477576
 21
63.1097113816
 31
0.0
  0
LINE
  5
114
330
1F
100
AcDbEntity
  8
0
  6
Continuous
 62
     7
370
    15
100
AcDbLine
 10
45.6473477576
 20
63.1097113816
 30
0.0
 11
44.2685911478
 21
65.964143858
 31
0.0
  0
LINE
  5
115
330
1F
100
AcDbEntity
  8
0
  6
Continuous
 62
     7
370
    15
100
AcDbLine
 10
44.2685911478
 20
65.964143858
 30
0.0
 11
43.8769822105
 21
67.4862689912
 31
0.0
  0
LINE
  5
116
330
1F
100
AcDbEntity
  8
0
  6
Continuous
 62
     7
370
    15
100
AcDbLine
 10
43.8769822105
 20
67.4862689912
 30
0.0
 11
42.6513399758
 21
69.3734179196
 31
0.0
  0
LINE
  5
117
330
1F
100
AcDbEntity
  8
0
  6
Continuous
 62
     7
370
    15
100
AcDbLine
 10
42.6513399758
 20
69.3734179196
 30
0.0
 11
42.5660705372
 21
69.3309587842
 31
0.0
  0
LINE
  5
118
330
1F
100
AcDbEntity
  8
0
  6
Continuous
 62
     7
370
    15
100
AcDbLine
 10
42.5660705372
 20
69.3309587842
 30
0.0
 11
42.6757041467
 21
69.0018706197
 31
0.0
  0
LINE
  5
119
330
1F
100
AcDbEntity
  8
0
  6
Continuous
 62
     7
370
    15
100
AcDbLine
 10
42.6757041467
 20
69.0018706197
 30
0.0
 11
43.3809365084
 21
67.5855731128
 31
0.0
  0
LINE
  5
11A
330
1F
100
AcDbEntity
  8
0
  6
Continuous
 62
     7
370
    15
100
AcDbLine
 10
43.3809365084
 20
67.5855731128
 30
0.0
 11
43.4379003707
 21
67.1932797722
 31
0.0
  0
LINE
  5
11B
330
1F
100
AcDbEntity
  8
0
  6
Continuous
 62
     7
370
    15
100
AcDbLine
 10
43.4379003707
 20
67.1932797722
 30
0.0
 11
43.1046637152
 21
67.027347634
 31
0.0
  0
LINE
  5
11C
330
1F
100
AcDbEntity
  8
0
  6
Continuous
 62
     7
370
    15
100
AcDbLine
 10
43.1046637152
 20
67.027347634
 30
0.0
 11
42.8259352677
 21
67.3092153322
 31
0.0
  0
LINE
  5
11D
330
1F
100
AcDbEntity
  8
0
  6
Continuous
 62
     7
370
    15
100
AcDbLine
 10
42.8259352677
 20
67.3092153322
 30
0.0
 11
42.1207029061
 21
68.7255128391
 31
0.0
  0
LINE
  5
11E
330
1F
100
AcDbEntity
  8
0
  6
Continuous
 62
     7
370
    15
100
AcDbLine
 10
42.1207029061
 20
68.7255128391
 30
0.0
 11
41.9241538919
 21
69.0113222745
 31
0.0
  0
LINE
  5
11F
330
1F
100
AcDbEntity
  8
0
  6
Continuous
 62
     7
370
    15
100
AcDbLine
 10
41.9241538919
 20
69.0113222745
 30
0.0
 11
41.8388844533
 21
68.9688631391
 31
0.0
  0
LINE
  5
120
330
1F
100
AcDbEntity
  8
0
  6
Continuous
 62
     7
370
    15
100
AcDbLine
 10
41.8388844533
 20
68.9688631391
 30
0.0
 11
42.6062473462
 21
66.8535182132
 31
0.0
  0
LINE
  5
121
330
1F
100
AcDbEntity
  8
0
  6
Continuous
 62
     7
370
    15
100
AcDbLine
 10
42.6062473462
 20
66.8535182132
 30
0.0
 11
43.584932315
 21
65.6237222087
 31
0.0
  0
LINE
  5
122
330
1F
100
AcDbEntity
  8
0
  6
Continuous
 62
     7
370
    15
100
AcDbLine
 10
43.584932315
 20
65.6237222087
 30
0.0
 11
45.031932117
 21
62.8032708044
 31
0.0
  0
LINE
  5
123
330
1F
100
AcDbEntity
  8
0
  6
Continuous
 62
     7
370
    15
100
AcDbLine
 10
45.031932117
 20
62.8032708044
 30
0.0
 11
46.8905994303
 21
58.7720417811
 31
0.0
  0
ARC
  5
124
330
1F
100
AcDbEntity
  8
0
  6
Continuous
 62
     7
370
    15
100
AcDbCircle
 10
51.841
 20
49.9
 30
0.0
 40
10.159704285378
100
AcDbArc
 50
119.1605384633
 51
124.3688733014
  0
LINE
  5
125
330
1F
100
AcDbEntity
  8
0
  6
Continuous
 62
     7
370
    15
100
AcDbLine
 10
46.1056572885
 20
58.2860261834
 30
0.0
 11
43.32552836
 21
61.7467103296
 31
0.0
  0
LINE
  5
126
330
1F
100
AcDbEntity
  8
0
  6
Continuous
 62
     7
370
    15
100
AcDbLine
 10
43.32552836
 20
61.7467103296
 30
0.0
 11
41.4457471104
 21
64.2991948065
 31
0.0
  0
LINE
  5
127
330
1F
100
AcDbEntity
  8
0
  6
Continuous
 62
     7
370
    15
100
AcDbLine
 10
41.4457471104
 20
64.2991948065
 30
0.0
 11
40.7811163002
 21
65.7234449134
 31
0.0
  0
LINE
  5
128
330
1F
100
AcDbEntity
  8
0
  6
Continuous
 62
     7
370
    15
100
AcDbLine
 10
40.7811163002
 20
65.7234449134
 30
0.0
 11
39.229580248
 21
67.3532503755
 31
0.0
  0
LINE
  5
129
330
1F
100
AcDbEntity
  8
0
  6
Continuous
 62
     7
370
    15
100
AcDbLine
 10
39.229580248
 20
67.3532503755
 30
0.0
 11
39.1535645293
 21
67.2958459694
 31
0.0
  0
LINE
  5
12A
330
1F
100
AcDbEntity
  8
0
  6
Continuous
 62
     7
370
    15
100
AcDbLine
 10
39.1535645293
 20
67.2958459694
 30
0.0
 11
39.3218012098
 21
66.9925062791
 31
0.0
  0
LINE
  5
12B
330
1F
100
AcDbEntity
  8
0
  6
Continuous
 62
     7
370
    15
100
AcDbLine
 10
39.3218012098
 20
66.9925062791
 30
0.0
 11
40.2752696343
 21
65.7299100351
 31
0.0
  0
LINE
  5
12C
330
1F
100
AcDbEntity
  8
0
  6
Continuous
 62
     7
370
    15
100
AcDbLine
 10
40.2752696343
 20
65.7299100351
 30
0.0
 11
40.4033472909
 21
65.3547633163
 31
0.0
  0
LINE
  5
12D
330
1F
100
AcDbEntity
  8
0
  6
Continuous
 62
     7
370
    15
100
AcDbLine
 10
40.4033472909
 20
65.3547633163
 30
0.0
 11
40.106274573
 21
65.1304244134
 31
0.0
  0
LINE
  5
12E
330
1F
100
AcDbEntity
  8
0
  6
Continuous
 62
     7
370
    15
100
AcDbLine
 10
40.106274573
 20
65.1304244134
 30
0.0
 11
39.7804989534
 21
65.3562765605
 31
0.0
  0
LINE
  5
12F
330
1F
100
AcDbEntity
  8
0
  6
Continuous
 62
     7
370
    15
100
AcDbLine
 10
39.7804989534
 20
65.3562765605
 30
0.0
 11
38.8270305289
 21
66.6188728045
 31
0.0
  0
LINE
  5
130
330
1F
100
AcDbEntity
  8
0
  6
Continuous
 62
     7
370
    15
100
AcDbLine
 10
38.8270305289
 20
66.6188728045
 30
0.0
 11
38.5813107892
 21
66.8637000046
 31
0.0
  0
LINE
  5
131
330
1F
100
AcDbEntity
  8
0
  6
Continuous
 62
     7
370
    15
100
AcDbLine
 10
38.5813107892
 20
66.8637000046
 30
0.0
 11
38.5052950705
 21
66.8062955985
 31
0.0
  0
LINE
  5
132
330
1F
100
AcDbEntity
  8
0
  6
Continuous
 62
     7
370
    15
100
AcDbLine
 10
38.5052950705
 20
66.8062955985
 30
0.0
 11
39.6482857621
 21
64.8679710012
 31
0.0
  0
LINE
  5
133
330
1F
100
AcDbEntity
  8
0
  6
Continuous
 62
     7
370
    15
100
AcDbLine
 10
39.6482857621
 20
64.8679710012
 30
0.0
 11
40.8362811824
 21
63.8389475019
 31
0.0
  0
LINE
  5
134
330
1F
100
AcDbEntity
  8
0
  6
Continuous
 62
     7
370
    15
100
AcDbLine
 10
40.8362811824
 20
63.8389475019
 30
0.0
 11
42.7768996486
 21
61.3324051584
 31
0.0
  0
LINE
  5
135
330
1F
100
AcDbEntity
  8
0
  6
Continuous
 62
     7
370
    15
100
AcDbLine
 10
42.7768996486
 20
61.3324051584
 30
0.0
 11
45.344656008
 21
57.7113446924
 31
0.0
  0
ARC
  5
136
330
1F
100
AcDbEntity
  8
0
  6
Continuous
 62
     7
370
    15
100
AcDbCircle
 10
51.841
 20
49.9
 30
0.0
 40
10.15970428537799
100
AcDbArc
 50
129.7487737574
 51
134.9571085956
  0
LINE
  5
137
330
1F
100
AcDbEntity
  8
0
  6
Continuous
 62
     7
370
    15
100
AcDbLine
 10
44.6623841296
 20
57.0893716938
 30
0.0
 11
41.293693136
 21
59.980283766
 31
0.0
  0
LINE
  5
138
330
1F
100
AcDbEntity
  8
0
  6
Continuous
 62
     7
370
    15
100
AcDbLine
 10
41.293693136
 20
59.980283766
 30
0.0
 11
38.9769009425
 21
62.1438984459
 31
0.0
  0
LINE
  5
139
330
1F
100
AcDbEntity
  8
0
  6
Continuous
 62
     7
370
    15
100
AcDbLine
 10
38.9769009425
 20
62.1438984459
 30
0.0
 11
38.0618814644
 21
63.4217723973
 31
0.0
  0
LINE
  5
13A
330
1F
100
AcDbEntity
  8
0
  6
Continuous
 62
     7
370
    15
100
AcDbLine
 10
38.0618814644
 20
63.4217723973
 30
0.0
 11
36.2372872942
 21
64.7387333228
 31
0.0
  0
LINE
  5
13B
330
1F
100
AcDbEntity
  8
0
  6
Continuous
 62
     7
370
    15
100
AcDbLine
 10
36.2372872942
 20
64.7387333228
 30
0.0
 11
36.1731139195
 21
64.6683384841
 31
0.0
  0
LINE
  5
13C
330
1F
100
AcDbEntity
  8
0
  6
Continuous
 62
     7
370
    15
100
AcDbLine
 10
36.1731139195
 20
64.6683384841
 30
0.0
 11
36.3942245726
 21
64.4010771374
 31
0.0
  0
LINE
  5
13D
330
1F
100
AcDbEntity
  8
0
  6
Continuous
 62
     7
370
    15
100
AcDbLine
 10
36.3942245726
 20
64.4010771374
 30
0.0
 11
37.5634598363
 21
63.335178357
 31
0.0
  0
LINE
  5
13E
330
1F
100
AcDbEntity
  8
0
  6
Continuous
 62
     7
370
    15
100
AcDbLine
 10
37.5634598363
 20
63.335178357
 30
0.0
 11
37.7582897561
 21
62.9899534317
 31
0.0
  0
LINE
  5
13F
330
1F
100
AcDbEntity
  8
0
  6
Continuous
 62
     7
370
    15
100
AcDbLine
 10
37.7582897561
 20
62.9899534317
 30
0.0
 11
37.507497431
 21
62.7148473562
 31
0.0
  0
LINE
  5
140
330
1F
100
AcDbEntity
  8
0
  6
Continuous
 62
     7
370
    15
100
AcDbLine
 10
37.507497431
 20
62.7148473562
 30
0.0
 11
37.1457685373
 21
62.8769928283
 31
0.0
  0
LINE
  5
141
330
1F
100
AcDbEntity
  8
0
  6
Continuous
 62
     7
370
    15
100
AcDbLine
 10
37.1457685373
 20
62.8769928283
 30
0.0
 11
35.9765332735
 21
63.9428916087
 31
0.0
  0
LINE
  5
142
330
1F
100
AcDbEntity
  8
0
  6
Continuous
 62
     7
370
    15
100
AcDbLine
 10
35.9765332735
 20
63.9428916087
 30
0.0
 11
35.6900104994
 21
64.1383992768
 31
0.0
  0
LINE
  5
143
330
1F
100
AcDbEntity
  8
0
  6
Continuous
 62
     7
370
    15
100
AcDbLine
 10
35.6900104994
 20
64.1383992768
 30
0.0
 11
35.6258371247
 21
64.0680044381
 31
0.0
  0
LINE
  5
144
330
1F
100
AcDbEntity
  8
0
  6
Continuous
 62
     7
370
    15
100
AcDbLine
 10
35.6258371247
 20
64.0680044381
 30
0.0
 11
37.1055324378
 21
62.372707489
 31
0.0
  0
LINE
  5
145
330
1F
100
AcDbEntity
  8
0
  6
Continuous
 62
     7
370
    15
100
AcDbLine
 10
37.1055324378
 20
62.372707489
 30
0.0
 11
38.4623825503
 21
61.5794986558
 31
0.0
  0
LINE
  5
146
330
1F
100
AcDbEntity
  8
0
  6
Continuous
 62
     7
370
    15
100
AcDbLine
 10
38.4623825503
 20
61.5794986558
 30
0.0
 11
40.8305342464
 21
59.4722226663
 31
0.0
  0
LINE
  5
147
330
1F
100
AcDbEntity
  8
0
  6
Continuous
 62
     7
370
    15
100
AcDbLine
 10
40.8305342464
 20
59.4722226663
 30
0.0
 11
44.0199377889
 21
56.3846416289
 31
0.0
  0
ARC
  5
148
330
1F
100
AcDbEntity
  8
0
  6
Continuous
 62
     7
370
    15
100
AcDbCircle
 10
51.841
 20
49.9
 30
0.0
 40
10.159704285378
100
AcDbArc
 50
140.3370090515
 51
145.5453438897
  0
LINE
  5
149
330
1F
100
AcDbEntity
  8
0
  6
Continuous
 62
     7
370
    15
100
AcDbLine
 10
43.4635701243
 20
55.6478917738
 30
0.0
 11
39.6210337971
 21
57.8705852286
 31
0.0
  0
LINE
  5
14A
330
1F
100
AcDbEntity
  8
0
  6
Continuous
 62
     7
370
    15
100
AcDbLine
 10
39.6210337971
 20
57.8705852286
 30
0.0
 11
36.9461262392
 21
59.5716508086
 31
0.0
  0
LINE
  5
14B
330
1F
100
AcDbEntity
  8
0
  6
Continuous
 62
     7
370
    15
100
AcDbLine
 10
36.9461262392
 20
59.5716508086
 30
0.0
 11
35.8118779841
 21
60.6596321397
 31
0.0
  0
LINE
  5
14C
330
1F
100
AcDbEntity
  8
0
  6
Continuous
 62
     7
370
    15
100
AcDbLine
 10
35.8118779841
 20
60.6596321397
 30
0.0
 11
33.7763600619
 21
61.6189010038
 31
0.0
  0
LINE
  5
14D
330
1F
100
AcDbEntity
  8
0
  6
Continuous
 62
     7
370
    15
100
AcDbLine
 10
33.7763600619
 20
61.6189010038
 30
0.0
 11
33.7262143785
 21
61.5379129444
 31
0.0
  0
LINE
  5
14E
330
1F
100
AcDbEntity
  8
0
  6
Continuous
 62
     7
370
    15
100
AcDbLine
 10
33.7262143785
 20
61.5379129444
 30
0.0
 11
33.9926693462
 21
61.3158312059
 31
0.0
  0
LINE
  5
14F
330
1F
100
AcDbEntity
  8
0
  6
Continuous
 62
     7
370
    15
100
AcDbLine
 10
33.9926693462
 20
61.3158312059
 30
0.0
 11
35.3378545446
 21
60.4829277937
 31
0.0
  0
LINE
  5
150
330
1F
100
AcDbEntity
  8
0
  6
Continuous
 62
     7
370
    15
100
AcDbLine
 10
35.3378545446
 20
60.4829277937
 30
0.0
 11
35.5928020282
 21
60.1793808826
 31
0.0
  0
LINE
  5
151
330
1F
100
AcDbEntity
  8
0
  6
Continuous
 62
     7
370
    15
100
AcDbLine
 10
35.5928020282
 20
60.1793808826
 30
0.0
 11
35.3968305278
 21
59.862876042
 31
0.0
  0
LINE
  5
152
330
1F
100
AcDbEntity
  8
0
  6
Continuous
 62
     7
370
    15
100
AcDbLine
 10
35.3968305278
 20
59.862876042
 30
0.0
 11
35.0114666036
 21
59.9557931695
 31
0.0
  0
LINE
  5
153
330
1F
100
AcDbEntity
  8
0
  6
Continuous
 62
     7
370
    15
100
AcDbLine
 10
35.0114666036
 20
59.9557931695
 30
0.0
 11
33.6662814052
 21
60.7886965817
 31
0.0
  0
LINE
  5
154
330
1F
100
AcDbEntity
  8
0
  6
Continuous
 62
     7
370
    15
100
AcDbLine
 10
33.6662814052
 20
60.7886965817
 30
0.0
 11
33.3487127861
 21
60.9282269386
 31
0.0
  0
LINE
  5
155
330
1F
100
AcDbEntity
  8
0
  6
Continuous
 62
     7
370
    15
100
AcDbLine
 10
33.3487127861
 20
60.9282269386
 30
0.0
 11
33.2985671027
 21
60.8472388792
 31
0.0
  0
LINE
  5
156
330
1F
100
AcDbEntity
  8
0
  6
Continuous
 62
     7
370
    15
100
AcDbLine
 10
33.2985671027
 20
60.8472388792
 30
0.0
 11
35.0645777882
 21
59.4527008825
 31
0.0
  0
LINE
  5
157
330
1F
100
AcDbEntity
  8
0
  6
Continuous
 62
     7
370
    15
100
AcDbLine
 10
35.0645777882
 20
59.4527008825
 30
0.0
 11
36.5440766897
 21
58.922318491
 31
0.0
  0
LINE
  5
158
330
1F
100
AcDbEntity
  8
0
  6
Continuous
 62
     7
370
    15
100
AcDbLine
 10
36.5440766897
 20
58.922318491
 30
0.0
 11
39.2591170498
 21
57.286069612
 31
0.0
  0
LINE
  5
159
330
1F
100
AcDbEntity
  8
0
  6
Continuous
 62
     7
370
    15
100
AcDbLine
 10
39.2591170498
 20
57.286069612
 30
0.0
 11
42.961556463
 21
54.8371118722
 31
0.0
  0
ARC
  5
15A
330
1F
100
AcDbEntity
  8
0
  6
Continuous
 62
     7
370
    15
100
AcDbCircle
 10
51.841
 20
49.9
 30
0.0
 40
10.159704285378
100
AcDbArc
 50
150.9252443456
 51
156.1335791838
  0
LINE
  5
15B
330
1F
100
AcDbEntity
  8
0
  6
Continuous
 62
     7
370
    15
100
AcDbLine
 10
42.5500394458
 20
54.0106742933
 30
0.0
 11
38.3645107511
 21
55.4894579709
 31
0.0
  0
LINE
  5
15C
330
1F
100
AcDbEntity
  8
0
  6
Continuous
 62
     7
370
    15
100
AcDbLine
 10
38.3645107511
 20
55.4894579709
 30
0.0
 11
35.4225785973
 21
56.6700467029
 31
0.0
  0
LINE
  5
15D
330
1F
100
AcDbEntity
  8
0
  6
Continuous
 62
     7
370
    15
100
AcDbLine
 10
35.4225785973
 20
56.6700467029
 30
0.0
 11
34.1077270293
 21
57.5310855144
 31
0.0
  0
LINE
  5
15E
330
1F
100
AcDbEntity
  8
0
  6
Continuous
 62
     7
370
    15
100
AcDbLine
 10
34.1077270293
 20
57.5310855144
 30
0.0
 11
31.9306024766
 21
58.0999955665
 31
0.0
  0
LINE
  5
15F
330
1F
100
AcDbEntity
  8
0
  6
Continuous
 62
     7
370
    15
100
AcDbLine
 10
31.9306024766
 20
58.0999955665
 30
0.0
 11
31.8961921356
 21
58.0111722375
 31
0.0
  0
LINE
  5
160
330
1F
100
AcDbEntity
  8
0
  6
Continuous
 62
     7
370
    15
100
AcDbLine
 10
31.8961921356
 20
58.0111722375
 30
0.0
 11
32.1989176135
 21
57.8418328344
 31
0.0
  0
LINE
  5
161
330
1F
100
AcDbEntity
  8
0
  6
Continuous
 62
     7
370
    15
100
AcDbLine
 10
32.1989176135
 20
57.8418328344
 30
0.0
 11
33.674244078
 21
57.2702883172
 31
0.0
  0
LINE
  5
162
330
1F
100
AcDbEntity
  8
0
  6
Continuous
 62
     7
370
    15
100
AcDbLine
 10
33.674244078
 20
57.2702883172
 30
0.0
 11
33.9806271948
 21
57.0187563463
 31
0.0
  0
LINE
  5
163
330
1F
100
AcDbEntity
  8
0
  6
Continuous
 62
     7
370
    15
100
AcDbLine
 10
33.9806271948
 20
57.0187563463
 30
0.0
 11
33.8461500934
 21
56.6716309334
 31
0.0
  0
LINE
  5
164
330
1F
100
AcDbEntity
  8
0
  6
Continuous
 62
     7
370
    15
100
AcDbLine
 10
33.8461500934
 20
56.6716309334
 30
0.0
 11
33.4502742449
 21
56.692155535
 31
0.0
  0
LINE
  5
165
330
1F
100
AcDbEntity
  8
0
  6
Continuous
 62
     7
370
    15
100
AcDbLine
 10
33.4502742449
 20
56.692155535
 30
0.0
 11
31.9749477804
 21
57.2637000522
 31
0.0
  0
LINE
  5
166
330
1F
100
AcDbEntity
  8
0
  6
Continuous
 62
     7
370
    15
100
AcDbLine
 10
31.9749477804
 20
57.2637000522
 30
0.0
 11
31.6371477347
 21
57.342501559
 31
0.0
  0
LINE
  5
167
330
1F
100
AcDbEntity
  8
0
  6
Continuous
 62
     7
370
    15
100
AcDbLine
 10
31.6371477347
 20
57.342501559
 30
0.0
 11
31.6027373938
 21
57.25367823
 31
0.0
  0
LINE
  5
168
330
1F
100
AcDbEntity
  8
0
  6
Continuous
 62
     7
370
    15
100
AcDbLine
 10
31.6027373938
 20
57.25367823
 30
0.0
 11
33.5949240758
 21
56.2073885048
 31
0.0
  0
LINE
  5
169
330
1F
100
AcDbEntity
  8
0
  6
Continuous
 62
     7
370
    15
100
AcDbLine
 10
33.5949240758
 20
56.2073885048
 30
0.0
 11
35.1466892057
 21
55.9578940911
 31
0.0
  0
LINE
  5
16A
330
1F
100
AcDbEntity
  8
0
  6
Continuous
 62
     7
370
    15
100
AcDbLine
 10
35.1466892057
 20
55.9578940911
 30
0.0
 11
38.1161607868
 21
54.8483928157
 31
0.0
  0
LINE
  5
16B
330
1F
100
AcDbEntity
  8
0
  6
Continuous
 62
     7
370
    15
100
AcDbLine
 10
38.1161607868
 20
54.8483928157
 30
0.0
 11
42.205553937
 21
53.1214546921
 31
0.0
  0
ARC
  5
16C
330
1F
100
AcDbEntity
  8
0
  6
Continuous
 62
     7
370
    15
100
AcDbCircle
 10
51.841
 20
49.9
 30
0.0
 40
10.159704285378
100
AcDbArc
 50
161.5134796397
 51
166.7218144779
  0
LINE
  5
16D
330
1F
100
AcDbEntity
  8
0
  6
Continuous
 62
     7
370
    15
100
AcDbLine
 10
41.9529012857
 20
52.23347273
 30
0.0
 11
37.5669133831
 21
52.9179884259
 31
0.0
  0
LINE
  5
16E
330
1F
100
AcDbEntity
  8
0
  6
Continuous
 62
     7
370
    15
100
AcDbLine
 10
37.5669133831
 20
52.9179884259
 30
0.0
 11
34.4581406046
 21
53.5378967765
 31
0.0
  0
LINE
  5
16F
330
1F
100
AcDbEntity
  8
0
  6
Continuous
 62
     7
370
    15
100
AcDbLine
 10
34.4581406046
 20
53.5378967765
 30
0.0
 11
33.0074614168
 21
54.1426714243
 31
0.0
  0
LINE
  5
170
330
1F
100
AcDbEntity
  8
0
  6
Continuous
 62
     7
370
    15
100
AcDbLine
 10
33.0074614168
 20
54.1426714243
 30
0.0
 11
30.7628695991
 21
54.3018491149
 31
0.0
  0
LINE
  5
171
330
1F
100
AcDbEntity
  8
0
  6
Continuous
 62
     7
370
    15
100
AcDbLine
 10
30.7628695991
 20
54.3018491149
 30
0.0
 11
30.7453664034
 21
54.2082152883
 31
0.0
  0
LINE
  5
172
330
1F
100
AcDbEntity
  8
0
  6
Continuous
 62
     7
370
    15
100
AcDbLine
 10
30.7453664034
 20
54.2082152883
 30
0.0
 11
31.0740534384
 21
54.097384871
 31
0.0
  0
LINE
  5
173
330
1F
100
AcDbEntity
  8
0
  6
Continuous
 62
     7
370
    15
100
AcDbLine
 10
31.0740534384
 20
54.097384871
 30
0.0
 11
32.6292806957
 21
53.8066625118
 31
0.0
  0
LINE
  5
174
330
1F
100
AcDbEntity
  8
0
  6
Continuous
 62
     7
370
    15
100
AcDbLine
 10
32.6292806957
 20
53.8066625118
 30
0.0
 11
32.9766659361
 21
53.6157111006
 31
0.0
  0
LINE
  5
175
330
1F
100
AcDbEntity
  8
0
  6
Continuous
 62
     7
370
    15
100
AcDbLine
 10
32.9766659361
 20
53.6157111006
 30
0.0
 11
32.9082626901
 21
53.249786055
 31
0.0
  0
LINE
  5
176
330
1F
100
AcDbEntity
  8
0
  6
Continuous
 62
     7
370
    15
100
AcDbLine
 10
32.9082626901
 20
53.249786055
 30
0.0
 11
32.5153559946
 21
53.19721919
 31
0.0
  0
LINE
  5
177
330
1F
100
AcDbEntity
  8
0
  6
Continuous
 62
     7
370
    15
100
AcDbLine
 10
32.5153559946
 20
53.19721919
 30
0.0
 11
30.9601287373
 21
53.4879415492
 31
0.0
  0
LINE
  5
178
330
1F
100
AcDbEntity
  8
0
  6
Continuous
 62
     7
370
    15
100
AcDbLine
 10
30.9601287373
 20
53.4879415492
 30
0.0
 11
30.6136006404
 21
53.5033307151
 31
0.0
  0
LINE
  5
179
330
1F
100
AcDbEntity
  8
0
  6
Continuous
 62
     7
370
    15
100
AcDbLine
 10
30.6136006404
 20
53.5033307151
 30
0.0
 11
30.5960974448
 21
53.4096968885
 31
0.0
  0
LINE
  5
17A
330
1F
100
AcDbEntity
  8
0
  6
Continuous
 62
     7
370
    15
100
AcDbLine
 10
30.5960974448
 20
53.4096968885
 30
0.0
 11
32.7466185953
 21
52.7472855763
 31
0.0
  0
LINE
  5
17B
330
1F
100
AcDbEntity
  8
0
  6
Continuous
 62
     7
370
    15
100
AcDbLine
 10
32.7466185953
 20
52.7472855763
 30
0.0
 11
34.3178064532
 21
52.7871753735
 31
0.0
  0
LINE
  5
17C
330
1F
100
AcDbEntity
  8
0
  6
Continuous
 62
     7
370
    15
100
AcDbLine
 10
34.3178064532
 20
52.7871753735
 30
0.0
 11
37.4405874621
 21
52.242204437
 31
0.0
  0
LINE
  5
17D
330
1F
100
AcDbEntity
  8
0
  6
Continuous
 62
     7
370
    15
100
AcDbLine
 10
37.4405874621
 20
52.242204437
 30
0.0
 11
41.7776749703
 21
51.2960947362
 31
0.0
  0
ARC
  5
17E
330
1F
100
AcDbEntity
  8
0
  6
Continuous
 62
     7
370
    15
100
AcDbCircle
 10
51.841
 20
49.9
 30
0.0
 40
10.159704285378
100
AcDbArc
 50
172.1017149339
 51
174.0209439631
  0
LINE
  5
17F
330
1F
100
AcDbEntity
  8
0
  6
Continuous
 62
     7
370
    15
100
AcDbLine
 10
41.7365641161
 20
50.9582847602
 30
0.0
 11
40.4501292256
 21
51.093131108
 31
0.0
  0
LINE
  5
180
330
1F
100
AcDbEntity
  8
0
  6
Continuous
 62
     7
370
    15
100
AcDbLine
 10
40.4501292256
 20
51.093131108
 30
0.0
 11
40.4501292256
 21
49.9850696685
 31
0.0
  0
LINE
  5
181
330
1F
100
AcDbEntity
  8
0
  6
Continuous
 62
     7
370
    15
100
AcDbLine
 10
40.4501292256
 20
49.9850696685
 30
0.0
 11
38.3774378676
 21
49.8463805665
 31
0.0
  0
LINE
  5
182
330
1F
100
AcDbEntity
  8
0
  6
Continuous
 62
     7
370
    15
100
AcDbLine
 10
38.3774378676
 20
49.8463805665
 30
0.0
 11
38.3774378676
 21
51.3103942292
 31
0.0
  0
LINE
  5
183
330
1F
100
AcDbEntity
  8
0
  6
Continuous
 62
     7
370
    15
100
AcDbLine
 10
38.3774378676
 20
51.3103942292
 30
0.0
 11
36.5552464648
 21
51.5013995085
 31
0.0
  0
LINE
  5
184
330
1F
100
AcDbEntity
  8
0
  6
Continuous
 62
     7
370
    15
100
AcDbLine
 10
36.5552464648
 20
51.5013995085
 30
0.0
 11
36.5552464648
 21
49.9414220519
 31
0.0
  0
LINE
  5
185
330
1F
100
AcDbEntity
  8
0
  6
Continuous
 62
     7
370
    15
100
AcDbLine
 10
36.5552464648
 20
49.9414220519
 30
0.0
 11
37.3125101568
 21
49.9971938719
 31
0.0
  0
LINE
  5
186
330
1F
100
AcDbEntity
  8
0
  6
Continuous
 62
     7
370
    15
100
AcDbLine
 10
37.3125101568
 20
49.9971938719
 30
0.0
 11
37.2662980776
 21
50.6246564464
 31
0.0
  0
LINE
  5
187
330
1F
100
AcDbEntity
  8
0
  6
Continuous
 62
     7
370
    15
100
AcDbLine
 10
37.2662980776
 20
50.6246564464
 30
0.0
 11
37.7660870279
 21
50.6246564464
 31
0.0
  0
LINE
  5
188
330
1F
100
AcDbEntity
  8
0
  6
Continuous
 62
     7
370
    15
100
AcDbLine
 10
37.7660870279
 20
50.6246564464
 30
0.0
 11
37.7660870279
 21
49.051172586
 31
0.0
  0
LINE
  5
189
330
1F
100
AcDbEntity
  8
0
  6
Continuous
 62
     7
370
    15
100
AcDbLine
 10
37.7660870279
 20
49.051172586
 30
0.0
 11
37.3125101568
 21
49.051172586
 31
0.0
  0
LINE
  5
18A
330
1F
100
AcDbEntity
  8
0
  6
Continuous
 62
     7
370
    15
100
AcDbLine
 10
37.3125101568
 20
49.051172586
 30
0.0
 11
37.3125101568
 21
49.7157867981
 31
0.0
  0
LINE
  5
18B
330
1F
100
AcDbEntity
  8
0
  6
Continuous
 62
     7
370
    15
100
AcDbLine
 10
37.3125101568
 20
49.7157867981
 30
0.0
 11
36.5552464648
 21
49.7732839061
 31
0.0
  0
LINE
  5
18C
330
1F
100
AcDbEntity
  8
0
  6
Continuous
 62
     7
370
    15
100
AcDbLine
 10
36.5552464648
 20
49.7732839061
 30
0.0
 11
36.5552464648
 21
48.2868900746
 31
0.0
  0
LINE
  5
18D
330
1F
100
AcDbEntity
  8
0
  6
Continuous
 62
     7
370
    15
100
AcDbLine
 10
36.5552464648
 20
48.2868900746
 30
0.0
 11
45.6750754131
 21
49.2493082217
 31
0.0
  0
LINE
  5
18E
330
1F
100
AcDbEntity
  8
0
  6
Continuous
 62
     7
370
    15
100
AcDbLine
 10
41.7327224077
 20
48.8337225724
 30
0.0
 11
41.7327695708
 21
48.833275563
 31
0.0
  0
ARC
  5
18F
330
1F
100
AcDbEntity
  8
0
  6
Continuous
 62
     7
370
    15
100
AcDbCircle
 10
51.841
 20
49.9
 30
0.0
 40
6.200163368983487
100
AcDbArc
 50
180.5694222828
 51
186.024143057
  0
LINE
  5
190
330
1F
100
AcDbEntity
  8
0
  6
Continuous
 62
     7
370
    15
100
AcDbLine
 10
43.7477753672
 20
49.83838197
 30
0.0
 11
45.6411428226
 21
49.83838197
 31
0.0
  0
LINE
  5
191
330
1F
100
AcDbEntity
  8
0
  6
Continuous
 62
     7
370
    15
100
AcDbLine
 10
43.7477753672
 20
50.1244954655
 30
0.0
 11
43.7477753672
 21
49.83838197
 31
0.0
  0
LINE
  5
192
330
1F
100
AcDbEntity
  8
0
  6
Continuous
 62
     7
370
    15
100
AcDbLine
 10
45.644902229
 20
50.1244954655
 30
0.0
 11
43.7477753672
 21
50.1244954655
 31
0.0
  0
ARC
  5
193
330
1F
100
AcDbEntity
  8
0
  6
Continuous
 62
     7
370
    15
100
AcDbCircle
 10
51.841
 20
49.9
 30
0.0
 40
6.200163368983487
100
AcDbArc
 50
166.1689927643
 51
177.9249813085
  0
LINE
  5
194
330
1F
100
AcDbEntity
  8
0
  6
Continuous
 62
     7
370
    15
100
AcDbLine
 10
43.9868846149
 20
51.8530254005
 30
0.0
 11
45.8206100668
 21
51.3822047276
 31
0.0
  0
LINE
  5
195
330
1F
100
AcDbEntity
  8
0
  6
Continuous
 62
     7
370
    15
100
AcDbLine
 10
44.0580381478
 20
52.1301501145
 30
0.0
 11
43.9868846149
 21
51.8530254005
 31
0.0
  0
LINE
  5
196
330
1F
100
AcDbEntity
  8
0
  6
Continuous
 62
     7
370
    15
100
AcDbLine
 10
45.8954069759
 20
51.6583939815
 30
0.0
 11
44.0580381478
 21
52.1301501145
 31
0.0
  0
ARC
  5
197
330
1F
100
AcDbEntity
  8
0
  6
Continuous
 62
     7
370
    15
100
AcDbCircle
 10
51.841
 20
49.9
 30
0.0
 40
6.200163368983487
100
AcDbArc
 50
151.7682019888
 51
163.5245515293
  0
LINE
  5
198
330
1F
100
AcDbEntity
  8
0
  6
Continuous
 62
     7
370
    15
100
AcDbLine
 10
44.7195032532
 20
53.7449110512
 30
0.0
 11
46.3784014924
 21
52.8329240267
 31
0.0
  0
LINE
  5
199
330
1F
100
AcDbEntity
  8
0
  6
Continuous
 62
     7
370
    15
100
AcDbLine
 10
44.8573394809
 20
53.9956342186
 30
0.0
 11
44.7195032532
 21
53.7449110512
 31
0.0
  0
LINE
  5
19A
330
1F
100
AcDbEntity
  8
0
  6
Continuous
 62
     7
370
    15
100
AcDbLine
 10
46.5195374555
 20
53.0818331492
 30
0.0
 11
44.8573394809
 21
53.9956342186
 31
0.0
  0
ARC
  5
19B
330
1F
100
AcDbEntity
  8
0
  6
Continuous
 62
     7
370
    15
100
AcDbCircle
 10
51.841
 20
49.9
 30
0.0
 40
6.200163368983487
100
AcDbArc
 50
137.3670996438
 51
149.1237602735
  0
LINE
  5
19C
330
1F
100
AcDbEntity
  8
0
  6
Continuous
 62
     7
370
    15
100
AcDbLine
 10
45.8995981589
 20
55.3951647887
 30
0.0
 11
47.2794884078
 21
54.0993615938
 31
0.0
  0
LINE
  5
19D
330
1F
100
AcDbEntity
  8
0
  6
Continuous
 62
     7
370
    15
100
AcDbLine
 10
46.0954563242
 20
55.6037325508
 30
0.0
 11
45.8995981589
 21
55.3951647887
 31
0.0
  0
LINE
  5
19E
330
1F
100
AcDbEntity
  8
0
  6
Continuous
 62
     7
370
    15
100
AcDbLine
 10
47.4780955213
 20
54.3053479218
 30
0.0
 11
46.0954563242
 21
55.6037325508
 31
0.0
  0
ARC
  5
19F
330
1F
100
AcDbEntity
  8
0
  6
Continuous
 62
     7
370
    15
100
AcDbCircle
 10
51.841
 20
49.9
 30
0.0
 40
6.200163368983489
100
AcDbArc
 50
122.9657549937
 51
134.722657258
  0
LINE
  5
1A0
330
1F
100
AcDbEntity
  8
0
  6
Continuous
 62
     7
370
    15
100
AcDbLine
 10
47.4530196288
 20
56.7000951015
 30
0.0
 11
48.4672575239
 21
55.1019119088
 31
0.0
  0
LINE
  5
1A1
330
1F
100
AcDbEntity
  8
0
  6
Continuous
 62
     7
370
    15
100
AcDbLine
 10
47.6945932429
 20
56.8534023789
 30
0.0
 11
47.4530196288
 21
56.7000951015
 31
0.0
  0
LINE
  5
1A2
330
1F
100
AcDbEntity
  8
0
  6
Continuous
 62
     7
370
    15
100
AcDbLine
 10
48.710855346
 20
55.2520295447
 30
0.0
 11
47.6945932429
 21
56.8534023789
 31
0.0
  0
ARC
  5
1A3
330
1F
100
AcDbEntity
  8
0
  6
Continuous
 62
     7
370
    15
100
AcDbCircle
 10
51.841
 20
49.9
 30
0.0
 40
6.200163368983489
100
AcDbArc
 50
108.5642525282
 51
120.3213117889
  0
LINE
  5
1A4
330
1F
100
AcDbEntity
  8
0
  6
Continuous
 62
     7
370
    15
100
AcDbLine
 10
49.2821604789
 20
57.5777084189
 30
0.0
 11
49.8670668595
 21
55.7775516807
 31
0.0
  0
LINE
  5
1A5
330
1F
100
AcDbEntity
  8
0
  6
Continuous
 62
     7
370
    15
100
AcDbLine
 10
49.5542705833
 20
57.6661223514
 30
0.0
 11
49.2821604789
 21
57.5777084189
 31
0.0
  0
LINE
  5
1A6
330
1F
100
AcDbEntity
  8
0
  6
Continuous
 62
     7
370
    15
100
AcDbLine
 10
50.1403466656
 20
55.8623656411
 30
0.0
 11
49.5542705833
 21
57.6661223514
 31
0.0
  0
ARC
  5
1A7
330
1F
100
AcDbEntity
  8
0
  6
Continuous
 62
     7
370
    15
100
AcDbCircle
 10
51.841
 20
49.9
 30
0.0
 40
6.200163368983483
100
AcDbArc
 50
94.1626866527
 51
105.9198084064
  0
LINE
  5
1A8
330
1F
100
AcDbEntity
  8
0
  6
Continuous
 62
     7
370
    15
100
AcDbLine
 10
51.2720890626
 20
57.9728610685
 30
0.0
 11
51.3909382645
 21
56.0838070989
 31
0.0
  0
LINE
  5
1A9
330
1F
100
AcDbEntity
  8
0
  6
Continuous
 62
     7
370
    15
100
AcDbLine
 10
51.5576379785
 20
57.9908262835
 30
0.0
 11
51.2720890626
 21
57.9728610685
 31
0.0
  0
LINE
  5
1AA
330
1F
100
AcDbEntity
  8
0
  6
Continuous
 62
     7
370
    15
100
AcDbLine
 10
51.6767253485
 20
56.0979867409
 30
0.0
 11
51.5576379785
 21
57.9908262835
 31
0.0
  0
ARC
  5
1AB
330
1F
100
AcDbEntity
  8
0
  6
Continuous
 62
     7
370
    15
100
AcDbCircle
 10
51.841
 20
49.9
 30
0.0
 40
6.200163368983482
100
AcDbArc
 50
79.7611557569
 51
91.5182415733
  0
LINE
  5
1AC
330
1F
100
AcDbEntity
  8
0
  6
Continuous
 62
     7
370
    15
100
AcDbLine
 10
53.2977708484
 20
57.860724156
 30
0.0
 11
52.9430910967
 21
56.0014277851
 31
0.0
  0
LINE
  5
1AD
330
1F
100
AcDbEntity
  8
0
  6
Continuous
 62
     7
370
    15
100
AcDbLine
 10
53.5788164873
 20
57.8071118331
 30
0.0
 11
53.2977708484
 21
57.860724156
 31
0.0
  0
LINE
  5
1AE
330
1F
100
AcDbEntity
  8
0
  6
Continuous
 62
     7
370
    15
100
AcDbLine
 10
53.2234245543
 20
55.944082077
 30
0.0
 11
53.5788164873
 21
57.8071118331
 31
0.0
  0
ARC
  5
1AF
330
1F
100
AcDbEntity
  8
0
  6
Continuous
 62
     7
370
    15
100
AcDbCircle
 10
51.841
 20
49.9
 30
0.0
 40
6.200163368983481
100
AcDbArc
 50
65.3597560325
 51
77.1167097394
  0
LINE
  5
1B0
330
1F
100
AcDbEntity
  8
0
  6
Continuous
 62
     7
370
    15
100
AcDbLine
 10
55.2319247998
 20
57.2483436561
 30
0.0
 11
54.425967943
 21
55.5355981524
 31
0.0
  0
LINE
  5
1B1
330
1F
100
AcDbEntity
  8
0
  6
Continuous
 62
     7
370
    15
100
AcDbLine
 10
55.4908080307
 20
57.1265224546
 30
0.0
 11
55.2319247998
 21
57.2483436561
 31
0.0
  0
LINE
  5
1B2
330
1F
100
AcDbEntity
  8
0
  6
Continuous
 62
     7
370
    15
100
AcDbLine
 10
54.6832299344
 20
55.4103316418
 30
0.0
 11
55.4908080307
 21
57.1265224546
 31
0.0
  0
ARC
  5
1B3
330
1F
100
AcDbEntity
  8
0
  6
Continuous
 62
     7
370
    15
100
AcDbCircle
 10
51.841
 20
49.9
 30
0.0
 40
6.200163368983483
100
AcDbArc
 50
50.9585754293
 51
62.7153091556
  0
LINE
  5
1B4
330
1F
100
AcDbEntity
  8
0
  6
Continuous
 62
     7
370
    15
100
AcDbLine
 10
56.9530209108
 20
56.1741976877
 30
0.0
 11
55.7463719187
 21
54.7156096165
 31
0.0
  0
LINE
  5
1B5
330
1F
100
AcDbEntity
  8
0
  6
Continuous
 62
     7
370
    15
100
AcDbLine
 10
57.173475148
 20
55.9918220818
 30
0.0
 11
56.9530209108
 21
56.1741976877
 31
0.0
  0
LINE
  5
1B6
330
1F
100
AcDbEntity
  8
0
  6
Continuous
 62
     7
370
    15
100
AcDbLine
 10
55.9643952774
 20
54.5302955832
 30
0.0
 11
57.173475148
 21
55.9918220818
 31
0.0
  0
ARC
  5
1B7
330
1F
100
AcDbEntity
  8
0
  6
Continuous
 62
     7
370
    15
100
AcDbCircle
 10
51.841
 20
49.9
 30
0.0
 40
6.200163368983481
100
AcDbArc
 50
36.5576881288
 51
48.3141278264
  0
LINE
  5
1B8
330
1F
100
AcDbEntity
  8
0
  6
Continuous
 62
     7
370
    15
100
AcDbLine
 10
58.3529163829
 20
54.7057787925
 30
0.0
 11
56.8213280824
 21
53.5930147568
 31
0.0
  0
LINE
  5
1B9
330
1F
100
AcDbEntity
  8
0
  6
Continuous
 62
     7
370
    15
100
AcDbLine
 10
58.521089676
 20
54.4743081123
 30
0.0
 11
58.3529163829
 21
54.7057787925
 31
0.0
  0
LINE
  5
1BA
330
1F
100
AcDbEntity
  8
0
  6
Continuous
 62
     7
370
    15
100
AcDbLine
 10
56.986412524
 20
53.3592998945
 30
0.0
 11
58.521089676
 21
54.4743081123
 31
0.0
  0
ARC
  5
1BB
330
1F
100
AcDbEntity
  8
0
  6
Continuous
 62
     7
370
    15
100
AcDbCircle
 10
51.841
 20
49.9
 30
0.0
 40
6.200163368983478
100
AcDbArc
 50
22.1571498832
 51
33.9132399794
  0
LINE
  5
1BC
330
1F
100
AcDbEntity
  8
0
  6
Continuous
 62
     7
370
    15
100
AcDbLine
 10
59.3436506351
 20
52.9353531301
 30
0.0
 11
57.583299308
 21
52.2383807344
 31
0.0
  0
LINE
  5
1BD
330
1F
100
AcDbEntity
  8
0
  6
Continuous
 62
     7
370
    15
100
AcDbLine
 10
59.4489760377
 20
52.6693315297
 30
0.0
 11
59.3436506351
 21
52.9353531301
 31
0.0
  0
LINE
  5
1BE
330
1F
100
AcDbEntity
  8
0
  6
Continuous
 62
     7
370
    15
100
AcDbLine
 10
57.6850722953
 20
51.9709526333
 30
0.0
 11
59.4489760377
 21
52.6693315297
 31
0.0
  0
ARC
  5
1BF
330
1F
100
AcDbEntity
  8
0
  6
Continuous
 62
     7
370
    15
100
AcDbCircle
 10
51.841
 20
49.9
 30
0.0
 40
6.200163368983483
100
AcDbArc
 50
7.7569945123
 51
19.512701402
  0
LINE
  5
1C0
330
1F
100
AcDbEntity
  8
0
  6
Continuous
 62
     7
370
    15
100
AcDbLine
 10
59.8629721908
 20
50.9741630561
 30
0.0
 11
57.9844283262
 21
50.7368477773
 31
0.0
  0
LINE
  5
1C1
330
1F
100
AcDbEntity
  8
0
  6
Continuous
 62
     7
370
    15
100
AcDbLine
 10
59.8988317203
 20
50.690305651
 30
0.0
 11
59.8629721908
 21
50.9741630561
 31
0.0
  0
LINE
  5
1C2
330
1F
100
AcDbEntity
  8
0
  6
Continuous
 62
     7
370
    15
100
AcDbLine
 10
58.0164964936
 20
50.4525114117
 30
0.0
 11
59.8988317203
 21
50.690305651
 31
0.0
  0
ARC
  5
1C3
330
1F
100
AcDbEntity
  8
0
  6
Continuous
 62
     7
370
    15
100
AcDbCircle
 10
51.841
 20
49.9
 30
0.0
 40
6.200163368983483
100
AcDbArc
 50
353.3572317786
 51
5.1125459353
  0
LINE
  5
1C4
330
1F
100
AcDbEntity
  8
0
  6
Continuous
 62
     7
370
    15
100
AcDbLine
 10
59.8782501666
 20
48.9454373556
 30
0.0
 11
57.9995397779
 21
49.1827736713
 31
0.0
  0
ENDSEC
  0
SECTION
  2
OBJECTS
  0
DICTIONARY
  5
C
330
0
100
AcDbDictionary
281
     1
  3
ACAD_GROUP
350
D
  3
ACAD_LAYOUT
350
1A
  3
ACAD_MLINESTYLE
350
17
  3
ACAD_PLOTSETTINGS
350
19
  3
ACAD_PLOTSTYLENAME
350
E
  0
DICTIONARY
  5
D
102
{ACAD_REACTORS
330
C
102
}
330
C
100
AcDbDictionary
281
     1
  0
DICTIONARY
  5
1A
102
{ACAD_REACTORS
330
C
102
}
330
C
100
AcDbDictionary
281
     1
  3
Layout1
350
1E
  3
Layout2
350
26
  3
Model
350
22
  0
DICTIONARY
  5
17
102
{ACAD_REACTORS
330
C
102
}
330
C
100
AcDbDictionary
281
     1
  3
Standard
350
18
  0
DICTIONARY
  5
19
102
{ACAD_REACTORS
330
C
102
}
330
C
100
AcDbDictionary
281
     1
  0
ACDBDICTIONARYWDFLT
  5
E
102
{ACAD_REACTORS
330
C
102
}
330
C
100
AcDbDictionary
281
     1
  3
Normal
350
F
100
AcDbDictionaryWithDefault
340
F
  0
LAYOUT
  5
1E
102
{ACAD_REACTORS
330
1A
102
}
330
1A
100
AcDbPlotSettings
  1

  2
none_device
  4

  6

 40
0.0
 41
0.0
 42
0.0
 43
0.0
 44
0.0
 45
0.0
 46
0.0
 47
0.0
 48
0.0
 49
0.0
140
0.0
141
0.0
142
1.0
143
1.0
 70
   688
 72
     0
 73
     0
 74
     5
  7

 75
    16
147
1.0
148
0.0
149
0.0
100
AcDbLayout
  1
Layout1
 70
     1
 71
     1
 10
0.0
 20
0.0
 11
420.0
 21
297.0
 12
0.0
 22
0.0
 32
0.0
 14
1.0000000000E+20
 24
1.0000000000E+20
 34
1.0000000000E+20
 15
-1.0000000000E+20
 25
-1.0000000000E+20
 35
-1.0000000000E+20
146
0.0
 13
0.0
 23
0.0
 33
0.0
 16
1.0
 26
0.0
 36
0.0
 17
0.0
 27
1.0
 37
0.0
 76
     0
330
1B
  0
LAYOUT
  5
26
102
{ACAD_REACTORS
330
1A
102
}
330
1A
100
AcDbPlotSettings
  1

  2
none_device
  4

  6

 40
0.0
 41
0.0
 42
0.0
 43
0.0
 44
0.0
 45
0.0
 46
0.0
 47
0.0
 48
0.0
 49
0.0
140
0.0
141
0.0
142
1.0
143
1.0
 70
   688
 72
     0
 73
     0
 74
     5
  7

 75
    16
147
1.0
148
0.0
149
0.0
100
AcDbLayout
  1
Layout2
 70
     1
 71
     2
 10
0.0
 20
0.0
 11
0.0
 21
0.0
 12
0.0
 22
0.0
 32
0.0
 14
0.0
 24
0.0
 34
0.0
 15
0.0
 25
0.0
 35
0.0
146
0.0
 13
0.0
 23
0.0
 33
0.0
 16
1.0
 26
0.0
 36
0.0
 17
0.0
 27
1.0
 37
0.0
 76
     0
330
23
  0
LAYOUT
  5
22
102
{ACAD_REACTORS
330
1A
102
}
330
1A
100
AcDbPlotSettings
  1

  2
none_device
  4
ANSI_A_(11.00_x_8.50_Inches)
  6

 40
6.35
 41
19.05
 42
6.35000508
 43
19.05000254
 44
279.4
 45
215.9
 46
-202.813077832
 47
-290.8626468215
 48
0.0
 49
0.0
140
0.0
141
0.0
142
0.2546000109
143
1.0
 70
  1696
 72
     0
 73
     0
 74
     0
  7

 75
     0
147
0.0179189148
148
0.0
149
0.0
100
AcDbLayout
  1
Model
 70
     1
 71
     0
 10
0.0
 20
0.0
 11
420.0
 21
297.0
 12
0.0
 22
0.0
 32
0.0
 14
30.5960974448
 24
46.0711019189
 34
0.0
 15
73.3690728281
 25
71.3781095204
 35
0.0
146
0.0
 13
0.0
 23
0.0
 33
0.0
 16
1.0
 26
0.0
 36
0.0
 17
0.0
 27
1.0
 37
0.0
 76
     0
330
1F
331
29
  0
MLINESTYLE
  5
18
102
{ACAD_REACTORS
330
17
102
}
330
17
100
AcDbMlineStyle
  2
Standard
 70
     0
  3

 62
   256
 51
90.0
 52
90.0
 71
     2
 49
0.5
 62
   256
  6
BYLAYER
 49
-0.5
 62
   256
  6
BYLAYER
  0
ACDBPLACEHOLDER
  5
F
102
{ACAD_REACTORS
330
E
102
}
330
E
  0
ENDSEC
  0
EOF
