  0
SECTION
  2
HEADER
  9
$ACADVER
  1
AC1015
  9
$ACADMAINTVER
 70
     6
  9
$DWGCODEPAGE
  3
ANSI_1252
  9
$INSBASE
 10
0.0
 20
0.0
 30
0.0
  9
$EXTMIN
 10
0.0
 20
0.0
 30
0.0
  9
$EXTMAX
 10
8.5
 20
11.0
 30
0.0
  9
$LIMMIN
 10
0.0
 20
0.0
  9
$LIMMAX
 10
8.5
 20
11.0
  9
$ORTHOMODE
 70
     0
  9
$REGENMODE
 70
     1
  9
$FILLMODE
 70
     1
  9
$QTEXTMODE
 70
     0
  9
$MIRRTEXT
 70
     1
  9
$LTSCALE
 40
1.0
  9
$ATTMODE
 70
     1
  9
$TEXTSIZE
 40
0.125
  9
$TRACEWID
 40
0.05
  9
$TEXTSTYLE
  7
Standard
  9
$CLAYER
  8
0
  9
$CELTYPE
  6
ByLayer
  9
$CECOLOR
 62
   256
  9
$CELTSCALE
 40
1.0
  9
$DISPSILH
 70
     0
  9
$DIMSCALE
 40
1.0
  9
$DIMASZ
 40
0.13
  9
$DIMEXO
 40
0.05
  9
$DIMDLI
 40
0.38
  9
$DIMRND
 40
0.0
  9
$DIMDLE
 40
0.0
  9
$DIMEXE
 40
0.125
  9
$DIMTP
 40
0.0
  9
$DIMTM
 40
0.0
  9
$DIMTXT
 40
0.125
  9
$DIMCEN
 40
0.09
  9
$DIMTSZ
 40
0.0
  9
$DIMTOL
 70
     0
  9
$DIMLIM
 70
     0
  9
$DIMTIH
 70
     1
  9
$DIMTOH
 70
     1
  9
$DIMSE1
 70
     0
  9
$DIMSE2
 70
     0
  9
$DIMTAD
 70
     0
  9
$DIMZIN
 70
     0
  9
$DIMBLK
  1

  9
$DIMASO
 70
     1
  9
$DIMSHO
 70
     1
  9
$DIMPOST
  1

  9
$DIMAPOST
  1

  9
$DIMALT
 70
     0
  9
$DIMALTD
 70
     2
  9
$DIMALTF
 40
25.4
  9
$DIMLFAC
 40
1.0
  9
$DIMTOFL
 70
     0
  9
$DIMTVP
 40
0.0
  9
$DIMTIX
 70
     0
  9
$DIMSOXD
 70
     0
  9
$DIMSAH
 70
     0
  9
$DIMBLK1
  1

  9
$DIMBLK2
  1

  9
$DIMSTYLE
  2
Standard
  9
$DIMCLRD
 70
     0
  9
$DIMCLRE
 70
     0
  9
$DIMCLRT
 70
     0
  9
$DIMTFAC
 40
1.0
  9
$DIMGAP
 40
0.06
  9
$DIMJUST
 70
     0
  9
$DIMSD1
 70
     0
  9
$DIMSD2
 70
     0
  9
$DIMTOLJ
 70
     1
  9
$DIMTZIN
 70
     0
  9
$DIMALTZ
 70
     0
  9
$DIMALTTZ
 70
     0
  9
$DIMUPT
 70
     0
  9
$DIMDEC
 70
     2
  9
$DIMTDEC
 70
     2
  9
$DIMALTU
 70
     2
  9
$DIMALTTD
 70
     2
  9
$DIMTXSTY
  7
Standard
  9
$DIMAUNIT
 70
     0
  9
$DIMADEC
 70
     2
  9
$DIMALTRND
 40
0.0
  9
$DIMAZIN
 70
     0
  9
$DIMDSEP
 70
    46
  9
$DIMATFIT
 70
     3
  9
$DIMFRAC
 70
     0
  9
$DIMLDRBLK
  1

  9
$DIMLUNIT
 70
     2
  9
$DIMLWD
 70
    -2
  9
$DIMLWE
 70
    -2
  9
$DIMTMOVE
 70
     0
  9
$LUNITS
 70
     2
  9
$LUPREC
 70
     2
  9
$SKETCHINC
 40
0.1
  9
$FILLETRAD
 40
0.5
  9
$AUNITS
 70
     0
  9
$AUPREC
 70
     2
  9
$MENU
  1
.
  9
$ELEVATION
 40
0.0
  9
$PELEVATION
 40
0.0
  9
$THICKNESS
 40
0.0
  9
$LIMCHECK
 70
     0
  9
$CHAMFERA
 40
0.5
  9
$CHAMFERB
 40
0.5
  9
$CHAMFERC
 40
1.0
  9
$CHAMFERD
 40
0.0
  9
$SKPOLY
 70
     0
  9
$TDCREATE
 40
2456328.819177928
  9
$TDUCREATE
 40
2456329.027511261
  9
$TDUPDATE
 40
2456328.819181748
  9
$TDUUPDATE
 40
2456329.027515081
  9
$TDINDWG
 40
0.0000000116
  9
$TDUSRTIMER
 40
0.0000000116
  9
$USRTIMER
 70
     1
  9
$ANGBASE
 50
0.0
  9
$ANGDIR
 70
     0
  9
$PDMODE
 70
     0
  9
$PDSIZE
 40
-1.0
  9
$PLINEWID
 40
0.0
  9
$SPLFRAME
 70
     0
  9
$SPLINETYPE
 70
     6
  9
$SPLINESEGS
 70
     8
  9
$HANDSEED
  5
2C2
  9
$SURFTAB1
 70
     6
  9
$SURFTAB2
 70
     6
  9
$SURFTYPE
 70
     6
  9
$SURFU
 70
     6
  9
$SURFV
 70
     6
  9
$UCSBASE
  2

  9
$UCSNAME
  2

  9
$UCSORG
 10
0.0
 20
0.0
 30
0.0
  9
$UCSXDIR
 10
1.0
 20
0.0
 30
0.0
  9
$UCSYDIR
 10
0.0
 20
1.0
 30
0.0
  9
$UCSORTHOREF
  2

  9
$UCSORTHOVIEW
 70
     0
  9
$UCSORGTOP
 10
0.0
 20
0.0
 30
0.0
  9
$UCSORGBOTTOM
 10
0.0
 20
0.0
 30
0.0
  9
$UCSORGLEFT
 10
0.0
 20
0.0
 30
0.0
  9
$UCSORGRIGHT
 10
0.0
 20
0.0
 30
0.0
  9
$UCSORGFRONT
 10
0.0
 20
0.0
 30
0.0
  9
$UCSORGBACK
 10
0.0
 20
0.0
 30
0.0
  9
$PUCSBASE
  2

  9
$PUCSNAME
  2

  9
$PUCSORG
 10
0.0
 20
0.0
 30
0.0
  9
$PUCSXDIR
 10
1.0
 20
0.0
 30
0.0
  9
$PUCSYDIR
 10
0.0
 20
1.0
 30
0.0
  9
$PUCSORTHOREF
  2

  9
$PUCSORTHOVIEW
 70
     0
  9
$PUCSORGTOP
 10
0.0
 20
0.0
 30
0.0
  9
$PUCSORGBOTTOM
 10
0.0
 20
0.0
 30
0.0
  9
$PUCSORGLEFT
 10
0.0
 20
0.0
 30
0.0
  9
$PUCSORGRIGHT
 10
0.0
 20
0.0
 30
0.0
  9
$PUCSORGFRONT
 10
0.0
 20
0.0
 30
0.0
  9
$PUCSORGBACK
 10
0.0
 20
0.0
 30
0.0
  9
$USERI1
 70
     0
  9
$USERI2
 70
     0
  9
$USERI3
 70
     0
  9
$USERI4
 70
     0
  9
$USERI5
 70
     0
  9
$USERR1
 40
0.0
  9
$USERR2
 40
0.0
  9
$USERR3
 40
0.0
  9
$USERR4
 40
0.0
  9
$USERR5
 40
0.0
  9
$WORLDVIEW
 70
     1
  9
$SHADEDGE
 70
     3
  9
$SHADEDIF
 70
    70
  9
$TILEMODE
 70
     1
  9
$MAXACTVP
 70
    64
  9
$PINSBASE
 10
0.0
 20
0.0
 30
0.0
  9
$PLIMCHECK
 70
     0
  9
$PEXTMIN
 10
1.0000000000E+20
 20
1.0000000000E+20
 30
1.0000000000E+20
  9
$PEXTMAX
 10
-1.0000000000E+20
 20
-1.0000000000E+20
 30
-1.0000000000E+20
  9
$PLIMMIN
 10
0.0
 20
0.0
  9
$PLIMMAX
 10
12.0
 20
9.0
  9
$UNITMODE
 70
     0
  9
$VISRETAIN
 70
     1
  9
$PLINEGEN
 70
     0
  9
$PSLTSCALE
 70
     1
  9
$TREEDEPTH
 70
  3020
  9
$CMLSTYLE
  2
Standard
  9
$CMLJUST
 70
     0
  9
$CMLSCALE
 40
1.0
  9
$PROXYGRAPHICS
 70
     1
  9
$MEASUREMENT
 70
     0
  9
$CELWEIGHT
370
    -1
  9
$ENDCAPS
280
     0
  9
$JOINSTYLE
280
     0
  9
$LWDISPLAY
290
     1
  9
$INSUNITS
 70
     1
  9
$HYPERLINKBASE
  1

  9
$STYLESHEET
  1

  9
$XEDIT
290
     1
  9
$CEPSNTYPE
380
     0
  9
$PSTYLEMODE
290
     1
  9
$FINGERPRINTGUID
  2
{49B116C0-56FB-4B36-ABEB-181A66225086}
  9
$VERSIONGUID
  2
{FAEB1C32-E019-11D5-929B-00C0DF256EC4}
  9
$EXTNAMES
290
     1
  9
$PSVPSCALE
 40
0.0
  9
$OLESTARTUP
290
     0
  0
ENDSEC
  0
SECTION
  2
CLASSES
  0
CLASS
  1
ACDBDICTIONARYWDFLT
  2
AcDbDictionaryWithDefault
  3
ObjectDBX Classes
 90
        0
280
     0
281
     0
  0
CLASS
  1
VISUALSTYLE
  2
AcDbVisualStyle
  3
ObjectDBX Classes
 90
     4095
280
     0
281
     0
  0
CLASS
  1
MATERIAL
  2
AcDbMaterial
  3
ObjectDBX Classes
 90
     1153
280
     0
281
     0
  0
CLASS
  1
ACDBPLACEHOLDER
  2
AcDbPlaceHolder
  3
ObjectDBX Classes
 90
        0
280
     0
281
     0
  0
CLASS
  1
LAYOUT
  2
AcDbLayout
  3
ObjectDBX Classes
 90
        0
280
     0
281
     0
  0
ENDSEC
  0
SECTION
  2
TABLES
  0
TABLE
  2
VPORT
  5
8
330
0
100
AcDbSymbolTable
 70
     1
  0
VPORT
  5
29
330
8
100
AcDbSymbolTableRecord
100
AcDbViewportTableRecord
  2
*Active
 70
     0
 10
0.0
 20
0.0
 11
1.0
 21
1.0
 12
4.25
 22
5.5
 13
0.0
 23
0.0
 14
0.5
 24
0.5
 15
0.5
 25
0.5
 16
0.0
 26
0.0
 36
1.0
 17
0.0
 27
0.0
 37
0.0
 40
11.0
 41
0.7727272727
 42
50.0
 43
0.0
 44
0.0
 50
0.0
 51
0.0
 71
     0
 72
  2000
 73
     1
 74
     3
 75
     0
 76
     0
 77
     0
 78
     0
281
     0
 65
     1
110
0.0
120
0.0
130
0.0
111
1.0
121
0.0
131
0.0
112
0.0
122
1.0
132
0.0
 79
     0
146
0.0
  0
ENDTAB
  0
TABLE
  2
LTYPE
  5
5
330
0
100
AcDbSymbolTable
 70
     6
  0
LTYPE
  5
14
330
5
100
AcDbSymbolTableRecord
100
AcDbLinetypeTableRecord
  2
ByBlock
 70
     0
  3

 72
    65
 73
     0
 40
0.0
  0
LTYPE
  5
15
330
5
100
AcDbSymbolTableRecord
100
AcDbLinetypeTableRecord
  2
ByLayer
 70
     0
  3

 72
    65
 73
     0
 40
0.0
  0
LTYPE
  5
16
330
5
100
AcDbSymbolTableRecord
100
AcDbLinetypeTableRecord
  2
Continuous
 70
     0
  3
Solid line
 72
    65
 73
     0
 40
0.0
  0
LTYPE
  5
3F
330
5
100
AcDbSymbolTableRecord
100
AcDbLinetypeTableRecord
  2
HIDDEN
 70
     0
  3
Hidden __ __ __ __ __ __ __ __ __ __ __ __ __ __
 72
    65
 73
     2
 40
0.075
 49
0.05
 74
     0
 49
-0.025
 74
     0
  0
LTYPE
  5
40
330
5
100
AcDbSymbolTableRecord
100
AcDbLinetypeTableRecord
  2
PHANTOM
 70
     0
  3
Phantom ______  __  __  ______  __  __  ______
 72
    65
 73
     6
 40
0.5
 49
0.25
 74
     0
 49
-0.05
 74
     0
 49
0.05
 74
     0
 49
-0.05
 74
     0
 49
0.05
 74
     0
 49
-0.05
 74
     0
  0
LTYPE
  5
41
330
5
100
AcDbSymbolTableRecord
100
AcDbLinetypeTableRecord
  2
CENTER
 70
     0
  3
Center ____ _ ____ _ ____ _ ____ _ ____ _ ____
 72
    65
 73
     4
 40
0.4
 49
0.25
 74
     0
 49
-0.05
 74
     0
 49
0.05
 74
     0
 49
-0.05
 74
     0
  0
LTYPE
  5
42
330
5
100
AcDbSymbolTableRecord
100
AcDbLinetypeTableRecord
  2
CENTERX2
 70
     0
  3
Center (2x) ________  __  ________  __  _____
 72
    65
 73
     4
 40
0.8
 49
0.5
 74
     0
 49
-0.1
 74
     0
 49
0.1
 74
     0
 49
-0.1
 74
     0
  0
LTYPE
  5
43
330
5
100
AcDbSymbolTableRecord
100
AcDbLinetypeTableRecord
  2
DOT2
 70
     0
  3
Dot (.5x) ........................................
 72
    65
 73
     2
 40
0.025
 49
0.0
 74
     0
 49
-0.025
 74
     0
  0
ENDTAB
  0
TABLE
  2
LAYER
  5
2
330
0
100
AcDbSymbolTable
 70
     2
  0
LAYER
  5
10
330
2
100
AcDbSymbolTableRecord
100
AcDbLayerTableRecord
  2
0
 70
     0
 62
     7
  6
Continuous
370
    -3
390
F
  0
LAYER
  5
44
330
2
100
AcDbSymbolTableRecord
100
AcDbLayerTableRecord
  2
FORMAT
 70
     0
 62
     7
  6
Continuous
370
    -3
390
F
  0
ENDTAB
  0
TABLE
  2
STYLE
  5
3
330
0
100
AcDbSymbolTable
 70
     5
  0
STYLE
  5
11
330
3
100
AcDbSymbolTableRecord
100
AcDbTextStyleTableRecord
  2
Standard
 70
     0
 40
0.0
 41
1.0
 50
0.0
 71
     0
 42
0.125
  3
txt
  4

  0
STYLE
  5
6A
330
3
100
AcDbSymbolTableRecord
100
AcDbTextStyleTableRecord
  2
SLDTEXTSTYLE0
 70
     0
 40
0.0
 41
0.75
 50
0.0
 71
     0
 42
0.2
  3
TXT
  4

  0
STYLE
  5
7A
330
3
100
AcDbSymbolTableRecord
100
AcDbTextStyleTableRecord
  2
SLDTEXTSTYLE1
 70
     0
 40
0.0
 41
0.6875
 50
0.0
 71
     0
 42
0.2
  3
TXT
  4

  0
STYLE
  5
96
330
3
100
AcDbSymbolTableRecord
100
AcDbTextStyleTableRecord
  2
SLDTEXTSTYLE2
 70
     0
 40
0.0
 41
0.6847826087
 50
0.0
 71
     0
 42
0.2
  3
TXT
  4

  0
STYLE
  5
9C
330
3
100
AcDbSymbolTableRecord
100
AcDbTextStyleTableRecord
  2
SLDTEXTSTYLE3
 70
     0
 40
0.0
 41
0.6944444444
 50
0.0
 71
     0
 42
0.2
  3
TXT
  4

  0
ENDTAB
  0
TABLE
  2
VIEW
  5
6
330
0
100
AcDbSymbolTable
 70
     0
  0
ENDTAB
  0
TABLE
  2
UCS
  5
7
330
0
100
AcDbSymbolTable
 70
     0
  0
ENDTAB
  0
TABLE
  2
APPID
  5
9
330
0
100
AcDbSymbolTable
 70
     1
  0
APPID
  5
12
330
9
100
AcDbSymbolTableRecord
100
AcDbRegAppTableRecord
  2
ACAD
 70
     0
  0
ENDTAB
  0
TABLE
  2
DIMSTYLE
  5
A
330
0
100
AcDbSymbolTable
 70
     1
100
AcDbDimStyleTable
  0
DIMSTYLE
105
27
330
A
100
AcDbSymbolTableRecord
100
AcDbDimStyleTableRecord
  2
Standard
 70
     0
178
     0
340
11
  0
ENDTAB
  0
TABLE
  2
BLOCK_RECORD
  5
1
330
0
100
AcDbSymbolTable
 70
     3
  0
BLOCK_RECORD
  5
1F
330
1
100
AcDbSymbolTableRecord
100
AcDbBlockTableRecord
  2
*Model_Space
340
22
  0
BLOCK_RECORD
  5
1B
330
1
100
AcDbSymbolTableRecord
100
AcDbBlockTableRecord
  2
*Paper_Space
340
1E
  0
BLOCK_RECORD
  5
23
330
1
100
AcDbSymbolTableRecord
100
AcDbBlockTableRecord
  2
*Paper_Space0
340
26
  0
BLOCK_RECORD
  5
6E
330
1
100
AcDbSymbolTableRecord
100
AcDbBlockTableRecord
  2
SW_NOTE_0
340
0
102
{BLKREFS
331
78
102
}
  0
BLOCK_RECORD
  5
83
330
1
100
AcDbSymbolTableRecord
100
AcDbBlockTableRecord
  2
SW_NOTE_1
340
0
102
{BLKREFS
331
92
102
}
  0
ENDTAB
  0
ENDSEC
  0
SECTION
  2
BLOCKS
  0
BLOCK
  5
20
330
1F
100
AcDbEntity
  8
0
100
AcDbBlockBegin
  2
*Model_Space
 70
     0
 10
0.0
 20
0.0
 30
0.0
  3
*Model_Space
  1

  0
ENDBLK
  5
21
330
1F
100
AcDbEntity
  8
0
100
AcDbBlockEnd
  0
BLOCK
  5
1C
330
1B
100
AcDbEntity
 67
     1
  8
0
100
AcDbBlockBegin
  2
*Paper_Space
 70
     0
 10
0.0
 20
0.0
 30
0.0
  3
*Paper_Space
  1

  0
ENDBLK
  5
1D
330
1B
100
AcDbEntity
 67
     1
  8
0
100
AcDbBlockEnd
  0
BLOCK
  5
24
330
23
100
AcDbEntity
  8
0
100
AcDbBlockBegin
  2
*Paper_Space0
 70
     0
 10
0.0
 20
0.0
 30
0.0
  3
*Paper_Space0
  1

  0
ENDBLK
  5
25
330
23
100
AcDbEntity
  8
0
100
AcDbBlockEnd
  0
BLOCK
  5
6F
330
6E
100
AcDbEntity
  8
0
100
AcDbBlockBegin
  2
SW_NOTE_0
 70
     0
 10
0.0
 20
0.0
 30
0.0
  3
SW_NOTE_0
  1

  0
MTEXT
  5
71
330
6E
100
AcDbEntity
  8
0
  6
Continuous
 62
     0
370
     0
100
AcDbMText
 10
0.0
 20
0.0773440644
 30
0.0
 40
0.06
 41
0.0
 71
     1
 72
     1
  1
THE INFORMATION CONTAINED IN THIS
  7
SLDTEXTSTYLE0
 73
     1
 44
1.0
  0
MTEXT
  5
72
330
6E
100
AcDbEntity
  8
0
  6
Continuous
 62
     0
370
     0
100
AcDbMText
 10
0.0
 20
-0.0220260102
 30
0.0
 40
0.06
 41
0.0
 71
     1
 72
     1
  1
DRAWING IS THE SOLE PROPERTY OF
  7
SLDTEXTSTYLE0
 73
     1
 44
1.0
  0
MTEXT
  5
73
330
6E
100
AcDbEntity
  8
0
  6
Continuous
 62
     0
370
     0
100
AcDbMText
 10
0.0
 20
-0.1213960848
 30
0.0
 40
0.06
 41
0.0
 71
     1
 72
     1
  1
<INSERT COMPANY NAME HERE>.  ANY
  7
SLDTEXTSTYLE0
 73
     1
 44
1.0
  0
MTEXT
  5
74
330
6E
100
AcDbEntity
  8
0
  6
Continuous
 62
     0
370
     0
100
AcDbMText
 10
0.0
 20
-0.2207661593
 30
0.0
 40
0.06
 41
0.0
 71
     1
 72
     1
  1
REPRODUCTION IN PART OR AS A WHOLE
  7
SLDTEXTSTYLE0
 73
     1
 44
1.0
  0
MTEXT
  5
75
330
6E
100
AcDbEntity
  8
0
  6
Continuous
 62
     0
370
     0
100
AcDbMText
 10
0.0
 20
-0.3201362339
 30
0.0
 40
0.06
 41
0.0
 71
     1
 72
     1
  1
WITHOUT THE WRITTEN PERMISSION OF
  7
SLDTEXTSTYLE0
 73
     1
 44
1.0
  0
MTEXT
  5
76
330
6E
100
AcDbEntity
  8
0
  6
Continuous
 62
     0
370
     0
100
AcDbMText
 10
0.0
 20
-0.4195063085
 30
0.0
 40
0.06
 41
0.0
 71
     1
 72
     1
  1
<INSERT COMPANY NAME HERE> IS
  7
SLDTEXTSTYLE0
 73
     1
 44
1.0
  0
MTEXT
  5
77
330
6E
100
AcDbEntity
  8
0
  6
Continuous
 62
     0
370
     0
100
AcDbMText
 10
0.0
 20
-0.518876383
 30
0.0
 40
0.06
 41
0.0
 71
     1
 72
     1
  1
PROHIBITED.
  7
SLDTEXTSTYLE0
 73
     1
 44
1.0
  0
ENDBLK
  5
70
330
6E
100
AcDbEntity
  8
0
100
AcDbBlockEnd
  0
BLOCK
  5
84
330
83
100
AcDbEntity
  8
0
100
AcDbBlockBegin
  2
SW_NOTE_1
 70
     0
 10
0.0
 20
0.0
 30
0.0
  3
SW_NOTE_1
  1

  0
MTEXT
  5
86
330
83
100
AcDbEntity
  8
0
  6
Continuous
 62
     0
370
     0
100
AcDbMText
 10
0.0
 20
0.0805667337
 30
0.0
 40
0.0625
 41
0.0
 71
     1
 72
     1
  1
DIMENSIONS ARE IN INCHES
  7
SLDTEXTSTYLE0
 73
     1
 44
1.0
  0
MTEXT
  5
87
330
83
100
AcDbEntity
  8
0
  6
Continuous
 62
     0
370
     0
100
AcDbMText
 10
0.0
 20
-0.0213033461
 30
0.0
 40
0.0625
 41
0.0
 71
     1
 72
     1
  1
TOLERANCES:
  7
SLDTEXTSTYLE0
 73
     1
 44
1.0
  0
MTEXT
  5
88
330
83
100
AcDbEntity
  8
0
  6
Continuous
 62
     0
370
     0
100
AcDbMText
 10
0.0
 20
-0.123173426
 30
0.0
 40
0.0625
 41
0.0
 71
     1
 72
     1
  1
FRACTIONAL
  7
SLDTEXTSTYLE0
 73
     1
 44
1.0
  0
MTEXT
  5
89
330
83
100
AcDbEntity
  8
0
  6
Continuous
 62
     0
370
     0
100
AcDbMText
 10
0.4976779574
 20
-0.123173426
 30
0.0
 40
0.0625
 41
0.0
 71
     1
 72
     1
  1
%%p
  7
SLDTEXTSTYLE0
 73
     1
 44
1.0
  0
MTEXT
  5
8A
330
83
100
AcDbEntity
  8
0
  6
Continuous
 62
     0
370
     0
100
AcDbMText
 10
0.0
 20
-0.2250435058
 30
0.0
 40
0.0625
 41
0.0
 71
     1
 72
     1
  1
ANGULAR: MACH
  7
SLDTEXTSTYLE0
 73
     1
 44
1.0
  0
MTEXT
  5
8B
330
83
100
AcDbEntity
  8
0
  6
Continuous
 62
     0
370
     0
100
AcDbMText
 10
0.6955512249
 20
-0.2250435058
 30
0.0
 40
0.0625
 41
0.0
 71
     1
 72
     1
  1
%%p
  7
SLDTEXTSTYLE0
 73
     1
 44
1.0
  0
MTEXT
  5
8C
330
83
100
AcDbEntity
  8
0
  6
Continuous
 62
     0
370
     0
100
AcDbMText
 10
0.8722699639
 20
-0.2250435058
 30
0.0
 40
0.0625
 41
0.0
 71
     1
 72
     1
  1
BEND
  7
SLDTEXTSTYLE0
 73
     1
 44
1.0
  0
MTEXT
  5
8D
330
83
100
AcDbEntity
  8
0
  6
Continuous
 62
     0
370
     0
100
AcDbMText
 10
1.10369359
 20
-0.2250435058
 30
0.0
 40
0.0625
 41
0.0
 71
     1
 72
     1
  1
%%p
  7
SLDTEXTSTYLE0
 73
     1
 44
1.0
  0
MTEXT
  5
8E
330
83
100
AcDbEntity
  8
0
  6
Continuous
 62
     0
370
     0
100
AcDbMText
 10
0.0
 20
-0.3269135857
 30
0.0
 40
0.0625
 41
0.0
 71
     1
 72
     1
  1
TWO PLACE DECIMAL
  7
SLDTEXTSTYLE0
 73
     1
 44
1.0
  0
MTEXT
  5
8F
330
83
100
AcDbEntity
  8
0
  6
Continuous
 62
     0
370
     0
100
AcDbMText
 10
0.941764314
 20
-0.3269135857
 30
0.0
 40
0.0625
 41
0.0
 71
     1
 72
     1
  1
%%p
  7
SLDTEXTSTYLE0
 73
     1
 44
1.0
  0
MTEXT
  5
90
330
83
100
AcDbEntity
  8
0
  6
Continuous
 62
     0
370
     0
100
AcDbMText
 10
0.0
 20
-0.4287836655
 30
0.0
 40
0.0625
 41
0.0
 71
     1
 72
     1
  1
THREE PLACE DECIMAL
  7
SLDTEXTSTYLE0
 73
     1
 44
1.0
  0
MTEXT
  5
91
330
83
100
AcDbEntity
  8
0
  6
Continuous
 62
     0
370
     0
100
AcDbMText
 10
0.9363498099
 20
-0.4287836655
 30
0.0
 40
0.0625
 41
0.0
 71
     1
 72
     1
  1
%%p
  7
SLDTEXTSTYLE0
 73
     1
 44
1.0
  0
ENDBLK
  5
85
330
83
100
AcDbEntity
  8
0
100
AcDbBlockEnd
  0
ENDSEC
  0
SECTION
  2
ENTITIES
  0
LINE
  5
45
330
1F
100
AcDbEntity
  8
0
  6
Continuous
 62
     7
370
     0
100
AcDbLine
 10
3.125
 20
0.25
 30
0.0
 11
3.125
 21
1.75
 31
0.0
  0
LINE
  5
46
330
1F
100
AcDbEntity
  8
0
  6
Continuous
 62
     7
370
     0
100
AcDbLine
 10
3.125
 20
1.75
 30
0.0
 11
8.125
 21
1.75
 31
0.0
  0
LINE
  5
47
330
1F
100
AcDbEntity
  8
0
  6
Continuous
 62
     7
370
     0
100
AcDbLine
 10
4.4419886686
 20
1.75
 30
0.0
 11
4.4419886686
 21
0.25
 31
0.0
  0
LINE
  5
48
330
1F
100
AcDbEntity
  8
0
  6
Continuous
 62
     7
370
     0
100
AcDbLine
 10
5.8066489986
 20
1.75
 30
0.0
 11
5.8066489986
 21
0.25
 31
0.0
  0
LINE
  5
49
330
1F
100
AcDbEntity
  8
0
  6
Continuous
 62
     7
370
     0
100
AcDbLine
 10
0.375
 20
10.75
 30
0.0
 11
8.125
 21
10.75
 31
0.0
  0
LINE
  5
4A
330
1F
100
AcDbEntity
  8
0
  6
Continuous
 62
     7
370
     0
100
AcDbLine
 10
0.375
 20
10.75
 30
0.0
 11
0.375
 21
0.25
 31
0.0
  0
LINE
  5
4B
330
1F
100
AcDbEntity
  8
0
  6
Continuous
 62
     7
370
     0
100
AcDbLine
 10
5.8066489986
 20
0.375
 30
0.0
 11
8.125
 21
0.375
 31
0.0
  0
LINE
  5
4C
330
1F
100
AcDbEntity
  8
0
  6
Continuous
 62
     7
370
     0
100
AcDbLine
 10
8.125
 20
0.25
 30
0.0
 11
8.125
 21
10.75
 31
0.0
  0
LINE
  5
4D
330
1F
100
AcDbEntity
  8
0
  6
Continuous
 62
     7
370
     0
100
AcDbLine
 10
5.8066489986
 20
0.625
 30
0.0
 11
8.125
 21
0.625
 31
0.0
  0
LINE
  5
4E
330
1F
100
AcDbEntity
  8
0
  6
Continuous
 62
     7
370
     0
100
AcDbLine
 10
4.4419886686
 20
0.85
 30
0.0
 11
5.8066489986
 21
0.85
 31
0.0
  0
LINE
  5
4F
330
1F
100
AcDbEntity
  8
0
  6
Continuous
 62
     7
370
     0
100
AcDbLine
 10
6.0073578799
 20
0.625
 30
0.0
 11
6.0073578799
 21
0.375
 31
0.0
  0
LINE
  5
50
330
1F
100
AcDbEntity
  8
0
  6
Continuous
 62
     7
370
     0
100
AcDbLine
 10
7.4436488056
 20
0.375
 30
0.0
 11
7.4436488056
 21
0.25
 31
0.0
  0
LINE
  5
51
330
1F
100
AcDbEntity
  8
0
  6
Continuous
 62
     7
370
     0
100
AcDbLine
 10
7.8718261005
 20
0.625
 30
0.0
 11
7.8718261005
 21
0.375
 31
0.0
  0
LINE
  5
52
330
1F
100
AcDbEntity
  8
0
  6
Continuous
 62
     7
370
     0
100
AcDbLine
 10
6.2742097441
 20
0.375
 30
0.0
 11
6.2742097441
 21
0.25
 31
0.0
  0
LINE
  5
53
330
1F
100
AcDbEntity
  8
0
  6
Continuous
 62
     7
370
     0
100
AcDbLine
 10
5.344545244
 20
1.75
 30
0.0
 11
5.344545244
 21
0.85
 31
0.0
  0
LINE
  5
54
330
1F
100
AcDbEntity
  8
0
  6
Continuous
 62
     7
370
     0
100
AcDbLine
 10
3.125
 20
0.4774485307
 30
0.0
 11
4.4419886686
 21
0.4774485307
 31
0.0
  0
LINE
  5
55
330
1F
100
AcDbEntity
  8
0
  6
Continuous
 62
     7
370
     0
100
AcDbLine
 10
4.4419886686
 20
1.6
 30
0.0
 11
5.8066489986
 21
1.6
 31
0.0
  0
LINE
  5
56
330
1F
100
AcDbEntity
  8
0
  6
Continuous
 62
     7
370
     0
100
AcDbLine
 10
4.8685032061
 20
1.75
 30
0.0
 11
4.8685032061
 21
0.85
 31
0.0
  0
LINE
  5
57
330
1F
100
AcDbEntity
  8
0
  6
Continuous
 62
     7
370
     0
100
AcDbLine
 10
3.125
 20
0.7274485307
 30
0.0
 11
4.4419886686
 21
0.7274485307
 31
0.0
  0
LINE
  5
58
330
1F
100
AcDbEntity
  8
0
  6
Continuous
 62
     7
370
     0
100
AcDbLine
 10
4.4419886686
 20
0.9726424113
 30
0.0
 11
3.125
 21
0.9726424113
 31
0.0
  0
LINE
  5
59
330
1F
100
AcDbEntity
  8
0
  6
Continuous
 62
     7
370
     0
100
AcDbLine
 10
2.0925117755
 20
0.25
 30
0.0
 11
2.0925117755
 21
1.75
 31
0.0
  0
LINE
  5
5A
330
1F
100
AcDbEntity
  8
0
  6
Continuous
 62
     7
370
     0
100
AcDbLine
 10
2.0925117755
 20
1.75
 30
0.0
 11
3.125
 21
1.75
 31
0.0
  0
LINE
  5
5B
330
1F
100
AcDbEntity
  8
0
  6
Continuous
 62
     7
370
     0
100
AcDbLine
 10
3.125
 20
0.4774485307
 30
0.0
 11
2.0925117755
 21
0.4774485307
 31
0.0
  0
LINE
  5
5C
330
1F
100
AcDbEntity
  8
0
  6
Continuous
 62
     7
370
     0
100
AcDbLine
 10
2.0925117755
 20
1.15
 30
0.0
 11
0.375
 21
1.15
 31
0.0
  0
LINE
  5
5D
330
1F
100
AcDbEntity
  8
0
  6
Continuous
 62
     7
370
     0
100
AcDbLine
 10
8.125
 20
0.25
 30
0.0
 11
0.375
 21
0.25
 31
0.0
  0
LINE
  5
5E
330
1F
100
AcDbEntity
  8
0
  6
Continuous
 62
     7
370
     0
100
AcDbLine
 10
2.6142417755
 20
1.75
 30
0.0
 11
2.6142417755
 21
0.4774485307
 31
0.0
  0
LINE
  5
5F
330
1F
100
AcDbEntity
  8
0
  6
Continuous
 62
     7
370
     0
100
AcDbLine
 10
4.4419886686
 20
1.45
 30
0.0
 11
8.125
 21
1.45
 31
0.0
  0
LINE
  5
60
330
1F
100
AcDbEntity
  8
0
  6
Continuous
 62
     7
370
     0
100
AcDbLine
 10
4.4419886686
 20
1.3
 30
0.0
 11
5.8066489986
 21
1.3
 31
0.0
  0
LINE
  5
61
330
1F
100
AcDbEntity
  8
0
  6
Continuous
 62
     7
370
     0
100
AcDbLine
 10
4.4419886686
 20
1.15
 30
0.0
 11
5.8066489986
 21
1.15
 31
0.0
  0
LINE
  5
62
330
1F
100
AcDbEntity
  8
0
  6
Continuous
 62
     7
370
     0
100
AcDbLine
 10
4.4419886686
 20
1.0
 30
0.0
 11
5.8066489986
 21
1.0
 31
0.0
  0
LINE
  5
63
330
1F
100
AcDbEntity
  8
0
  6
Continuous
 62
     7
370
     0
100
AcDbLine
 10
2.0925117755
 20
1.6
 30
0.0
 11
3.125
 21
1.6
 31
0.0
  0
LINE
  5
64
330
1F
100
AcDbEntity
  8
0
  6
Continuous
 62
     7
370
     0
100
AcDbLine
 10
2.0925117755
 20
1.45
 30
0.0
 11
3.125
 21
1.45
 31
0.0
  0
LINE
  5
65
330
1F
100
AcDbEntity
  8
0
  6
Continuous
 62
     7
370
     0
100
AcDbLine
 10
2.0925117755
 20
1.3
 30
0.0
 11
3.125
 21
1.3
 31
0.0
  0
LINE
  5
66
330
1F
100
AcDbEntity
  8
0
  6
Continuous
 62
     7
370
     0
100
AcDbLine
 10
2.0925117755
 20
1.15
 30
0.0
 11
3.125
 21
1.15
 31
0.0
  0
LINE
  5
67
330
1F
100
AcDbEntity
  8
0
  6
Continuous
 62
     7
370
     0
100
AcDbLine
 10
2.0925117755
 20
1.0
 30
0.0
 11
3.125
 21
1.0
 31
0.0
  0
LINE
  5
68
330
1F
100
AcDbEntity
  8
0
  6
Continuous
 62
     7
370
     0
100
AcDbLine
 10
2.0925117755
 20
0.85
 30
0.0
 11
3.125
 21
0.85
 31
0.0
  0
LINE
  5
69
330
1F
100
AcDbEntity
  8
0
  6
Continuous
 62
     7
370
     0
100
AcDbLine
 10
2.0925117755
 20
0.7
 30
0.0
 11
3.125
 21
0.7
 31
0.0
  0
MTEXT
  5
6B
330
1F
100
AcDbEntity
  8
0
  6
Continuous
 62
     7
370
     0
100
AcDbMText
 10
6.292880895
 20
0.3389726629
 30
0.0
 40
0.05
 41
0.0
 71
     1
 72
     1
  1
WEIGHT:
  7
SLDTEXTSTYLE0
 73
     1
 44
1.0
  0
MTEXT
  5
6C
330
1F
100
AcDbEntity
  8
0
  6
Continuous
 62
     7
370
     0
100
AcDbMText
 10
6.930595884
 20
0.5451064708
 30
0.0
 40
0.125
 41
0.0
 71
     2
 72
     1
  1
spring05_steel_wireedm04
  7
SLDTEXTSTYLE0
 73
     1
 44
1.0
  0
MTEXT
  5
6D
330
1F
100
AcDbEntity
  8
0
  6
Continuous
 62
     7
370
     0
100
AcDbMText
 10
0.6526292164
 20
1.0930424413
 30
0.0
 40
0.06
 41
0.0
 71
     1
 72
     1
  1
PROPRIETARY AND CONFIDENTIAL
  7
SLDTEXTSTYLE0
 73
     1
 44
1.0
  0
INSERT
  5
78
330
1F
100
AcDbEntity
  8
0
  6
Continuous
 62
     7
370
     0
100
AcDbBlockReference
  2
SW_NOTE_0
 10
0.5031614308
 20
0.8948876626
 30
0.0
  0
MTEXT
  5
79
330
1F
100
AcDbEntity
  8
0
  6
Continuous
 62
     7
370
     0
100
AcDbMText
 10
4.4844266197
 20
0.8200064524
 30
0.0
 40
0.0520833333
 41
0.0
 71
     1
 72
     1
  1
COMMENTS:
  7
SLDTEXTSTYLE0
 73
     1
 44
1.0
  0
MTEXT
  5
7B
330
1F
100
AcDbEntity
  8
0
  6
Continuous
 62
     7
370
     0
100
AcDbMText
 10
7.4604380838
 20
0.3384941321
 30
0.0
 40
0.05
 41
0.0
 71
     1
 72
     1
  1
SHEET 1 OF 1
  7
SLDTEXTSTYLE1
 73
     1
 44
1.0
  0
MTEXT
  5
7C
330
1F
100
AcDbEntity
  8
0
  6
Continuous
 62
     7
370
     0
100
AcDbMText
 10
4.4820155693
 20
0.9589694829
 30
0.0
 40
0.0520833333
 41
0.0
 71
     1
 72
     1
  1
Q.A.
  7
SLDTEXTSTYLE0
 73
     1
 44
1.0
  0
MTEXT
  5
7D
330
1F
100
AcDbEntity
  8
0
  6
Continuous
 62
     7
370
     0
100
AcDbMText
 10
4.4781393238
 20
1.1063026196
 30
0.0
 40
0.0520833333
 41
0.0
 71
     1
 72
     1
  1
MFG APPR.
  7
SLDTEXTSTYLE0
 73
     1
 44
1.0
  0
MTEXT
  5
7E
330
1F
100
AcDbEntity
  8
0
  6
Continuous
 62
     7
370
     0
100
AcDbMText
 10
4.4776828737
 20
1.255229751
 30
0.0
 40
0.0520833333
 41
0.0
 71
     1
 72
     1
  1
ENG APPR.
  7
SLDTEXTSTYLE0
 73
     1
 44
1.0
  0
MTEXT
  5
7F
330
1F
100
AcDbEntity
  8
0
  6
Continuous
 62
     7
370
     0
100
AcDbMText
 10
4.4771695014
 20
1.3976228129
 30
0.0
 40
0.0520833333
 41
0.0
 71
     1
 72
     1
  1
CHECKED
  7
SLDTEXTSTYLE0
 73
     1
 44
1.0
  0
MTEXT
  5
80
330
1F
100
AcDbEntity
  8
0
  6
Continuous
 62
     7
370
     0
100
AcDbMText
 10
4.4747749285
 20
1.5573838686
 30
0.0
 40
0.0520833333
 41
0.0
 71
     1
 72
     1
  1
DRAWN
  7
SLDTEXTSTYLE0
 73
     1
 44
1.0
  0
MTEXT
  5
81
330
1F
100
AcDbEntity
  8
0
  6
Continuous
 62
     7
370
     0
100
AcDbMText
 10
5.4876462028
 20
1.7027965001
 30
0.0
 40
0.0520833333
 41
0.0
 71
     1
 72
     1
  1
DATE
  7
SLDTEXTSTYLE0
 73
     1
 44
1.0
  0
MTEXT
  5
82
330
1F
100
AcDbEntity
  8
0
  6
Continuous
 62
     7
370
     0
100
AcDbMText
 10
5.0062161281
 20
1.7048215571
 30
0.0
 40
0.0520833333
 41
0.0
 71
     1
 72
     1
  1
NAME
  7
SLDTEXTSTYLE0
 73
     1
 44
1.0
  0
INSERT
  5
92
330
1F
100
AcDbEntity
  8
0
  6
Continuous
 62
     7
370
     0
100
AcDbBlockReference
  2
SW_NOTE_1
 10
3.176659696
 20
1.5917401208
 30
0.0
  0
MTEXT
  5
93
330
1F
100
AcDbEntity
  8
0
  6
Continuous
 62
     7
370
     0
100
AcDbMText
 10
2.1538407251
 20
0.627776306
 30
0.0
 40
0.0625
 41
0.0
 71
     1
 72
     1
  1
NEXT ASSY
  7
SLDTEXTSTYLE0
 73
     1
 44
1.0
  0
MTEXT
  5
94
330
1F
100
AcDbEntity
  8
0
  6
Continuous
 62
     7
370
     0
100
AcDbMText
 10
2.6920103565
 20
0.6298850942
 30
0.0
 40
0.0625
 41
0.0
 71
     1
 72
     1
  1
USED ON
  7
SLDTEXTSTYLE0
 73
     1
 44
1.0
  0
MTEXT
  5
95
330
1F
100
AcDbEntity
  8
0
  6
Continuous
 62
     7
370
     0
100
AcDbMText
 10
2.3429984944
 20
0.3871538561
 30
0.0
 40
0.0625
 41
0.0
 71
     1
 72
     1
  1
APPLICATION
  7
SLDTEXTSTYLE0
 73
     1
 44
1.0
  0
MTEXT
  5
97
330
1F
100
AcDbEntity
  8
0
  6
Continuous
 62
     7
370
     0
100
AcDbMText
 10
3.2483846481
 20
0.3954447667
 30
0.0
 40
0.0625
 41
0.0
 71
     1
 72
     1
  1
DO  NOT  SCALE  DRAWING
  7
SLDTEXTSTYLE2
 73
     1
 44
1.0
  0
MTEXT
  5
98
330
1F
100
AcDbEntity
  8
0
  6
Continuous
 62
     7
370
     0
100
AcDbMText
 10
3.1686148436
 20
0.6843172438
 30
0.0
 40
0.0520833333
 41
0.0
 71
     1
 72
     1
  1
FINISH
  7
SLDTEXTSTYLE0
 73
     1
 44
1.0
  0
MTEXT
  5
99
330
1F
100
AcDbEntity
  8
0
  6
Continuous
 62
     7
370
     0
100
AcDbMText
 10
3.1697828319
 20
0.9393931759
 30
0.0
 40
0.0520833333
 41
0.0
 71
     1
 72
     1
  1
MATERIAL
  7
SLDTEXTSTYLE0
 73
     1
 44
1.0
  0
MTEXT
  5
9A
330
1F
100
AcDbEntity
  8
0
  6
Continuous
 62
     7
370
     0
100
AcDbMText
 10
7.9125760889
 20
0.5967191242
 30
0.0
 40
0.0520833333
 41
0.0
 71
     1
 72
     1
  1
REV.
  7
SLDTEXTSTYLE0
 73
     1
 44
1.0
  0
MTEXT
  5
9B
330
1F
100
AcDbEntity
  8
0
  6
Continuous
 62
     7
370
     0
100
AcDbMText
 10
5.8569047006
 20
0.5342872308
 30
0.0
 40
0.125
 41
0.0
 71
     1
 72
     1
  1
A
  7
SLDTEXTSTYLE0
 73
     1
 44
1.0
  0
MTEXT
  5
9D
330
1F
100
AcDbEntity
  8
0
  6
Continuous
 62
     7
370
     0
100
AcDbMText
 10
6.0326201596
 20
0.5998128918
 30
0.0
 40
0.0520833333
 41
0.0
 71
     1
 72
     1
  1
DWG.  NO.
  7
SLDTEXTSTYLE3
 73
     1
 44
1.0
  0
MTEXT
  5
9E
330
1F
100
AcDbEntity
  8
0
  6
Continuous
 62
     7
370
     0
100
AcDbMText
 10
5.8376851904
 20
0.6039036644
 30
0.0
 40
0.0520833333
 41
0.0
 71
     1
 72
     1
  1
SIZE
  7
SLDTEXTSTYLE0
 73
     1
 44
1.0
  0
MTEXT
  5
9F
330
1F
100
AcDbEntity
  8
0
  6
Continuous
 62
     7
370
     0
100
AcDbMText
 10
5.8328421992
 20
0.3416976713
 30
0.0
 40
0.0520833333
 41
0.0
 71
     1
 72
     1
  1
SCALE:1:1
  7
SLDTEXTSTYLE0
 73
     1
 44
1.0
  0
LINE
  5
A0
330
1F
100
AcDbEntity
  8
0
  6
Continuous
 62
     7
370
    15
100
AcDbLine
 10
4.2249502921
 20
5.4639054794
 30
0.0
 11
4.1420335432
 21
5.4743802917
 31
0.0
  0
ARC
  5
A1
330
1F
100
AcDbEntity
  8
0
  6
Continuous
 62
     7
370
    15
100
AcDbCircle
 10
3.9088869062
 20
5.5043658359
 30
0.0
 40
0.2350669331392188
100
AcDbArc
 50
352.6712852329
 51
5.4789939977
  0
LINE
  5
A2
330
1F
100
AcDbEntity
  8
0
  6
Continuous
 62
     7
370
    15
100
AcDbLine
 10
4.1428799468
 20
5.5268102327
 30
0.0
 11
4.2258948145
 21
5.5372975115
 31
0.0
  0
LINE
  5
A3
330
1F
100
AcDbEntity
  8
0
  6
Continuous
 62
     7
370
    15
100
AcDbLine
 10
4.2258948145
 20
5.5372975115
 30
0.0
 11
4.2250762773
 21
5.5437765834
 31
0.0
  0
LINE
  5
A4
330
1F
100
AcDbEntity
  8
0
  6
Continuous
 62
     7
370
    15
100
AcDbLine
 10
4.2250762773
 20
5.5437765834
 30
0.0
 11
4.1421659817
 21
5.5333025044
 31
0.0
  0
ARC
  5
A5
330
1F
100
AcDbEntity
  8
0
  6
Continuous
 62
     7
370
    15
100
AcDbCircle
 10
3.9088869062
 20
5.5043658359
 30
0.0
 40
0.2350669331392184
100
AcDbArc
 50
7.0710388591
 51
19.8791554049
  0
LINE
  5
A6
330
1F
100
AcDbEntity
  8
0
  6
Continuous
 62
     7
370
    15
100
AcDbLine
 10
4.1299465895
 20
5.5842973286
 30
0.0
 11
4.2077393042
 21
5.6150977061
 31
0.0
  0
LINE
  5
A7
330
1F
100
AcDbEntity
  8
0
  6
Continuous
 62
     7
370
    15
100
AcDbLine
 10
4.2077393042
 20
5.6150977061
 30
0.0
 11
4.205335172
 21
5.621169636
 31
0.0
  0
LINE
  5
A8
330
1F
100
AcDbEntity
  8
0
  6
Continuous
 62
     7
370
    15
100
AcDbLine
 10
4.205335172
 20
5.621169636
 30
0.0
 11
4.1276405762
 21
5.5904082713
 31
0.0
  0
ARC
  5
A9
330
1F
100
AcDbEntity
  8
0
  6
Continuous
 62
     7
370
    15
100
AcDbCircle
 10
3.9088869062
 20
5.5043658359
 30
0.0
 40
0.2350669331392188
100
AcDbArc
 50
21.4712001939
 51
34.2797145618
  0
LINE
  5
AA
330
1F
100
AcDbEntity
  8
0
  6
Continuous
 62
     7
370
    15
100
AcDbLine
 10
4.1031221528
 20
5.6367633492
 30
0.0
 11
4.1708059842
 21
5.6859385011
 31
0.0
  0
LINE
  5
AB
330
1F
100
AcDbEntity
  8
0
  6
Continuous
 62
     7
370
    15
100
AcDbLine
 10
4.1708059842
 20
5.6859385011
 30
0.0
 11
4.1669673219
 21
5.6912219601
 31
0.0
  0
LINE
  5
AC
330
1F
100
AcDbEntity
  8
0
  6
Continuous
 62
     7
370
    15
100
AcDbLine
 10
4.1669673219
 20
5.6912219601
 30
0.0
 11
4.0993688494
 21
5.6421087007
 31
0.0
  0
ARC
  5
AD
330
1F
100
AcDbEntity
  8
0
  6
Continuous
 62
     7
370
    15
100
AcDbCircle
 10
3.9088869062
 20
5.5043658359
 30
0.0
 40
0.2350669331392186
100
AcDbArc
 50
35.8717591001
 51
48.6806363342
  0
LINE
  5
AE
330
1F
100
AcDbEntity
  8
0
  6
Continuous
 62
     7
370
    15
100
AcDbLine
 10
4.0640910836
 20
5.6809106792
 30
0.0
 11
4.1174155343
 21
5.7453689079
 31
0.0
  0
LINE
  5
AF
330
1F
100
AcDbEntity
  8
0
  6
Continuous
 62
     7
370
    15
100
AcDbLine
 10
4.1174155343
 20
5.7453689079
 30
0.0
 11
4.1123836058
 21
5.7495316998
 31
0.0
  0
LINE
  5
B0
330
1F
100
AcDbEntity
  8
0
  6
Continuous
 62
     7
370
    15
100
AcDbLine
 10
4.1123836058
 20
5.7495316998
 30
0.0
 11
4.0591263277
 21
5.6851545768
 31
0.0
  0
ARC
  5
B1
330
1F
100
AcDbEntity
  8
0
  6
Continuous
 62
     7
370
    15
100
AcDbCircle
 10
3.9088869062
 20
5.5043658359
 30
0.0
 40
0.2350669331392189
100
AcDbArc
 50
50.2726804595
 51
63.0818628032
  0
LINE
  5
B2
330
1F
100
AcDbEntity
  8
0
  6
Continuous
 62
     7
370
    15
100
AcDbLine
 10
4.0153057672
 20
5.7139642707
 30
0.0
 11
4.0509227691
 21
5.789654543
 31
0.0
  0
LINE
  5
B3
330
1F
100
AcDbEntity
  8
0
  6
Continuous
 62
     7
370
    15
100
AcDbLine
 10
4.0509227691
 20
5.789654543
 30
0.0
 11
4.045013784
 21
5.7924350175
 31
0.0
  0
LINE
  5
B4
330
1F
100
AcDbEntity
  8
0
  6
Continuous
 62
     7
370
    15
100
AcDbLine
 10
4.045013784
 20
5.7924350175
 30
0.0
 11
4.0094413683
 21
5.7168399308
 31
0.0
  0
ARC
  5
B5
330
1F
100
AcDbEntity
  8
0
  6
Continuous
 62
     7
370
    15
100
AcDbCircle
 10
3.9088869062
 20
5.5043658359
 30
0.0
 40
0.2350669331392191
100
AcDbArc
 50
64.6739063797
 51
77.4833169047
  0
LINE
  5
B6
330
1F
100
AcDbEntity
  8
0
  6
Continuous
 62
     7
370
    15
100
AcDbLine
 10
3.9598315014
 20
5.733845881
 30
0.0
 11
3.9755057337
 21
5.8160127318
 31
0.0
  0
LINE
  5
B7
330
1F
100
AcDbEntity
  8
0
  6
Continuous
 62
     7
370
    15
100
AcDbLine
 10
3.9755057337
 20
5.8160127318
 30
0.0
 11
3.9690907544
 21
5.8172363577
 31
0.0
  0
LINE
  5
B8
330
1F
100
AcDbEntity
  8
0
  6
Continuous
 62
     7
370
    15
100
AcDbLine
 10
3.9690907544
 20
5.8172363577
 30
0.0
 11
3.9534363219
 21
5.735172759
 31
0.0
  0
ARC
  5
B9
330
1F
100
AcDbEntity
  8
0
  6
Continuous
 62
     7
370
    15
100
AcDbCircle
 10
3.9088869062
 20
5.5043658359
 30
0.0
 40
0.2350669331392189
100
AcDbArc
 50
79.0753598316
 51
91.8849072719
  0
LINE
  5
BA
330
1F
100
AcDbEntity
  8
0
  6
Continuous
 62
     7
370
    15
100
AcDbLine
 10
3.9011550992
 20
5.7393056313
 30
0.0
 11
3.8959028799
 21
5.8227873335
 31
0.0
  0
LINE
  5
BB
330
1F
100
AcDbEntity
  8
0
  6
Continuous
 62
     7
370
    15
100
AcDbLine
 10
3.8959028799
 20
5.8227873335
 30
0.0
 11
3.8893850885
 21
5.8223772583
 31
0.0
  0
LINE
  5
BC
330
1F
100
AcDbEntity
  8
0
  6
Continuous
 62
     7
370
    15
100
AcDbLine
 10
3.8893850885
 20
5.8223772583
 30
0.0
 11
3.8946308546
 21
5.7390001281
 31
0.0
  0
ARC
  5
BD
330
1F
100
AcDbEntity
  8
0
  6
Continuous
 62
     7
370
    15
100
AcDbCircle
 10
3.9088869062
 20
5.5043658359
 30
0.0
 40
0.2350669331392191
100
AcDbArc
 50
93.4769494894
 51
106.2865339759
  0
LINE
  5
BE
330
1F
100
AcDbEntity
  8
0
  6
Continuous
 62
     7
370
    15
100
AcDbLine
 10
3.8429644515
 20
5.7299998854
 30
0.0
 11
3.8171162167
 21
5.8095527264
 31
0.0
  0
LINE
  5
BF
330
1F
100
AcDbEntity
  8
0
  6
Continuous
 62
     7
370
    15
100
AcDbLine
 10
3.8171162167
 20
5.8095527264
 30
0.0
 11
3.8109052485
 21
5.8075346164
 31
0.0
  0
LINE
  5
C0
330
1F
100
AcDbEntity
  8
0
  6
Continuous
 62
     7
370
    15
100
AcDbLine
 10
3.8109052485
 20
5.8075346164
 30
0.0
 11
3.8367212169
 21
5.7280812143
 31
0.0
  0
ARC
  5
C1
330
1F
100
AcDbEntity
  8
0
  6
Continuous
 62
     7
370
    15
100
AcDbCircle
 10
3.9088869062
 20
5.5043658359
 30
0.0
 40
0.2350669331392193
100
AcDbArc
 50
107.878575469
 51
120.6880948049
  0
LINE
  5
C2
330
1F
100
AcDbEntity
  8
0
  6
Continuous
 62
     7
370
    15
100
AcDbLine
 10
3.7889170891
 20
5.7065135434
 30
0.0
 11
3.7440959803
 21
5.7771403542
 31
0.0
  0
LINE
  5
C3
330
1F
100
AcDbEntity
  8
0
  6
Continuous
 62
     7
370
    15
100
AcDbLine
 10
3.7440959803
 20
5.7771403542
 30
0.0
 11
3.7385821106
 21
5.7736410746
 31
0.0
  0
LINE
  5
C4
330
1F
100
AcDbEntity
  8
0
  6
Continuous
 62
     7
370
    15
100
AcDbLine
 10
3.7385821106
 20
5.7736410746
 30
0.0
 11
3.7833471935
 21
5.7031024095
 31
0.0
  0
ARC
  5
C5
330
1F
100
AcDbEntity
  8
0
  6
Continuous
 62
     7
370
    15
100
AcDbCircle
 10
3.9088869062
 20
5.5043658359
 30
0.0
 40
0.2350669331392194
100
AcDbArc
 50
122.2801356042
 51
135.0894916867
  0
LINE
  5
C6
330
1F
100
AcDbEntity
  8
0
  6
Continuous
 62
     7
370
    15
100
AcDbLine
 10
3.7424100664
 20
5.6703233748
 30
0.0
 11
3.6814305842
 21
5.7275869533
 31
0.0
  0
LINE
  5
C7
330
1F
100
AcDbEntity
  8
0
  6
Continuous
 62
     7
370
    15
100
AcDbLine
 10
3.6814305842
 20
5.7275869533
 30
0.0
 11
3.6769600892
 21
5.722826355
 31
0.0
  0
LINE
  5
C8
330
1F
100
AcDbEntity
  8
0
  6
Continuous
 62
     7
370
    15
100
AcDbLine
 10
3.6769600892
 20
5.722826355
 30
0.0
 11
3.7378635989
 21
5.6656342023
 31
0.0
  0
ARC
  5
C9
330
1F
100
AcDbEntity
  8
0
  6
Continuous
 62
     7
370
    15
100
AcDbCircle
 10
3.9088869062
 20
5.5043658359
 30
0.0
 40
0.2350669331392189
100
AcDbArc
 50
136.681531866
 51
149.4906368503
  0
LINE
  5
CA
330
1F
100
AcDbEntity
  8
0
  6
Continuous
 62
     7
370
    15
100
AcDbLine
 10
3.7063658295
 20
5.6237044467
 30
0.0
 11
3.6330572497
 21
5.6640062211
 31
0.0
  0
LINE
  5
CB
330
1F
100
AcDbEntity
  8
0
  6
Continuous
 62
     7
370
    15
100
AcDbLine
 10
3.6330572497
 20
5.6640062211
 30
0.0
 11
3.6299111393
 21
5.6582833539
 31
0.0
  0
LINE
  5
CC
330
1F
100
AcDbEntity
  8
0
  6
Continuous
 62
     7
370
    15
100
AcDbLine
 10
3.6299111393
 20
5.6582833539
 30
0.0
 11
3.7031284935
 21
5.6180317389
 31
0.0
  0
ARC
  5
CD
330
1F
100
AcDbEntity
  8
0
  6
Continuous
 62
     7
370
    15
100
AcDbCircle
 10
3.9088869062
 20
5.5043658359
 30
0.0
 40
0.2350669331392186
100
AcDbArc
 50
151.0826765221
 51
163.8914583415
  0
LINE
  5
CE
330
1F
100
AcDbEntity
  8
0
  6
Continuous
 62
     7
370
    15
100
AcDbLine
 10
3.6830491788
 20
5.5695869785
 30
0.0
 11
3.6020156082
 21
5.5903928715
 31
0.0
  0
LINE
  5
CF
330
1F
100
AcDbEntity
  8
0
  6
Continuous
 62
     7
370
    15
100
AcDbLine
 10
3.6020156082
 20
5.5903928715
 30
0.0
 11
3.6003914403
 21
5.5840675046
 31
0.0
  0
LINE
  5
D0
330
1F
100
AcDbEntity
  8
0
  6
Continuous
 62
     7
370
    15
100
AcDbLine
 10
3.6003914403
 20
5.5840675046
 30
0.0
 11
3.6813243987
 21
5.5632874246
 31
0.0
  0
ARC
  5
D1
330
1F
100
AcDbEntity
  8
0
  6
Continuous
 62
     7
370
    15
100
AcDbCircle
 10
3.9088869062
 20
5.5043658359
 30
0.0
 40
0.235066933139219
100
AcDbArc
 50
165.4834976496
 51
178.2919045434
  0
LINE
  5
D2
330
1F
100
AcDbEntity
  8
0
  6
Continuous
 62
     7
370
    15
100
AcDbLine
 10
3.6739244176
 20
5.511372571
 30
0.0
 11
3.5902560108
 21
5.511372571
 31
0.0
  0
LINE
  5
D3
330
1F
100
AcDbEntity
  8
0
  6
Continuous
 62
     7
370
    15
100
AcDbLine
 10
3.5902560108
 20
5.511372571
 30
0.0
 11
3.5902560108
 21
5.5048420198
 31
0.0
  0
LINE
  5
D4
330
1F
100
AcDbEntity
  8
0
  6
Continuous
 62
     7
370
    15
100
AcDbLine
 10
3.5902560108
 20
5.5048420198
 30
0.0
 11
3.6738204321
 21
5.5048420198
 31
0.0
  0
ARC
  5
D5
330
1F
100
AcDbEntity
  8
0
  6
Continuous
 62
     7
370
    15
100
AcDbCircle
 10
3.9088869062
 20
5.5043658359
 30
0.0
 40
0.2350669331392185
100
AcDbArc
 50
179.8839436542
 51
186.024143057
  0
LINE
  5
D6
330
1F
100
AcDbEntity
  8
0
  6
Continuous
 62
     7
370
    15
100
AcDbLine
 10
3.6751181238
 20
5.4796961636
 30
0.0
 11
3.5109250739
 21
5.4623688704
 31
0.0
  0
LINE
  5
D7
330
1F
100
AcDbEntity
  8
0
  6
Continuous
 62
     7
370
    15
100
AcDbLine
 10
3.5109232214
 20
5.4623864097
 30
0.0
 11
3.5109250782
 21
5.4623688109
 31
0.0
  0
LINE
  5
D8
330
1F
100
AcDbEntity
  8
0
  6
Continuous
 62
     7
370
    15
100
AcDbLine
 10
3.3070855486
 20
5.4408575189
 30
0.0
 11
3.5109231672
 21
5.4623864702
 31
0.0
  0
LINE
  5
D9
330
1F
100
AcDbEntity
  8
0
  6
Continuous
 62
     7
370
    15
100
AcDbLine
 10
3.3070855486
 20
5.4993769896
 30
0.0
 11
3.3070855486
 21
5.4408575189
 31
0.0
  0
LINE
  5
DA
330
1F
100
AcDbEntity
  8
0
  6
Continuous
 62
     7
370
    15
100
AcDbLine
 10
3.3368991642
 20
5.4971133624
 30
0.0
 11
3.3070855486
 21
5.4993769896
 31
0.0
  0
LINE
  5
DB
330
1F
100
AcDbEntity
  8
0
  6
Continuous
 62
     7
370
    15
100
AcDbLine
 10
3.3368991642
 20
5.4709474513
 30
0.0
 11
3.3368991642
 21
5.4971133624
 31
0.0
  0
LINE
  5
DC
330
1F
100
AcDbEntity
  8
0
  6
Continuous
 62
     7
370
    15
100
AcDbLine
 10
3.3547565046
 20
5.4709474513
 30
0.0
 11
3.3368991642
 21
5.4709474513
 31
0.0
  0
LINE
  5
DD
330
1F
100
AcDbEntity
  8
0
  6
Continuous
 62
     7
370
    15
100
AcDbLine
 10
3.3547565046
 20
5.5328956557
 30
0.0
 11
3.3547565046
 21
5.4709474513
 31
0.0
  0
LINE
  5
DE
330
1F
100
AcDbEntity
  8
0
  6
Continuous
 62
     7
370
    15
100
AcDbLine
 10
3.3350797852
 20
5.5328956557
 30
0.0
 11
3.3547565046
 21
5.5328956557
 31
0.0
  0
LINE
  5
DF
330
1F
100
AcDbEntity
  8
0
  6
Continuous
 62
     7
370
    15
100
AcDbLine
 10
3.3368991642
 20
5.5081924344
 30
0.0
 11
3.3350797852
 21
5.5328956557
 31
0.0
  0
LINE
  5
E0
330
1F
100
AcDbEntity
  8
0
  6
Continuous
 62
     7
370
    15
100
AcDbLine
 10
3.3070855486
 20
5.5059965665
 30
0.0
 11
3.3368991642
 21
5.5081924344
 31
0.0
  0
LINE
  5
E1
330
1F
100
AcDbEntity
  8
0
  6
Continuous
 62
     7
370
    15
100
AcDbLine
 10
3.3070855486
 20
5.5674131103
 30
0.0
 11
3.3070855486
 21
5.5059965665
 31
0.0
  0
LINE
  5
E2
330
1F
100
AcDbEntity
  8
0
  6
Continuous
 62
     7
370
    15
100
AcDbLine
 10
3.3788253999
 20
5.5598931572
 30
0.0
 11
3.3070855486
 21
5.5674131103
 31
0.0
  0
LINE
  5
E3
330
1F
100
AcDbEntity
  8
0
  6
Continuous
 62
     7
370
    15
100
AcDbLine
 10
3.3788253999
 20
5.5022548497
 30
0.0
 11
3.3788253999
 21
5.5598931572
 31
0.0
  0
LINE
  5
E4
330
1F
100
AcDbEntity
  8
0
  6
Continuous
 62
     7
370
    15
100
AcDbLine
 10
3.4604274439
 20
5.5077150399
 30
0.0
 11
3.3788253999
 21
5.5022548497
 31
0.0
  0
LINE
  5
E5
330
1F
100
AcDbEntity
  8
0
  6
Continuous
 62
     7
370
    15
100
AcDbLine
 10
3.4604274439
 20
5.5513395093
 30
0.0
 11
3.4604274439
 21
5.5077150399
 31
0.0
  0
LINE
  5
E6
330
1F
100
AcDbEntity
  8
0
  6
Continuous
 62
     7
370
    15
100
AcDbLine
 10
3.5110745255
 20
5.5460305306
 30
0.0
 11
3.4604274439
 21
5.5513395093
 31
0.0
  0
ARC
  5
E7
330
1F
100
AcDbEntity
  8
0
  6
Continuous
 62
     7
370
    15
100
AcDbCircle
 10
3.9088869062
 20
5.5043658359
 30
0.0
 40
0.3999883576920474
100
AcDbArc
 50
171.9402938582
 51
174.0209439631
  0
LINE
  5
E8
330
1F
100
AcDbEntity
  8
0
  6
Continuous
 62
     7
370
    15
100
AcDbLine
 10
3.3416688558
 20
5.5951197369
 30
0.0
 11
3.512849465
 21
5.5604462308
 31
0.0
  0
LINE
  5
E9
330
1F
100
AcDbEntity
  8
0
  6
Continuous
 62
     7
370
    15
100
AcDbLine
 10
3.2226456841
 20
5.6102589353
 30
0.0
 11
3.3416688558
 21
5.5951197369
 31
0.0
  0
LINE
  5
EA
330
1F
100
AcDbEntity
  8
0
  6
Continuous
 62
     7
370
    15
100
AcDbLine
 10
3.1618395599
 20
5.6158392442
 30
0.0
 11
3.2226456841
 21
5.6102589353
 31
0.0
  0
LINE
  5
EB
330
1F
100
AcDbEntity
  8
0
  6
Continuous
 62
     7
370
    15
100
AcDbLine
 10
3.0902568601
 20
5.6292203696
 30
0.0
 11
3.1618395599
 21
5.6158392442
 31
0.0
  0
LINE
  5
EC
330
1F
100
AcDbEntity
  8
0
  6
Continuous
 62
     7
370
    15
100
AcDbLine
 10
3.0741717459
 20
5.6340205675
 30
0.0
 11
3.0902568601
 21
5.6292203696
 31
0.0
  0
LINE
  5
ED
330
1F
100
AcDbEntity
  8
0
  6
Continuous
 62
     7
370
    15
100
AcDbLine
 10
3.0680130638
 20
5.6435782838
 30
0.0
 11
3.0741717459
 21
5.6340205675
 31
0.0
  0
LINE
  5
EE
330
1F
100
AcDbEntity
  8
0
  6
Continuous
 62
     7
370
    15
100
AcDbLine
 10
3.0693824746
 20
5.6509039058
 30
0.0
 11
3.0680130638
 21
5.6435782838
 31
0.0
  0
LINE
  5
EF
330
1F
100
AcDbEntity
  8
0
  6
Continuous
 62
     7
370
    15
100
AcDbLine
 10
3.0911795295
 20
5.6486125589
 30
0.0
 11
3.0693824746
 21
5.6509039058
 31
0.0
  0
LINE
  5
F0
330
1F
100
AcDbEntity
  8
0
  6
Continuous
 62
     7
370
    15
100
AcDbLine
 10
3.0918511817
 20
5.6463974779
 30
0.0
 11
3.0911795295
 21
5.6486125589
 31
0.0
  0
LINE
  5
F1
330
1F
100
AcDbEntity
  8
0
  6
Continuous
 62
     7
370
    15
100
AcDbLine
 10
3.1050546959
 20
5.6439293997
 30
0.0
 11
3.0918511817
 21
5.6463974779
 31
0.0
  0
LINE
  5
F2
330
1F
100
AcDbEntity
  8
0
  6
Continuous
 62
     7
370
    15
100
AcDbLine
 10
3.1082288192
 20
5.6450345203
 30
0.0
 11
3.1050546959
 21
5.6439293997
 31
0.0
  0
ARC
  5
F3
330
1F
100
AcDbEntity
  8
0
  6
Continuous
 62
     7
370
    15
100
AcDbCircle
 10
3.1147017145
 20
5.6264441391
 30
0.0
 40
0.0196850393700785
100
AcDbArc
 50
79.4117647059
 51
109.1971985424
  0
LINE
  5
F4
330
1F
100
AcDbEntity
  8
0
  6
Continuous
 62
     7
370
    15
100
AcDbLine
 10
3.1474945522
 20
5.6403400678
 30
0.0
 11
3.1183187826
 21
5.6457939515
 31
0.0
  0
ARC
  5
F5
330
1F
100
AcDbEntity
  8
0
  6
Continuous
 62
     7
370
    15
100
AcDbCircle
 10
3.1502773922
 20
5.6461745309
 30
0.0
 40
0.0064641180335314
100
AcDbArc
 50
244.499688537
 51
95.0964238338
  0
LINE
  5
F6
330
1F
100
AcDbEntity
  8
0
  6
Continuous
 62
     7
370
    15
100
AcDbLine
 10
3.1163813383
 20
5.6588420008
 30
0.0
 11
3.1497031801
 21
5.6526131394
 31
0.0
  0
ARC
  5
F7
330
1F
100
AcDbEntity
  8
0
  6
Continuous
 62
     7
370
    15
100
AcDbCircle
 10
3.1199984607
 20
5.6781918868
 30
0.0
 40
0.0196850393700788
100
AcDbArc
 50
231.5699571877
 51
259.4117647059
  0
LINE
  5
F8
330
1F
100
AcDbEntity
  8
0
  6
Continuous
 62
     7
370
    15
100
AcDbLine
 10
3.1062922549
 20
5.6650541423
 30
0.0
 11
3.1077630112
 21
5.662771302
 31
0.0
  0
LINE
  5
F9
330
1F
100
AcDbEntity
  8
0
  6
Continuous
 62
     7
370
    15
100
AcDbLine
 10
3.0957314969
 20
5.6670283995
 30
0.0
 11
3.1062922549
 21
5.6650541423
 31
0.0
  0
LINE
  5
FA
330
1F
100
AcDbEntity
  8
0
  6
Continuous
 62
     7
370
    15
100
AcDbLine
 10
3.0942967468
 20
5.665288513
 30
0.0
 11
3.0957314969
 21
5.6670283995
 31
0.0
  0
LINE
  5
FB
330
1F
100
AcDbEntity
  8
0
  6
Continuous
 62
     7
370
    15
100
AcDbLine
 10
3.0731067383
 20
5.670827169
 30
0.0
 11
3.0942967468
 21
5.665288513
 31
0.0
  0
LINE
  5
FC
330
1F
100
AcDbEntity
  8
0
  6
Continuous
 62
     7
370
    15
100
AcDbLine
 10
3.0747446927
 20
5.6795893744
 30
0.0
 11
3.0731067383
 21
5.670827169
 31
0.0
  0
LINE
  5
FD
330
1F
100
AcDbEntity
  8
0
  6
Continuous
 62
     7
370
    15
100
AcDbLine
 10
3.0840713383
 20
5.6869786491
 30
0.0
 11
3.0747446927
 21
5.6795893744
 31
0.0
  0
LINE
  5
FE
330
1F
100
AcDbEntity
  8
0
  6
Continuous
 62
     7
370
    15
100
AcDbLine
 10
3.1003444036
 20
5.6851619101
 30
0.0
 11
3.0840713383
 21
5.6869786491
 31
0.0
  0
LINE
  5
FF
330
1F
100
AcDbEntity
  8
0
  6
Continuous
 62
     7
370
    15
100
AcDbLine
 10
3.1815910784
 20
5.6699743122
 30
0.0
 11
3.1003444036
 21
5.6851619101
 31
0.0
  0
LINE
  5
100
330
1F
100
AcDbEntity
  8
0
  6
Continuous
 62
     7
370
    15
100
AcDbLine
 10
3.2304913801
 20
5.6525013807
 30
0.0
 11
3.1815910784
 21
5.6699743122
 31
0.0
  0
LINE
  5
101
330
1F
100
AcDbEntity
  8
0
  6
Continuous
 62
     7
370
    15
100
AcDbLine
 10
3.3479134103
 20
5.6285251777
 30
0.0
 11
3.2304913801
 21
5.6525013807
 31
0.0
  0
LINE
  5
102
330
1F
100
AcDbEntity
  8
0
  6
Continuous
 62
     7
370
    15
100
AcDbLine
 10
3.5206439749
 20
5.6005850604
 30
0.0
 11
3.3479134103
 21
5.6285251777
 31
0.0
  0
ARC
  5
103
330
1F
100
AcDbEntity
  8
0
  6
Continuous
 62
     7
370
    15
100
AcDbCircle
 10
3.9088869062
 20
5.5043658359
 30
0.0
 40
0.3999883576920468
100
AcDbArc
 50
161.3520585641
 51
166.0806928677
  0
LINE
  5
104
330
1F
100
AcDbEntity
  8
0
  6
Continuous
 62
     7
370
    15
100
AcDbLine
 10
3.3680028449
 20
5.6978006174
 30
0.0
 11
3.529897508
 21
5.6322629345
 31
0.0
  0
LINE
  5
105
330
1F
100
AcDbEntity
  8
0
  6
Continuous
 62
     7
370
    15
100
AcDbLine
 10
3.2537879377
 20
5.7345523662
 30
0.0
 11
3.3680028449
 21
5.6978006174
 31
0.0
  0
LINE
  5
106
330
1F
100
AcDbEntity
  8
0
  6
Continuous
 62
     7
370
    15
100
AcDbLine
 10
3.195042603
 20
5.7512107204
 30
0.0
 11
3.2537879377
 21
5.7345523662
 31
0.0
  0
LINE
  5
107
330
1F
100
AcDbEntity
  8
0
  6
Continuous
 62
     7
370
    15
100
AcDbLine
 10
3.1271374541
 20
5.7775172832
 30
0.0
 11
3.195042603
 21
5.7512107204
 31
0.0
  0
LINE
  5
108
330
1F
100
AcDbEntity
  8
0
  6
Continuous
 62
     7
370
    15
100
AcDbLine
 10
3.1122082799
 20
5.7851913812
 30
0.0
 11
3.1271374541
 21
5.7775172832
 31
0.0
  0
LINE
  5
109
330
1F
100
AcDbEntity
  8
0
  6
Continuous
 62
     7
370
    15
100
AcDbLine
 10
3.1079107029
 20
5.7957179662
 30
0.0
 11
3.1122082799
 21
5.7851913812
 31
0.0
  0
LINE
  5
10A
330
1F
100
AcDbEntity
  8
0
  6
Continuous
 62
     7
370
    15
100
AcDbLine
 10
3.1106028851
 20
5.8026673926
 30
0.0
 11
3.1079107029
 21
5.7957179662
 31
0.0
  0
LINE
  5
10B
330
1F
100
AcDbEntity
  8
0
  6
Continuous
 62
     7
370
    15
100
AcDbLine
 10
3.1316078024
 20
5.7964099316
 30
0.0
 11
3.1106028851
 21
5.8026673926
 31
0.0
  0
LINE
  5
10C
330
1F
100
AcDbEntity
  8
0
  6
Continuous
 62
     7
370
    15
100
AcDbLine
 10
3.1318610928
 20
5.7941090515
 30
0.0
 11
3.1316078024
 21
5.7964099316
 31
0.0
  0
LINE
  5
10D
330
1F
100
AcDbEntity
  8
0
  6
Continuous
 62
     7
370
    15
100
AcDbLine
 10
3.1443861348
 20
5.7892567875
 30
0.0
 11
3.1318610928
 21
5.7941090515
 31
0.0
  0
LINE
  5
10E
330
1F
100
AcDbEntity
  8
0
  6
Continuous
 62
     7
370
    15
100
AcDbLine
 10
3.1477094164
 20
5.7897598484
 30
0.0
 11
3.1443861348
 21
5.7892567875
 31
0.0
  0
ARC
  5
10F
330
1F
100
AcDbEntity
  8
0
  6
Continuous
 62
     7
370
    15
100
AcDbCircle
 10
3.1506560559
 20
5.7702966701
 30
0.0
 40
0.0196850393700788
100
AcDbArc
 50
68.8235294118
 51
98.6089632483
  0
LINE
  5
110
330
1F
100
AcDbEntity
  8
0
  6
Continuous
 62
     7
370
    15
100
AcDbLine
 10
3.1854438205
 20
5.7779304384
 30
0.0
 11
3.1577671136
 21
5.7886523812
 31
0.0
  0
ARC
  5
111
330
1F
100
AcDbEntity
  8
0
  6
Continuous
 62
     7
370
    15
100
AcDbCircle
 10
3.1892514401
 20
5.7831541007
 30
0.0
 40
0.0064641180335302
100
AcDbArc
 50
233.9114532429
 51
84.5081885397
  0
LINE
  5
112
330
1F
100
AcDbEntity
  8
0
  6
Continuous
 62
     7
370
    15
100
AcDbLine
 10
3.1582602012
 20
5.8018343356
 30
0.0
 11
3.1898700227
 21
5.7895885437
 31
0.0
  0
ARC
  5
113
330
1F
100
AcDbEntity
  8
0
  6
Continuous
 62
     7
370
    15
100
AcDbCircle
 10
3.1653712386
 20
5.8201900395
 30
0.0
 40
0.0196850393700788
100
AcDbArc
 50
220.9817218936
 51
248.8235294118
  0
LINE
  5
114
330
1F
100
AcDbEntity
  8
0
  6
Continuous
 62
     7
370
    15
100
AcDbLine
 10
3.1494843559
 20
5.809794577
 30
0.0
 11
3.1505105707
 21
5.8072802993
 31
0.0
  0
LINE
  5
115
330
1F
100
AcDbEntity
  8
0
  6
Continuous
 62
     7
370
    15
100
AcDbLine
 10
3.1394661117
 20
5.8136756255
 30
0.0
 11
3.1494843559
 21
5.809794577
 31
0.0
  0
LINE
  5
116
330
1F
100
AcDbEntity
  8
0
  6
Continuous
 62
     7
370
    15
100
AcDbLine
 10
3.1377361983
 20
5.8122290688
 30
0.0
 11
3.1394661117
 21
5.8136756255
 31
0.0
  0
LINE
  5
117
330
1F
100
AcDbEntity
  8
0
  6
Continuous
 62
     7
370
    15
100
AcDbLine
 10
3.1179246938
 20
5.821567081
 30
0.0
 11
3.1377361983
 21
5.8122290688
 31
0.0
  0
LINE
  5
118
330
1F
100
AcDbEntity
  8
0
  6
Continuous
 62
     7
370
    15
100
AcDbLine
 10
3.1211447233
 20
5.8298790249
 30
0.0
 11
3.1179246938
 21
5.821567081
 31
0.0
  0
LINE
  5
119
330
1F
100
AcDbEntity
  8
0
  6
Continuous
 62
     7
370
    15
100
AcDbLine
 10
3.1316704284
 20
5.8354288275
 30
0.0
 11
3.1211447233
 21
5.8298790249
 31
0.0
  0
LINE
  5
11A
330
1F
100
AcDbEntity
  8
0
  6
Continuous
 62
     7
370
    15
100
AcDbLine
 10
3.1473324875
 20
5.8306528293
 30
0.0
 11
3.1316704284
 21
5.8354288275
 31
0.0
  0
LINE
  5
11B
330
1F
100
AcDbEntity
  8
0
  6
Continuous
 62
     7
370
    15
100
AcDbLine
 10
3.2244052238
 20
5.8007947743
 30
0.0
 11
3.1473324875
 21
5.8306528293
 31
0.0
  0
LINE
  5
11C
330
1F
100
AcDbEntity
  8
0
  6
Continuous
 62
     7
370
    15
100
AcDbLine
 10
3.2692621189
 20
5.7746339965
 30
0.0
 11
3.2244052238
 21
5.8007947743
 31
0.0
  0
LINE
  5
11D
330
1F
100
AcDbEntity
  8
0
  6
Continuous
 62
     7
370
    15
100
AcDbLine
 10
3.3802792898
 20
5.7294897846
 30
0.0
 11
3.2692621189
 21
5.7746339965
 31
0.0
  0
LINE
  5
11E
330
1F
100
AcDbEntity
  8
0
  6
Continuous
 62
     7
370
    15
100
AcDbLine
 10
3.5449347743
 20
5.6702862686
 30
0.0
 11
3.3802792898
 21
5.7294897846
 31
0.0
  0
ARC
  5
11F
330
1F
100
AcDbEntity
  8
0
  6
Continuous
 62
     7
370
    15
100
AcDbCircle
 10
3.9088869062
 20
5.5043658359
 30
0.0
 40
0.3999883576920474
100
AcDbArc
 50
150.7638232699
 51
155.4924575736
  0
LINE
  5
120
330
1F
100
AcDbEntity
  8
0
  6
Continuous
 62
     7
370
    15
100
AcDbLine
 10
3.4127559013
 20
5.7938941873
 30
0.0
 11
3.559851482
 21
5.6997244218
 31
0.0
  0
LINE
  5
121
330
1F
100
AcDbEntity
  8
0
  6
Continuous
 62
     7
370
    15
100
AcDbLine
 10
3.3072389602
 20
5.8510071409
 30
0.0
 11
3.4127559013
 21
5.7938941873
 31
0.0
  0
LINE
  5
122
330
1F
100
AcDbEntity
  8
0
  6
Continuous
 62
     7
370
    15
100
AcDbLine
 10
3.2525547786
 20
5.8781762403
 30
0.0
 11
3.3072389602
 21
5.8510071409
 31
0.0
  0
LINE
  5
123
330
1F
100
AcDbEntity
  8
0
  6
Continuous
 62
     7
370
    15
100
AcDbLine
 10
3.1906397205
 20
5.9165125575
 30
0.0
 11
3.2525547786
 21
5.8781762403
 31
0.0
  0
LINE
  5
124
330
1F
100
AcDbEntity
  8
0
  6
Continuous
 62
     7
370
    15
100
AcDbLine
 10
3.1773749004
 20
5.926799052
 30
0.0
 11
3.1906397205
 21
5.9165125575
 31
0.0
  0
LINE
  5
125
330
1F
100
AcDbEntity
  8
0
  6
Continuous
 62
     7
370
    15
100
AcDbLine
 10
3.1750847269
 20
5.9379362033
 30
0.0
 11
3.1773749004
 21
5.926799052
 31
0.0
  0
LINE
  5
126
330
1F
100
AcDbEntity
  8
0
  6
Continuous
 62
     7
370
    15
100
AcDbLine
 10
3.1790080149
 20
5.9442725701
 30
0.0
 11
3.1750847269
 21
5.9379362033
 31
0.0
  0
LINE
  5
127
330
1F
100
AcDbEntity
  8
0
  6
Continuous
 62
     7
370
    15
100
AcDbLine
 10
3.198505363
 20
5.9342619524
 30
0.0
 11
3.1790080149
 21
5.9442725701
 31
0.0
  0
LINE
  5
128
330
1F
100
AcDbEntity
  8
0
  6
Continuous
 62
     7
370
    15
100
AcDbLine
 10
3.198331565
 20
5.9319537391
 30
0.0
 11
3.198505363
 21
5.9342619524
 31
0.0
  0
LINE
  5
129
330
1F
100
AcDbEntity
  8
0
  6
Continuous
 62
     7
370
    15
100
AcDbLine
 10
3.2097517797
 20
5.9248825808
 30
0.0
 11
3.198331565
 21
5.9319537391
 31
0.0
  0
LINE
  5
12A
330
1F
100
AcDbEntity
  8
0
  6
Continuous
 62
     7
370
    15
100
AcDbLine
 10
3.2131108476
 20
5.9247665688
 30
0.0
 11
3.2097517797
 21
5.9248825808
 31
0.0
  0
ARC
  5
12B
330
1F
100
AcDbEntity
  8
0
  6
Continuous
 62
     7
370
    15
100
AcDbCircle
 10
3.2124310395
 20
5.9050932454
 30
0.0
 40
0.0196850393700798
100
AcDbArc
 50
58.2352941176
 51
88.0207279542
  0
LINE
  5
12C
330
1F
100
AcDbEntity
  8
0
  6
Continuous
 62
     7
370
    15
100
AcDbLine
 10
3.2480291375
 20
5.9062047966
 30
0.0
 11
3.2227938157
 21
5.9218297494
 31
0.0
  0
ARC
  5
12D
330
1F
100
AcDbEntity
  8
0
  6
Continuous
 62
     7
370
    15
100
AcDbCircle
 10
3.2527318107
 20
5.9106398707
 30
0.0
 40
0.0064641180335309
100
AcDbArc
 50
223.3232179487
 51
73.9199532456
  0
LINE
  5
12E
330
1F
100
AcDbEntity
  8
0
  6
Continuous
 62
     7
370
    15
100
AcDbLine
 10
3.2257007155
 20
5.9346966674
 30
0.0
 11
3.2545222892
 21
5.9168510602
 31
0.0
  0
ARC
  5
12F
330
1F
100
AcDbEntity
  8
0
  6
Continuous
 62
     7
370
    15
100
AcDbCircle
 10
3.2360635509
 20
5.9514331776
 30
0.0
 40
0.0196850393700787
100
AcDbArc
 50
210.3934865995
 51
238.2352941176
  0
LINE
  5
130
330
1F
100
AcDbEntity
  8
0
  6
Continuous
 62
     7
370
    15
100
AcDbLine
 10
3.2185370116
 20
5.9441338251
 30
0.0
 11
3.2190837786
 21
5.9414737625
 31
0.0
  0
LINE
  5
131
330
1F
100
AcDbEntity
  8
0
  6
Continuous
 62
     7
370
    15
100
AcDbLine
 10
3.2094025704
 20
5.9497898131
 30
0.0
 11
3.2185370116
 21
5.9441338251
 31
0.0
  0
LINE
  5
132
330
1F
100
AcDbEntity
  8
0
  6
Continuous
 62
     7
370
    15
100
AcDbLine
 10
3.2074362331
 20
5.9486857191
 30
0.0
 11
3.2094025704
 21
5.9497898131
 31
0.0
  0
LINE
  5
133
330
1F
100
AcDbEntity
  8
0
  6
Continuous
 62
     7
370
    15
100
AcDbLine
 10
3.1896778916
 20
5.9615049711
 30
0.0
 11
3.2074362331
 21
5.9486857191
 31
0.0
  0
LINE
  5
134
330
1F
100
AcDbEntity
  8
0
  6
Continuous
 62
     7
370
    15
100
AcDbLine
 10
3.1943704374
 20
5.9690837368
 30
0.0
 11
3.1896778916
 21
5.9615049711
 31
0.0
  0
LINE
  5
135
330
1F
100
AcDbEntity
  8
0
  6
Continuous
 62
     7
370
    15
100
AcDbLine
 10
3.2057366794
 20
5.9726050162
 30
0.0
 11
3.1943704374
 21
5.9690837368
 31
0.0
  0
LINE
  5
136
330
1F
100
AcDbEntity
  8
0
  6
Continuous
 62
     7
370
    15
100
AcDbLine
 10
3.2202544584
 20
5.9650324103
 30
0.0
 11
3.2057366794
 21
5.9726050162
 31
0.0
  0
LINE
  5
137
330
1F
100
AcDbEntity
  8
0
  6
Continuous
 62
     7
370
    15
100
AcDbLine
 10
3.2905283932
 20
5.9215207263
 30
0.0
 11
3.2202544584
 21
5.9650324103
 31
0.0
  0
LINE
  5
138
330
1F
100
AcDbEntity
  8
0
  6
Continuous
 62
     7
370
    15
100
AcDbLine
 10
3.3298146594
 20
5.8875629452
 30
0.0
 11
3.2905283932
 21
5.9215207263
 31
0.0
  0
LINE
  5
139
330
1F
100
AcDbEntity
  8
0
  6
Continuous
 62
     7
370
    15
100
AcDbLine
 10
3.4306462413
 20
5.8227880669
 30
0.0
 11
3.3298146594
 21
5.8875629452
 31
0.0
  0
LINE
  5
13A
330
1F
100
AcDbEntity
  8
0
  6
Continuous
 62
     7
370
    15
100
AcDbLine
 10
3.5816196439
 20
5.734337062
 30
0.0
 11
3.4306462413
 21
5.8227880669
 31
0.0
  0
ARC
  5
13B
330
1F
100
AcDbEntity
  8
0
  6
Continuous
 62
     7
370
    15
100
AcDbCircle
 10
3.9088869062
 20
5.5043658359
 30
0.0
 40
0.3999883576920475
100
AcDbArc
 50
140.1755879758
 51
144.9042222795
  0
LINE
  5
13C
330
1F
100
AcDbEntity
  8
0
  6
Continuous
 62
     7
370
    15
100
AcDbLine
 10
3.4744041758
 20
5.8801282045
 30
0.0
 11
3.6016916253
 21
5.760533186
 31
0.0
  0
LINE
  5
13D
330
1F
100
AcDbEntity
  8
0
  6
Continuous
 62
     7
370
    15
100
AcDbLine
 10
3.381178346
 20
5.9556574386
 30
0.0
 11
3.4744041758
 21
5.8801282045
 31
0.0
  0
LINE
  5
13E
330
1F
100
AcDbEntity
  8
0
  6
Continuous
 62
     7
370
    15
100
AcDbLine
 10
3.3324176693
 20
5.9924121207
 30
0.0
 11
3.381178346
 21
5.9556574386
 31
0.0
  0
LINE
  5
13F
330
1F
100
AcDbEntity
  8
0
  6
Continuous
 62
     7
370
    15
100
AcDbLine
 10
3.278601011
 20
6.0414724339
 30
0.0
 11
3.3324176693
 21
5.9924121207
 31
0.0
  0
LINE
  5
140
330
1F
100
AcDbEntity
  8
0
  6
Continuous
 62
     7
370
    15
100
AcDbLine
 10
3.2674521265
 20
6.0540213823
 30
0.0
 11
3.278601011
 21
6.0414724339
 31
0.0
  0
LINE
  5
141
330
1F
100
AcDbEntity
  8
0
  6
Continuous
 62
     7
370
    15
100
AcDbLine
 10
3.2672473822
 20
6.0653896776
 30
0.0
 11
3.2674521265
 21
6.0540213823
 31
0.0
  0
LINE
  5
142
330
1F
100
AcDbEntity
  8
0
  6
Continuous
 62
     7
370
    15
100
AcDbLine
 10
3.2722681642
 20
6.0708972407
 30
0.0
 11
3.2672473822
 21
6.0653896776
 31
0.0
  0
LINE
  5
143
330
1F
100
AcDbEntity
  8
0
  6
Continuous
 62
     7
370
    15
100
AcDbLine
 10
3.289594284
 20
6.0574744624
 30
0.0
 11
3.2722681642
 21
6.0708972407
 31
0.0
  0
LINE
  5
144
330
1F
100
AcDbEntity
  8
0
  6
Continuous
 62
     7
370
    15
100
AcDbLine
 10
3.2889991176
 20
6.0552375282
 30
0.0
 11
3.289594284
 21
6.0574744624
 31
0.0
  0
LINE
  5
145
330
1F
100
AcDbEntity
  8
0
  6
Continuous
 62
     7
370
    15
100
AcDbLine
 10
3.2989256962
 20
6.0461882995
 30
0.0
 11
3.2889991176
 21
6.0552375282
 31
0.0
  0
LINE
  5
146
330
1F
100
AcDbEntity
  8
0
  6
Continuous
 62
     7
370
    15
100
AcDbLine
 10
3.3022062983
 20
6.0454570279
 30
0.0
 11
3.2989256962
 21
6.0461882995
 31
0.0
  0
ARC
  5
147
330
1F
100
AcDbEntity
  8
0
  6
Continuous
 62
     7
370
    15
100
AcDbCircle
 10
3.2979229924
 20
6.0262435294
 30
0.0
 40
0.019685039370079
100
AcDbArc
 50
47.6470588235
 51
77.4324926601
  0
LINE
  5
148
330
1F
100
AcDbEntity
  8
0
  6
Continuous
 62
     7
370
    15
100
AcDbLine
 10
3.3331193146
 20
6.0207950195
 30
0.0
 11
3.311184688
 21
6.0407910285
 31
0.0
  0
ARC
  5
149
330
1F
100
AcDbEntity
  8
0
  6
Continuous
 62
     7
370
    15
100
AcDbCircle
 10
3.338556756
 20
6.0242904656
 30
0.0
 40
0.0064641180335316
100
AcDbArc
 50
212.7349826546
 51
63.3317179515
  0
LINE
  5
14A
330
1F
100
AcDbEntity
  8
0
  6
Continuous
 62
     7
370
    15
100
AcDbLine
 10
3.316406401
 20
6.0529046752
 30
0.0
 11
3.3414579516
 21
6.0300668857
 31
0.0
  0
ARC
  5
14B
330
1F
100
AcDbEntity
  8
0
  6
Continuous
 62
     7
370
    15
100
AcDbCircle
 10
3.3296680556
 20
6.0674519737
 30
0.0
 40
0.019685039370079
100
AcDbArc
 50
199.8052513054
 51
227.6470588235
  0
LINE
  5
14C
330
1F
100
AcDbEntity
  8
0
  6
Continuous
 62
     7
370
    15
100
AcDbLine
 10
3.3110987423
 20
6.0634974062
 30
0.0
 11
3.3111474351
 21
6.0607823442
 31
0.0
  0
LINE
  5
14D
330
1F
100
AcDbEntity
  8
0
  6
Continuous
 62
     7
370
    15
100
AcDbLine
 10
3.303159034
 20
6.0707356159
 30
0.0
 11
3.3110987423
 21
6.0634974062
 31
0.0
  0
LINE
  5
14E
330
1F
100
AcDbEntity
  8
0
  6
Continuous
 62
     7
370
    15
100
AcDbLine
 10
3.3010232987
 20
6.0700113842
 30
0.0
 11
3.303159034
 21
6.0707356159
 31
0.0
  0
LINE
  5
14F
330
1F
100
AcDbEntity
  8
0
  6
Continuous
 62
     7
370
    15
100
AcDbLine
 10
3.2859229664
 20
6.0858755476
 30
0.0
 11
3.3010232987
 21
6.0700113842
 31
0.0
  0
LINE
  5
150
330
1F
100
AcDbEntity
  8
0
  6
Continuous
 62
     7
370
    15
100
AcDbLine
 10
3.2919281637
 20
6.0924631515
 30
0.0
 11
3.2859229664
 21
6.0858755476
 31
0.0
  0
LINE
  5
151
330
1F
100
AcDbEntity
  8
0
  6
Continuous
 62
     7
370
    15
100
AcDbLine
 10
3.3037478939
 20
6.0938359357
 30
0.0
 11
3.2919281637
 21
6.0924631515
 31
0.0
  0
LINE
  5
152
330
1F
100
AcDbEntity
  8
0
  6
Continuous
 62
     7
370
    15
100
AcDbLine
 10
3.3166269851
 20
6.0837245592
 30
0.0
 11
3.3037478939
 21
6.0938359357
 31
0.0
  0
LINE
  5
153
330
1F
100
AcDbEntity
  8
0
  6
Continuous
 62
     7
370
    15
100
AcDbLine
 10
3.3777091328
 20
6.0280408558
 30
0.0
 11
3.3166269851
 21
6.0837245592
 31
0.0
  0
LINE
  5
154
330
1F
100
AcDbEntity
  8
0
  6
Continuous
 62
     7
370
    15
100
AcDbLine
 10
3.4100865988
 20
5.9874425248
 30
0.0
 11
3.3777091328
 21
6.0280408558
 31
0.0
  0
LINE
  5
155
330
1F
100
AcDbEntity
  8
0
  6
Continuous
 62
     7
370
    15
100
AcDbLine
 10
3.4972991646
 20
5.905242821
 30
0.0
 11
3.4100865988
 21
5.9874425248
 31
0.0
  0
LINE
  5
156
330
1F
100
AcDbEntity
  8
0
  6
Continuous
 62
     7
370
    15
100
AcDbLine
 10
3.629448998
 20
5.7905566792
 30
0.0
 11
3.4972991646
 21
5.905242821
 31
0.0
  0
ARC
  5
157
330
1F
100
AcDbEntity
  8
0
  6
Continuous
 62
     7
370
    15
100
AcDbCircle
 10
3.9088869062
 20
5.5043658359
 30
0.0
 40
0.3999883576920472
100
AcDbArc
 50
129.5873526817
 51
134.3159869854
  0
LINE
  5
158
330
1F
100
AcDbEntity
  8
0
  6
Continuous
 62
     7
370
    15
100
AcDbLine
 10
3.5508481593
 20
5.9535661428
 30
0.0
 11
3.6539927945
 21
5.8126184643
 31
0.0
  0
LINE
  5
159
330
1F
100
AcDbEntity
  8
0
  6
Continuous
 62
     7
370
    15
100
AcDbLine
 10
3.473088151
 20
6.0449395939
 30
0.0
 11
3.5508481593
 21
5.9535661428
 31
0.0
  0
LINE
  5
15A
330
1F
100
AcDbEntity
  8
0
  6
Continuous
 62
     7
370
    15
100
AcDbLine
 10
3.4319113733
 20
6.0900282197
 30
0.0
 11
3.473088151
 21
6.0449395939
 31
0.0
  0
LINE
  5
15B
330
1F
100
AcDbEntity
  8
0
  6
Continuous
 62
     7
370
    15
100
AcDbLine
 10
3.3880259869
 20
6.1481418683
 30
0.0
 11
3.4319113733
 21
6.0900282197
 31
0.0
  0
LINE
  5
15C
330
1F
100
AcDbEntity
  8
0
  6
Continuous
 62
     7
370
    15
100
AcDbLine
 10
3.3793727536
 20
6.1625258888
 30
0.0
 11
3.3880259869
 21
6.1481418683
 31
0.0
  0
LINE
  5
15D
330
1F
100
AcDbEntity
  8
0
  6
Continuous
 62
     7
370
    15
100
AcDbLine
 10
3.3812604784
 20
6.1737381327
 30
0.0
 11
3.3793727536
 21
6.1625258888
 31
0.0
  0
LINE
  5
15E
330
1F
100
AcDbEntity
  8
0
  6
Continuous
 62
     7
370
    15
100
AcDbLine
 10
3.3872077431
 20
6.1782293074
 30
0.0
 11
3.3812604784
 21
6.1737381327
 31
0.0
  0
LINE
  5
15F
330
1F
100
AcDbEntity
  8
0
  6
Continuous
 62
     7
370
    15
100
AcDbLine
 10
3.4017723081
 20
6.1618515233
 30
0.0
 11
3.3872077431
 21
6.1782293074
 31
0.0
  0
LINE
  5
160
330
1F
100
AcDbEntity
  8
0
  6
Continuous
 62
     7
370
    15
100
AcDbLine
 10
3.4007763063
 20
6.1597618408
 30
0.0
 11
3.4017723081
 21
6.1618515233
 31
0.0
  0
LINE
  5
161
330
1F
100
AcDbEntity
  8
0
  6
Continuous
 62
     7
370
    15
100
AcDbLine
 10
3.4088710395
 20
6.1490426846
 30
0.0
 11
3.4007763063
 21
6.1597618408
 31
0.0
  0
LINE
  5
162
330
1F
100
AcDbEntity
  8
0
  6
Continuous
 62
     7
370
    15
100
AcDbLine
 10
3.4119614171
 20
6.1477212332
 30
0.0
 11
3.4088710395
 21
6.1490426846
 31
0.0
  0
ARC
  5
163
330
1F
100
AcDbEntity
  8
0
  6
Continuous
 62
     7
370
    15
100
AcDbCircle
 10
3.4042205886
 20
6.1296218945
 30
0.0
 40
0.01968503937008
100
AcDbArc
 50
37.0588235294
 51
66.844257366
  0
LINE
  5
164
330
1F
100
AcDbEntity
  8
0
  6
Continuous
 62
     7
370
    15
100
AcDbLine
 10
3.4378163984
 20
6.1177989389
 30
0.0
 11
3.4199295784
 21
6.1414847452
 31
0.0
  0
ARC
  5
165
330
1F
100
AcDbEntity
  8
0
  6
Continuous
 62
     7
370
    15
100
AcDbCircle
 10
3.4438036107
 20
6.1202356508
 30
0.0
 40
0.0064641180335313
100
AcDbArc
 50
202.1467473605
 51
52.7434826573
  0
LINE
  5
166
330
1F
100
AcDbEntity
  8
0
  6
Continuous
 62
     7
370
    15
100
AcDbLine
 10
3.4272882
 20
6.1524326988
 30
0.0
 11
3.4477168707
 21
6.1253806379
 31
0.0
  0
ARC
  5
167
330
1F
100
AcDbEntity
  8
0
  6
Continuous
 62
     7
370
    15
100
AcDbCircle
 10
3.4429971635
 20
6.1642955467
 30
0.0
 40
0.0196850393700787
100
AcDbArc
 50
189.2170160112
 51
217.0588235294
  0
LINE
  5
168
330
1F
100
AcDbEntity
  8
0
  6
Continuous
 62
     7
370
    15
100
AcDbLine
 10
3.4240174245
 20
6.1638203539
 30
0.0
 11
3.423566283
 21
6.1611425448
 31
0.0
  0
LINE
  5
169
330
1F
100
AcDbEntity
  8
0
  6
Continuous
 62
     7
370
    15
100
AcDbLine
 10
3.4175427526
 20
6.1723940948
 30
0.0
 11
3.4240174245
 21
6.1638203539
 31
0.0
  0
LINE
  5
16A
330
1F
100
AcDbEntity
  8
0
  6
Continuous
 62
     7
370
    15
100
AcDbLine
 10
3.4153105117
 20
6.1720749519
 30
0.0
 11
3.4175427526
 21
6.1723940948
 31
0.0
  0
LINE
  5
16B
330
1F
100
AcDbEntity
  8
0
  6
Continuous
 62
     7
370
    15
100
AcDbLine
 10
3.4033822495
 20
6.1904435663
 30
0.0
 11
3.4153105117
 21
6.1720749519
 31
0.0
  0
LINE
  5
16C
330
1F
100
AcDbEntity
  8
0
  6
Continuous
 62
     7
370
    15
100
AcDbLine
 10
3.4104956474
 20
6.1958156109
 30
0.0
 11
3.4033822495
 21
6.1904435663
 31
0.0
  0
LINE
  5
16D
330
1F
100
AcDbEntity
  8
0
  6
Continuous
 62
     7
370
    15
100
AcDbLine
 10
3.4223662702
 20
6.1949931138
 30
0.0
 11
3.4104956474
 21
6.1958156109
 31
0.0
  0
LINE
  5
16E
330
1F
100
AcDbEntity
  8
0
  6
Continuous
 62
     7
370
    15
100
AcDbLine
 10
3.4331682921
 20
6.1826873359
 30
0.0
 11
3.4223662702
 21
6.1949931138
 31
0.0
  0
LINE
  5
16F
330
1F
100
AcDbEntity
  8
0
  6
Continuous
 62
     7
370
    15
100
AcDbLine
 10
3.4829785034
 20
6.1167279912
 30
0.0
 11
3.4331682921
 21
6.1826873359
 31
0.0
  0
LINE
  5
170
330
1F
100
AcDbEntity
  8
0
  6
Continuous
 62
     7
370
    15
100
AcDbLine
 10
3.5073448352
 20
6.0708714276
 30
0.0
 11
3.4829785034
 21
6.1167279912
 31
0.0
  0
LINE
  5
171
330
1F
100
AcDbEntity
  8
0
  6
Continuous
 62
     7
370
    15
100
AcDbLine
 10
3.577968126
 20
5.9740461462
 30
0.0
 11
3.5073448352
 21
6.0708714276
 31
0.0
  0
LINE
  5
172
330
1F
100
AcDbEntity
  8
0
  6
Continuous
 62
     7
370
    15
100
AcDbLine
 10
3.6867944155
 20
5.8370302623
 30
0.0
 11
3.577968126
 21
5.9740461462
 31
0.0
  0
ARC
  5
173
330
1F
100
AcDbEntity
  8
0
  6
Continuous
 62
     7
370
    15
100
AcDbCircle
 10
3.9088869062
 20
5.5043658359
 30
0.0
 40
0.3999883576920478
100
AcDbArc
 50
118.9991173876
 51
123.7277516913
  0
LINE
  5
174
330
1F
100
AcDbEntity
  8
0
  6
Continuous
 62
     7
370
    15
100
AcDbLine
 10
3.6394848421
 20
6.0117070711
 30
0.0
 11
3.7149740367
 21
5.8542064906
 31
0.0
  0
LINE
  5
175
330
1F
100
AcDbEntity
  8
0
  6
Continuous
 62
     7
370
    15
100
AcDbLine
 10
3.5798386911
 20
6.1158130951
 30
0.0
 11
3.6394848421
 21
6.0117070711
 31
0.0
  0
LINE
  5
176
330
1F
100
AcDbEntity
  8
0
  6
Continuous
 62
     7
370
    15
100
AcDbLine
 10
3.5476479296
 20
6.1677002291
 30
0.0
 11
3.5798386911
 21
6.1158130951
 31
0.0
  0
LINE
  5
177
330
1F
100
AcDbEntity
  8
0
  6
Continuous
 62
     7
370
    15
100
AcDbLine
 10
3.5151881846
 20
6.2328884093
 30
0.0
 11
3.5476479296
 21
6.1677002291
 31
0.0
  0
LINE
  5
178
330
1F
100
AcDbEntity
  8
0
  6
Continuous
 62
     7
370
    15
100
AcDbLine
 10
3.5093252523
 20
6.2486173476
 30
0.0
 11
3.5151881846
 21
6.2328884093
 31
0.0
  0
LINE
  5
179
330
1F
100
AcDbEntity
  8
0
  6
Continuous
 62
     7
370
    15
100
AcDbLine
 10
3.5132410604
 20
6.2592919177
 30
0.0
 11
3.5093252523
 21
6.2486173476
 31
0.0
  0
LINE
  5
17A
330
1F
100
AcDbEntity
  8
0
  6
Continuous
 62
     7
370
    15
100
AcDbLine
 10
3.51991241
 20
6.2626138793
 30
0.0
 11
3.5132410604
 21
6.2592919177
 31
0.0
  0
LINE
  5
17B
330
1F
100
AcDbEntity
  8
0
  6
Continuous
 62
     7
370
    15
100
AcDbLine
 10
3.5312195461
 20
6.2438384162
 30
0.0
 11
3.51991241
 21
6.2626138793
 31
0.0
  0
LINE
  5
17C
330
1F
100
AcDbEntity
  8
0
  6
Continuous
 62
     7
370
    15
100
AcDbLine
 10
3.5298565885
 20
6.2419675578
 30
0.0
 11
3.5312195461
 21
6.2438384162
 31
0.0
  0
LINE
  5
17D
330
1F
100
AcDbEntity
  8
0
  6
Continuous
 62
     7
370
    15
100
AcDbLine
 10
3.5358438927
 20
6.22994367
 30
0.0
 11
3.5298565885
 21
6.2419675578
 31
0.0
  0
LINE
  5
17E
330
1F
100
AcDbEntity
  8
0
  6
Continuous
 62
     7
370
    15
100
AcDbLine
 10
3.5386387404
 20
6.2280766249
 30
0.0
 11
3.5358438927
 21
6.22994367
 31
0.0
  0
ARC
  5
17F
330
1F
100
AcDbEntity
  8
0
  6
Continuous
 62
     7
370
    15
100
AcDbCircle
 10
3.527703991
 20
6.2117079144
 30
0.0
 40
0.0196850393700781
100
AcDbArc
 50
26.4705882353
 51
56.2560220718
  0
LINE
  5
180
330
1F
100
AcDbEntity
  8
0
  6
Continuous
 62
     7
370
    15
100
AcDbLine
 10
3.558555257
 20
6.1939127796
 30
0.0
 11
3.5453253431
 21
6.2204823127
 31
0.0
  0
ARC
  5
181
330
1F
100
AcDbEntity
  8
0
  6
Continuous
 62
     7
370
    15
100
AcDbCircle
 10
3.5648883191
 20
6.1952081282
 30
0.0
 40
0.0064641180335307
100
AcDbArc
 50
191.5585120664
 51
42.1552473632
  0
LINE
  5
182
330
1F
100
AcDbEntity
  8
0
  6
Continuous
 62
     7
370
    15
100
AcDbLine
 10
3.554570223
 20
6.2298917506
 30
0.0
 11
3.5696803818
 21
6.1995464745
 31
0.0
  0
ARC
  5
183
330
1F
100
AcDbEntity
  8
0
  6
Continuous
 62
     7
370
    15
100
AcDbCircle
 10
3.5721915878
 20
6.2386660048
 30
0.0
 40
0.0196850393700789
100
AcDbArc
 50
178.6287807171
 51
206.4705882353
  0
LINE
  5
184
330
1F
100
AcDbEntity
  8
0
  6
Continuous
 62
     7
370
    15
100
AcDbLine
 10
3.5534476493
 20
6.2416865477
 30
0.0
 11
3.5525122201
 21
6.2391369238
 31
0.0
  0
LINE
  5
185
330
1F
100
AcDbEntity
  8
0
  6
Continuous
 62
     7
370
    15
100
AcDbLine
 10
3.5486587446
 20
6.2513039566
 30
0.0
 11
3.5534476493
 21
6.2416865477
 31
0.0
  0
LINE
  5
186
330
1F
100
AcDbEntity
  8
0
  6
Continuous
 62
     7
370
    15
100
AcDbLine
 10
3.546405824
 20
6.2514004622
 30
0.0
 11
3.5486587446
 21
6.2513039566
 31
0.0
  0
LINE
  5
187
330
1F
100
AcDbEntity
  8
0
  6
Continuous
 62
     7
370
    15
100
AcDbLine
 10
3.5380558938
 20
6.2716481483
 30
0.0
 11
3.546405824
 21
6.2514004622
 31
0.0
  0
LINE
  5
188
330
1F
100
AcDbEntity
  8
0
  6
Continuous
 62
     7
370
    15
100
AcDbLine
 10
3.5460352016
 20
6.2756213024
 30
0.0
 11
3.5380558938
 21
6.2716481483
 31
0.0
  0
LINE
  5
189
330
1F
100
AcDbEntity
  8
0
  6
Continuous
 62
     7
370
    15
100
AcDbLine
 10
3.5575526552
 20
6.2726316836
 30
0.0
 11
3.5460352016
 21
6.2756213024
 31
0.0
  0
LINE
  5
18A
330
1F
100
AcDbEntity
  8
0
  6
Continuous
 62
     7
370
    15
100
AcDbLine
 10
3.5659096253
 20
6.2585506729
 30
0.0
 11
3.5575526552
 21
6.2726316836
 31
0.0
  0
LINE
  5
18B
330
1F
100
AcDbEntity
  8
0
  6
Continuous
 62
     7
370
    15
100
AcDbLine
 10
3.6027517197
 20
6.1845617143
 30
0.0
 11
3.5659096253
 21
6.2585506729
 31
0.0
  0
LINE
  5
18C
330
1F
100
AcDbEntity
  8
0
  6
Continuous
 62
     7
370
    15
100
AcDbLine
 10
3.6182769404
 20
6.1350089001
 30
0.0
 11
3.6027517197
 21
6.1845617143
 31
0.0
  0
LINE
  5
18D
330
1F
100
AcDbEntity
  8
0
  6
Continuous
 62
     7
370
    15
100
AcDbLine
 10
3.6699062373
 20
6.0268552161
 30
0.0
 11
3.6182769404
 21
6.1350089001
 31
0.0
  0
LINE
  5
18E
330
1F
100
AcDbEntity
  8
0
  6
Continuous
 62
     7
370
    15
100
AcDbLine
 10
3.7517029057
 20
5.872175443
 30
0.0
 11
3.6699062373
 21
6.0268552161
 31
0.0
  0
ARC
  5
18F
330
1F
100
AcDbEntity
  8
0
  6
Continuous
 62
     7
370
    15
100
AcDbCircle
 10
3.9088869062
 20
5.5043658359
 30
0.0
 40
0.3999883576920476
100
AcDbArc
 50
108.4108820935
 51
113.1395163971
  0
LINE
  5
190
330
1F
100
AcDbEntity
  8
0
  6
Continuous
 62
     7
370
    15
100
AcDbLine
 10
3.7372957121
 20
6.052571159
 30
0.0
 11
3.7825588693
 21
5.8838812144
 31
0.0
  0
LINE
  5
191
330
1F
100
AcDbEntity
  8
0
  6
Continuous
 62
     7
370
    15
100
AcDbLine
 10
3.6977944351
 20
6.1658642769
 30
0.0
 11
3.7372957121
 21
6.052571159
 31
0.0
  0
LINE
  5
192
330
1F
100
AcDbEntity
  8
0
  6
Continuous
 62
     7
370
    15
100
AcDbLine
 10
3.6756861572
 20
6.2227831927
 30
0.0
 11
3.6977944351
 21
6.1658642769
 31
0.0
  0
LINE
  5
193
330
1F
100
AcDbEntity
  8
0
  6
Continuous
 62
     7
370
    15
100
AcDbLine
 10
3.6557573208
 20
6.2928259836
 30
0.0
 11
3.6756861572
 21
6.2227831927
 31
0.0
  0
LINE
  5
194
330
1F
100
AcDbEntity
  8
0
  6
Continuous
 62
     7
370
    15
100
AcDbLine
 10
3.6528844473
 20
6.3093642192
 30
0.0
 11
3.6557573208
 21
6.2928259836
 31
0.0
  0
LINE
  5
195
330
1F
100
AcDbEntity
  8
0
  6
Continuous
 62
     7
370
    15
100
AcDbLine
 10
3.6586950202
 20
6.3191376796
 30
0.0
 11
3.6528844473
 21
6.3093642192
 31
0.0
  0
LINE
  5
196
330
1F
100
AcDbEntity
  8
0
  6
Continuous
 62
     7
370
    15
100
AcDbLine
 10
3.665863124
 20
6.3211769094
 30
0.0
 11
3.6586950202
 21
6.3191376796
 31
0.0
  0
LINE
  5
197
330
1F
100
AcDbEntity
  8
0
  6
Continuous
 62
     7
370
    15
100
AcDbLine
 10
3.6735278355
 20
6.3006438133
 30
0.0
 11
3.665863124
 21
6.3211769094
 31
0.0
  0
LINE
  5
198
330
1F
100
AcDbEntity
  8
0
  6
Continuous
 62
     7
370
    15
100
AcDbLine
 10
3.6718442682
 20
6.2990551383
 30
0.0
 11
3.6735278355
 21
6.3006438133
 31
0.0
  0
LINE
  5
199
330
1F
100
AcDbEntity
  8
0
  6
Continuous
 62
     7
370
    15
100
AcDbLine
 10
3.6755201325
 20
6.2861357142
 30
0.0
 11
3.6718442682
 21
6.2990551383
 31
0.0
  0
LINE
  5
19A
330
1F
100
AcDbEntity
  8
0
  6
Continuous
 62
     7
370
    15
100
AcDbLine
 10
3.6779244113
 20
6.2837870214
 30
0.0
 11
3.6755201325
 21
6.2861357142
 31
0.0
  0
ARC
  5
19B
330
1F
100
AcDbEntity
  8
0
  6
Continuous
 62
     7
370
    15
100
AcDbCircle
 10
3.6641681203
 20
6.2697062482
 30
0.0
 40
0.0196850393700788
100
AcDbArc
 50
15.8823529412
 51
45.6677867777
  0
LINE
  5
19C
330
1F
100
AcDbEntity
  8
0
  6
Continuous
 62
     7
370
    15
100
AcDbLine
 10
3.6912242844
 20
6.2465452649
 30
0.0
 11
3.6831016849
 21
6.2750933085
 31
0.0
  0
ARC
  5
19D
330
1F
100
AcDbEntity
  8
0
  6
Continuous
 62
     7
370
    15
100
AcDbCircle
 10
3.6976874868
 20
6.2466547998
 30
0.0
 40
0.006464118033531
100
AcDbArc
 50
180.9702767723
 51
31.5670120691
  0
LINE
  5
19E
330
1F
100
AcDbEntity
  8
0
  6
Continuous
 62
     7
370
    15
100
AcDbLine
 10
3.6939182266
 20
6.2826436212
 30
0.0
 11
3.7031950794
 21
6.2500388246
 31
0.0
  0
ARC
  5
19F
330
1F
100
AcDbEntity
  8
0
  6
Continuous
 62
     7
370
    15
100
AcDbCircle
 10
3.7128517674
 20
6.2880307515
 30
0.0
 40
0.0196850393700791
100
AcDbArc
 50
168.040545423
 51
195.8823529412
  0
LINE
  5
1A0
330
1F
100
AcDbEntity
  8
0
  6
Continuous
 62
     7
370
    15
100
AcDbLine
 10
3.6949819876
 20
6.2944439916
 30
0.0
 11
3.6935939503
 21
6.2921099652
 31
0.0
  0
LINE
  5
1A1
330
1F
100
AcDbEntity
  8
0
  6
Continuous
 62
     7
370
    15
100
AcDbLine
 10
3.6920417949
 20
6.3047777122
 30
0.0
 11
3.6949819876
 21
6.2944439916
 31
0.0
  0
LINE
  5
1A2
330
1F
100
AcDbEntity
  8
0
  6
Continuous
 62
     7
370
    15
100
AcDbLine
 10
3.6898449003
 20
6.3052863463
 30
0.0
 11
3.6920417949
 21
6.3047777122
 31
0.0
  0
LINE
  5
1A3
330
1F
100
AcDbEntity
  8
0
  6
Continuous
 62
     7
370
    15
100
AcDbLine
 10
3.6853576855
 20
6.3267237787
 30
0.0
 11
3.6898449003
 21
6.3052863463
 31
0.0
  0
LINE
  5
1A4
330
1F
100
AcDbEntity
  8
0
  6
Continuous
 62
     7
370
    15
100
AcDbLine
 10
3.6939312798
 20
6.3291631105
 30
0.0
 11
3.6853576855
 21
6.3267237787
 31
0.0
  0
LINE
  5
1A5
330
1F
100
AcDbEntity
  8
0
  6
Continuous
 62
     7
370
    15
100
AcDbLine
 10
3.7047032353
 20
6.3241078622
 30
0.0
 11
3.6939312798
 21
6.3291631105
 31
0.0
  0
LINE
  5
1A6
330
1F
100
AcDbEntity
  8
0
  6
Continuous
 62
     7
370
    15
100
AcDbLine
 10
3.710330477
 20
6.3087312132
 30
0.0
 11
3.7047032353
 21
6.3241078622
 31
0.0
  0
LINE
  5
1A7
330
1F
100
AcDbEntity
  8
0
  6
Continuous
 62
     7
370
    15
100
AcDbLine
 10
3.7329498824
 20
6.2292323449
 30
0.0
 11
3.710330477
 21
6.3087312132
 31
0.0
  0
LINE
  5
1A8
330
1F
100
AcDbEntity
  8
0
  6
Continuous
 62
     7
370
    15
100
AcDbLine
 10
3.7391055579
 20
6.1776705139
 30
0.0
 11
3.7329498824
 21
6.2292323449
 31
0.0
  0
LINE
  5
1A9
330
1F
100
AcDbEntity
  8
0
  6
Continuous
 62
     7
370
    15
100
AcDbLine
 10
3.7699824945
 20
6.0618714783
 30
0.0
 11
3.7391055579
 21
6.1776705139
 31
0.0
  0
LINE
  5
1AA
330
1F
100
AcDbEntity
  8
0
  6
Continuous
 62
     7
370
    15
100
AcDbLine
 10
3.8219640807
 20
5.8947952884
 30
0.0
 11
3.7699824945
 21
6.0618714783
 31
0.0
  0
ARC
  5
1AB
330
1F
100
AcDbEntity
  8
0
  6
Continuous
 62
     7
370
    15
100
AcDbCircle
 10
3.9088869062
 20
5.5043658359
 30
0.0
 40
0.3999883576920482
100
AcDbArc
 50
97.8226467993
 51
102.551281103
  0
LINE
  5
1AC
330
1F
100
AcDbEntity
  8
0
  6
Continuous
 62
     7
370
    15
100
AcDbLine
 10
3.8409497147
 20
6.0747668493
 30
0.0
 11
3.8544456788
 21
5.9006319676
 31
0.0
  0
LINE
  5
1AD
330
1F
100
AcDbEntity
  8
0
  6
Continuous
 62
     7
370
    15
100
AcDbLine
 10
3.8229386695
 20
6.1933891856
 30
0.0
 11
3.8409497147
 21
6.0747668493
 31
0.0
  0
LINE
  5
1AE
330
1F
100
AcDbEntity
  8
0
  6
Continuous
 62
     7
370
    15
100
AcDbLine
 10
3.8116657064
 20
6.2534012657
 30
0.0
 11
3.8229386695
 21
6.1933891856
 31
0.0
  0
LINE
  5
1AF
330
1F
100
AcDbEntity
  8
0
  6
Continuous
 62
     7
370
    15
100
AcDbLine
 10
3.8049463973
 20
6.325913308
 30
0.0
 11
3.8116657064
 21
6.2534012657
 31
0.0
  0
LINE
  5
1B0
330
1F
100
AcDbEntity
  8
0
  6
Continuous
 62
     7
370
    15
100
AcDbLine
 10
3.8051614082
 20
6.3426979408
 30
0.0
 11
3.8049463973
 21
6.325913308
 31
0.0
  0
LINE
  5
1B1
330
1F
100
AcDbEntity
  8
0
  6
Continuous
 62
     7
370
    15
100
AcDbLine
 10
3.8126688948
 20
6.3512370688
 30
0.0
 11
3.8051614082
 21
6.3426979408
 31
0.0
  0
LINE
  5
1B2
330
1F
100
AcDbEntity
  8
0
  6
Continuous
 62
     7
370
    15
100
AcDbLine
 10
3.8200897024
 20
6.3519249276
 30
0.0
 11
3.8126688948
 21
6.3512370688
 31
0.0
  0
LINE
  5
1B3
330
1F
100
AcDbEntity
  8
0
  6
Continuous
 62
     7
370
    15
100
AcDbLine
 10
3.8238509256
 20
6.3303329103
 30
0.0
 11
3.8200897024
 21
6.3519249276
 31
0.0
  0
LINE
  5
1B4
330
1F
100
AcDbEntity
  8
0
  6
Continuous
 62
     7
370
    15
100
AcDbLine
 10
3.8219042414
 20
6.3290806848
 30
0.0
 11
3.8238509256
 21
6.3303329103
 31
0.0
  0
LINE
  5
1B5
330
1F
100
AcDbEntity
  8
0
  6
Continuous
 62
     7
370
    15
100
AcDbLine
 10
3.8231435604
 20
6.3157057193
 30
0.0
 11
3.8219042414
 21
6.3290806848
 31
0.0
  0
LINE
  5
1B6
330
1F
100
AcDbEntity
  8
0
  6
Continuous
 62
     7
370
    15
100
AcDbLine
 10
3.8250751381
 20
6.3129551644
 30
0.0
 11
3.8231435604
 21
6.3157057193
 31
0.0
  0
ARC
  5
1B7
330
1F
100
AcDbEntity
  8
0
  6
Continuous
 62
     7
370
    15
100
AcDbCircle
 10
3.8089658544
 20
6.3016418322
 30
0.0
 40
0.019685039370079
100
AcDbArc
 50
5.2941176471
 51
35.0795514836
  0
LINE
  5
1B8
330
1F
100
AcDbEntity
  8
0
  6
Continuous
 62
     7
370
    15
100
AcDbLine
 10
3.8313056128
 20
6.2739038555
 30
0.0
 11
3.8285669378
 21
6.3034580208
 31
0.0
  0
ARC
  5
1B9
330
1F
100
AcDbEntity
  8
0
  6
Continuous
 62
     7
370
    15
100
AcDbCircle
 10
3.8376787975
 20
6.2728237111
 30
0.0
 40
0.006464118033531
100
AcDbArc
 50
170.3820414781
 51
20.978776775
  0
LINE
  5
1BA
330
1F
100
AcDbEntity
  8
0
  6
Continuous
 62
     7
370
    15
100
AcDbLine
 10
3.8405865723
 20
6.3088925447
 30
0.0
 11
3.8437144961
 21
6.2751378946
 31
0.0
  0
ARC
  5
1BB
330
1F
100
AcDbEntity
  8
0
  6
Continuous
 62
     7
370
    15
100
AcDbCircle
 10
3.8601876885
 20
6.3107087293
 30
0.0
 40
0.0196850393700782
100
AcDbArc
 50
157.4523101289
 51
185.2941176471
  0
LINE
  5
1BC
330
1F
100
AcDbEntity
  8
0
  6
Continuous
 62
     7
370
    15
100
AcDbLine
 10
3.8438005885
 20
6.3202963329
 30
0.0
 11
3.8420073158
 21
6.3182571032
 31
0.0
  0
LINE
  5
1BD
330
1F
100
AcDbEntity
  8
0
  6
Continuous
 62
     7
370
    15
100
AcDbLine
 10
3.8428092799
 20
6.3309943693
 30
0.0
 11
3.8438005885
 21
6.3202963329
 31
0.0
  0
LINE
  5
1BE
330
1F
100
AcDbEntity
  8
0
  6
Continuous
 62
     7
370
    15
100
AcDbLine
 10
3.8407433571
 20
6.3318981189
 30
0.0
 11
3.8428092799
 21
6.3309943693
 31
0.0
  0
LINE
  5
1BF
330
1F
100
AcDbEntity
  8
0
  6
Continuous
 62
     7
370
    15
100
AcDbLine
 10
3.8402715359
 20
6.353794906
 30
0.0
 11
3.8407433571
 21
6.3318981189
 31
0.0
  0
LINE
  5
1C0
330
1F
100
AcDbEntity
  8
0
  6
Continuous
 62
     7
370
    15
100
AcDbLine
 10
3.8491475534
 20
6.3546174031
 30
0.0
 11
3.8402715359
 21
6.353794906
 31
0.0
  0
LINE
  5
1C1
330
1F
100
AcDbEntity
  8
0
  6
Continuous
 62
     7
370
    15
100
AcDbLine
 10
3.8588070551
 20
6.3476690034
 30
0.0
 11
3.8491475534
 21
6.3546174031
 31
0.0
  0
LINE
  5
1C2
330
1F
100
AcDbEntity
  8
0
  6
Continuous
 62
     7
370
    15
100
AcDbLine
 10
3.8615130238
 20
6.3315200166
 30
0.0
 11
3.8588070551
 21
6.3476690034
 31
0.0
  0
LINE
  5
1C3
330
1F
100
AcDbEntity
  8
0
  6
Continuous
 62
     7
370
    15
100
AcDbLine
 10
3.8691394557
 20
6.2492183807
 30
0.0
 11
3.8615130238
 21
6.3315200166
 31
0.0
  0
LINE
  5
1C4
330
1F
100
AcDbEntity
  8
0
  6
Continuous
 62
     7
370
    15
100
AcDbLine
 10
3.8657157086
 20
6.1974034059
 30
0.0
 11
3.8691394557
 21
6.2492183807
 31
0.0
  0
LINE
  5
1C5
330
1F
100
AcDbEntity
  8
0
  6
Continuous
 62
     7
370
    15
100
AcDbLine
 10
3.8747888438
 20
6.0779022531
 30
0.0
 11
3.8657157086
 21
6.1974034059
 31
0.0
  0
LINE
  5
1C6
330
1F
100
AcDbEntity
  8
0
  6
Continuous
 62
     7
370
    15
100
AcDbLine
 10
3.8951853949
 20
5.904119514
 30
0.0
 11
3.8747888438
 21
6.0779022531
 31
0.0
  0
ARC
  5
1C7
330
1F
100
AcDbEntity
  8
0
  6
Continuous
 62
     7
370
    15
100
AcDbCircle
 10
3.9088869062
 20
5.5043658359
 30
0.0
 40
0.3999883576920478
100
AcDbArc
 50
90.4286773004
 51
91.9630458089
  0
LINE
  5
1C8
330
1F
100
AcDbEntity
  8
0
  6
Continuous
 62
     7
370
    15
100
AcDbLine
 10
3.8988470326
 20
6.1013812619
 30
0.0
 11
3.9058942845
 21
5.9043430314
 31
0.0
  0
LINE
  5
1C9
330
1F
100
AcDbEntity
  8
0
  6
Continuous
 62
     7
370
    15
100
AcDbLine
 10
3.9591731223
 20
6.095226613
 30
0.0
 11
3.8988470326
 21
6.1013812619
 31
0.0
  0
LINE
  5
1CA
330
1F
100
AcDbEntity
  8
0
  6
Continuous
 62
     7
370
    15
100
AcDbLine
 10
3.9548453323
 20
6.0659484712
 30
0.0
 11
3.9591731223
 21
6.095226613
 31
0.0
  0
LINE
  5
1CB
330
1F
100
AcDbEntity
  8
0
  6
Continuous
 62
     7
370
    15
100
AcDbLine
 10
3.9303345355
 20
6.069051022
 30
0.0
 11
3.9548453323
 21
6.0659484712
 31
0.0
  0
LINE
  5
1CC
330
1F
100
AcDbEntity
  8
0
  6
Continuous
 62
     7
370
    15
100
AcDbLine
 10
3.9303345355
 20
6.0547156943
 30
0.0
 11
3.9303345355
 21
6.069051022
 31
0.0
  0
LINE
  5
1CD
330
1F
100
AcDbEntity
  8
0
  6
Continuous
 62
     7
370
    15
100
AcDbLine
 10
3.9532723505
 20
6.0518123145
 30
0.0
 11
3.9303345355
 21
6.0547156943
 31
0.0
  0
LINE
  5
1CE
330
1F
100
AcDbEntity
  8
0
  6
Continuous
 62
     7
370
    15
100
AcDbLine
 10
3.9492065041
 20
5.970915289
 30
0.0
 11
3.9532723505
 21
6.0518123145
 31
0.0
  0
LINE
  5
1CF
330
1F
100
AcDbEntity
  8
0
  6
Continuous
 62
     7
370
    15
100
AcDbLine
 10
3.9532723505
 20
5.9706773984
 30
0.0
 11
3.9492065041
 21
5.970915289
 31
0.0
  0
LINE
  5
1D0
330
1F
100
AcDbEntity
  8
0
  6
Continuous
 62
     7
370
    15
100
AcDbLine
 10
3.9631769294
 20
6.0500186019
 30
0.0
 11
3.9532723505
 21
5.9706773984
 31
0.0
  0
LINE
  5
1D1
330
1F
100
AcDbEntity
  8
0
  6
Continuous
 62
     7
370
    15
100
AcDbLine
 10
3.9865796724
 20
6.0475962832
 30
0.0
 11
3.9631769294
 21
6.0500186019
 31
0.0
  0
LINE
  5
1D2
330
1F
100
AcDbEntity
  8
0
  6
Continuous
 62
     7
370
    15
100
AcDbLine
 10
3.9865796724
 20
6.0616335877
 30
0.0
 11
3.9865796724
 21
6.0475962832
 31
0.0
  0
LINE
  5
1D3
330
1F
100
AcDbEntity
  8
0
  6
Continuous
 62
     7
370
    15
100
AcDbLine
 10
3.9644777011
 20
6.0646751259
 30
0.0
 11
3.9865796724
 21
6.0616335877
 31
0.0
  0
LINE
  5
1D4
330
1F
100
AcDbEntity
  8
0
  6
Continuous
 62
     7
370
    15
100
AcDbLine
 10
3.9651215603
 20
6.0946197133
 30
0.0
 11
3.9644777011
 21
6.0646751259
 31
0.0
  0
LINE
  5
1D5
330
1F
100
AcDbEntity
  8
0
  6
Continuous
 62
     7
370
    15
100
AcDbLine
 10
4.0230247447
 20
6.0887123415
 30
0.0
 11
3.9651215603
 21
6.0946197133
 31
0.0
  0
LINE
  5
1D6
330
1F
100
AcDbEntity
  8
0
  6
Continuous
 62
     7
370
    15
100
AcDbLine
 10
3.9857775617
 20
5.8968942108
 30
0.0
 11
4.0230247447
 21
6.0887123415
 31
0.0
  0
ARC
  5
1D7
330
1F
100
AcDbEntity
  8
0
  6
Continuous
 62
     7
370
    15
100
AcDbCircle
 10
3.9088869062
 20
5.5043658359
 30
0.0
 40
0.3999883576920475
100
AcDbArc
 50
76.6461762111
 51
78.9169230959
  0
LINE
  5
1D8
330
1F
100
AcDbEntity
  8
0
  6
Continuous
 62
     7
370
    15
100
AcDbLine
 10
4.0515899481
 20
6.0607905574
 30
0.0
 11
4.0012697827
 21
5.8935393962
 31
0.0
  0
LINE
  5
1D9
330
1F
100
AcDbEntity
  8
0
  6
Continuous
 62
     7
370
    15
100
AcDbLine
 10
4.0776465937
 20
6.1779089911
 30
0.0
 11
4.0515899481
 21
6.0607905574
 31
0.0
  0
LINE
  5
1DA
330
1F
100
AcDbEntity
  8
0
  6
Continuous
 62
     7
370
    15
100
AcDbLine
 10
4.0888135181
 20
6.2379410176
 30
0.0
 11
4.0776465937
 21
6.1779089911
 31
0.0
  0
LINE
  5
1DB
330
1F
100
AcDbEntity
  8
0
  6
Continuous
 62
     7
370
    15
100
AcDbLine
 10
4.1087425012
 20
6.3079835152
 30
0.0
 11
4.0888135181
 21
6.2379410176
 31
0.0
  0
LINE
  5
1DC
330
1F
100
AcDbEntity
  8
0
  6
Continuous
 62
     7
370
    15
100
AcDbLine
 10
4.1150062688
 20
6.3235572819
 30
0.0
 11
4.1087425012
 21
6.3079835152
 31
0.0
  0
LINE
  5
1DD
330
1F
100
AcDbEntity
  8
0
  6
Continuous
 62
     7
370
    15
100
AcDbLine
 10
4.125091539
 20
6.3288078879
 30
0.0
 11
4.1150062688
 21
6.3235572819
 31
0.0
  0
LINE
  5
1DE
330
1F
100
AcDbEntity
  8
0
  6
Continuous
 62
     7
370
    15
100
AcDbLine
 10
4.1322594962
 20
6.3267683648
 30
0.0
 11
4.125091539
 21
6.3288078879
 31
0.0
  0
LINE
  5
1DF
330
1F
100
AcDbEntity
  8
0
  6
Continuous
 62
     7
370
    15
100
AcDbLine
 10
4.1279669057
 20
6.3052754931
 30
0.0
 11
4.1322594962
 21
6.3267683648
 31
0.0
  0
LINE
  5
1E0
330
1F
100
AcDbEntity
  8
0
  6
Continuous
 62
     7
370
    15
100
AcDbLine
 10
4.1256991719
 20
6.3048111518
 30
0.0
 11
4.1279669057
 21
6.3052754931
 31
0.0
  0
LINE
  5
1E1
330
1F
100
AcDbEntity
  8
0
  6
Continuous
 62
     7
370
    15
100
AcDbLine
 10
4.1220233077
 20
6.2918917277
 30
0.0
 11
4.1256991719
 21
6.3048111518
 31
0.0
  0
LINE
  5
1E2
330
1F
100
AcDbEntity
  8
0
  6
Continuous
 62
     7
370
    15
100
AcDbLine
 10
4.1228309917
 20
6.2886290188
 30
0.0
 11
4.1220233077
 21
6.2918917277
 31
0.0
  0
ARC
  5
1E3
330
1F
100
AcDbEntity
  8
0
  6
Continuous
 62
     7
370
    15
100
AcDbCircle
 10
4.1037226096
 20
6.2838992089
 30
0.0
 40
0.0196850393700794
100
AcDbArc
 50
344.1176470588
 51
13.9030808954
  0
LINE
  5
1E4
330
1F
100
AcDbEntity
  8
0
  6
Continuous
 62
     7
370
    15
100
AcDbLine
 10
4.1145335676
 20
6.2499640254
 30
0.0
 11
4.1226561671
 21
6.278512069
 31
0.0
  0
ARC
  5
1E5
330
1F
100
AcDbEntity
  8
0
  6
Continuous
 62
     7
370
    15
100
AcDbCircle
 10
4.1200863255
 20
6.2466547998
 30
0.0
 40
0.0064641180335309
100
AcDbArc
 50
149.2055708899
 51
359.8023061867
  0
LINE
  5
1E6
330
1F
100
AcDbEntity
  8
0
  6
Continuous
 62
     7
370
    15
100
AcDbLine
 10
4.1358272683
 20
6.2792374739
 30
0.0
 11
4.1265504154
 21
6.2466323839
 31
0.0
  0
ARC
  5
1E7
330
1F
100
AcDbEntity
  8
0
  6
Continuous
 62
     7
370
    15
100
AcDbCircle
 10
4.1547608884
 20
6.2738503779
 30
0.0
 40
0.0196850393700786
100
AcDbArc
 50
136.2758395406
 51
164.1176470588
  0
LINE
  5
1E8
330
1F
100
AcDbEntity
  8
0
  6
Continuous
 62
     7
370
    15
100
AcDbLine
 10
4.1429438927
 20
6.2887102711
 30
0.0
 11
4.1405349206
 21
6.2874562856
 31
0.0
  0
LINE
  5
1E9
330
1F
100
AcDbEntity
  8
0
  6
Continuous
 62
     7
370
    15
100
AcDbLine
 10
4.1458840854
 20
6.2990439918
 30
0.0
 11
4.1429438927
 21
6.2887102711
 31
0.0
  0
LINE
  5
1EA
330
1F
100
AcDbEntity
  8
0
  6
Continuous
 62
     7
370
    15
100
AcDbLine
 10
4.1442841173
 20
6.3006329601
 30
0.0
 11
4.1458840854
 21
6.2990439918
 31
0.0
  0
LINE
  5
1EB
330
1F
100
AcDbEntity
  8
0
  6
Continuous
 62
     7
370
    15
100
AcDbLine
 10
4.1517542043
 20
6.3212214956
 30
0.0
 11
4.1442841173
 21
6.3006329601
 31
0.0
  0
LINE
  5
1EC
330
1F
100
AcDbEntity
  8
0
  6
Continuous
 62
     7
370
    15
100
AcDbLine
 10
4.1603277986
 20
6.3187821638
 30
0.0
 11
4.1517542043
 21
6.3212214956
 31
0.0
  0
LINE
  5
1ED
330
1F
100
AcDbEntity
  8
0
  6
Continuous
 62
     7
370
    15
100
AcDbLine
 10
4.1668250569
 20
6.3088136389
 30
0.0
 11
4.1603277986
 21
6.3187821638
 31
0.0
  0
LINE
  5
1EE
330
1F
100
AcDbEntity
  8
0
  6
Continuous
 62
     7
370
    15
100
AcDbLine
 10
4.1635146818
 20
6.2927775842
 30
0.0
 11
4.1668250569
 21
6.3088136389
 31
0.0
  0
LINE
  5
1EF
330
1F
100
AcDbEntity
  8
0
  6
Continuous
 62
     7
370
    15
100
AcDbLine
 10
4.1408952764
 20
6.2132787159
 30
0.0
 11
4.1635146818
 21
6.2927775842
 31
0.0
  0
LINE
  5
1F0
330
1F
100
AcDbEntity
  8
0
  6
Continuous
 62
     7
370
    15
100
AcDbLine
 10
4.1189849962
 20
6.1661992597
 30
0.0
 11
4.1408952764
 21
6.2132787159
 31
0.0
  0
LINE
  5
1F1
330
1F
100
AcDbEntity
  8
0
  6
Continuous
 62
     7
370
    15
100
AcDbLine
 10
4.0842767305
 20
6.0514902382
 30
0.0
 11
4.1189849962
 21
6.1661992597
 31
0.0
  0
LINE
  5
1F2
330
1F
100
AcDbEntity
  8
0
  6
Continuous
 62
     7
370
    15
100
AcDbLine
 10
4.0405182093
 20
5.8820745953
 30
0.0
 11
4.0842767305
 21
6.0514902382
 31
0.0
  0
ARC
  5
1F3
330
1F
100
AcDbEntity
  8
0
  6
Continuous
 62
     7
370
    15
100
AcDbCircle
 10
3.9088869062
 20
5.5043658359
 30
0.0
 40
0.3999883576920473
100
AcDbArc
 50
66.057940917
 51
70.7865752207
  0
LINE
  5
1F4
330
1F
100
AcDbEntity
  8
0
  6
Continuous
 62
     7
370
    15
100
AcDbLine
 10
4.1514029417
 20
6.0250946498
 30
0.0
 11
4.0712072681
 21
5.8699377755
 31
0.0
  0
LINE
  5
1F5
330
1F
100
AcDbEntity
  8
0
  6
Continuous
 62
     7
370
    15
100
AcDbLine
 10
4.1985363705
 20
6.1354312952
 30
0.0
 11
4.1514029417
 21
6.0250946498
 31
0.0
  0
LINE
  5
1F6
330
1F
100
AcDbEntity
  8
0
  6
Continuous
 62
     7
370
    15
100
AcDbLine
 10
4.2205440363
 20
6.1923889305
 30
0.0
 11
4.1985363705
 21
6.1354312952
 31
0.0
  0
LINE
  5
1F7
330
1F
100
AcDbEntity
  8
0
  6
Continuous
 62
     7
370
    15
100
AcDbLine
 10
4.253003928
 20
6.2575771108
 30
0.0
 11
4.2205440363
 21
6.1923889305
 31
0.0
  0
LINE
  5
1F8
330
1F
100
AcDbEntity
  8
0
  6
Continuous
 62
     7
370
    15
100
AcDbLine
 10
4.2620227971
 20
6.2717346806
 30
0.0
 11
4.253003928
 21
6.2575771108
 31
0.0
  0
LINE
  5
1F9
330
1F
100
AcDbEntity
  8
0
  6
Continuous
 62
     7
370
    15
100
AcDbLine
 10
4.2729009381
 20
6.2750425624
 30
0.0
 11
4.2620227971
 21
6.2717346806
 31
0.0
  0
LINE
  5
1FA
330
1F
100
AcDbEntity
  8
0
  6
Continuous
 62
     7
370
    15
100
AcDbLine
 10
4.2795722877
 20
6.2717206007
 30
0.0
 11
4.2729009381
 21
6.2750425624
 31
0.0
  0
LINE
  5
1FB
330
1F
100
AcDbEntity
  8
0
  6
Continuous
 62
     7
370
    15
100
AcDbLine
 10
4.2714034888
 20
6.2513828624
 30
0.0
 11
4.2795722877
 21
6.2717206007
 31
0.0
  0
LINE
  5
1FC
330
1F
100
AcDbEntity
  8
0
  6
Continuous
 62
     7
370
    15
100
AcDbLine
 10
4.2690891155
 20
6.2513429695
 30
0.0
 11
4.2714034888
 21
6.2513828624
 31
0.0
  0
LINE
  5
1FD
330
1F
100
AcDbEntity
  8
0
  6
Continuous
 62
     7
370
    15
100
AcDbLine
 10
4.2631018113
 20
6.2393187884
 30
0.0
 11
4.2690891155
 21
6.2513429695
 31
0.0
  0
LINE
  5
1FE
330
1F
100
AcDbEntity
  8
0
  6
Continuous
 62
     7
370
    15
100
AcDbLine
 10
4.2632961424
 20
6.2359633872
 30
0.0
 11
4.2631018113
 21
6.2393187884
 31
0.0
  0
ARC
  5
1FF
330
1F
100
AcDbEntity
  8
0
  6
Continuous
 62
     7
370
    15
100
AcDbCircle
 10
4.2436440429
 20
6.2348252053
 30
0.0
 40
0.0196850393700793
100
AcDbArc
 50
333.5294117647
 51
3.3148456012
  0
LINE
  5
200
330
1F
100
AcDbEntity
  8
0
  6
Continuous
 62
     7
370
    15
100
AcDbLine
 10
4.2480353587
 20
6.1994813553
 30
0.0
 11
4.2612654192
 21
6.2260508883
 31
0.0
  0
ARC
  5
201
330
1F
100
AcDbEntity
  8
0
  6
Continuous
 62
     7
370
    15
100
AcDbCircle
 10
4.2528854933
 20
6.1952081282
 30
0.0
 40
0.0064641180335315
100
AcDbArc
 50
138.6173355958
 51
349.2140708926
  0
LINE
  5
202
330
1F
100
AcDbEntity
  8
0
  6
Continuous
 62
     7
370
    15
100
AcDbLine
 10
4.2743454414
 20
6.2243437081
 30
0.0
 11
4.2592354293
 21
6.1939984319
 31
0.0
  0
ARC
  5
203
330
1F
100
AcDbEntity
  8
0
  6
Continuous
 62
     7
370
    15
100
AcDbCircle
 10
4.2919668302
 20
6.2155692156
 30
0.0
 40
0.0196850393700793
100
AcDbArc
 50
125.6876042465
 51
153.5294117647
  0
LINE
  5
204
330
1F
100
AcDbEntity
  8
0
  6
Continuous
 62
     7
370
    15
100
AcDbLine
 10
4.2830815405
 20
6.2323475089
 30
0.0
 11
4.2804832239
 21
6.2315575714
 31
0.0
  0
LINE
  5
205
330
1F
100
AcDbEntity
  8
0
  6
Continuous
 62
     7
370
    15
100
AcDbLine
 10
4.2878704452
 20
6.2419649178
 30
0.0
 11
4.2830815405
 21
6.2323475089
 31
0.0
  0
LINE
  5
206
330
1F
100
AcDbEntity
  8
0
  6
Continuous
 62
     7
370
    15
100
AcDbLine
 10
4.28658962
 20
6.2438208164
 30
0.0
 11
4.2878704452
 21
6.2419649178
 31
0.0
  0
LINE
  5
207
330
1F
100
AcDbEntity
  8
0
  6
Continuous
 62
     7
370
    15
100
AcDbLine
 10
4.2977157715
 20
6.2626863318
 30
0.0
 11
4.28658962
 21
6.2438208164
 31
0.0
  0
LINE
  5
208
330
1F
100
AcDbEntity
  8
0
  6
Continuous
 62
     7
370
    15
100
AcDbLine
 10
4.3056952259
 20
6.2587128843
 30
0.0
 11
4.2977157715
 21
6.2626863318
 31
0.0
  0
LINE
  5
209
330
1F
100
AcDbEntity
  8
0
  6
Continuous
 62
     7
370
    15
100
AcDbLine
 10
4.3102500533
 20
6.2477203447
 30
0.0
 11
4.3056952259
 21
6.2587128843
 31
0.0
  0
LINE
  5
20A
330
1F
100
AcDbEntity
  8
0
  6
Continuous
 62
     7
370
    15
100
AcDbLine
 10
4.3040493516
 20
6.2325657464
 30
0.0
 11
4.3102500533
 21
6.2477203447
 31
0.0
  0
LINE
  5
20B
330
1F
100
AcDbEntity
  8
0
  6
Continuous
 62
     7
370
    15
100
AcDbLine
 10
4.2672072572
 20
6.1585767878
 30
0.0
 11
4.3040493516
 21
6.2325657464
 31
0.0
  0
LINE
  5
20C
330
1F
100
AcDbEntity
  8
0
  6
Continuous
 62
     7
370
    15
100
AcDbLine
 10
4.237019206
 20
6.1163249559
 30
0.0
 11
4.2672072572
 21
6.1585767878
 31
0.0
  0
LINE
  5
20D
330
1F
100
AcDbEntity
  8
0
  6
Continuous
 62
     7
370
    15
100
AcDbLine
 10
4.1818243369
 20
6.0099467981
 30
0.0
 11
4.237019206
 21
6.1163249559
 31
0.0
  0
LINE
  5
20E
330
1F
100
AcDbEntity
  8
0
  6
Continuous
 62
     7
370
    15
100
AcDbLine
 10
4.1076807934
 20
5.8514560823
 30
0.0
 11
4.1818243369
 21
6.0099467981
 31
0.0
  0
ARC
  5
20F
330
1F
100
AcDbEntity
  8
0
  6
Continuous
 62
     7
370
    15
100
AcDbCircle
 10
3.9088869062
 20
5.5043658359
 30
0.0
 40
0.3999883576920467
100
AcDbArc
 50
55.4697056229
 51
60.1983399265
  0
LINE
  5
210
330
1F
100
AcDbEntity
  8
0
  6
Continuous
 62
     7
370
    15
100
AcDbLine
 10
4.2429573774
 20
5.971666067
 30
0.0
 11
4.1356170974
 21
5.8338869386
 31
0.0
  0
LINE
  5
211
330
1F
100
AcDbEntity
  8
0
  6
Continuous
 62
     7
370
    15
100
AcDbLine
 10
4.3095624879
 20
6.0714633675
 30
0.0
 11
4.2429573774
 21
5.971666067
 31
0.0
  0
LINE
  5
212
330
1F
100
AcDbEntity
  8
0
  6
Continuous
 62
     7
370
    15
100
AcDbLine
 10
4.3416614371
 20
6.1234071141
 30
0.0
 11
4.3095624879
 21
6.0714633675
 31
0.0
  0
LINE
  5
213
330
1F
100
AcDbEntity
  8
0
  6
Continuous
 62
     7
370
    15
100
AcDbLine
 10
4.3855468235
 20
6.1815210561
 30
0.0
 11
4.3416614371
 21
6.1234071141
 31
0.0
  0
LINE
  5
214
330
1F
100
AcDbEntity
  8
0
  6
Continuous
 62
     7
370
    15
100
AcDbLine
 10
4.3970136777
 20
6.1937801945
 30
0.0
 11
4.3855468235
 21
6.1815210561
 31
0.0
  0
LINE
  5
215
330
1F
100
AcDbEntity
  8
0
  6
Continuous
 62
     7
370
    15
100
AcDbLine
 10
4.4083145071
 20
6.1950330067
 30
0.0
 11
4.3970136777
 21
6.1937801945
 31
0.0
  0
LINE
  5
216
330
1F
100
AcDbEntity
  8
0
  6
Continuous
 62
     7
370
    15
100
AcDbLine
 10
4.4142617718
 20
6.1905418319
 30
0.0
 11
4.4083145071
 21
6.1950330067
 31
0.0
  0
LINE
  5
217
330
1F
100
AcDbEntity
  8
0
  6
Continuous
 62
     7
370
    15
100
AcDbLine
 10
4.402494841
 20
6.1720511921
 30
0.0
 11
4.4142617718
 21
6.1905418319
 31
0.0
  0
LINE
  5
218
330
1F
100
AcDbEntity
  8
0
  6
Continuous
 62
     7
370
    15
100
AcDbLine
 10
4.4002127341
 20
6.1724372143
 30
0.0
 11
4.402494841
 21
6.1720511921
 31
0.0
  0
LINE
  5
219
330
1F
100
AcDbEntity
  8
0
  6
Continuous
 62
     7
370
    15
100
AcDbLine
 10
4.3921180009
 20
6.1617180582
 30
0.0
 11
4.4002127341
 21
6.1724372143
 31
0.0
  0
LINE
  5
21A
330
1F
100
AcDbEntity
  8
0
  6
Continuous
 62
     7
370
    15
100
AcDbLine
 10
4.3916923792
 20
6.15838407
 30
0.0
 11
4.3921180009
 21
6.1617180582
 31
0.0
  0
ARC
  5
21B
330
1F
100
AcDbEntity
  8
0
  6
Continuous
 62
     7
370
    15
100
AcDbCircle
 10
4.3721657234
 20
6.160876284
 30
0.0
 40
0.0196850393700791
100
AcDbArc
 50
322.9411764706
 51
352.7266103071
  0
LINE
  5
21C
330
1F
100
AcDbEntity
  8
0
  6
Continuous
 62
     7
370
    15
100
AcDbLine
 10
4.3699880166
 20
6.1253275452
 30
0.0
 11
4.3878746899
 21
6.1490133516
 31
0.0
  0
ARC
  5
21D
330
1F
100
AcDbEntity
  8
0
  6
Continuous
 62
     7
370
    15
100
AcDbCircle
 10
4.3739702017
 20
6.1202356508
 30
0.0
 40
0.0064641180335316
100
AcDbArc
 50
128.0291003017
 51
338.6258355985
  0
LINE
  5
21E
330
1F
100
AcDbEntity
  8
0
  6
Continuous
 62
     7
370
    15
100
AcDbLine
 10
4.4004183584
 20
6.1449316654
 30
0.0
 11
4.3799896877
 21
6.1178798979
 31
0.0
  0
ARC
  5
21F
330
1F
100
AcDbEntity
  8
0
  6
Continuous
 62
     7
370
    15
100
AcDbCircle
 10
4.4161274446
 20
6.1330688752
 30
0.0
 40
0.0196850393700791
100
AcDbArc
 50
115.0993689524
 51
142.9411764706
  0
LINE
  5
220
330
1F
100
AcDbEntity
  8
0
  6
Continuous
 62
     7
370
    15
100
AcDbLine
 10
4.4104763488
 20
6.1511939664
 30
0.0
 11
4.4077771267
 21
6.1508950632
 31
0.0
  0
LINE
  5
221
330
1F
100
AcDbEntity
  8
0
  6
Continuous
 62
     7
370
    15
100
AcDbLine
 10
4.4169510207
 20
6.1597677074
 30
0.0
 11
4.4104763488
 21
6.1511939664
 31
0.0
  0
LINE
  5
222
330
1F
100
AcDbEntity
  8
0
  6
Continuous
 62
     7
370
    15
100
AcDbLine
 10
4.4160331913
 20
6.1618274702
 30
0.0
 11
4.4169510207
 21
6.1597677074
 31
0.0
  0
LINE
  5
223
330
1F
100
AcDbEntity
  8
0
  6
Continuous
 62
     7
370
    15
100
AcDbLine
 10
4.4304362783
 20
6.1783272796
 30
0.0
 11
4.4160331913
 21
6.1618274702
 31
0.0
  0
LINE
  5
224
330
1F
100
AcDbEntity
  8
0
  6
Continuous
 62
     7
370
    15
100
AcDbLine
 10
4.4375498228
 20
6.1729555284
 30
0.0
 11
4.4304362783
 21
6.1783272796
 31
0.0
  0
LINE
  5
225
330
1F
100
AcDbEntity
  8
0
  6
Continuous
 62
     7
370
    15
100
AcDbLine
 10
4.4400070477
 20
6.1613129695
 30
0.0
 11
4.4375498228
 21
6.1729555284
 31
0.0
  0
LINE
  5
226
330
1F
100
AcDbEntity
  8
0
  6
Continuous
 62
     7
370
    15
100
AcDbLine
 10
4.4311273636
 20
6.1475557951
 30
0.0
 11
4.4400070477
 21
6.1613129695
 31
0.0
  0
LINE
  5
227
330
1F
100
AcDbEntity
  8
0
  6
Continuous
 62
     7
370
    15
100
AcDbLine
 10
4.3813170057
 20
6.0815961571
 30
0.0
 11
4.4311273636
 21
6.1475557951
 31
0.0
  0
LINE
  5
228
330
1F
100
AcDbEntity
  8
0
  6
Continuous
 62
     7
370
    15
100
AcDbLine
 10
4.3438793048
 20
6.0456110261
 30
0.0
 11
4.3813170057
 21
6.0815961571
 31
0.0
  0
LINE
  5
229
330
1F
100
AcDbEntity
  8
0
  6
Continuous
 62
     7
370
    15
100
AcDbLine
 10
4.2700771974
 20
5.9511860636
 30
0.0
 11
4.3438793048
 21
6.0456110261
 31
0.0
  0
LINE
  5
22A
330
1F
100
AcDbEntity
  8
0
  6
Continuous
 62
     7
370
    15
100
AcDbLine
 10
4.1680736158
 20
5.8090179859
 30
0.0
 11
4.2700771974
 21
5.9511860636
 31
0.0
  0
ARC
  5
22B
330
1F
100
AcDbEntity
  8
0
  6
Continuous
 62
     7
370
    15
100
AcDbCircle
 10
3.9088869062
 20
5.5043658359
 30
0.0
 40
0.3999883576920472
100
AcDbArc
 50
44.8814703288
 51
49.6101046324
  0
LINE
  5
22C
330
1F
100
AcDbEntity
  8
0
  6
Continuous
 62
     7
370
    15
100
AcDbLine
 10
4.3231353045
 20
5.902324188
 30
0.0
 11
4.1923058958
 21
5.7866146181
 31
0.0
  0
LINE
  5
22D
330
1F
100
AcDbEntity
  8
0
  6
Continuous
 62
     7
370
    15
100
AcDbLine
 10
4.4069440696
 20
5.9881833295
 30
0.0
 11
4.3231353045
 21
5.902324188
 31
0.0
  0
LINE
  5
22E
330
1F
100
AcDbEntity
  8
0
  6
Continuous
 62
     7
370
    15
100
AcDbLine
 10
4.4480410616
 20
6.0333448478
 30
0.0
 11
4.4069440696
 21
5.9881833295
 31
0.0
  0
LINE
  5
22F
330
1F
100
AcDbEntity
  8
0
  6
Continuous
 62
     7
370
    15
100
AcDbLine
 10
4.5018577199
 20
6.0824051611
 30
0.0
 11
4.4480410616
 21
6.0333448478
 31
0.0
  0
LINE
  5
230
330
1F
100
AcDbEntity
  8
0
  6
Continuous
 62
     7
370
    15
100
AcDbLine
 10
4.515381697
 20
6.0923484595
 30
0.0
 11
4.5018577199
 21
6.0824051611
 31
0.0
  0
LINE
  5
231
330
1F
100
AcDbEntity
  8
0
  6
Continuous
 62
     7
370
    15
100
AcDbLine
 10
4.526720366
 20
6.091503376
 30
0.0
 11
4.515381697
 21
6.0923484595
 31
0.0
  0
LINE
  5
232
330
1F
100
AcDbEntity
  8
0
  6
Continuous
 62
     7
370
    15
100
AcDbLine
 10
4.5317412946
 20
6.0859958129
 30
0.0
 11
4.526720366
 21
6.091503376
 31
0.0
  0
LINE
  5
233
330
1F
100
AcDbEntity
  8
0
  6
Continuous
 62
     7
370
    15
100
AcDbLine
 10
4.5167770675
 20
6.0699823446
 30
0.0
 11
4.5317412946
 21
6.0859958129
 31
0.0
  0
LINE
  5
234
330
1F
100
AcDbEntity
  8
0
  6
Continuous
 62
     7
370
    15
100
AcDbLine
 10
4.5146046659
 20
6.070781082
 30
0.0
 11
4.5167770675
 21
6.0699823446
 31
0.0
  0
LINE
  5
235
330
1F
100
AcDbEntity
  8
0
  6
Continuous
 62
     7
370
    15
100
AcDbLine
 10
4.5046780873
 20
6.0617321466
 30
0.0
 11
4.5146046659
 21
6.070781082
 31
0.0
  0
LINE
  5
236
330
1F
100
AcDbEntity
  8
0
  6
Continuous
 62
     7
370
    15
100
AcDbLine
 10
4.5036473259
 20
6.0585327968
 30
0.0
 11
4.5046780873
 21
6.0617321466
 31
0.0
  0
ARC
  5
237
330
1F
100
AcDbEntity
  8
0
  6
Continuous
 62
     7
370
    15
100
AcDbCircle
 10
4.4849109994
 20
6.0645706867
 30
0.0
 40
0.0196850393700787
100
AcDbArc
 50
312.3529411765
 51
342.138375013
  0
LINE
  5
238
330
1F
100
AcDbEntity
  8
0
  6
Continuous
 62
     7
370
    15
100
AcDbLine
 10
4.4762382825
 20
6.0300272861
 30
0.0
 11
4.4981726158
 21
6.0500232951
 31
0.0
  0
ARC
  5
239
330
1F
100
AcDbEntity
  8
0
  6
Continuous
 62
     7
370
    15
100
AcDbCircle
 10
4.4792170563
 20
6.0242904656
 30
0.0
 40
0.0064641180335317
100
AcDbArc
 50
117.4408650076
 51
328.0376003044
  0
LINE
  5
23A
330
1F
100
AcDbEntity
  8
0
  6
Continuous
 62
     7
370
    15
100
AcDbLine
 10
4.5097529887
 20
6.0437061415
 30
0.0
 11
4.4847011447
 21
6.0208686453
 31
0.0
  0
ARC
  5
23B
330
1F
100
AcDbEntity
  8
0
  6
Continuous
 62
     7
370
    15
100
AcDbCircle
 10
4.5230145908
 20
6.0291588069
 30
0.0
 40
0.0196850393700785
100
AcDbArc
 50
104.5111336583
 51
132.3529411765
  0
LINE
  5
23C
330
1F
100
AcDbEntity
  8
0
  6
Continuous
 62
     7
370
    15
100
AcDbLine
 10
4.5207904078
 20
6.0480136917
 30
0.0
 11
4.5180820924
 21
6.048215796
 31
0.0
  0
LINE
  5
23D
330
1F
100
AcDbEntity
  8
0
  6
Continuous
 62
     7
370
    15
100
AcDbLine
 10
4.5287299694
 20
6.0552519014
 30
0.0
 11
4.5207904078
 21
6.0480136917
 31
0.0
  0
LINE
  5
23E
330
1F
100
AcDbEntity
  8
0
  6
Continuous
 62
     7
370
    15
100
AcDbLine
 10
4.5282060822
 20
6.0574451294
 30
0.0
 11
4.5287299694
 21
6.0552519014
 31
0.0
  0
LINE
  5
23F
330
1F
100
AcDbEntity
  8
0
  6
Continuous
 62
     7
370
    15
100
AcDbLine
 10
4.5453960969
 20
6.071017506
 30
0.0
 11
4.5282060822
 21
6.0574451294
 31
0.0
  0
LINE
  5
240
330
1F
100
AcDbEntity
  8
0
  6
Continuous
 62
     7
370
    15
100
AcDbLine
 10
4.5514011475
 20
6.0644299021
 30
0.0
 11
4.5453960969
 21
6.071017506
 31
0.0
  0
LINE
  5
241
330
1F
100
AcDbEntity
  8
0
  6
Continuous
 62
     7
370
    15
100
AcDbLine
 10
4.5516774643
 20
6.0525341995
 30
0.0
 11
4.5514011475
 21
6.0644299021
 31
0.0
  0
LINE
  5
242
330
1F
100
AcDbEntity
  8
0
  6
Continuous
 62
     7
370
    15
100
AcDbLine
 10
4.5404209277
 20
6.0406426035
 30
0.0
 11
4.5516774643
 21
6.0525341995
 31
0.0
  0
LINE
  5
243
330
1F
100
AcDbEntity
  8
0
  6
Continuous
 62
     7
370
    15
100
AcDbLine
 10
4.4793390733
 20
5.9849590468
 30
0.0
 11
4.5404209277
 21
6.0406426035
 31
0.0
  0
LINE
  5
244
330
1F
100
AcDbEntity
  8
0
  6
Continuous
 62
     7
370
    15
100
AcDbLine
 10
4.4359262415
 20
5.9564655626
 30
0.0
 11
4.4793390733
 21
5.9849590468
 31
0.0
  0
LINE
  5
245
330
1F
100
AcDbEntity
  8
0
  6
Continuous
 62
     7
370
    15
100
AcDbLine
 10
4.3460302933
 20
5.8772095715
 30
0.0
 11
4.4359262415
 21
5.9564655626
 31
0.0
  0
LINE
  5
246
330
1F
100
AcDbEntity
  8
0
  6
Continuous
 62
     7
370
    15
100
AcDbLine
 10
4.2196401401
 20
5.7562052494
 30
0.0
 11
4.3460302933
 21
5.8772095715
 31
0.0
  0
ARC
  5
247
330
1F
100
AcDbEntity
  8
0
  6
Continuous
 62
     7
370
    15
100
AcDbCircle
 10
3.9088869062
 20
5.5043658359
 30
0.0
 40
0.3999883576920469
100
AcDbArc
 50
34.2932350346
 51
39.0218693383
  0
LINE
  5
248
330
1F
100
AcDbEntity
  8
0
  6
Continuous
 62
     7
370
    15
100
AcDbLine
 10
4.3892067012
 20
5.8194301723
 30
0.0
 11
4.2393432591
 21
5.7297306085
 31
0.0
  0
LINE
  5
249
330
1F
100
AcDbEntity
  8
0
  6
Continuous
 62
     7
370
    15
100
AcDbLine
 10
4.487364874
 20
5.8884276819
 30
0.0
 11
4.3892067012
 21
5.8194301723
 31
0.0
  0
LINE
  5
24A
330
1F
100
AcDbEntity
  8
0
  6
Continuous
 62
     7
370
    15
100
AcDbLine
 10
4.5360605781
 20
5.925268603
 30
0.0
 11
4.487364874
 21
5.8884276819
 31
0.0
  0
LINE
  5
24B
330
1F
100
AcDbEntity
  8
0
  6
Continuous
 62
     7
370
    15
100
AcDbLine
 10
4.5979757828
 20
5.9636047735
 30
0.0
 11
4.5360605781
 21
5.925268603
 31
0.0
  0
LINE
  5
24C
330
1F
100
AcDbEntity
  8
0
  6
Continuous
 62
     7
370
    15
100
AcDbLine
 10
4.6130966482
 20
5.9708938759
 30
0.0
 11
4.5979757828
 21
5.9636047735
 31
0.0
  0
LINE
  5
24D
330
1F
100
AcDbEntity
  8
0
  6
Continuous
 62
     7
370
    15
100
AcDbLine
 10
4.6240868412
 20
5.9679796429
 30
0.0
 11
4.6130966482
 21
5.9708938759
 31
0.0
  0
LINE
  5
24E
330
1F
100
AcDbEntity
  8
0
  6
Continuous
 62
     7
370
    15
100
AcDbLine
 10
4.6280101292
 20
5.9616434228
 30
0.0
 11
4.6240868412
 21
5.9679796429
 31
0.0
  0
LINE
  5
24F
330
1F
100
AcDbEntity
  8
0
  6
Continuous
 62
     7
370
    15
100
AcDbLine
 10
4.6103584131
 20
5.9486521329
 30
0.0
 11
4.6280101292
 21
5.9616434228
 31
0.0
  0
LINE
  5
250
330
1F
100
AcDbEntity
  8
0
  6
Continuous
 62
     7
370
    15
100
AcDbLine
 10
4.6083696361
 20
5.9498365992
 30
0.0
 11
4.6103584131
 21
5.9486521329
 31
0.0
  0
LINE
  5
251
330
1F
100
AcDbEntity
  8
0
  6
Continuous
 62
     7
370
    15
100
AcDbLine
 10
4.5969494214
 20
5.9427654409
 30
0.0
 11
4.6083696361
 21
5.9498365992
 31
0.0
  0
LINE
  5
252
330
1F
100
AcDbEntity
  8
0
  6
Continuous
 62
     7
370
    15
100
AcDbLine
 10
4.5953481332
 20
5.9398102883
 30
0.0
 11
4.5969494214
 21
5.9427654409
 31
0.0
  0
ARC
  5
253
330
1F
100
AcDbEntity
  8
0
  6
Continuous
 62
     7
370
    15
100
AcDbCircle
 10
4.5780404658
 20
5.9491879852
 30
0.0
 40
0.0196850393700795
100
AcDbArc
 50
301.7647058824
 51
331.5501397189
  0
LINE
  5
254
330
1F
100
AcDbEntity
  8
0
  6
Continuous
 62
     7
370
    15
100
AcDbLine
 10
4.5631680783
 20
5.9168264205
 30
0.0
 11
4.5884032534
 21
5.9324513733
 31
0.0
  0
ARC
  5
255
330
1F
100
AcDbEntity
  8
0
  6
Continuous
 62
     7
370
    15
100
AcDbCircle
 10
4.5650420017
 20
5.9106398707
 30
0.0
 40
0.0064641180335307
100
AcDbArc
 50
106.8526297134
 51
317.4493650103
  0
LINE
  5
256
330
1F
100
AcDbEntity
  8
0
  6
Continuous
 62
     7
370
    15
100
AcDbLine
 10
4.5986255087
 20
5.9241140563
 30
0.0
 11
4.5698040816
 21
5.9062685958
 31
0.0
  0
ARC
  5
257
330
1F
100
AcDbEntity
  8
0
  6
Continuous
 62
     7
370
    15
100
AcDbCircle
 10
4.6089883553
 20
5.9073775434
 30
0.0
 40
0.0196850393700783
100
AcDbArc
 50
93.9228983642
 51
121.7647058824
  0
LINE
  5
258
330
1F
100
AcDbEntity
  8
0
  6
Continuous
 62
     7
370
    15
100
AcDbLine
 10
4.6102666008
 20
5.9263201908
 30
0.0
 11
4.6076415912
 21
5.9270164095
 31
0.0
  0
LINE
  5
259
330
1F
100
AcDbEntity
  8
0
  6
Continuous
 62
     7
370
    15
100
AcDbLine
 10
4.6194011887
 20
5.9319760322
 30
0.0
 11
4.6102666008
 21
5.9263201908
 31
0.0
  0
LINE
  5
25A
330
1F
100
AcDbEntity
  8
0
  6
Continuous
 62
     7
370
    15
100
AcDbLine
 10
4.6192891366
 20
5.9342283662
 30
0.0
 11
4.6194011887
 21
5.9319760322
 31
0.0
  0
LINE
  5
25B
330
1F
100
AcDbEntity
  8
0
  6
Continuous
 62
     7
370
    15
100
AcDbLine
 10
4.6386802993
 20
5.9444108752
 30
0.0
 11
4.6192891366
 21
5.9342283662
 31
0.0
  0
LINE
  5
25C
330
1F
100
AcDbEntity
  8
0
  6
Continuous
 62
     7
370
    15
100
AcDbLine
 10
4.6433726984
 20
5.9368321094
 30
0.0
 11
4.6386802993
 21
5.9444108752
 31
0.0
  0
LINE
  5
25D
330
1F
100
AcDbEntity
  8
0
  6
Continuous
 62
     7
370
    15
100
AcDbLine
 10
4.6414584272
 20
5.9250880584
 30
0.0
 11
4.6433726984
 21
5.9368321094
 31
0.0
  0
LINE
  5
25E
330
1F
100
AcDbEntity
  8
0
  6
Continuous
 62
     7
370
    15
100
AcDbLine
 10
4.6282087136
 20
5.9154675695
 30
0.0
 11
4.6414584272
 21
5.9250880584
 31
0.0
  0
LINE
  5
25F
330
1F
100
AcDbEntity
  8
0
  6
Continuous
 62
     7
370
    15
100
AcDbLine
 10
4.5579347787
 20
5.8719557389
 30
0.0
 11
4.6282087136
 21
5.9154675695
 31
0.0
  0
LINE
  5
260
330
1F
100
AcDbEntity
  8
0
  6
Continuous
 62
     7
370
    15
100
AcDbLine
 10
4.5100254922
 20
5.8519245303
 30
0.0
 11
4.5579347787
 21
5.8719557389
 31
0.0
  0
LINE
  5
261
330
1F
100
AcDbEntity
  8
0
  6
Continuous
 62
     7
370
    15
100
AcDbLine
 10
4.4070968945
 20
5.7905362928
 30
0.0
 11
4.5100254922
 21
5.8519245303
 31
0.0
  0
LINE
  5
262
330
1F
100
AcDbEntity
  8
0
  6
Continuous
 62
     7
370
    15
100
AcDbLine
 10
4.2606243466
 20
5.6948164252
 30
0.0
 11
4.4070968945
 21
5.7905362928
 31
0.0
  0
ARC
  5
263
330
1F
100
AcDbEntity
  8
0
  6
Continuous
 62
     7
370
    15
100
AcDbCircle
 10
3.9088869062
 20
5.5043658359
 30
0.0
 40
0.3999883576920469
100
AcDbArc
 50
23.7049997405
 51
28.4336340442
  0
LINE
  5
264
330
1F
100
AcDbEntity
  8
0
  6
Continuous
 62
     7
370
    15
100
AcDbLine
 10
4.4389211402
 20
5.7258071739
 30
0.0
 11
4.2751273124
 21
5.6651722076
 31
0.0
  0
LINE
  5
265
330
1F
100
AcDbEntity
  8
0
  6
Continuous
 62
     7
370
    15
100
AcDbLine
 10
4.5480865192
 20
5.7755931854
 30
0.0
 11
4.4389211402
 21
5.7258071739
 31
0.0
  0
LINE
  5
266
330
1F
100
AcDbEntity
  8
0
  6
Continuous
 62
     7
370
    15
100
AcDbLine
 10
4.602722448
 20
5.8028589371
 30
0.0
 11
4.5480865192
 21
5.7755931854
 31
0.0
  0
LINE
  5
267
330
1F
100
AcDbEntity
  8
0
  6
Continuous
 62
     7
370
    15
100
AcDbLine
 10
4.6706277436
 20
5.8291656465
 30
0.0
 11
4.602722448
 21
5.8028589371
 31
0.0
  0
LINE
  5
268
330
1F
100
AcDbEntity
  8
0
  6
Continuous
 62
     7
370
    15
100
AcDbLine
 10
4.6868304097
 20
5.8335521025
 30
0.0
 11
4.6706277436
 21
5.8291656465
 31
0.0
  0
LINE
  5
269
330
1F
100
AcDbEntity
  8
0
  6
Continuous
 62
     7
370
    15
100
AcDbLine
 10
4.6970981311
 20
5.8286681589
 30
0.0
 11
4.6868304097
 21
5.8335521025
 31
0.0
  0
LINE
  5
26A
330
1F
100
AcDbEntity
  8
0
  6
Continuous
 62
     7
370
    15
100
AcDbLine
 10
4.6997903133
 20
5.8217187325
 30
0.0
 11
4.6970981311
 21
5.8286681589
 31
0.0
  0
LINE
  5
26B
330
1F
100
AcDbEntity
  8
0
  6
Continuous
 62
     7
370
    15
100
AcDbLine
 10
4.680051848
 20
5.8121922559
 30
0.0
 11
4.6997903133
 21
5.8217187325
 31
0.0
  0
LINE
  5
26C
330
1F
100
AcDbEntity
  8
0
  6
Continuous
 62
     7
370
    15
100
AcDbLine
 10
4.6783147481
 20
5.8137219716
 30
0.0
 11
4.680051848
 21
5.8121922559
 31
0.0
  0
LINE
  5
26D
330
1F
100
AcDbEntity
  8
0
  6
Continuous
 62
     7
370
    15
100
AcDbLine
 10
4.6657895594
 20
5.8088697076
 30
0.0
 11
4.6783147481
 21
5.8137219716
 31
0.0
  0
LINE
  5
26E
330
1F
100
AcDbEntity
  8
0
  6
Continuous
 62
     7
370
    15
100
AcDbLine
 10
4.6636725972
 20
5.8062590711
 30
0.0
 11
4.6657895594
 21
5.8088697076
 31
0.0
  0
ARC
  5
26F
330
1F
100
AcDbEntity
  8
0
  6
Continuous
 62
     7
370
    15
100
AcDbCircle
 10
4.6483827103
 20
5.8186573989
 30
0.0
 40
0.0196850393700792
100
AcDbArc
 50
291.1764705882
 51
320.9619044248
  0
LINE
  5
270
330
1F
100
AcDbEntity
  8
0
  6
Continuous
 62
     7
370
    15
100
AcDbLine
 10
4.6278171181
 20
5.7895795971
 30
0.0
 11
4.6554936784
 21
5.8003016866
 31
0.0
  0
ARC
  5
271
330
1F
100
AcDbEntity
  8
0
  6
Continuous
 62
     7
370
    15
100
AcDbCircle
 10
4.6285223723
 20
5.7831541007
 30
0.0
 40
0.0064641180335306
100
AcDbArc
 50
96.2643944193
 51
306.8611297162
  0
LINE
  5
272
330
1F
100
AcDbEntity
  8
0
  6
Continuous
 62
     7
370
    15
100
AcDbLine
 10
4.6640099267
 20
5.790228003
 30
0.0
 11
4.6324001052
 21
5.7779822111
 31
0.0
  0
ARC
  5
273
330
1F
100
AcDbEntity
  8
0
  6
Continuous
 62
     7
370
    15
100
AcDbCircle
 10
4.6711210047
 20
5.7718721995
 30
0.0
 40
0.0196850393700798
100
AcDbArc
 50
83.3346630701
 51
111.1764705882
  0
LINE
  5
274
330
1F
100
AcDbEntity
  8
0
  6
Continuous
 62
     7
370
    15
100
AcDbLine
 10
4.6758581098
 20
5.7902574827
 30
0.0
 11
4.6734058715
 21
5.7914242025
 31
0.0
  0
LINE
  5
275
330
1F
100
AcDbEntity
  8
0
  6
Continuous
 62
     7
370
    15
100
AcDbLine
 10
4.6858765007
 20
5.7941385312
 30
0.0
 11
4.6758581098
 21
5.7902574827
 31
0.0
  0
LINE
  5
276
330
1F
100
AcDbEntity
  8
0
  6
Continuous
 62
     7
370
    15
100
AcDbLine
 10
4.6861803906
 20
5.796372972
 30
0.0
 11
4.6858765007
 21
5.7941385312
 31
0.0
  0
LINE
  5
277
330
1F
100
AcDbEntity
  8
0
  6
Continuous
 62
     7
370
    15
100
AcDbLine
 10
4.7071121221
 20
5.8028190442
 30
0.0
 11
4.6861803906
 21
5.796372972
 31
0.0
  0
LINE
  5
278
330
1F
100
AcDbEntity
  8
0
  6
Continuous
 62
     7
370
    15
100
AcDbLine
 10
4.7103322982
 20
5.7945071002
 30
0.0
 11
4.7071121221
 21
5.8028190442
 31
0.0
  0
LINE
  5
279
330
1F
100
AcDbEntity
  8
0
  6
Continuous
 62
     7
370
    15
100
AcDbLine
 10
4.7062925582
 20
5.7833148029
 30
0.0
 11
4.7103322982
 21
5.7945071002
 31
0.0
  0
LINE
  5
27A
330
1F
100
AcDbEntity
  8
0
  6
Continuous
 62
     7
370
    15
100
AcDbLine
 10
4.6915005158
 20
5.7762926306
 30
0.0
 11
4.7062925582
 21
5.7833148029
 31
0.0
  0
LINE
  5
27B
330
1F
100
AcDbEntity
  8
0
  6
Continuous
 62
     7
370
    15
100
AcDbLine
 10
4.6144277794
 20
5.7464345756
 30
0.0
 11
4.6915005158
 21
5.7762926306
 31
0.0
  0
LINE
  5
27C
330
1F
100
AcDbEntity
  8
0
  6
Continuous
 62
     7
370
    15
100
AcDbLine
 10
4.5636538327
 20
5.7355476347
 30
0.0
 11
4.6144277794
 21
5.7464345756
 31
0.0
  0
LINE
  5
27D
330
1F
100
AcDbEntity
  8
0
  6
Continuous
 62
     7
370
    15
100
AcDbLine
 10
4.4511975851
 20
5.6941178599
 30
0.0
 11
4.5636538327
 21
5.7355476347
 31
0.0
  0
LINE
  5
27E
330
1F
100
AcDbEntity
  8
0
  6
Continuous
 62
     7
370
    15
100
AcDbLine
 10
4.2896305715
 20
5.626942076
 30
0.0
 11
4.4511975851
 21
5.6941178599
 31
0.0
  0
ARC
  5
27F
330
1F
100
AcDbEntity
  8
0
  6
Continuous
 62
     7
370
    15
100
AcDbCircle
 10
3.9088869062
 20
5.5043658359
 30
0.0
 40
0.3999883576920476
100
AcDbArc
 50
13.1167644464
 51
17.8453987501
  0
LINE
  5
280
330
1F
100
AcDbEntity
  8
0
  6
Continuous
 62
     7
370
    15
100
AcDbLine
 10
4.4705861078
 20
5.6246431025
 30
0.0
 11
4.2984394164
 21
5.5951377767
 31
0.0
  0
LINE
  5
281
330
1F
100
AcDbEntity
  8
0
  6
Continuous
 62
     7
370
    15
100
AcDbLine
 10
4.5870407358
 20
5.6535224622
 30
0.0
 11
4.4705861078
 21
5.6246431025
 31
0.0
  0
LINE
  5
282
330
1F
100
AcDbEntity
  8
0
  6
Continuous
 62
     7
370
    15
100
AcDbLine
 10
4.6457565909
 20
5.6702846553
 30
0.0
 11
4.5870407358
 21
5.6535224622
 31
0.0
  0
LINE
  5
283
330
1F
100
AcDbEntity
  8
0
  6
Continuous
 62
     7
370
    15
100
AcDbLine
 10
4.7173393639
 20
5.6836657807
 30
0.0
 11
4.6457565909
 21
5.6702846553
 31
0.0
  0
LINE
  5
284
330
1F
100
AcDbEntity
  8
0
  6
Continuous
 62
     7
370
    15
100
AcDbLine
 10
4.7340723706
 20
5.6850002853
 30
0.0
 11
4.7173393639
 21
5.6836657807
 31
0.0
  0
LINE
  5
285
330
1F
100
AcDbEntity
  8
0
  6
Continuous
 62
     7
370
    15
100
AcDbLine
 10
4.7432676777
 20
5.6783128025
 30
0.0
 11
4.7340723706
 21
5.6850002853
 31
0.0
  0
LINE
  5
286
330
1F
100
AcDbEntity
  8
0
  6
Continuous
 62
     7
370
    15
100
AcDbLine
 10
4.7446372353
 20
5.6709871805
 30
0.0
 11
4.7432676777
 21
5.6783128025
 31
0.0
  0
LINE
  5
287
330
1F
100
AcDbEntity
  8
0
  6
Continuous
 62
     7
370
    15
100
AcDbLine
 10
4.7234843329
 20
5.6652496468
 30
0.0
 11
4.7446372353
 21
5.6709871805
 31
0.0
  0
LINE
  5
288
330
1F
100
AcDbEntity
  8
0
  6
Continuous
 62
     7
370
    15
100
AcDbLine
 10
4.7220578694
 20
5.6670725457
 30
0.0
 11
4.7234843329
 21
5.6652496468
 31
0.0
  0
LINE
  5
289
330
1F
100
AcDbEntity
  8
0
  6
Continuous
 62
     7
370
    15
100
AcDbLine
 10
4.7088542086
 20
5.6646044675
 30
0.0
 11
4.7220578694
 21
5.6670725457
 31
0.0
  0
LINE
  5
28A
330
1F
100
AcDbEntity
  8
0
  6
Continuous
 62
     7
370
    15
100
AcDbLine
 10
4.7062937315
 20
5.662427226
 30
0.0
 11
4.7088542086
 21
5.6646044675
 31
0.0
  0
ARC
  5
28B
330
1F
100
AcDbEntity
  8
0
  6
Continuous
 62
     7
370
    15
100
AcDbCircle
 10
4.6935423121
 20
5.6774239903
 30
0.0
 40
0.0196850393700791
100
AcDbArc
 50
280.5882352941
 51
310.3736691307
  0
LINE
  5
28C
330
1F
100
AcDbEntity
  8
0
  6
Continuous
 62
     7
370
    15
100
AcDbLine
 10
4.6679836674
 20
5.6526201793
 30
0.0
 11
4.6971594371
 21
5.658074063
 31
0.0
  0
ARC
  5
28D
330
1F
100
AcDbEntity
  8
0
  6
Continuous
 62
     7
370
    15
100
AcDbCircle
 10
4.6674964201
 20
5.6461745309
 30
0.0
 40
0.006464118033531
100
AcDbArc
 50
85.6761591252
 51
296.2728944221
  0
LINE
  5
28E
330
1F
100
AcDbEntity
  8
0
  6
Continuous
 62
     7
370
    15
100
AcDbLine
 10
4.7036795751
 20
5.6466070621
 30
0.0
 11
4.67035788
 21
5.6403782007
 31
0.0
  0
ARC
  5
28F
330
1F
100
AcDbEntity
  8
0
  6
Continuous
 62
     7
370
    15
100
AcDbCircle
 10
4.707296686
 20
5.6272572472
 30
0.0
 40
0.0196850393700793
100
AcDbArc
 50
72.7464277759
 51
100.5882352941
  0
LINE
  5
290
330
1F
100
AcDbEntity
  8
0
  6
Continuous
 62
     7
370
    15
100
AcDbLine
 10
4.7153315205
 20
5.6444590069
 30
0.0
 11
4.7131353592
 21
5.6460564818
 31
0.0
  0
LINE
  5
291
330
1F
100
AcDbEntity
  8
0
  6
Continuous
 62
     7
370
    15
100
AcDbLine
 10
4.7258922785
 20
5.6464331175
 30
0.0
 11
4.7153315205
 21
5.6444590069
 31
0.0
  0
LINE
  5
292
330
1F
100
AcDbEntity
  8
0
  6
Continuous
 62
     7
370
    15
100
AcDbLine
 10
4.7266015503
 20
5.6485738394
 30
0.0
 11
4.7258922785
 21
5.6464331175
 31
0.0
  0
LINE
  5
293
330
1F
100
AcDbEntity
  8
0
  6
Continuous
 62
     7
370
    15
100
AcDbLine
 10
4.7483613522
 20
5.6510639173
 30
0.0
 11
4.7266015503
 21
5.6485738394
 31
0.0
  0
LINE
  5
294
330
1F
100
AcDbEntity
  8
0
  6
Continuous
 62
     7
370
    15
100
AcDbLine
 10
4.7499993066
 20
5.6423017118
 30
0.0
 11
4.7483613522
 21
5.6510639173
 31
0.0
  0
LINE
  5
295
330
1F
100
AcDbEntity
  8
0
  6
Continuous
 62
     7
370
    15
100
AcDbLine
 10
4.7439719629
 20
5.6320422037
 30
0.0
 11
4.7499993066
 21
5.6423017118
 31
0.0
  0
LINE
  5
296
330
1F
100
AcDbEntity
  8
0
  6
Continuous
 62
     7
370
    15
100
AcDbLine
 10
4.7281415325
 20
5.6278577054
 30
0.0
 11
4.7439719629
 21
5.6320422037
 31
0.0
  0
LINE
  5
297
330
1F
100
AcDbEntity
  8
0
  6
Continuous
 62
     7
370
    15
100
AcDbLine
 10
4.6468947111
 20
5.6126701075
 30
0.0
 11
4.7281415325
 21
5.6278577054
 31
0.0
  0
LINE
  5
298
330
1F
100
AcDbEntity
  8
0
  6
Continuous
 62
     7
370
    15
100
AcDbLine
 10
4.5949846974
 20
5.61129835
 30
0.0
 11
4.6468947111
 21
5.6126701075
 31
0.0
  0
LINE
  5
299
330
1F
100
AcDbEntity
  8
0
  6
Continuous
 62
     7
370
    15
100
AcDbLine
 10
4.476830809
 20
5.5912376617
 30
0.0
 11
4.5949846974
 21
5.61129835
 31
0.0
  0
LINE
  5
29A
330
1F
100
AcDbEntity
  8
0
  6
Continuous
 62
     7
370
    15
100
AcDbLine
 10
4.3056710262
 20
5.5548934949
 30
0.0
 11
4.476830809
 21
5.5912376617
 31
0.0
  0
ARC
  5
29B
330
1F
100
AcDbEntity
  8
0
  6
Continuous
 62
     7
370
    15
100
AcDbCircle
 10
3.9088869062
 20
5.5043658359
 30
0.0
 40
0.3999883576920472
100
AcDbArc
 50
2.5285291523
 51
7.257163456
  0
LINE
  5
29C
330
1F
100
AcDbEntity
  8
0
  6
Continuous
 62
     7
370
    15
100
AcDbLine
 10
4.4831230296
 20
5.5193832651
 30
0.0
 11
4.3084858204
 21
5.5220120881
 31
0.0
  0
LINE
  5
29D
330
1F
100
AcDbEntity
  8
0
  6
Continuous
 62
     7
370
    15
100
AcDbLine
 10
4.6029013793
 20
5.5263722911
 30
0.0
 11
4.4831230296
 21
5.5193832651
 31
0.0
  0
LINE
  5
29E
330
1F
100
AcDbEntity
  8
0
  6
Continuous
 62
     7
370
    15
100
AcDbLine
 10
4.6636975303
 20
5.5320601054
 30
0.0
 11
4.6029013793
 21
5.5263722911
 31
0.0
  0
LINE
  5
29F
330
1F
100
AcDbEntity
  8
0
  6
Continuous
 62
     7
370
    15
100
AcDbLine
 10
4.736520209
 20
5.5320601054
 30
0.0
 11
4.6636975303
 21
5.5320601054
 31
0.0
  0
LINE
  5
2A0
330
1F
100
AcDbEntity
  8
0
  6
Continuous
 62
     7
370
    15
100
AcDbLine
 10
4.7532133228
 20
5.5302973391
 30
0.0
 11
4.736520209
 21
5.5320601054
 31
0.0
  0
LINE
  5
2A1
330
1F
100
AcDbEntity
  8
0
  6
Continuous
 62
     7
370
    15
100
AcDbLine
 10
4.761023526
 20
5.5220339412
 30
0.0
 11
4.7532133228
 21
5.5302973391
 31
0.0
  0
LINE
  5
2A2
330
1F
100
AcDbEntity
  8
0
  6
Continuous
 62
     7
370
    15
100
AcDbLine
 10
4.761023526
 20
5.514581454
 30
0.0
 11
4.761023526
 21
5.5220339412
 31
0.0
  0
LINE
  5
2A3
330
1F
100
AcDbEntity
  8
0
  6
Continuous
 62
     7
370
    15
100
AcDbLine
 10
4.739176605
 20
5.5128285142
 30
0.0
 11
4.761023526
 21
5.514581454
 31
0.0
  0
LINE
  5
2A4
330
1F
100
AcDbEntity
  8
0
  6
Continuous
 62
     7
370
    15
100
AcDbLine
 10
4.7381091773
 20
5.5148824105
 30
0.0
 11
4.739176605
 21
5.5128285142
 31
0.0
  0
LINE
  5
2A5
330
1F
100
AcDbEntity
  8
0
  6
Continuous
 62
     7
370
    15
100
AcDbLine
 10
4.7246770125
 20
5.5148824105
 30
0.0
 11
4.7381091773
 21
5.5148824105
 31
0.0
  0
LINE
  5
2A6
330
1F
100
AcDbEntity
  8
0
  6
Continuous
 62
     7
370
    15
100
AcDbLine
 10
4.7217601395
 20
5.5132127764
 30
0.0
 11
4.7246770125
 21
5.5148824105
 31
0.0
  0
ARC
  5
2A7
330
1F
100
AcDbEntity
  8
0
  6
Continuous
 62
     7
370
    15
100
AcDbCircle
 10
4.7119814151
 20
5.5302972939
 30
0.0
 40
0.0196850393700796
100
AcDbArc
 50
270.0
 51
299.7854338365
  0
LINE
  5
2A8
330
1F
100
AcDbEntity
  8
0
  6
Continuous
 62
     7
370
    15
100
AcDbLine
 10
4.6823005154
 20
5.5106122598
 30
0.0
 11
4.7119813992
 21
5.5106122598
 31
0.0
  0
ARC
  5
2A9
330
1F
100
AcDbEntity
  8
0
  6
Continuous
 62
     7
370
    15
100
AcDbCircle
 10
4.6806369309
 20
5.5043658359
 30
0.0
 40
0.0064641180335314
100
AcDbArc
 50
75.0879238311
 51
285.6846591279
  0
LINE
  5
2AA
330
1F
100
AcDbEntity
  8
0
  6
Continuous
 62
     7
370
    15
100
AcDbLine
 10
4.7162833761
 20
5.4981423639
 30
0.0
 11
4.6823844077
 21
5.4981423639
 31
0.0
  0
ARC
  5
2AB
330
1F
100
AcDbEntity
  8
0
  6
Continuous
 62
     7
370
    15
100
AcDbCircle
 10
4.7162834798
 20
5.4784573754
 30
0.0
 40
0.0196850393700788
100
AcDbArc
 50
62.1581924818
 51
90.0
  0
LINE
  5
2AC
330
1F
100
AcDbEntity
  8
0
  6
Continuous
 62
     7
370
    15
100
AcDbLine
 10
4.7273422084
 20
5.493889813
 30
0.0
 11
4.7254769233
 21
5.4958636302
 31
0.0
  0
LINE
  5
2AD
330
1F
100
AcDbEntity
  8
0
  6
Continuous
 62
     7
370
    15
100
AcDbLine
 10
4.7380860043
 20
5.493889813
 30
0.0
 11
4.7273422084
 21
5.493889813
 31
0.0
  0
LINE
  5
2AE
330
1F
100
AcDbEntity
  8
0
  6
Continuous
 62
     7
370
    15
100
AcDbLine
 10
4.739176605
 20
5.4958636302
 30
0.0
 11
4.7380860043
 21
5.493889813
 31
0.0
  0
LINE
  5
2AF
330
1F
100
AcDbEntity
  8
0
  6
Continuous
 62
     7
370
    15
100
AcDbLine
 10
4.761023526
 20
5.4943130881
 30
0.0
 11
4.739176605
 21
5.4958636302
 31
0.0
  0
LINE
  5
2B0
330
1F
100
AcDbEntity
  8
0
  6
Continuous
 62
     7
370
    15
100
AcDbLine
 10
4.761023526
 20
5.4853990844
 30
0.0
 11
4.761023526
 21
5.4943130881
 31
0.0
  0
LINE
  5
2B1
330
1F
100
AcDbEntity
  8
0
  6
Continuous
 62
     7
370
    15
100
AcDbLine
 10
4.7532133228
 20
5.4764218681
 30
0.0
 11
4.761023526
 21
5.4853990844
 31
0.0
  0
LINE
  5
2B2
330
1F
100
AcDbEntity
  8
0
  6
Continuous
 62
     7
370
    15
100
AcDbLine
 10
4.7368836448
 20
5.4752174554
 30
0.0
 11
4.7532133228
 21
5.4764218681
 31
0.0
  0
LINE
  5
2B3
330
1F
100
AcDbEntity
  8
0
  6
Continuous
 62
     7
370
    15
100
AcDbLine
 10
4.6542294263
 20
5.4752174554
 30
0.0
 11
4.7368836448
 21
5.4752174554
 31
0.0
  0
LINE
  5
2B4
330
1F
100
AcDbEntity
  8
0
  6
Continuous
 62
     7
370
    15
100
AcDbLine
 10
4.6029512454
 20
5.4834073741
 30
0.0
 11
4.6542294263
 21
5.4752174554
 31
0.0
  0
LINE
  5
2B5
330
1F
100
AcDbEntity
  8
0
  6
Continuous
 62
     7
370
    15
100
AcDbLine
 10
4.4831230296
 20
5.4853990844
 30
0.0
 11
4.6029512454
 21
5.4834073741
 31
0.0
  0
LINE
  5
2B6
330
1F
100
AcDbEntity
  8
0
  6
Continuous
 62
     7
370
    15
100
AcDbLine
 10
4.3081995304
 20
5.4811243871
 30
0.0
 11
4.4831230296
 21
5.4853990844
 31
0.0
  0
ARC
  5
2B7
330
1F
100
AcDbEntity
  8
0
  6
Continuous
 62
     7
370
    15
100
AcDbCircle
 10
3.9088869062
 20
5.5043658359
 30
0.0
 40
0.3999883576920465
100
AcDbArc
 50
354.924513061
 51
356.6689281618
  0
LINE
  5
2B8
330
1F
100
AcDbEntity
  8
0
  6
Continuous
 62
     7
370
    15
100
AcDbLine
 10
4.3752541691
 20
5.4668125258
 30
0.0
 11
4.3073069273
 21
5.4689796474
 31
0.0
  0
LINE
  5
2B9
330
1F
100
AcDbEntity
  8
0
  6
Continuous
 62
     7
370
    15
100
AcDbLine
 10
4.3781807219
 20
5.4270768781
 30
0.0
 11
4.3752541691
 21
5.4668125258
 31
0.0
  0
LINE
  5
2BA
330
1F
100
AcDbEntity
  8
0
  6
Continuous
 62
     7
370
    15
100
AcDbLine
 10
4.4213993693
 20
5.4133529967
 30
0.0
 11
4.3781807219
 21
5.4270768781
 31
0.0
  0
LINE
  5
2BB
330
1F
100
AcDbEntity
  8
0
  6
Continuous
 62
     7
370
    15
100
AcDbLine
 10
4.4377425405
 20
5.4648196421
 30
0.0
 11
4.4213993693
 21
5.4133529967
 31
0.0
  0
LINE
  5
2BC
330
1F
100
AcDbEntity
  8
0
  6
Continuous
 62
     7
370
    15
100
AcDbLine
 10
4.4662832508
 20
5.4639094393
 30
0.0
 11
4.4377425405
 21
5.4648196421
 31
0.0
  0
LINE
  5
2BD
330
1F
100
AcDbEntity
  8
0
  6
Continuous
 62
     7
370
    15
100
AcDbLine
 10
4.4351489172
 20
5.35362178
 30
0.0
 11
4.4662832508
 21
5.4639094393
 31
0.0
  0
LINE
  5
2BE
330
1F
100
AcDbEntity
  8
0
  6
Continuous
 62
     7
370
    15
100
AcDbLine
 10
4.1348658794
 20
5.4396357997
 30
0.0
 11
4.4351489172
 21
5.35362178
 31
0.0
  0
ARC
  5
2BF
330
1F
100
AcDbEntity
  8
0
  6
Continuous
 62
     7
370
    15
100
AcDbCircle
 10
3.9088869062
 20
5.5043658359
 30
0.0
 40
0.2350669331392188
100
AcDbArc
 50
344.0160178089
 51
351.079240482
  0
LINE
  5
2C0
330
1F
100
AcDbEntity
  8
0
  6
Continuous
 62
     7
370
    15
100
AcDbLine
 10
4.1411104339
 20
5.4679144197
 30
0.0
 11
4.2241319015
 21
5.4574264075
 31
0.0
  0
LINE
  5
2C1
330
1F
100
AcDbEntity
  8
0
  6
Continuous
 62
     7
370
    15
100
AcDbLine
 10
4.2241319015
 20
5.4574264075
 30
0.0
 11
4.2249502921
 21
5.4639054794
 31
0.0
  0
ENDSEC
  0
SECTION
  2
OBJECTS
  0
DICTIONARY
  5
C
330
0
100
AcDbDictionary
281
     1
  3
ACAD_GROUP
350
D
  3
ACAD_LAYOUT
350
1A
  3
ACAD_MLINESTYLE
350
17
  3
ACAD_PLOTSETTINGS
350
19
  3
ACAD_PLOTSTYLENAME
350
E
  0
DICTIONARY
  5
D
102
{ACAD_REACTORS
330
C
102
}
330
C
100
AcDbDictionary
281
     1
  0
DICTIONARY
  5
1A
102
{ACAD_REACTORS
330
C
102
}
330
C
100
AcDbDictionary
281
     1
  3
Layout1
350
1E
  3
Layout2
350
26
  3
Model
350
22
  0
DICTIONARY
  5
17
102
{ACAD_REACTORS
330
C
102
}
330
C
100
AcDbDictionary
281
     1
  3
Standard
350
18
  0
DICTIONARY
  5
19
102
{ACAD_REACTORS
330
C
102
}
330
C
100
AcDbDictionary
281
     1
  0
ACDBDICTIONARYWDFLT
  5
E
102
{ACAD_REACTORS
330
C
102
}
330
C
100
AcDbDictionary
281
     1
  3
Normal
350
F
100
AcDbDictionaryWithDefault
340
F
  0
LAYOUT
  5
1E
102
{ACAD_REACTORS
330
1A
102
}
330
1A
100
AcDbPlotSettings
  1

  2
none_device
  4

  6

 40
0.0
 41
0.0
 42
0.0
 43
0.0
 44
0.0
 45
0.0
 46
0.0
 47
0.0
 48
0.0
 49
0.0
140
0.0
141
0.0
142
1.0
143
1.0
 70
   688
 72
     0
 73
     0
 74
     5
  7

 75
    16
147
1.0
148
0.0
149
0.0
100
AcDbLayout
  1
Layout1
 70
     1
 71
     1
 10
0.0
 20
0.0
 11
12.0
 21
9.0
 12
0.0
 22
0.0
 32
0.0
 14
1.0000000000E+20
 24
1.0000000000E+20
 34
1.0000000000E+20
 15
-1.0000000000E+20
 25
-1.0000000000E+20
 35
-1.0000000000E+20
146
0.0
 13
0.0
 23
0.0
 33
0.0
 16
1.0
 26
0.0
 36
0.0
 17
0.0
 27
1.0
 37
0.0
 76
     0
330
1B
  0
LAYOUT
  5
26
102
{ACAD_REACTORS
330
1A
102
}
330
1A
100
AcDbPlotSettings
  1

  2
none_device
  4

  6

 40
0.0
 41
0.0
 42
0.0
 43
0.0
 44
0.0
 45
0.0
 46
0.0
 47
0.0
 48
0.0
 49
0.0
140
0.0
141
0.0
142
1.0
143
1.0
 70
   688
 72
     0
 73
     0
 74
     5
  7

 75
    16
147
1.0
148
0.0
149
0.0
100
AcDbLayout
  1
Layout2
 70
     1
 71
     2
 10
0.0
 20
0.0
 11
0.0
 21
0.0
 12
0.0
 22
0.0
 32
0.0
 14
0.0
 24
0.0
 34
0.0
 15
0.0
 25
0.0
 35
0.0
146
0.0
 13
0.0
 23
0.0
 33
0.0
 16
1.0
 26
0.0
 36
0.0
 17
0.0
 27
1.0
 37
0.0
 76
     0
330
23
  0
LAYOUT
  5
22
102
{ACAD_REACTORS
330
1A
102
}
330
1A
100
AcDbPlotSettings
  1

  2
none_device
  4

  6

 40
0.0
 41
0.0
 42
0.0
 43
0.0
 44
0.0
 45
0.0
 46
0.0
 47
0.0
 48
0.0
 49
0.0
140
0.0
141
0.0
142
1.0
143
1.0
 70
  1712
 72
     0
 73
     0
 74
     0
  7

 75
     0
147
1.0
148
0.0
149
0.0
100
AcDbLayout
  1
Model
 70
     1
 71
     0
 10
0.0
 20
0.0
 11
8.5
 21
11.0
 12
0.0
 22
0.0
 32
0.0
 14
0.0
 24
0.0
 34
0.0
 15
8.5
 25
11.0
 35
0.0
146
0.0
 13
0.0
 23
0.0
 33
0.0
 16
1.0
 26
0.0
 36
0.0
 17
0.0
 27
1.0
 37
0.0
 76
     0
330
1F
331
29
  0
MLINESTYLE
  5
18
102
{ACAD_REACTORS
330
17
102
}
330
17
100
AcDbMlineStyle
  2
Standard
 70
     0
  3

 62
   256
 51
90.0
 52
90.0
 71
     2
 49
0.5
 62
   256
  6
BYLAYER
 49
-0.5
 62
   256
  6
BYLAYER
  0
ACDBPLACEHOLDER
  5
F
102
{ACAD_REACTORS
330
E
102
}
330
E
  0
ENDSEC
  0
EOF
