G75*
G70*
%OFA0B0*%
%FSLAX24Y24*%
%IPPOS*%
%LPD*%
%AMOC8*
5,1,8,0,0,1.08239X$1,22.5*
%
%ADD10C,0.0020*%
%ADD11C,0.0000*%
D10*
X000110Y003285D02*
X000114Y003441D01*
X000125Y003596D01*
X000144Y003751D01*
X000171Y003904D01*
X000205Y004056D01*
X000247Y004207D01*
X000296Y004355D01*
X000352Y004500D01*
X000415Y004642D01*
X000485Y004782D01*
X000562Y004917D01*
X000645Y005049D01*
X000735Y005176D01*
X000831Y005299D01*
X000932Y005417D01*
X001040Y005530D01*
X001153Y005638D01*
X001271Y005739D01*
X001394Y005835D01*
X001521Y005925D01*
X001653Y006008D01*
X001788Y006085D01*
X001928Y006155D01*
X002070Y006218D01*
X002215Y006274D01*
X002363Y006323D01*
X002514Y006365D01*
X002666Y006399D01*
X002819Y006426D01*
X002974Y006445D01*
X003129Y006456D01*
X003285Y006460D01*
X003441Y006456D01*
X003596Y006445D01*
X003751Y006426D01*
X003904Y006399D01*
X004056Y006365D01*
X004207Y006323D01*
X004355Y006274D01*
X004500Y006218D01*
X004642Y006155D01*
X004782Y006085D01*
X004917Y006008D01*
X005049Y005925D01*
X005176Y005835D01*
X005299Y005739D01*
X005417Y005638D01*
X005530Y005530D01*
X005638Y005417D01*
X005739Y005299D01*
X005835Y005176D01*
X005925Y005049D01*
X006008Y004917D01*
X006085Y004782D01*
X006155Y004642D01*
X006218Y004500D01*
X006274Y004355D01*
X006323Y004207D01*
X006365Y004056D01*
X006399Y003904D01*
X006426Y003751D01*
X006445Y003596D01*
X006456Y003441D01*
X006460Y003285D01*
X006456Y003129D01*
X006445Y002974D01*
X006426Y002819D01*
X006399Y002666D01*
X006365Y002514D01*
X006323Y002363D01*
X006274Y002215D01*
X006218Y002070D01*
X006155Y001928D01*
X006085Y001788D01*
X006008Y001653D01*
X005925Y001521D01*
X005835Y001394D01*
X005739Y001271D01*
X005638Y001153D01*
X005530Y001040D01*
X005417Y000932D01*
X005299Y000831D01*
X005176Y000735D01*
X005049Y000645D01*
X004917Y000562D01*
X004782Y000485D01*
X004642Y000415D01*
X004500Y000352D01*
X004355Y000296D01*
X004207Y000247D01*
X004056Y000205D01*
X003904Y000171D01*
X003751Y000144D01*
X003596Y000125D01*
X003441Y000114D01*
X003285Y000110D01*
X003129Y000114D01*
X002974Y000125D01*
X002819Y000144D01*
X002666Y000171D01*
X002514Y000205D01*
X002363Y000247D01*
X002215Y000296D01*
X002070Y000352D01*
X001928Y000415D01*
X001788Y000485D01*
X001653Y000562D01*
X001521Y000645D01*
X001394Y000735D01*
X001271Y000831D01*
X001153Y000932D01*
X001040Y001040D01*
X000932Y001153D01*
X000831Y001271D01*
X000735Y001394D01*
X000645Y001521D01*
X000562Y001653D01*
X000485Y001788D01*
X000415Y001928D01*
X000352Y002070D01*
X000296Y002215D01*
X000247Y002363D01*
X000205Y002514D01*
X000171Y002666D01*
X000144Y002819D01*
X000125Y002974D01*
X000114Y003129D01*
X000110Y003285D01*
D11*
X000550Y003285D02*
X000552Y003321D01*
X000558Y003357D01*
X000568Y003392D01*
X000581Y003426D01*
X000598Y003458D01*
X000618Y003488D01*
X000642Y003515D01*
X000668Y003540D01*
X000697Y003562D01*
X000728Y003581D01*
X000761Y003596D01*
X000795Y003608D01*
X000831Y003616D01*
X000867Y003620D01*
X000903Y003620D01*
X000939Y003616D01*
X000975Y003608D01*
X001009Y003596D01*
X001042Y003581D01*
X001073Y003562D01*
X001102Y003540D01*
X001128Y003515D01*
X001152Y003488D01*
X001172Y003458D01*
X001189Y003426D01*
X001202Y003392D01*
X001212Y003357D01*
X001218Y003321D01*
X001220Y003285D01*
X001218Y003249D01*
X001212Y003213D01*
X001202Y003178D01*
X001189Y003144D01*
X001172Y003112D01*
X001152Y003082D01*
X001128Y003055D01*
X001102Y003030D01*
X001073Y003008D01*
X001042Y002989D01*
X001009Y002974D01*
X000975Y002962D01*
X000939Y002954D01*
X000903Y002950D01*
X000867Y002950D01*
X000831Y002954D01*
X000795Y002962D01*
X000761Y002974D01*
X000728Y002989D01*
X000697Y003008D01*
X000668Y003030D01*
X000642Y003055D01*
X000618Y003082D01*
X000598Y003112D01*
X000581Y003144D01*
X000568Y003178D01*
X000558Y003213D01*
X000552Y003249D01*
X000550Y003285D01*
X002125Y003285D02*
X002127Y003317D01*
X002133Y003348D01*
X002143Y003379D01*
X002156Y003408D01*
X002173Y003435D01*
X002193Y003460D01*
X002216Y003482D01*
X002241Y003502D01*
X002269Y003518D01*
X002299Y003530D01*
X002329Y003539D01*
X002361Y003544D01*
X002393Y003545D01*
X002425Y003542D01*
X002456Y003535D01*
X002486Y003524D01*
X002515Y003510D01*
X002542Y003492D01*
X002566Y003472D01*
X002588Y003448D01*
X002606Y003422D01*
X002621Y003394D01*
X002633Y003364D01*
X002641Y003333D01*
X002645Y003301D01*
X002645Y003269D01*
X002641Y003237D01*
X002633Y003206D01*
X002621Y003176D01*
X002606Y003148D01*
X002588Y003122D01*
X002566Y003098D01*
X002542Y003078D01*
X002515Y003060D01*
X002486Y003046D01*
X002456Y003035D01*
X002425Y003028D01*
X002393Y003025D01*
X002361Y003026D01*
X002329Y003031D01*
X002299Y003040D01*
X002269Y003052D01*
X002241Y003068D01*
X002216Y003088D01*
X002193Y003110D01*
X002173Y003135D01*
X002156Y003162D01*
X002143Y003191D01*
X002133Y003222D01*
X002127Y003253D01*
X002125Y003285D01*
X003025Y003285D02*
X003027Y003317D01*
X003033Y003348D01*
X003043Y003379D01*
X003056Y003408D01*
X003073Y003435D01*
X003093Y003460D01*
X003116Y003482D01*
X003141Y003502D01*
X003169Y003518D01*
X003199Y003530D01*
X003229Y003539D01*
X003261Y003544D01*
X003293Y003545D01*
X003325Y003542D01*
X003356Y003535D01*
X003386Y003524D01*
X003415Y003510D01*
X003442Y003492D01*
X003466Y003472D01*
X003488Y003448D01*
X003506Y003422D01*
X003521Y003394D01*
X003533Y003364D01*
X003541Y003333D01*
X003545Y003301D01*
X003545Y003269D01*
X003541Y003237D01*
X003533Y003206D01*
X003521Y003176D01*
X003506Y003148D01*
X003488Y003122D01*
X003466Y003098D01*
X003442Y003078D01*
X003415Y003060D01*
X003386Y003046D01*
X003356Y003035D01*
X003325Y003028D01*
X003293Y003025D01*
X003261Y003026D01*
X003229Y003031D01*
X003199Y003040D01*
X003169Y003052D01*
X003141Y003068D01*
X003116Y003088D01*
X003093Y003110D01*
X003073Y003135D01*
X003056Y003162D01*
X003043Y003191D01*
X003033Y003222D01*
X003027Y003253D01*
X003025Y003285D01*
X003925Y003285D02*
X003927Y003317D01*
X003933Y003348D01*
X003943Y003379D01*
X003956Y003408D01*
X003973Y003435D01*
X003993Y003460D01*
X004016Y003482D01*
X004041Y003502D01*
X004069Y003518D01*
X004099Y003530D01*
X004129Y003539D01*
X004161Y003544D01*
X004193Y003545D01*
X004225Y003542D01*
X004256Y003535D01*
X004286Y003524D01*
X004315Y003510D01*
X004342Y003492D01*
X004366Y003472D01*
X004388Y003448D01*
X004406Y003422D01*
X004421Y003394D01*
X004433Y003364D01*
X004441Y003333D01*
X004445Y003301D01*
X004445Y003269D01*
X004441Y003237D01*
X004433Y003206D01*
X004421Y003176D01*
X004406Y003148D01*
X004388Y003122D01*
X004366Y003098D01*
X004342Y003078D01*
X004315Y003060D01*
X004286Y003046D01*
X004256Y003035D01*
X004225Y003028D01*
X004193Y003025D01*
X004161Y003026D01*
X004129Y003031D01*
X004099Y003040D01*
X004069Y003052D01*
X004041Y003068D01*
X004016Y003088D01*
X003993Y003110D01*
X003973Y003135D01*
X003956Y003162D01*
X003943Y003191D01*
X003933Y003222D01*
X003927Y003253D01*
X003925Y003285D01*
X005350Y003285D02*
X005352Y003321D01*
X005358Y003357D01*
X005368Y003392D01*
X005381Y003426D01*
X005398Y003458D01*
X005418Y003488D01*
X005442Y003515D01*
X005468Y003540D01*
X005497Y003562D01*
X005528Y003581D01*
X005561Y003596D01*
X005595Y003608D01*
X005631Y003616D01*
X005667Y003620D01*
X005703Y003620D01*
X005739Y003616D01*
X005775Y003608D01*
X005809Y003596D01*
X005842Y003581D01*
X005873Y003562D01*
X005902Y003540D01*
X005928Y003515D01*
X005952Y003488D01*
X005972Y003458D01*
X005989Y003426D01*
X006002Y003392D01*
X006012Y003357D01*
X006018Y003321D01*
X006020Y003285D01*
X006018Y003249D01*
X006012Y003213D01*
X006002Y003178D01*
X005989Y003144D01*
X005972Y003112D01*
X005952Y003082D01*
X005928Y003055D01*
X005902Y003030D01*
X005873Y003008D01*
X005842Y002989D01*
X005809Y002974D01*
X005775Y002962D01*
X005739Y002954D01*
X005703Y002950D01*
X005667Y002950D01*
X005631Y002954D01*
X005595Y002962D01*
X005561Y002974D01*
X005528Y002989D01*
X005497Y003008D01*
X005468Y003030D01*
X005442Y003055D01*
X005418Y003082D01*
X005398Y003112D01*
X005381Y003144D01*
X005368Y003178D01*
X005358Y003213D01*
X005352Y003249D01*
X005350Y003285D01*
M02*
