G75*
G70*
%OFA0B0*%
%FSLAX24Y24*%
%IPPOS*%
%LPD*%
%AMOC8*
5,1,8,0,0,1.08239X$1,22.5*
%
%ADD10C,0.0135*%
%ADD11C,0.0397*%
%ADD12C,0.0070*%
%ADD13C,0.0100*%
%ADD14C,0.0120*%
D10*
X002193Y002002D02*
X002193Y002268D01*
X002193Y002002D02*
X002177Y002002D01*
X002177Y002268D01*
X002193Y002268D01*
X002193Y002136D02*
X002177Y002136D01*
X002443Y002268D02*
X002443Y002002D01*
X002427Y002002D01*
X002427Y002268D01*
X002443Y002268D01*
X002443Y002136D02*
X002427Y002136D01*
X002693Y002268D02*
X002693Y002002D01*
X002677Y002002D01*
X002677Y002268D01*
X002693Y002268D01*
X002693Y002136D02*
X002677Y002136D01*
X002943Y002268D02*
X002943Y002002D01*
X002927Y002002D01*
X002927Y002268D01*
X002943Y002268D01*
X002943Y002136D02*
X002927Y002136D01*
X003193Y002268D02*
X003193Y002002D01*
X003177Y002002D01*
X003177Y002268D01*
X003193Y002268D01*
X003193Y002136D02*
X003177Y002136D01*
X003443Y002268D02*
X003443Y002002D01*
X003427Y002002D01*
X003427Y002268D01*
X003443Y002268D01*
X003443Y002136D02*
X003427Y002136D01*
X003693Y002268D02*
X003693Y002002D01*
X003677Y002002D01*
X003677Y002268D01*
X003693Y002268D01*
X003693Y002136D02*
X003677Y002136D01*
X003943Y002268D02*
X003943Y002002D01*
X003927Y002002D01*
X003927Y002268D01*
X003943Y002268D01*
X003943Y002136D02*
X003927Y002136D01*
X004193Y002268D02*
X004193Y002002D01*
X004177Y002002D01*
X004177Y002268D01*
X004193Y002268D01*
X004193Y002136D02*
X004177Y002136D01*
X004443Y002268D02*
X004443Y002002D01*
X004427Y002002D01*
X004427Y002268D01*
X004443Y002268D01*
X004443Y002136D02*
X004427Y002136D01*
X004193Y001768D02*
X004193Y001502D01*
X004177Y001502D01*
X004177Y001768D01*
X004193Y001768D01*
X004193Y001636D02*
X004177Y001636D01*
X003943Y001768D02*
X003943Y001502D01*
X003927Y001502D01*
X003927Y001768D01*
X003943Y001768D01*
X003943Y001636D02*
X003927Y001636D01*
X003693Y001768D02*
X003693Y001502D01*
X003677Y001502D01*
X003677Y001768D01*
X003693Y001768D01*
X003693Y001636D02*
X003677Y001636D01*
X003443Y001768D02*
X003443Y001502D01*
X003427Y001502D01*
X003427Y001768D01*
X003443Y001768D01*
X003443Y001636D02*
X003427Y001636D01*
X003193Y001768D02*
X003193Y001502D01*
X003177Y001502D01*
X003177Y001768D01*
X003193Y001768D01*
X003193Y001636D02*
X003177Y001636D01*
X002943Y001768D02*
X002943Y001502D01*
X002927Y001502D01*
X002927Y001768D01*
X002943Y001768D01*
X002943Y001636D02*
X002927Y001636D01*
X002693Y001768D02*
X002693Y001502D01*
X002677Y001502D01*
X002677Y001768D01*
X002693Y001768D01*
X002693Y001636D02*
X002677Y001636D01*
X002443Y001768D02*
X002443Y001502D01*
X002427Y001502D01*
X002427Y001768D01*
X002443Y001768D01*
X002443Y001636D02*
X002427Y001636D01*
X002377Y004392D02*
X002377Y004658D01*
X002393Y004658D01*
X002393Y004392D01*
X002377Y004392D01*
X002393Y004526D02*
X002377Y004526D01*
X002127Y004658D02*
X002127Y004392D01*
X002127Y004658D02*
X002143Y004658D01*
X002143Y004392D01*
X002127Y004392D01*
X002143Y004526D02*
X002127Y004526D01*
X002627Y004392D02*
X002627Y004658D01*
X002643Y004658D01*
X002643Y004392D01*
X002627Y004392D01*
X002643Y004526D02*
X002627Y004526D01*
X002877Y004658D02*
X002877Y004392D01*
X002877Y004658D02*
X002893Y004658D01*
X002893Y004392D01*
X002877Y004392D01*
X002893Y004526D02*
X002877Y004526D01*
X003127Y004658D02*
X003127Y004392D01*
X003127Y004658D02*
X003143Y004658D01*
X003143Y004392D01*
X003127Y004392D01*
X003143Y004526D02*
X003127Y004526D01*
X003377Y004658D02*
X003377Y004392D01*
X003377Y004658D02*
X003393Y004658D01*
X003393Y004392D01*
X003377Y004392D01*
X003393Y004526D02*
X003377Y004526D01*
X003627Y004658D02*
X003627Y004392D01*
X003627Y004658D02*
X003643Y004658D01*
X003643Y004392D01*
X003627Y004392D01*
X003643Y004526D02*
X003627Y004526D01*
X003877Y004658D02*
X003877Y004392D01*
X003877Y004658D02*
X003893Y004658D01*
X003893Y004392D01*
X003877Y004392D01*
X003893Y004526D02*
X003877Y004526D01*
X004127Y004658D02*
X004127Y004392D01*
X004127Y004658D02*
X004143Y004658D01*
X004143Y004392D01*
X004127Y004392D01*
X004143Y004526D02*
X004127Y004526D01*
X004377Y004658D02*
X004377Y004392D01*
X004377Y004658D02*
X004393Y004658D01*
X004393Y004392D01*
X004377Y004392D01*
X004393Y004526D02*
X004377Y004526D01*
X004127Y004892D02*
X004127Y005158D01*
X004143Y005158D01*
X004143Y004892D01*
X004127Y004892D01*
X004143Y005026D02*
X004127Y005026D01*
X003877Y005158D02*
X003877Y004892D01*
X003877Y005158D02*
X003893Y005158D01*
X003893Y004892D01*
X003877Y004892D01*
X003893Y005026D02*
X003877Y005026D01*
X003627Y005158D02*
X003627Y004892D01*
X003627Y005158D02*
X003643Y005158D01*
X003643Y004892D01*
X003627Y004892D01*
X003643Y005026D02*
X003627Y005026D01*
X003377Y005158D02*
X003377Y004892D01*
X003377Y005158D02*
X003393Y005158D01*
X003393Y004892D01*
X003377Y004892D01*
X003393Y005026D02*
X003377Y005026D01*
X003127Y005158D02*
X003127Y004892D01*
X003127Y005158D02*
X003143Y005158D01*
X003143Y004892D01*
X003127Y004892D01*
X003143Y005026D02*
X003127Y005026D01*
X002877Y005158D02*
X002877Y004892D01*
X002877Y005158D02*
X002893Y005158D01*
X002893Y004892D01*
X002877Y004892D01*
X002893Y005026D02*
X002877Y005026D01*
X002627Y005158D02*
X002627Y004892D01*
X002627Y005158D02*
X002643Y005158D01*
X002643Y004892D01*
X002627Y004892D01*
X002643Y005026D02*
X002627Y005026D01*
X002377Y005158D02*
X002377Y004892D01*
X002377Y005158D02*
X002393Y005158D01*
X002393Y004892D01*
X002377Y004892D01*
X002393Y005026D02*
X002377Y005026D01*
D11*
X001315Y001365D03*
X001735Y001105D03*
X002185Y000755D03*
X002685Y001055D03*
X002885Y000505D03*
X003355Y000975D03*
X003595Y000505D03*
X004035Y000935D03*
X004585Y000855D03*
X005085Y001155D03*
X005535Y001555D03*
X005785Y002055D03*
X005985Y002555D03*
X005235Y002055D03*
X004585Y001665D03*
X005935Y004055D03*
X005785Y004605D03*
X005385Y004205D03*
X005235Y004755D03*
X004535Y005005D03*
X004985Y005505D03*
X004485Y005805D03*
X003985Y006005D03*
X003435Y006105D03*
X003305Y005605D03*
X002855Y006075D03*
X002635Y005505D03*
X002235Y005855D03*
X001785Y005555D03*
X001435Y005255D03*
X000885Y004655D03*
X001435Y004605D03*
X001185Y004105D03*
X000635Y004155D03*
X000635Y002495D03*
X001185Y002465D03*
X001495Y002025D03*
X000885Y001855D03*
D12*
X001125Y001685D01*
X001705Y001685D01*
X001825Y001845D01*
X001825Y002335D01*
X001965Y002475D01*
X002385Y002475D01*
X002435Y002425D01*
X002435Y002135D01*
X002685Y002135D02*
X002685Y002525D01*
X002595Y002615D01*
X001685Y002615D01*
X001545Y002475D01*
X001475Y002045D01*
X001495Y002025D01*
X001185Y002465D02*
X001475Y002755D01*
X002735Y002755D01*
X002935Y002555D01*
X002935Y002135D01*
X003185Y002135D02*
X003185Y002515D01*
X002805Y002895D01*
X001175Y002895D01*
X000635Y002495D01*
X001125Y003735D02*
X000635Y004155D01*
X000885Y004655D02*
X001155Y004925D01*
X001615Y004925D01*
X001755Y004785D01*
X001755Y004365D01*
X001965Y004155D01*
X002315Y004155D01*
X002385Y004225D01*
X002385Y004525D01*
X002635Y004525D02*
X002635Y004125D01*
X002525Y004015D01*
X001825Y004015D01*
X001545Y004295D01*
X001545Y004495D01*
X001435Y004605D01*
X001185Y004105D02*
X001415Y003875D01*
X002595Y003875D01*
X002885Y004165D01*
X002885Y004525D01*
X003135Y004525D02*
X003135Y004205D01*
X002665Y003735D01*
X001125Y003735D01*
X002385Y005025D02*
X002385Y005205D01*
X002235Y005355D01*
X002235Y005855D01*
X002635Y005505D02*
X002635Y005025D01*
X002885Y005005D02*
X002885Y005255D01*
X002965Y005395D01*
X002965Y005945D01*
X002855Y006075D01*
X003305Y005605D02*
X003135Y005455D01*
X003135Y005025D01*
X003385Y005025D02*
X003385Y005255D01*
X003655Y005525D01*
X003655Y005885D01*
X003435Y006105D01*
X003835Y005855D02*
X003985Y006005D01*
X003835Y005855D02*
X003835Y005505D01*
X003635Y005305D01*
X003635Y005025D01*
X003885Y005025D02*
X003885Y005305D01*
X004135Y005555D01*
X004235Y005555D01*
X004485Y005805D01*
X004285Y005405D02*
X004885Y005405D01*
X004985Y005505D01*
X005115Y005135D02*
X005465Y005135D01*
X005745Y004855D01*
X005745Y004645D01*
X005785Y004605D01*
X005385Y004205D02*
X005055Y003875D01*
X003925Y003875D01*
X003635Y004165D01*
X003635Y004525D01*
X003385Y004525D02*
X003385Y004205D01*
X003855Y003735D01*
X005335Y003735D01*
X005935Y004055D01*
X005235Y004755D02*
X004975Y004495D01*
X004975Y004155D01*
X004835Y004015D01*
X003995Y004015D01*
X003885Y004125D01*
X003885Y004525D01*
X004135Y004525D02*
X004135Y004225D01*
X004205Y004155D01*
X004765Y004155D01*
X004835Y004225D01*
X004835Y004855D01*
X005115Y005135D01*
X004285Y005405D02*
X004135Y005255D01*
X004135Y005105D01*
X003855Y002895D02*
X005365Y002895D01*
X005985Y002555D01*
X005605Y002475D02*
X005605Y002235D01*
X005785Y002055D01*
X005605Y002475D02*
X005325Y002755D01*
X003925Y002755D01*
X003685Y002515D01*
X003685Y002135D01*
X003935Y002135D02*
X003935Y002475D01*
X004075Y002615D01*
X004975Y002615D01*
X005185Y002405D01*
X005185Y002105D01*
X005235Y002055D01*
X004835Y001915D02*
X005115Y001635D01*
X005455Y001635D01*
X005535Y001555D01*
X005085Y001155D02*
X004985Y001255D01*
X004445Y001255D01*
X004185Y001515D01*
X004185Y001635D01*
X003935Y001635D02*
X003935Y001415D01*
X003995Y001355D01*
X004085Y001355D01*
X004585Y000855D01*
X004035Y000935D02*
X003925Y001215D01*
X003785Y001355D01*
X003685Y001425D01*
X003685Y001635D01*
X003435Y001635D02*
X003435Y001425D01*
X003715Y001145D01*
X003715Y000525D01*
X003595Y000505D01*
X003355Y000975D02*
X003185Y001145D01*
X003185Y001505D01*
X002935Y001635D02*
X002935Y001295D01*
X003015Y001215D01*
X003015Y000635D01*
X002885Y000505D01*
X002685Y001055D02*
X002685Y001605D01*
X002435Y001615D02*
X002175Y001355D01*
X002175Y000765D01*
X002185Y000755D01*
X002435Y001615D02*
X002435Y001635D01*
X003435Y002135D02*
X003435Y002475D01*
X003855Y002895D01*
X004205Y002475D02*
X004185Y002455D01*
X004185Y002135D01*
X004205Y002475D02*
X004695Y002475D01*
X004835Y002335D01*
X004835Y001915D01*
D13*
X002685Y001635D02*
X002685Y001605D01*
X002885Y005005D02*
X002885Y005025D01*
X001785Y005555D02*
X001435Y005255D01*
X001685Y005255D01*
X004135Y005105D02*
X004135Y005025D01*
D14*
X004385Y004705D02*
X004385Y004525D01*
X004385Y004705D02*
X004535Y004855D01*
X004535Y005005D01*
X002135Y004755D02*
X002135Y004525D01*
X002135Y004755D02*
X001685Y005255D01*
X002185Y002135D02*
X002185Y001855D01*
X001835Y001505D01*
X001835Y001205D01*
X001735Y001105D01*
X001635Y001105D01*
X001315Y001365D01*
X004435Y002135D02*
X004525Y002135D01*
X004585Y002075D01*
X004585Y001665D01*
M02*
