*
G04 Mass Parameters ***
*
G04 Image ***
*
%INZ:\PROJECTEN\6050 FLEX DRIVE MASTER\PCB\130120\130120.TOP*%
%ICAS*%
%MOIN*%
%IPPOS*%
%ASAXBY*%
G74*%FSLAN2X34Y34*%
*
G04 Aperture Definitions ***
*
%ADD10R,0.0275X0.0149*%
%ADD11C,0.0256*%
%ADD12C,0.0004*%
%ADD13C,0.0197*%
%ADD14C,0.0079*%
%ADD15C,0.0197*%
%ADD16C,0.0059*%
*
G04 Plot Data ***
*
G54D12*
Y-0003248D02*
G03X0003248Y0000000I0000000J0003248D01*
G01X-0003248D02*
G03X0000000Y-0003248I0003248J0000000D01*
Y0003248D02*
G03X-0003248Y0000000I0000000J0003248D01*
G01X0003248D02*
G03X0000000Y0003248I0003248J0000000D01*
G54D14*
G01X-0000858Y0001876D02*
X-0001049D01*
X-0001189Y0002016D01*
Y0002768D01*
X-0002669Y-0000535D02*
X-0002551D01*
X-0002323Y-0000764D01*
X-0001217D01*
X-0001106Y-0000874D01*
X-0000858D01*
X0000520Y-0002358D02*
Y-0002827D01*
X0000327Y-0003020D01*
X-0000200Y-0002125D02*
Y-0002358D01*
X-0000201D01*
X0000520D02*
Y-0002161D01*
X0000558Y-0002123D01*
X0000856D01*
X-0000858Y0002429D02*
Y0002661D01*
X0000126D01*
X0000157Y0002630D01*
Y0002433D01*
Y0002168D01*
X0000199Y0002127D01*
X-0000858Y-0002124D02*
X-0001175D01*
X-0001177Y-0002126D01*
X0000199Y-0002123D02*
Y-0002656D01*
X0000197Y-0002657D01*
X0000752Y0002594D02*
X0000856Y0002490D01*
Y0002127D01*
X-0000858Y0002429D02*
Y0002126D01*
X0000856Y0002127D02*
X0001173D01*
Y0002126D01*
X0002465Y0001138D02*
X0001606D01*
X0001368Y0001377D01*
X0000856D01*
X0000197Y-0002657D02*
X-0000201D01*
X0000523Y0001127D02*
X0000199D01*
X0002492Y0001138D02*
X0002465D01*
X-0000858Y0001126D02*
X-0001354D01*
X-0001791Y0001563D01*
X-0002039D01*
X0000497Y-0001123D02*
X0000199D01*
X0001224Y-0002776D02*
X0001130Y-0002681D01*
Y-0001945D01*
X0001058Y-0001873D01*
X0000856D01*
X0002343Y0001925D02*
Y0001732D01*
X0002303Y0001693D01*
X0001622D01*
X0001438Y0001877D01*
X0000856D01*
X0000199Y-0001373D02*
X0000493D01*
X-0000858Y0000126D02*
X-0001358D01*
X-0001984Y0000752D01*
X-0002520D01*
X0000199Y0000627D02*
X0000513D01*
X-0002992Y0000437D02*
X-0002181Y-0000374D01*
X-0000858D01*
X-0002764Y-0000087D02*
X-0002226Y-0000624D01*
X-0000858D01*
X0000199Y-0001623D02*
X0000505D01*
X0000491Y-0000373D02*
X0000199D01*
Y-0000623D02*
X0000481D01*
X0002382Y-0001193D02*
X0002118D01*
X0001299Y-0000373D01*
X0000856D01*
Y0000127D02*
X0001358D01*
X0002012Y-0000528D01*
X0003012D01*
X0003008Y-0000524D01*
X0002972D01*
X0002598Y-0000752D02*
X0001961D01*
X0001332Y-0000123D01*
X0000856D01*
X0000528Y-0002366D02*
X0000531Y-0002358D01*
X0000520D01*
X0000199Y0001627D02*
X0000507D01*
X0002319Y0001413D02*
X0001618D01*
X0001405Y0001627D01*
X0000856D01*
X-0000200Y0001375D02*
X-0000522D01*
X0000199Y-0000123D02*
X0000493D01*
X0000505Y0000377D02*
X0000199D01*
X-0000200Y-0000875D02*
X-0000524D01*
X-0000522Y-0001628D02*
X-0000203D01*
X-0000200Y-0001625D01*
X0000199Y0000127D02*
X0000501D01*
X-0000858Y0002665D02*
Y0002854D01*
X0000199Y0001877D02*
X0000460D01*
X0000524Y0001941D01*
Y0002965D01*
X-0000201Y0002433D02*
Y0002126D01*
X-0000200Y0002125D01*
X0000856Y0000627D02*
X0001240D01*
X0001319Y0000547D01*
X0002130D01*
X0002673Y0000004D01*
Y0000000D01*
X-0000858Y0001626D02*
X-0001130D01*
X-0001465Y0001961D01*
Y0002280D01*
X-0000858Y0001376D02*
X-0001364D01*
X-0001657Y0001669D01*
Y0002157D01*
X-0001858Y0002358D01*
X0001606Y-0002043D02*
Y-0001874D01*
X0001106Y-0001373D01*
X0000856D01*
X0001362Y-0002476D02*
Y-0001913D01*
X0001072Y-0001623D01*
X0000856D01*
X-0000524Y0000625D02*
X-0000200D01*
X-0002382Y0001776D02*
Y0001563D01*
X-0002150Y0001331D01*
X-0001780D01*
X-0001325Y0000876D01*
X-0000858D01*
Y0000376D02*
X-0001332D01*
X-0001913Y0000957D01*
X-0002331D01*
X-0002551Y0001177D01*
X0002028Y-0001783D02*
X0001819D01*
X0001159Y-0001123D01*
X0000856D01*
X-0002850Y0000732D02*
Y0000646D01*
X-0002713Y0000508D01*
X-0002004D01*
X-0001372Y-0000124D01*
X-0000858D01*
X0002693Y-0001366D02*
X0002638Y-0001421D01*
X0002055D01*
X0001257Y-0000623D01*
X0000856D01*
X0000199Y-0000873D02*
X0000507D01*
X-0002748Y-0000535D02*
X-0002669D01*
X-0002917Y-0000783D02*
X-0002524D01*
X-0002382Y-0000925D01*
X-0001295D01*
X-0001096Y-0001124D01*
X-0000858D01*
Y-0001374D02*
X-0001122D01*
X-0001201Y-0001295D01*
X-0002244D01*
X-0000858Y-0001624D02*
X-0002168D01*
X-0002303Y-0001760D01*
X-0002024Y-0002264D02*
X-0002028Y-0002260D01*
Y-0001961D01*
X-0001941Y-0001874D01*
X-0000858D01*
X-0000200Y0001875D02*
X-0000521D01*
X-0000200Y0001625D02*
X-0000523D01*
X0002531Y-0000291D02*
X0002323Y-0000083D01*
Y0000130D01*
X0002076Y0000377D01*
X0000856D01*
X-0000200Y0001125D02*
X-0000505D01*
X-0000200Y0000875D02*
X-0000522D01*
X-0002646Y0001492D02*
X-0002516D01*
X-0002189Y0001165D01*
X-0001870D01*
X-0001330Y0000626D01*
X-0000858D01*
X0002528Y-0001673D02*
X0002417Y-0001563D01*
X0001886D01*
X0001196Y-0000873D01*
X0000856D01*
X-0000200Y0000125D02*
X-0000523D01*
X0000521Y0000877D02*
X0000199D01*
X-0000200Y0000375D02*
X-0000522D01*
X-0000200Y-0001125D02*
X-0000203Y-0001122D01*
X-0000524D01*
X0002906Y0000720D02*
X0002705Y0000921D01*
X0001547D01*
X0001342Y0001127D01*
X0000856D01*
Y0000877D02*
X0001293D01*
X0001449Y0000720D01*
X0002169D01*
X0002437Y0000453D01*
X0002713D01*
Y0000441D01*
X-0000524Y-0001882D02*
X-0000516Y-0001875D01*
X-0000200D01*
X-0000526Y-0000625D02*
X-0000200D01*
Y-0000375D02*
X-0000515D01*
X-0000522Y-0000125D02*
X-0000200D01*
X0000199Y-0001873D02*
X0000501D01*
X0000199Y0001377D02*
X0000517D01*
X-0000522Y-0001376D02*
X-0000520Y-0001375D01*
X-0000200D01*
G54D16*
G01X-0000858Y-0002124D02*
Y-0002268D01*
X-0000732Y-0002394D01*
Y-0002701D01*
X-0000685Y-0002748D01*
X-0000291D01*
X-0000201Y-0002657D01*
G54D10*
X0000199Y0002127D03*
X0000856D03*
X0000199Y0001877D03*
X0000856D03*
X0000199Y0001627D03*
X0000856D03*
X0000199Y0001377D03*
X0000856D03*
X0000199Y0001127D03*
X0000856D03*
X0000199Y0000877D03*
X0000856D03*
X0000199Y0000627D03*
X0000856D03*
X0000199Y0000377D03*
X0000856D03*
X0000199Y0000127D03*
X0000856D03*
X0000199Y-0000123D03*
X0000856D03*
X0000199Y-0000373D03*
X0000856D03*
X0000199Y-0000623D03*
X0000856D03*
X0000199Y-0000873D03*
X0000856D03*
X0000199Y-0001123D03*
X0000856D03*
X0000199Y-0001373D03*
X0000856D03*
X0000199Y-0001623D03*
X0000856D03*
X0000199Y-0001873D03*
X0000856D03*
X0000199Y-0002123D03*
X0000856D03*
X-0000858Y0002126D03*
X-0000200Y0002125D03*
X-0000858Y0001876D03*
X-0000200Y0001875D03*
X-0000858Y0001626D03*
X-0000200Y0001625D03*
X-0000858Y0001376D03*
X-0000200Y0001375D03*
X-0000858Y0001126D03*
X-0000200Y0001125D03*
X-0000858Y0000876D03*
X-0000200Y0000875D03*
X-0000858Y0000626D03*
X-0000200Y0000625D03*
X-0000858Y0000376D03*
X-0000200Y0000375D03*
X-0000858Y0000126D03*
X-0000200Y0000125D03*
X-0000858Y-0000124D03*
X-0000200Y-0000125D03*
X-0000858Y-0000374D03*
X-0000200Y-0000375D03*
X-0000858Y-0000624D03*
X-0000200Y-0000625D03*
X-0000858Y-0000874D03*
X-0000200Y-0000875D03*
X-0000858Y-0001124D03*
X-0000200Y-0001125D03*
X-0000858Y-0001374D03*
X-0000200Y-0001375D03*
X-0000858Y-0001624D03*
X-0000200Y-0001625D03*
X-0000858Y-0001874D03*
X-0000200Y-0001875D03*
X-0000858Y-0002124D03*
X-0000200Y-0002125D03*
G54D11*
X-0000201Y0002433D03*
X-0000858Y0002429D03*
X-0001189Y0002768D03*
X-0001465Y0002280D03*
X-0001551Y0002602D03*
X-0001858Y0002358D03*
X-0001882Y0002012D03*
X-0002217Y0002067D03*
X-0002039Y0001563D03*
X-0002382Y0001776D03*
X-0002646Y0001492D03*
X-0002551Y0001177D03*
X-0002854Y0001051D03*
X-0002520Y0000752D03*
X-0002850Y0000732D03*
X-0002992Y0000437D03*
X-0003039Y0000126D03*
X-0002764Y-0000087D03*
X-0003008Y-0000362D03*
X-0002669Y-0000535D03*
X-0002917Y-0000783D03*
X-0002654Y-0001000D03*
X-0002756Y-0001299D03*
X-0002244Y-0001295D03*
X-0002303Y-0001760D03*
X-0002571Y-0001559D03*
X-0002248Y-0002055D03*
X-0002024Y-0002264D03*
X-0001177Y-0002126D03*
X0000327Y-0003020D03*
X-0001602Y-0002122D03*
X-0001728Y-0002480D03*
X-0001394Y-0002685D03*
X-0000945Y-0002697D03*
X-0000732Y-0002961D03*
X-0000524Y-0002551D03*
X-0000201Y-0002657D03*
Y-0002358D03*
X0000197Y-0002657D03*
X0000520Y-0002358D03*
X0001224Y-0002776D03*
X0001362Y-0002476D03*
X0001701D03*
X0001606Y-0002043D03*
X0002008Y-0002256D03*
X0002307Y-0001957D03*
X0002028Y-0001783D03*
X0002528Y-0001673D03*
X0002693Y-0001366D03*
X0002382Y-0001193D03*
X0002831Y-0001031D03*
X0002598Y-0000752D03*
X0002972Y-0000524D03*
X0002531Y-0000291D03*
X0002980Y-0000165D03*
X0002673Y0000000D03*
X0002988Y0000220D03*
X0002713Y0000441D03*
X0002906Y0000720D03*
X0002520Y0000709D03*
X0002787Y0001173D03*
X0002465Y0001138D03*
X0002622Y0001539D03*
X0002319Y0001413D03*
X0002020Y0001925D03*
X0001173Y0002126D03*
X-0000858Y0002854D03*
X0002343Y0001925D03*
X0001772Y0002461D03*
X0002020Y0002244D03*
X0001220Y0002783D03*
X0001492Y0002618D03*
X0000890Y0002917D03*
X0000524Y0002965D03*
X0000752Y0002594D03*
X0000157Y0002433D03*
G54D13*
X-0000522Y-0001376D03*
G54D15*
X0000523Y0001127D03*
X0000497Y-0001123D03*
X0000493Y-0001373D03*
X0000513Y0000627D03*
X0000505Y-0001623D03*
X0000491Y-0000373D03*
X0000481Y-0000623D03*
X0000507Y0001627D03*
X-0000522Y0001375D03*
X0000493Y-0000123D03*
X0000505Y0000377D03*
X-0000524Y-0000875D03*
X-0000522Y-0001628D03*
X0000501Y0000127D03*
X-0000524Y0000625D03*
X0000507Y-0000873D03*
X-0000521Y0001875D03*
X-0000523Y0001625D03*
X-0000505Y0001125D03*
X-0000522Y0000875D03*
X-0000523Y0000125D03*
X0000521Y0000877D03*
X-0000522Y0000375D03*
X-0000524Y-0001122D03*
Y-0001882D03*
X-0000526Y-0000625D03*
X-0000515Y-0000375D03*
X-0000522Y-0000125D03*
X0000501Y-0001873D03*
X0000517Y0001377D03*
M02*
