*
G04 Mass Parameters ***
*
G04 Image ***
*
%INZ:\PROJECTEN\6050 FLEX DRIVE MASTER\PCB\130120\130120.SMB*%
%ICAS*%
%MOIN*%
%IPPOS*%
%ASAXBY*%
G74*%FSLAN2X34Y34*%
*
G04 Aperture Definitions ***
*
%ADD10R,0.0275X0.0149*%
%ADD11C,0.0256*%
%ADD12C,0.0004*%
%ADD13C,0.0197*%
%ADD14C,0.0079*%
%ADD15C,0.0197*%
%ADD16C,0.0059*%
*
G04 Plot Data ***
*
G54D12*
G01X0000807Y-0002902D02*
Y-0003059D01*
Y-0002618D02*
Y-0002902D01*
X0001035Y-0002618D02*
X0000807D01*
X0001035D02*
Y-0003059D01*
X0000807D01*
X0001027Y-0002618D02*
Y-0003059D01*
X0001023Y-0002618D02*
Y-0003059D01*
X0001020Y-0002618D02*
Y-0003059D01*
X0001016Y-0002618D02*
Y-0003059D01*
X0001013Y-0002618D02*
Y-0003059D01*
X0001009Y-0002618D02*
Y-0003059D01*
X0001006Y-0002618D02*
Y-0003059D01*
X0001002Y-0002618D02*
Y-0003059D01*
X0000999Y-0002618D02*
Y-0003059D01*
X0000995Y-0002618D02*
Y-0003059D01*
X0000992Y-0002618D02*
Y-0003059D01*
X0000988Y-0002618D02*
Y-0003059D01*
X0000985Y-0002618D02*
Y-0003059D01*
X0000981Y-0002618D02*
Y-0003059D01*
X0000978Y-0002618D02*
Y-0003059D01*
X0000974Y-0002618D02*
Y-0003059D01*
X0000971Y-0002618D02*
Y-0003059D01*
X0000967Y-0002618D02*
Y-0003059D01*
X0000964Y-0002618D02*
Y-0003059D01*
X0000960Y-0002618D02*
Y-0003059D01*
X0000957Y-0002618D02*
Y-0003059D01*
X0000953Y-0002618D02*
Y-0003059D01*
X0000950Y-0002618D02*
Y-0003059D01*
X0000946Y-0002618D02*
Y-0003059D01*
X0000943Y-0002618D02*
Y-0003059D01*
X0000939Y-0002618D02*
Y-0003059D01*
X0000936Y-0002618D02*
Y-0003059D01*
X0000932Y-0002618D02*
Y-0003059D01*
X0000929Y-0002618D02*
Y-0003059D01*
X0000925Y-0002618D02*
Y-0003059D01*
X0000922Y-0002618D02*
Y-0003059D01*
X0000918Y-0002618D02*
Y-0003059D01*
X0000915Y-0002618D02*
Y-0003059D01*
X0000911Y-0002618D02*
Y-0003059D01*
X0000908Y-0002618D02*
Y-0003059D01*
X0000904Y-0002618D02*
Y-0003059D01*
X0000901Y-0002618D02*
Y-0003059D01*
X0000897Y-0002618D02*
Y-0003059D01*
X0000894Y-0002618D02*
Y-0003059D01*
X0000890Y-0002618D02*
Y-0003059D01*
X0000887Y-0002618D02*
Y-0003059D01*
X0000883Y-0002618D02*
Y-0003059D01*
X0000879Y-0002618D02*
Y-0003059D01*
X0000876Y-0002618D02*
Y-0003059D01*
X0000872Y-0002618D02*
Y-0003059D01*
X0000869Y-0002618D02*
Y-0003059D01*
X0000865Y-0002618D02*
Y-0003059D01*
X0000862Y-0002618D02*
Y-0003059D01*
X0000858Y-0002618D02*
Y-0003059D01*
X0000855Y-0002618D02*
Y-0003059D01*
X0000851Y-0002618D02*
Y-0003059D01*
X0000848Y-0002618D02*
Y-0003059D01*
X0000844Y-0002618D02*
Y-0003059D01*
X0000841Y-0002618D02*
Y-0003059D01*
X0000837Y-0002618D02*
Y-0003059D01*
X0000834Y-0002618D02*
Y-0003059D01*
X0000830Y-0002618D02*
Y-0003059D01*
X0000827Y-0002618D02*
Y-0003059D01*
X0000823Y-0002618D02*
Y-0003059D01*
X0000820Y-0002618D02*
Y-0003059D01*
X0000816Y-0002618D02*
Y-0003059D01*
X0001035Y-0002628D02*
X0000807D01*
X0001035Y-0002632D02*
X0000807D01*
X0001035Y-0002635D02*
X0000807D01*
X0001035Y-0002639D02*
X0000807D01*
X0001035Y-0002643D02*
X0000807D01*
X0001035Y-0002646D02*
X0000807D01*
X0001035Y-0002650D02*
X0000807D01*
X0001035Y-0002653D02*
X0000807D01*
X0001035Y-0002657D02*
X0000807D01*
X0001035Y-0002660D02*
X0000807D01*
X0001035Y-0002664D02*
X0000807D01*
X0001035Y-0002667D02*
X0000807D01*
X0001035Y-0002671D02*
X0000807D01*
X0001035Y-0002674D02*
X0000807D01*
X0001035Y-0002678D02*
X0000807D01*
X0001035Y-0002681D02*
X0000807D01*
X0001035Y-0002685D02*
X0000807D01*
X0001035Y-0002688D02*
X0000807D01*
X0001035Y-0002692D02*
X0000807D01*
X0001035Y-0002695D02*
X0000807D01*
X0001035Y-0002699D02*
X0000807D01*
X0001035Y-0002702D02*
X0000807D01*
X0001035Y-0002706D02*
X0000807D01*
X0001035Y-0002709D02*
X0000807D01*
X0001035Y-0002713D02*
X0000807D01*
X0001035Y-0002716D02*
X0000807D01*
X0001035Y-0002720D02*
X0000807D01*
X0001035Y-0002723D02*
X0000807D01*
X0001035Y-0002727D02*
X0000807D01*
X0001035Y-0002730D02*
X0000807D01*
X0001035Y-0002734D02*
X0000807D01*
X0001035Y-0002737D02*
X0000807D01*
X0001035Y-0002741D02*
X0000807D01*
X0001035Y-0002744D02*
X0000807D01*
X0001035Y-0002748D02*
X0000807D01*
X0001035Y-0002751D02*
X0000807D01*
X0001035Y-0002755D02*
X0000807D01*
X0001035Y-0002758D02*
X0000807D01*
X0001035Y-0002762D02*
X0000807D01*
X0001035Y-0002765D02*
X0000807D01*
X0001035Y-0002769D02*
X0000807D01*
X0001035Y-0002772D02*
X0000807D01*
X0001035Y-0002776D02*
X0000807D01*
X0001035Y-0002779D02*
X0000807D01*
X0001035Y-0002783D02*
X0000807D01*
X0001035Y-0002786D02*
X0000807D01*
X0001035Y-0002790D02*
X0000807D01*
X0001035Y-0002794D02*
X0000807D01*
X0001035Y-0002797D02*
X0000807D01*
X0001035Y-0002801D02*
X0000807D01*
X0001035Y-0002804D02*
X0000807D01*
X0001035Y-0002808D02*
X0000807D01*
X0001035Y-0002811D02*
X0000807D01*
X0001035Y-0002815D02*
X0000807D01*
X0001035Y-0002818D02*
X0000807D01*
X0001035Y-0002822D02*
X0000807D01*
X0001035Y-0002825D02*
X0000807D01*
X0001035Y-0002829D02*
X0000807D01*
X0001035Y-0002832D02*
X0000807D01*
X0001035Y-0002836D02*
X0000807D01*
X0001035Y-0002839D02*
X0000807D01*
X0001035Y-0002843D02*
X0000807D01*
X0001035Y-0002846D02*
X0000807D01*
X0001035Y-0002850D02*
X0000807D01*
X0001035Y-0002853D02*
X0000807D01*
X0001035Y-0002857D02*
X0000807D01*
X0001035Y-0002860D02*
X0000807D01*
X0001035Y-0002864D02*
X0000807D01*
X0001035Y-0002867D02*
X0000807D01*
X0001035Y-0002871D02*
X0000807D01*
X0001035Y-0002874D02*
X0000807D01*
X0001035Y-0002878D02*
X0000807D01*
X0001035Y-0002881D02*
X0000807D01*
X0001035Y-0002885D02*
X0000807D01*
X0001035Y-0002888D02*
X0000807D01*
X0001035Y-0002892D02*
X0000807D01*
X0001035Y-0002895D02*
X0000807D01*
X0001035Y-0002899D02*
X0000807D01*
X0001035Y-0002902D02*
X0000807D01*
X0001035Y-0002906D02*
X0000807D01*
X0001035Y-0002909D02*
X0000807D01*
X0001035Y-0002913D02*
X0000807D01*
X0001035Y-0002916D02*
X0000807D01*
X0001035Y-0002920D02*
X0000807D01*
X0001035Y-0002923D02*
X0000807D01*
X0001035Y-0002927D02*
X0000807D01*
X0001035Y-0002930D02*
X0000807D01*
X0001035Y-0002934D02*
X0000807D01*
X0001035Y-0002937D02*
X0000807D01*
X0001035Y-0002941D02*
X0000807D01*
X0001035Y-0002945D02*
X0000807D01*
X0001035Y-0002948D02*
X0000807D01*
X0001035Y-0002952D02*
X0000807D01*
X0001035Y-0002955D02*
X0000807D01*
X0001035Y-0002959D02*
X0000807D01*
X0001035Y-0002962D02*
X0000807D01*
X0001035Y-0002966D02*
X0000807D01*
X0001035Y-0002969D02*
X0000807D01*
X0001035Y-0002973D02*
X0000807D01*
X0001035Y-0002976D02*
X0000807D01*
X0001035Y-0002980D02*
X0000807D01*
X0001035Y-0002983D02*
X0000807D01*
X0001035Y-0002987D02*
X0000807D01*
X0001035Y-0002990D02*
X0000807D01*
X0001035Y-0002994D02*
X0000807D01*
X0001035Y-0002997D02*
X0000807D01*
X0001035Y-0003001D02*
X0000807D01*
X0001035Y-0003004D02*
X0000807D01*
X0001035Y-0003008D02*
X0000807D01*
X0001035Y-0003011D02*
X0000807D01*
X0001035Y-0003015D02*
X0000807D01*
X0001035Y-0003018D02*
X0000807D01*
X0001035Y-0003022D02*
X0000807D01*
X0001035Y-0003025D02*
X0000807D01*
X0001035Y-0003029D02*
X0000807D01*
X0001035Y-0003032D02*
X0000807D01*
X0001035Y-0003036D02*
X0000807D01*
X0001035Y-0003039D02*
X0000807D01*
X0001035Y-0003043D02*
X0000807D01*
X0001035Y-0003046D02*
X0000807D01*
X0001035Y-0003050D02*
X0000807D01*
X-0000697Y0003126D02*
Y0002720D01*
X-0000496D02*
X-0000697D01*
X-0000496Y0003126D02*
Y0002720D01*
Y0003126D02*
X-0000697D01*
X-0000505D02*
Y0002720D01*
X-0000509Y0003126D02*
Y0002720D01*
X-0000512Y0003126D02*
Y0002720D01*
X-0000516Y0003126D02*
Y0002720D01*
X-0000519Y0003126D02*
Y0002720D01*
X-0000523Y0003126D02*
Y0002720D01*
X-0000526Y0003126D02*
Y0002720D01*
X-0000530Y0003126D02*
Y0002720D01*
X-0000533Y0003126D02*
Y0002720D01*
X-0000537Y0003126D02*
Y0002720D01*
X-0000540Y0003126D02*
Y0002720D01*
X-0000544Y0003126D02*
Y0002720D01*
X-0000547Y0003126D02*
Y0002720D01*
X-0000551Y0003126D02*
Y0002720D01*
X-0000554Y0003126D02*
Y0002720D01*
X-0000558Y0003126D02*
Y0002720D01*
X-0000561Y0003126D02*
Y0002720D01*
X-0000565Y0003126D02*
Y0002720D01*
X-0000568Y0003126D02*
Y0002720D01*
X-0000572Y0003126D02*
Y0002720D01*
X-0000575Y0003126D02*
Y0002720D01*
X-0000579Y0003126D02*
Y0002720D01*
X-0000582Y0003126D02*
Y0002720D01*
X-0000586Y0003126D02*
Y0002720D01*
X-0000589Y0003126D02*
Y0002720D01*
X-0000593Y0003126D02*
Y0002720D01*
X-0000596Y0003126D02*
Y0002720D01*
X-0000600Y0003126D02*
Y0002720D01*
X-0000603Y0003126D02*
Y0002720D01*
X-0000607Y0003126D02*
Y0002720D01*
X-0000610Y0003126D02*
Y0002720D01*
X-0000614Y0003126D02*
Y0002720D01*
X-0000617Y0003126D02*
Y0002720D01*
X-0000621Y0003126D02*
Y0002720D01*
X-0000624Y0003126D02*
Y0002720D01*
X-0000628Y0003126D02*
Y0002720D01*
X-0000631Y0003126D02*
Y0002720D01*
X-0000635Y0003126D02*
Y0002720D01*
X-0000639Y0003126D02*
Y0002720D01*
X-0000642Y0003126D02*
Y0002720D01*
X-0000646Y0003126D02*
Y0002720D01*
X-0000649Y0003126D02*
Y0002720D01*
X-0000653Y0003126D02*
Y0002720D01*
X-0000656Y0003126D02*
Y0002720D01*
X-0000660Y0003126D02*
Y0002720D01*
X-0000663Y0003126D02*
Y0002720D01*
X-0000667Y0003126D02*
Y0002720D01*
X-0000670Y0003126D02*
Y0002720D01*
X-0000674Y0003126D02*
Y0002720D01*
X-0000677Y0003126D02*
Y0002720D01*
X-0000681Y0003126D02*
Y0002720D01*
X-0000684Y0003126D02*
Y0002720D01*
X-0000688Y0003126D02*
Y0002720D01*
X-0000496Y0003116D02*
X-0000697D01*
X-0000496Y0003112D02*
X-0000697D01*
X-0000496Y0003109D02*
X-0000697D01*
X-0000496Y0003105D02*
X-0000697D01*
X-0000496Y0003102D02*
X-0000697D01*
X-0000496Y0003098D02*
X-0000697D01*
X-0000496Y0003095D02*
X-0000697D01*
X-0000496Y0003091D02*
X-0000697D01*
X-0000496Y0003088D02*
X-0000697D01*
X-0000496Y0003084D02*
X-0000697D01*
X-0000496Y0003081D02*
X-0000697D01*
X-0000496Y0003077D02*
X-0000697D01*
X-0000496Y0003074D02*
X-0000697D01*
X-0000496Y0003070D02*
X-0000697D01*
X-0000496Y0003067D02*
X-0000697D01*
X-0000496Y0003063D02*
X-0000697D01*
X-0000496Y0003060D02*
X-0000697D01*
X-0000496Y0003056D02*
X-0000697D01*
X-0000496Y0003053D02*
X-0000697D01*
X-0000496Y0003049D02*
X-0000697D01*
X-0000496Y0003046D02*
X-0000697D01*
X-0000496Y0003042D02*
X-0000697D01*
X-0000496Y0003039D02*
X-0000697D01*
X-0000496Y0003035D02*
X-0000697D01*
X-0000496Y0003032D02*
X-0000697D01*
X-0000496Y0003028D02*
X-0000697D01*
X-0000496Y0003025D02*
X-0000697D01*
X-0000496Y0003021D02*
X-0000697D01*
X-0000496Y0003018D02*
X-0000697D01*
X-0000496Y0003014D02*
X-0000697D01*
X-0000496Y0003011D02*
X-0000697D01*
X-0000496Y0003007D02*
X-0000697D01*
X-0000496Y0003004D02*
X-0000697D01*
X-0000496Y0003000D02*
X-0000697D01*
X-0000496Y0002997D02*
X-0000697D01*
X-0000496Y0002993D02*
X-0000697D01*
X-0000496Y0002990D02*
X-0000697D01*
X-0000496Y0002986D02*
X-0000697D01*
X-0000496Y0002983D02*
X-0000697D01*
X-0000496Y0002979D02*
X-0000697D01*
X-0000496Y0002975D02*
X-0000697D01*
X-0000496Y0002972D02*
X-0000697D01*
X-0000496Y0002968D02*
X-0000697D01*
X-0000496Y0002965D02*
X-0000697D01*
X-0000496Y0002961D02*
X-0000697D01*
X-0000496Y0002958D02*
X-0000697D01*
X-0000496Y0002954D02*
X-0000697D01*
X-0000496Y0002951D02*
X-0000697D01*
X-0000496Y0002947D02*
X-0000697D01*
X-0000496Y0002944D02*
X-0000697D01*
X-0000496Y0002940D02*
X-0000697D01*
X-0000496Y0002937D02*
X-0000697D01*
X-0000496Y0002933D02*
X-0000697D01*
X-0000496Y0002930D02*
X-0000697D01*
X-0000496Y0002926D02*
X-0000697D01*
X-0000496Y0002923D02*
X-0000697D01*
X-0000496Y0002919D02*
X-0000697D01*
X-0000496Y0002916D02*
X-0000697D01*
X-0000496Y0002912D02*
X-0000697D01*
X-0000496Y0002909D02*
X-0000697D01*
X-0000496Y0002905D02*
X-0000697D01*
X-0000496Y0002902D02*
X-0000697D01*
X-0000496Y0002898D02*
X-0000697D01*
X-0000496Y0002895D02*
X-0000697D01*
X-0000496Y0002891D02*
X-0000697D01*
X-0000496Y0002888D02*
X-0000697D01*
X-0000496Y0002884D02*
X-0000697D01*
X-0000496Y0002881D02*
X-0000697D01*
X-0000496Y0002877D02*
X-0000697D01*
X-0000496Y0002874D02*
X-0000697D01*
X-0000496Y0002870D02*
X-0000697D01*
X-0000496Y0002867D02*
X-0000697D01*
X-0000496Y0002863D02*
X-0000697D01*
X-0000496Y0002860D02*
X-0000697D01*
X-0000496Y0002856D02*
X-0000697D01*
X-0000496Y0002853D02*
X-0000697D01*
X-0000496Y0002849D02*
X-0000697D01*
X-0000496Y0002846D02*
X-0000697D01*
X-0000496Y0002842D02*
X-0000697D01*
X-0000496Y0002839D02*
X-0000697D01*
X-0000496Y0002835D02*
X-0000697D01*
X-0000496Y0002831D02*
X-0000697D01*
X-0000496Y0002828D02*
X-0000697D01*
X-0000496Y0002824D02*
X-0000697D01*
X-0000496Y0002821D02*
X-0000697D01*
X-0000496Y0002817D02*
X-0000697D01*
X-0000496Y0002814D02*
X-0000697D01*
X-0000496Y0002810D02*
X-0000697D01*
X-0000496Y0002807D02*
X-0000697D01*
X-0000496Y0002803D02*
X-0000697D01*
X-0000496Y0002800D02*
X-0000697D01*
X-0000496Y0002796D02*
X-0000697D01*
X-0000496Y0002793D02*
X-0000697D01*
X-0000496Y0002789D02*
X-0000697D01*
X-0000496Y0002786D02*
X-0000697D01*
X-0000496Y0002782D02*
X-0000697D01*
X-0000496Y0002779D02*
X-0000697D01*
X-0000496Y0002775D02*
X-0000697D01*
X-0000496Y0002772D02*
X-0000697D01*
X-0000496Y0002768D02*
X-0000697D01*
X-0000496Y0002765D02*
X-0000697D01*
X-0000496Y0002761D02*
X-0000697D01*
X-0000496Y0002758D02*
X-0000697D01*
X-0000496Y0002754D02*
X-0000697D01*
X-0000496Y0002751D02*
X-0000697D01*
X-0000496Y0002747D02*
X-0000697D01*
X-0000496Y0002744D02*
X-0000697D01*
X-0000496Y0002740D02*
X-0000697D01*
X-0000496Y0002737D02*
X-0000697D01*
X-0000496Y0002733D02*
X-0000697D01*
X-0000496Y0002730D02*
X-0000697D01*
X-0000445Y0003126D02*
Y0002720D01*
X-0000244D02*
X-0000445D01*
X-0000244Y0003126D02*
Y0002720D01*
Y0003126D02*
X-0000445D01*
X-0000253D02*
Y0002720D01*
X-0000257Y0003126D02*
Y0002720D01*
X-0000260Y0003126D02*
Y0002720D01*
X-0000264Y0003126D02*
Y0002720D01*
X-0000267Y0003126D02*
Y0002720D01*
X-0000271Y0003126D02*
Y0002720D01*
X-0000274Y0003126D02*
Y0002720D01*
X-0000278Y0003126D02*
Y0002720D01*
X-0000281Y0003126D02*
Y0002720D01*
X-0000285Y0003126D02*
Y0002720D01*
X-0000288Y0003126D02*
Y0002720D01*
X-0000292Y0003126D02*
Y0002720D01*
X-0000295Y0003126D02*
Y0002720D01*
X-0000299Y0003126D02*
Y0002720D01*
X-0000302Y0003126D02*
Y0002720D01*
X-0000306Y0003126D02*
Y0002720D01*
X-0000309Y0003126D02*
Y0002720D01*
X-0000313Y0003126D02*
Y0002720D01*
X-0000316Y0003126D02*
Y0002720D01*
X-0000320Y0003126D02*
Y0002720D01*
X-0000323Y0003126D02*
Y0002720D01*
X-0000327Y0003126D02*
Y0002720D01*
X-0000330Y0003126D02*
Y0002720D01*
X-0000334Y0003126D02*
Y0002720D01*
X-0000337Y0003126D02*
Y0002720D01*
X-0000341Y0003126D02*
Y0002720D01*
X-0000344Y0003126D02*
Y0002720D01*
X-0000348Y0003126D02*
Y0002720D01*
X-0000351Y0003126D02*
Y0002720D01*
X-0000355Y0003126D02*
Y0002720D01*
X-0000358Y0003126D02*
Y0002720D01*
X-0000362Y0003126D02*
Y0002720D01*
X-0000365Y0003126D02*
Y0002720D01*
X-0000369Y0003126D02*
Y0002720D01*
X-0000372Y0003126D02*
Y0002720D01*
X-0000376Y0003126D02*
Y0002720D01*
X-0000380Y0003126D02*
Y0002720D01*
X-0000383Y0003126D02*
Y0002720D01*
X-0000387Y0003126D02*
Y0002720D01*
X-0000390Y0003126D02*
Y0002720D01*
X-0000394Y0003126D02*
Y0002720D01*
X-0000397Y0003126D02*
Y0002720D01*
X-0000401Y0003126D02*
Y0002720D01*
X-0000404Y0003126D02*
Y0002720D01*
X-0000408Y0003126D02*
Y0002720D01*
X-0000411Y0003126D02*
Y0002720D01*
X-0000415Y0003126D02*
Y0002720D01*
X-0000418Y0003126D02*
Y0002720D01*
X-0000422Y0003126D02*
Y0002720D01*
X-0000425Y0003126D02*
Y0002720D01*
X-0000429Y0003126D02*
Y0002720D01*
X-0000432Y0003126D02*
Y0002720D01*
X-0000436Y0003126D02*
Y0002720D01*
X-0000244Y0003116D02*
X-0000445D01*
X-0000244Y0003112D02*
X-0000445D01*
X-0000244Y0003109D02*
X-0000445D01*
X-0000244Y0003105D02*
X-0000445D01*
X-0000244Y0003102D02*
X-0000445D01*
X-0000244Y0003098D02*
X-0000445D01*
X-0000244Y0003095D02*
X-0000445D01*
X-0000244Y0003091D02*
X-0000445D01*
X-0000244Y0003088D02*
X-0000445D01*
X-0000244Y0003084D02*
X-0000445D01*
X-0000244Y0003081D02*
X-0000445D01*
X-0000244Y0003077D02*
X-0000445D01*
X-0000244Y0003074D02*
X-0000445D01*
X-0000244Y0003070D02*
X-0000445D01*
X-0000244Y0003067D02*
X-0000445D01*
X-0000244Y0003063D02*
X-0000445D01*
X-0000244Y0003060D02*
X-0000445D01*
X-0000244Y0003056D02*
X-0000445D01*
X-0000244Y0003053D02*
X-0000445D01*
X-0000244Y0003049D02*
X-0000445D01*
X-0000244Y0003046D02*
X-0000445D01*
X-0000244Y0003042D02*
X-0000445D01*
X-0000244Y0003039D02*
X-0000445D01*
X-0000244Y0003035D02*
X-0000445D01*
X-0000244Y0003032D02*
X-0000445D01*
X-0000244Y0003028D02*
X-0000445D01*
X-0000244Y0003025D02*
X-0000445D01*
X-0000244Y0003021D02*
X-0000445D01*
X-0000244Y0003018D02*
X-0000445D01*
X-0000244Y0003014D02*
X-0000445D01*
X-0000244Y0003011D02*
X-0000445D01*
X-0000244Y0003007D02*
X-0000445D01*
X-0000244Y0003004D02*
X-0000445D01*
X-0000244Y0003000D02*
X-0000445D01*
X-0000244Y0002997D02*
X-0000445D01*
X-0000244Y0002993D02*
X-0000445D01*
X-0000244Y0002990D02*
X-0000445D01*
X-0000244Y0002986D02*
X-0000445D01*
X-0000244Y0002983D02*
X-0000445D01*
X-0000244Y0002979D02*
X-0000445D01*
X-0000244Y0002975D02*
X-0000445D01*
X-0000244Y0002972D02*
X-0000445D01*
X-0000244Y0002968D02*
X-0000445D01*
X-0000244Y0002965D02*
X-0000445D01*
X-0000244Y0002961D02*
X-0000445D01*
X-0000244Y0002958D02*
X-0000445D01*
X-0000244Y0002954D02*
X-0000445D01*
X-0000244Y0002951D02*
X-0000445D01*
X-0000244Y0002947D02*
X-0000445D01*
X-0000244Y0002944D02*
X-0000445D01*
X-0000244Y0002940D02*
X-0000445D01*
X-0000244Y0002937D02*
X-0000445D01*
X-0000244Y0002933D02*
X-0000445D01*
X-0000244Y0002930D02*
X-0000445D01*
X-0000244Y0002926D02*
X-0000445D01*
X-0000244Y0002923D02*
X-0000445D01*
X-0000244Y0002919D02*
X-0000445D01*
X-0000244Y0002916D02*
X-0000445D01*
X-0000244Y0002912D02*
X-0000445D01*
X-0000244Y0002909D02*
X-0000445D01*
X-0000244Y0002905D02*
X-0000445D01*
X-0000244Y0002902D02*
X-0000445D01*
X-0000244Y0002898D02*
X-0000445D01*
X-0000244Y0002895D02*
X-0000445D01*
X-0000244Y0002891D02*
X-0000445D01*
X-0000244Y0002888D02*
X-0000445D01*
X-0000244Y0002884D02*
X-0000445D01*
X-0000244Y0002881D02*
X-0000445D01*
X-0000244Y0002877D02*
X-0000445D01*
X-0000244Y0002874D02*
X-0000445D01*
X-0000244Y0002870D02*
X-0000445D01*
X-0000244Y0002867D02*
X-0000445D01*
X-0000244Y0002863D02*
X-0000445D01*
X-0000244Y0002860D02*
X-0000445D01*
X-0000244Y0002856D02*
X-0000445D01*
X-0000244Y0002853D02*
X-0000445D01*
X-0000244Y0002849D02*
X-0000445D01*
X-0000244Y0002846D02*
X-0000445D01*
X-0000244Y0002842D02*
X-0000445D01*
X-0000244Y0002839D02*
X-0000445D01*
X-0000244Y0002835D02*
X-0000445D01*
X-0000244Y0002831D02*
X-0000445D01*
X-0000244Y0002828D02*
X-0000445D01*
X-0000244Y0002824D02*
X-0000445D01*
X-0000244Y0002821D02*
X-0000445D01*
X-0000244Y0002817D02*
X-0000445D01*
X-0000244Y0002814D02*
X-0000445D01*
X-0000244Y0002810D02*
X-0000445D01*
X-0000244Y0002807D02*
X-0000445D01*
X-0000244Y0002803D02*
X-0000445D01*
X-0000244Y0002800D02*
X-0000445D01*
X-0000244Y0002796D02*
X-0000445D01*
X-0000244Y0002793D02*
X-0000445D01*
X-0000244Y0002789D02*
X-0000445D01*
X-0000244Y0002786D02*
X-0000445D01*
X-0000244Y0002782D02*
X-0000445D01*
X-0000244Y0002779D02*
X-0000445D01*
X-0000244Y0002775D02*
X-0000445D01*
X-0000244Y0002772D02*
X-0000445D01*
X-0000244Y0002768D02*
X-0000445D01*
X-0000244Y0002765D02*
X-0000445D01*
X-0000244Y0002761D02*
X-0000445D01*
X-0000244Y0002758D02*
X-0000445D01*
X-0000244Y0002754D02*
X-0000445D01*
X-0000244Y0002751D02*
X-0000445D01*
X-0000244Y0002747D02*
X-0000445D01*
X-0000244Y0002744D02*
X-0000445D01*
X-0000244Y0002740D02*
X-0000445D01*
X-0000244Y0002737D02*
X-0000445D01*
X-0000244Y0002733D02*
X-0000445D01*
X-0000244Y0002730D02*
X-0000445D01*
X0000528Y-0002902D02*
Y-0003059D01*
Y-0002902D02*
X0000527D01*
Y-0002618D02*
Y-0002902D01*
X0000756Y-0002618D02*
X0000527D01*
X0000756D02*
Y-0003059D01*
X0000528D01*
X0000747Y-0002618D02*
Y-0003059D01*
X0000744Y-0002618D02*
Y-0003059D01*
X0000740Y-0002618D02*
Y-0003059D01*
X0000737Y-0002618D02*
Y-0003059D01*
X0000733Y-0002618D02*
Y-0003059D01*
X0000730Y-0002618D02*
Y-0003059D01*
X0000726Y-0002618D02*
Y-0003059D01*
X0000723Y-0002618D02*
Y-0003059D01*
X0000719Y-0002618D02*
Y-0003059D01*
X0000716Y-0002618D02*
Y-0003059D01*
X0000712Y-0002618D02*
Y-0003059D01*
X0000709Y-0002618D02*
Y-0003059D01*
X0000705Y-0002618D02*
Y-0003059D01*
X0000702Y-0002618D02*
Y-0003059D01*
X0000698Y-0002618D02*
Y-0003059D01*
X0000695Y-0002618D02*
Y-0003059D01*
X0000691Y-0002618D02*
Y-0003059D01*
X0000688Y-0002618D02*
Y-0003059D01*
X0000684Y-0002618D02*
Y-0003059D01*
X0000681Y-0002618D02*
Y-0003059D01*
X0000677Y-0002618D02*
Y-0003059D01*
X0000674Y-0002618D02*
Y-0003059D01*
X0000670Y-0002618D02*
Y-0003059D01*
X0000667Y-0002618D02*
Y-0003059D01*
X0000663Y-0002618D02*
Y-0003059D01*
X0000660Y-0002618D02*
Y-0003059D01*
X0000656Y-0002618D02*
Y-0003059D01*
X0000653Y-0002618D02*
Y-0003059D01*
X0000649Y-0002618D02*
Y-0003059D01*
X0000646Y-0002618D02*
Y-0003059D01*
X0000642Y-0002618D02*
Y-0003059D01*
X0000639Y-0002618D02*
Y-0003059D01*
X0000635Y-0002618D02*
Y-0003059D01*
X0000632Y-0002618D02*
Y-0003059D01*
X0000628Y-0002618D02*
Y-0003059D01*
X0000625Y-0002618D02*
Y-0003059D01*
X0000621Y-0002618D02*
Y-0003059D01*
X0000617Y-0002618D02*
Y-0003059D01*
X0000614Y-0002618D02*
Y-0003059D01*
X0000610Y-0002618D02*
Y-0003059D01*
X0000607Y-0002618D02*
Y-0003059D01*
X0000603Y-0002618D02*
Y-0003059D01*
X0000600Y-0002618D02*
Y-0003059D01*
X0000596Y-0002618D02*
Y-0003059D01*
X0000593Y-0002618D02*
Y-0003059D01*
X0000589Y-0002618D02*
Y-0003059D01*
X0000586Y-0002618D02*
Y-0003059D01*
X0000582Y-0002618D02*
Y-0003059D01*
X0000579Y-0002618D02*
Y-0003059D01*
X0000575Y-0002618D02*
Y-0003059D01*
X0000572Y-0002618D02*
Y-0003059D01*
X0000568Y-0002618D02*
Y-0003059D01*
X0000565Y-0002618D02*
Y-0003059D01*
X0000561Y-0002618D02*
Y-0003059D01*
X0000558Y-0002618D02*
Y-0003059D01*
X0000554Y-0002618D02*
Y-0003059D01*
X0000551Y-0002618D02*
Y-0003059D01*
X0000547Y-0002618D02*
Y-0003059D01*
X0000544Y-0002618D02*
Y-0003059D01*
X0000540Y-0002618D02*
Y-0003059D01*
X0000537Y-0002618D02*
Y-0003059D01*
X0000756Y-0002628D02*
X0000527D01*
X0000756Y-0002632D02*
X0000527D01*
X0000756Y-0002635D02*
X0000527D01*
X0000756Y-0002639D02*
X0000527D01*
X0000756Y-0002643D02*
X0000527D01*
X0000756Y-0002646D02*
X0000527D01*
X0000756Y-0002650D02*
X0000527D01*
X0000756Y-0002653D02*
X0000527D01*
X0000756Y-0002657D02*
X0000527D01*
X0000756Y-0002660D02*
X0000527D01*
X0000756Y-0002664D02*
X0000527D01*
X0000756Y-0002667D02*
X0000527D01*
X0000756Y-0002671D02*
X0000527D01*
X0000756Y-0002674D02*
X0000527D01*
X0000756Y-0002678D02*
X0000527D01*
X0000756Y-0002681D02*
X0000527D01*
X0000756Y-0002685D02*
X0000527D01*
X0000756Y-0002688D02*
X0000527D01*
X0000756Y-0002692D02*
X0000527D01*
X0000756Y-0002695D02*
X0000527D01*
X0000756Y-0002699D02*
X0000527D01*
X0000756Y-0002702D02*
X0000527D01*
X0000756Y-0002706D02*
X0000527D01*
X0000756Y-0002709D02*
X0000527D01*
X0000756Y-0002713D02*
X0000527D01*
X0000756Y-0002716D02*
X0000527D01*
X0000756Y-0002720D02*
X0000527D01*
X0000756Y-0002723D02*
X0000527D01*
X0000756Y-0002727D02*
X0000527D01*
X0000756Y-0002730D02*
X0000527D01*
X0000756Y-0002734D02*
X0000527D01*
X0000756Y-0002737D02*
X0000527D01*
X0000756Y-0002741D02*
X0000527D01*
X0000756Y-0002744D02*
X0000527D01*
X0000756Y-0002748D02*
X0000527D01*
X0000756Y-0002751D02*
X0000527D01*
X0000756Y-0002755D02*
X0000527D01*
X0000756Y-0002758D02*
X0000527D01*
X0000756Y-0002762D02*
X0000527D01*
X0000756Y-0002765D02*
X0000527D01*
X0000756Y-0002769D02*
X0000527D01*
X0000756Y-0002772D02*
X0000527D01*
X0000756Y-0002776D02*
X0000527D01*
X0000756Y-0002779D02*
X0000527D01*
X0000756Y-0002783D02*
X0000527D01*
X0000756Y-0002786D02*
X0000527D01*
X0000756Y-0002790D02*
X0000527D01*
X0000756Y-0002794D02*
X0000527D01*
X0000756Y-0002797D02*
X0000527D01*
X0000756Y-0002801D02*
X0000527D01*
X0000756Y-0002804D02*
X0000527D01*
X0000756Y-0002808D02*
X0000527D01*
X0000756Y-0002811D02*
X0000527D01*
X0000756Y-0002815D02*
X0000527D01*
X0000756Y-0002818D02*
X0000527D01*
X0000756Y-0002822D02*
X0000527D01*
X0000756Y-0002825D02*
X0000527D01*
X0000756Y-0002829D02*
X0000527D01*
X0000756Y-0002832D02*
X0000527D01*
X0000756Y-0002836D02*
X0000527D01*
X0000756Y-0002839D02*
X0000527D01*
X0000756Y-0002843D02*
X0000527D01*
X0000756Y-0002846D02*
X0000527D01*
X0000756Y-0002850D02*
X0000527D01*
X0000756Y-0002853D02*
X0000527D01*
X0000756Y-0002857D02*
X0000527D01*
X0000756Y-0002860D02*
X0000527D01*
X0000756Y-0002864D02*
X0000527D01*
X0000756Y-0002867D02*
X0000527D01*
X0000756Y-0002871D02*
X0000527D01*
X0000756Y-0002874D02*
X0000527D01*
X0000756Y-0002878D02*
X0000527D01*
X0000756Y-0002881D02*
X0000527D01*
X0000756Y-0002885D02*
X0000527D01*
X0000756Y-0002888D02*
X0000527D01*
X0000756Y-0002892D02*
X0000527D01*
X0000756Y-0002895D02*
X0000527D01*
X0000756Y-0002899D02*
X0000527D01*
X0000756Y-0002902D02*
X0000528D01*
X0000756Y-0002906D02*
X0000528D01*
X0000756Y-0002909D02*
X0000528D01*
X0000756Y-0002913D02*
X0000528D01*
X0000756Y-0002916D02*
X0000528D01*
X0000756Y-0002920D02*
X0000528D01*
X0000756Y-0002923D02*
X0000528D01*
X0000756Y-0002927D02*
X0000528D01*
X0000756Y-0002930D02*
X0000528D01*
X0000756Y-0002934D02*
X0000528D01*
X0000756Y-0002937D02*
X0000528D01*
X0000756Y-0002941D02*
X0000528D01*
X0000756Y-0002945D02*
X0000528D01*
X0000756Y-0002948D02*
X0000528D01*
X0000756Y-0002952D02*
X0000528D01*
X0000756Y-0002955D02*
X0000528D01*
X0000756Y-0002959D02*
X0000528D01*
X0000756Y-0002962D02*
X0000528D01*
X0000756Y-0002966D02*
X0000528D01*
X0000756Y-0002969D02*
X0000528D01*
X0000756Y-0002973D02*
X0000528D01*
X0000756Y-0002976D02*
X0000528D01*
X0000756Y-0002980D02*
X0000528D01*
X0000756Y-0002983D02*
X0000528D01*
X0000756Y-0002987D02*
X0000528D01*
X0000756Y-0002990D02*
X0000528D01*
X0000756Y-0002994D02*
X0000528D01*
X0000756Y-0002997D02*
X0000528D01*
X0000756Y-0003001D02*
X0000528D01*
X0000756Y-0003004D02*
X0000528D01*
X0000756Y-0003008D02*
X0000528D01*
X0000756Y-0003011D02*
X0000528D01*
X0000756Y-0003015D02*
X0000528D01*
X0000756Y-0003018D02*
X0000528D01*
X0000756Y-0003022D02*
X0000528D01*
X0000756Y-0003025D02*
X0000528D01*
X0000756Y-0003029D02*
X0000528D01*
X0000756Y-0003032D02*
X0000528D01*
X0000756Y-0003036D02*
X0000528D01*
X0000756Y-0003039D02*
X0000528D01*
X0000756Y-0003043D02*
X0000528D01*
X0000756Y-0003046D02*
X0000528D01*
X0000756Y-0003050D02*
X0000528D01*
G54D11*
X-0000201Y0002433D03*
X-0000858Y0002429D03*
X-0001189Y0002768D03*
X-0001465Y0002280D03*
X-0001551Y0002602D03*
X-0001858Y0002358D03*
X-0001882Y0002012D03*
X-0002217Y0002067D03*
X-0002039Y0001563D03*
X-0002382Y0001776D03*
X-0002646Y0001492D03*
X-0002551Y0001177D03*
X-0002854Y0001051D03*
X-0002520Y0000752D03*
X-0002850Y0000732D03*
X-0002992Y0000437D03*
X-0003039Y0000126D03*
X-0002764Y-0000087D03*
X-0003008Y-0000362D03*
X-0002669Y-0000535D03*
X-0002917Y-0000783D03*
X-0002654Y-0001000D03*
X-0002756Y-0001299D03*
X-0002244Y-0001295D03*
X-0002303Y-0001760D03*
X-0002571Y-0001559D03*
X-0002248Y-0002055D03*
X-0002024Y-0002264D03*
X-0001177Y-0002126D03*
X0000327Y-0003020D03*
X-0001602Y-0002122D03*
X-0001728Y-0002480D03*
X-0001394Y-0002685D03*
X-0000945Y-0002697D03*
X-0000732Y-0002961D03*
X-0000524Y-0002551D03*
X-0000201Y-0002657D03*
Y-0002358D03*
X0000197Y-0002657D03*
X0000520Y-0002358D03*
X0001224Y-0002776D03*
X0001362Y-0002476D03*
X0001701D03*
X0001606Y-0002043D03*
X0002008Y-0002256D03*
X0002307Y-0001957D03*
X0002028Y-0001783D03*
X0002528Y-0001673D03*
X0002693Y-0001366D03*
X0002382Y-0001193D03*
X0002831Y-0001031D03*
X0002598Y-0000752D03*
X0002972Y-0000524D03*
X0002531Y-0000291D03*
X0002980Y-0000165D03*
X0002673Y0000000D03*
X0002988Y0000220D03*
X0002713Y0000441D03*
X0002906Y0000720D03*
X0002520Y0000709D03*
X0002787Y0001173D03*
X0002465Y0001138D03*
X0002622Y0001539D03*
X0002319Y0001413D03*
X0002020Y0001925D03*
X0001173Y0002126D03*
X-0000858Y0002854D03*
X0002343Y0001925D03*
X0001772Y0002461D03*
X0002020Y0002244D03*
X0001220Y0002783D03*
X0001492Y0002618D03*
X0000890Y0002917D03*
X0000524Y0002965D03*
X0000752Y0002594D03*
X0000157Y0002433D03*
M02*
