*
G04 Mass Parameters ***
*
G04 Image ***
*
%INZ:\PROJECTEN\6050 FLEX DRIVE MASTER\PCB\130120\130120.SST*%
%ICAS*%
%MOIN*%
%IPPOS*%
%ASAXBY*%
G74*%FSLAN2X34Y34*%
*
G04 Aperture Definitions ***
*
%ADD10R,0.0275X0.0149*%
%ADD11C,0.0256*%
%ADD12C,0.0004*%
%ADD13C,0.0197*%
%ADD14C,0.0079*%
%ADD15C,0.0197*%
%ADD16C,0.0059*%
%ADD17C,0.0100*%
%ADD18C,0.0118*%
*
G04 Plot Data ***
*
G54D17*
G01X0001043Y-0003012D02*
Y-0002283D01*
X-0001024Y0003024D02*
Y0002264D01*
X-0001087Y0001811D02*
X-0001350D01*
X-0001728Y0002189D01*
X-0002020D01*
X-0002177Y0002346D01*
X-0002992Y-0001138D02*
X-0001059D01*
X-0002665Y0001783D02*
X-0002220Y0001339D01*
X-0001079D01*
X-0003063Y0000913D02*
X-0002685D01*
Y0000630D01*
X-0002575Y0000520D01*
X-0001059D01*
X-0003197Y-0000091D02*
X-0003016D01*
X-0002791Y-0000315D01*
X-0001063D01*
X-0001059Y-0001693D02*
X-0001949D01*
X-0002181Y-0001925D01*
X-0002551D01*
X0001988Y-0002504D02*
X0001815Y-0002331D01*
Y-0001933D01*
X0001720Y-0001839D01*
X0001091D01*
X-0001681Y-0002705D02*
X-0001524Y-0002547D01*
X-0001126D01*
X-0000839Y-0002260D01*
X0001071Y-0001382D02*
X0002488D01*
X0002748Y-0001642D01*
X0001067Y-0000571D02*
X0002752D01*
X0003071Y-0000890D01*
X0001744Y0002673D02*
X0001398Y0002327D01*
X0000957D01*
X0002244Y0000193D02*
X0002744D01*
X0002909Y0000028D01*
X0003201D01*
X0001071Y0000945D02*
X0002933D01*
X0003024Y0001035D01*
X0001067Y0001681D02*
X0002453D01*
X0002614Y0001843D01*
G54D18*
G01X0002185Y-0001153D02*
X0001529D01*
X0002185Y-0001208D02*
Y-0000880D01*
X0002076Y-0000770D01*
X0001967D01*
X0001857Y-0000825D01*
Y-0001153D02*
Y-0000825D01*
X0001748Y-0000770D01*
X0001638D01*
X0001529Y-0000880D01*
Y-0001208D01*
X-0002249Y-0000956D02*
Y-0000519D01*
X-0002468Y-0000956D02*
X-0002140D01*
X-0001812Y-0000792D01*
Y-0000683D01*
X-0002140Y-0000519D01*
X-0002468D01*
M02*
