*
G04 Mass Parameters ***
*
G04 Image ***
*
%INZ:\PROJECTEN\6050 FLEX DRIVE MASTER\PCB\130120\130120.BOT*%
%ICAS*%
%MOIN*%
%IPPOS*%
%ASAXBY*%
G74*%FSLAN2X34Y34*%
*
G04 Aperture Definitions ***
*
%ADD10R,0.0275X0.0149*%
%ADD11C,0.0256*%
%ADD12C,0.0004*%
%ADD13C,0.0197*%
%ADD14C,0.0079*%
%ADD15C,0.0197*%
%ADD16C,0.0059*%
*
G04 Plot Data ***
*
G54D12*
G01X0000803Y-0002902D02*
Y-0003059D01*
Y-0002902D03*
Y-0002618D02*
Y-0002902D01*
X0001031Y-0002618D02*
X0000803D01*
X0001031D02*
Y-0003059D01*
X0000803D01*
X0001023Y-0002618D02*
Y-0003059D01*
X0001019Y-0002618D02*
Y-0003059D01*
X0001016Y-0002618D02*
Y-0003059D01*
X0001012Y-0002618D02*
Y-0003059D01*
X0001009Y-0002618D02*
Y-0003059D01*
X0001005Y-0002618D02*
Y-0003059D01*
X0001002Y-0002618D02*
Y-0003059D01*
X0000998Y-0002618D02*
Y-0003059D01*
X0000995Y-0002618D02*
Y-0003059D01*
X0000991Y-0002618D02*
Y-0003059D01*
X0000988Y-0002618D02*
Y-0003059D01*
X0000984Y-0002618D02*
Y-0003059D01*
X0000981Y-0002618D02*
Y-0003059D01*
X0000977Y-0002618D02*
Y-0003059D01*
X0000974Y-0002618D02*
Y-0003059D01*
X0000970Y-0002618D02*
Y-0003059D01*
X0000967Y-0002618D02*
Y-0003059D01*
X0000963Y-0002618D02*
Y-0003059D01*
X0000960Y-0002618D02*
Y-0003059D01*
X0000956Y-0002618D02*
Y-0003059D01*
X0000953Y-0002618D02*
Y-0003059D01*
X0000949Y-0002618D02*
Y-0003059D01*
X0000946Y-0002618D02*
Y-0003059D01*
X0000942Y-0002618D02*
Y-0003059D01*
X0000939Y-0002618D02*
Y-0003059D01*
X0000935Y-0002618D02*
Y-0003059D01*
X0000932Y-0002618D02*
Y-0003059D01*
X0000928Y-0002618D02*
Y-0003059D01*
X0000925Y-0002618D02*
Y-0003059D01*
X0000921Y-0002618D02*
Y-0003059D01*
X0000918Y-0002618D02*
Y-0003059D01*
X0000914Y-0002618D02*
Y-0003059D01*
X0000911Y-0002618D02*
Y-0003059D01*
X0000907Y-0002618D02*
Y-0003059D01*
X0000904Y-0002618D02*
Y-0003059D01*
X0000900Y-0002618D02*
Y-0003059D01*
X0000897Y-0002618D02*
Y-0003059D01*
X0000893Y-0002618D02*
Y-0003059D01*
X0000890Y-0002618D02*
Y-0003059D01*
X0000886Y-0002618D02*
Y-0003059D01*
X0000883Y-0002618D02*
Y-0003059D01*
X0000879Y-0002618D02*
Y-0003059D01*
X0000876Y-0002618D02*
Y-0003059D01*
X0000872Y-0002618D02*
Y-0003059D01*
X0000868Y-0002618D02*
Y-0003059D01*
X0000865Y-0002618D02*
Y-0003059D01*
X0000861Y-0002618D02*
Y-0003059D01*
X0000858Y-0002618D02*
Y-0003059D01*
X0000854Y-0002618D02*
Y-0003059D01*
X0000851Y-0002618D02*
Y-0003059D01*
X0000847Y-0002618D02*
Y-0003059D01*
X0000844Y-0002618D02*
Y-0003059D01*
X0000840Y-0002618D02*
Y-0003059D01*
X0000837Y-0002618D02*
Y-0003059D01*
X0000833Y-0002618D02*
Y-0003059D01*
X0000830Y-0002618D02*
Y-0003059D01*
X0000826Y-0002618D02*
Y-0003059D01*
X0000823Y-0002618D02*
Y-0003059D01*
X0000819Y-0002618D02*
Y-0003059D01*
X0000816Y-0002618D02*
Y-0003059D01*
X0000812Y-0002618D02*
Y-0003059D01*
X0001031Y-0002628D02*
X0000803D01*
X0001031Y-0002632D02*
X0000803D01*
X0001031Y-0002635D02*
X0000803D01*
X0001031Y-0002639D02*
X0000803D01*
X0001031Y-0002643D02*
X0000803D01*
X0001031Y-0002646D02*
X0000803D01*
X0001031Y-0002650D02*
X0000803D01*
X0001031Y-0002653D02*
X0000803D01*
X0001031Y-0002657D02*
X0000803D01*
X0001031Y-0002660D02*
X0000803D01*
X0001031Y-0002664D02*
X0000803D01*
X0001031Y-0002667D02*
X0000803D01*
X0001031Y-0002671D02*
X0000803D01*
X0001031Y-0002674D02*
X0000803D01*
X0001031Y-0002678D02*
X0000803D01*
X0001031Y-0002681D02*
X0000803D01*
X0001031Y-0002685D02*
X0000803D01*
X0001031Y-0002688D02*
X0000803D01*
X0001031Y-0002692D02*
X0000803D01*
X0001031Y-0002695D02*
X0000803D01*
X0001031Y-0002699D02*
X0000803D01*
X0001031Y-0002702D02*
X0000803D01*
X0001031Y-0002706D02*
X0000803D01*
X0001031Y-0002709D02*
X0000803D01*
X0001031Y-0002713D02*
X0000803D01*
X0001031Y-0002716D02*
X0000803D01*
X0001031Y-0002720D02*
X0000803D01*
X0001031Y-0002723D02*
X0000803D01*
X0001031Y-0002727D02*
X0000803D01*
X0001031Y-0002730D02*
X0000803D01*
X0001031Y-0002734D02*
X0000803D01*
X0001031Y-0002737D02*
X0000803D01*
X0001031Y-0002741D02*
X0000803D01*
X0001031Y-0002744D02*
X0000803D01*
X0001031Y-0002748D02*
X0000803D01*
X0001031Y-0002751D02*
X0000803D01*
X0001031Y-0002755D02*
X0000803D01*
X0001031Y-0002758D02*
X0000803D01*
X0001031Y-0002762D02*
X0000803D01*
X0001031Y-0002765D02*
X0000803D01*
X0001031Y-0002769D02*
X0000803D01*
X0001031Y-0002772D02*
X0000803D01*
X0001031Y-0002776D02*
X0000803D01*
X0001031Y-0002779D02*
X0000803D01*
X0001031Y-0002783D02*
X0000803D01*
X0001031Y-0002786D02*
X0000803D01*
X0001031Y-0002790D02*
X0000803D01*
X0001031Y-0002794D02*
X0000803D01*
X0001031Y-0002797D02*
X0000803D01*
X0001031Y-0002801D02*
X0000803D01*
X0001031Y-0002804D02*
X0000803D01*
X0001031Y-0002808D02*
X0000803D01*
X0001031Y-0002811D02*
X0000803D01*
X0001031Y-0002815D02*
X0000803D01*
X0001031Y-0002818D02*
X0000803D01*
X0001031Y-0002822D02*
X0000803D01*
X0001031Y-0002825D02*
X0000803D01*
X0001031Y-0002829D02*
X0000803D01*
X0001031Y-0002832D02*
X0000803D01*
X0001031Y-0002836D02*
X0000803D01*
X0001031Y-0002839D02*
X0000803D01*
X0001031Y-0002843D02*
X0000803D01*
X0001031Y-0002846D02*
X0000803D01*
X0001031Y-0002850D02*
X0000803D01*
X0001031Y-0002853D02*
X0000803D01*
X0001031Y-0002857D02*
X0000803D01*
X0001031Y-0002860D02*
X0000803D01*
X0001031Y-0002864D02*
X0000803D01*
X0001031Y-0002867D02*
X0000803D01*
X0001031Y-0002871D02*
X0000803D01*
X0001031Y-0002874D02*
X0000803D01*
X0001031Y-0002878D02*
X0000803D01*
X0001031Y-0002881D02*
X0000803D01*
X0001031Y-0002885D02*
X0000803D01*
X0001031Y-0002888D02*
X0000803D01*
X0001031Y-0002892D02*
X0000803D01*
X0001031Y-0002895D02*
X0000803D01*
X0001031Y-0002899D02*
X0000803D01*
X0001031Y-0002902D02*
X0000803D01*
X0001031Y-0002906D02*
X0000803D01*
X0001031Y-0002909D02*
X0000803D01*
X0001031Y-0002913D02*
X0000803D01*
X0001031Y-0002916D02*
X0000803D01*
X0001031Y-0002920D02*
X0000803D01*
X0001031Y-0002923D02*
X0000803D01*
X0001031Y-0002927D02*
X0000803D01*
X0001031Y-0002930D02*
X0000803D01*
X0001031Y-0002934D02*
X0000803D01*
X0001031Y-0002937D02*
X0000803D01*
X0001031Y-0002941D02*
X0000803D01*
X0001031Y-0002945D02*
X0000803D01*
X0001031Y-0002948D02*
X0000803D01*
X0001031Y-0002952D02*
X0000803D01*
X0001031Y-0002955D02*
X0000803D01*
X0001031Y-0002959D02*
X0000803D01*
X0001031Y-0002962D02*
X0000803D01*
X0001031Y-0002966D02*
X0000803D01*
X0001031Y-0002969D02*
X0000803D01*
X0001031Y-0002973D02*
X0000803D01*
X0001031Y-0002976D02*
X0000803D01*
X0001031Y-0002980D02*
X0000803D01*
X0001031Y-0002983D02*
X0000803D01*
X0001031Y-0002987D02*
X0000803D01*
X0001031Y-0002990D02*
X0000803D01*
X0001031Y-0002994D02*
X0000803D01*
X0001031Y-0002997D02*
X0000803D01*
X0001031Y-0003001D02*
X0000803D01*
X0001031Y-0003004D02*
X0000803D01*
X0001031Y-0003008D02*
X0000803D01*
X0001031Y-0003011D02*
X0000803D01*
X0001031Y-0003015D02*
X0000803D01*
X0001031Y-0003018D02*
X0000803D01*
X0001031Y-0003022D02*
X0000803D01*
X0001031Y-0003025D02*
X0000803D01*
X0001031Y-0003029D02*
X0000803D01*
X0001031Y-0003032D02*
X0000803D01*
X0001031Y-0003036D02*
X0000803D01*
X0001031Y-0003039D02*
X0000803D01*
X0001031Y-0003043D02*
X0000803D01*
X0001031Y-0003046D02*
X0000803D01*
X0001031Y-0003050D02*
X0000803D01*
X0000524Y-0002902D02*
Y-0003059D01*
Y-0002618D02*
Y-0002902D01*
X0000752Y-0002618D02*
X0000524D01*
X0000752D02*
Y-0003059D01*
X0000524D01*
X0000744Y-0002618D02*
Y-0003059D01*
X0000740Y-0002618D02*
Y-0003059D01*
X0000736Y-0002618D02*
Y-0003059D01*
X0000733Y-0002618D02*
Y-0003059D01*
X0000729Y-0002618D02*
Y-0003059D01*
X0000726Y-0002618D02*
Y-0003059D01*
X0000722Y-0002618D02*
Y-0003059D01*
X0000719Y-0002618D02*
Y-0003059D01*
X0000715Y-0002618D02*
Y-0003059D01*
X0000712Y-0002618D02*
Y-0003059D01*
X0000708Y-0002618D02*
Y-0003059D01*
X0000705Y-0002618D02*
Y-0003059D01*
X0000701Y-0002618D02*
Y-0003059D01*
X0000698Y-0002618D02*
Y-0003059D01*
X0000694Y-0002618D02*
Y-0003059D01*
X0000691Y-0002618D02*
Y-0003059D01*
X0000687Y-0002618D02*
Y-0003059D01*
X0000684Y-0002618D02*
Y-0003059D01*
X0000680Y-0002618D02*
Y-0003059D01*
X0000677Y-0002618D02*
Y-0003059D01*
X0000673Y-0002618D02*
Y-0003059D01*
X0000670Y-0002618D02*
Y-0003059D01*
X0000666Y-0002618D02*
Y-0003059D01*
X0000663Y-0002618D02*
Y-0003059D01*
X0000659Y-0002618D02*
Y-0003059D01*
X0000656Y-0002618D02*
Y-0003059D01*
X0000652Y-0002618D02*
Y-0003059D01*
X0000649Y-0002618D02*
Y-0003059D01*
X0000645Y-0002618D02*
Y-0003059D01*
X0000642Y-0002618D02*
Y-0003059D01*
X0000638Y-0002618D02*
Y-0003059D01*
X0000635Y-0002618D02*
Y-0003059D01*
X0000631Y-0002618D02*
Y-0003059D01*
X0000628Y-0002618D02*
Y-0003059D01*
X0000624Y-0002618D02*
Y-0003059D01*
X0000621Y-0002618D02*
Y-0003059D01*
X0000617Y-0002618D02*
Y-0003059D01*
X0000614Y-0002618D02*
Y-0003059D01*
X0000610Y-0002618D02*
Y-0003059D01*
X0000607Y-0002618D02*
Y-0003059D01*
X0000603Y-0002618D02*
Y-0003059D01*
X0000600Y-0002618D02*
Y-0003059D01*
X0000596Y-0002618D02*
Y-0003059D01*
X0000593Y-0002618D02*
Y-0003059D01*
X0000589Y-0002618D02*
Y-0003059D01*
X0000585Y-0002618D02*
Y-0003059D01*
X0000582Y-0002618D02*
Y-0003059D01*
X0000578Y-0002618D02*
Y-0003059D01*
X0000575Y-0002618D02*
Y-0003059D01*
X0000571Y-0002618D02*
Y-0003059D01*
X0000568Y-0002618D02*
Y-0003059D01*
X0000564Y-0002618D02*
Y-0003059D01*
X0000561Y-0002618D02*
Y-0003059D01*
X0000557Y-0002618D02*
Y-0003059D01*
X0000554Y-0002618D02*
Y-0003059D01*
X0000550Y-0002618D02*
Y-0003059D01*
X0000547Y-0002618D02*
Y-0003059D01*
X0000543Y-0002618D02*
Y-0003059D01*
X0000540Y-0002618D02*
Y-0003059D01*
X0000536Y-0002618D02*
Y-0003059D01*
X0000533Y-0002618D02*
Y-0003059D01*
X0000752Y-0002628D02*
X0000524D01*
X0000752Y-0002632D02*
X0000524D01*
X0000752Y-0002635D02*
X0000524D01*
X0000752Y-0002639D02*
X0000524D01*
X0000752Y-0002643D02*
X0000524D01*
X0000752Y-0002646D02*
X0000524D01*
X0000752Y-0002650D02*
X0000524D01*
X0000752Y-0002653D02*
X0000524D01*
X0000752Y-0002657D02*
X0000524D01*
X0000752Y-0002660D02*
X0000524D01*
X0000752Y-0002664D02*
X0000524D01*
X0000752Y-0002667D02*
X0000524D01*
X0000752Y-0002671D02*
X0000524D01*
X0000752Y-0002674D02*
X0000524D01*
X0000752Y-0002678D02*
X0000524D01*
X0000752Y-0002681D02*
X0000524D01*
X0000752Y-0002685D02*
X0000524D01*
X0000752Y-0002688D02*
X0000524D01*
X0000752Y-0002692D02*
X0000524D01*
X0000752Y-0002695D02*
X0000524D01*
X0000752Y-0002699D02*
X0000524D01*
X0000752Y-0002702D02*
X0000524D01*
X0000752Y-0002706D02*
X0000524D01*
X0000752Y-0002709D02*
X0000524D01*
X0000752Y-0002713D02*
X0000524D01*
X0000752Y-0002716D02*
X0000524D01*
X0000752Y-0002720D02*
X0000524D01*
X0000752Y-0002723D02*
X0000524D01*
X0000752Y-0002727D02*
X0000524D01*
X0000752Y-0002730D02*
X0000524D01*
X0000752Y-0002734D02*
X0000524D01*
X0000752Y-0002737D02*
X0000524D01*
X0000752Y-0002741D02*
X0000524D01*
X0000752Y-0002744D02*
X0000524D01*
X0000752Y-0002748D02*
X0000524D01*
X0000752Y-0002751D02*
X0000524D01*
X0000752Y-0002755D02*
X0000524D01*
X0000752Y-0002758D02*
X0000524D01*
X0000752Y-0002762D02*
X0000524D01*
X0000752Y-0002765D02*
X0000524D01*
X0000752Y-0002769D02*
X0000524D01*
X0000752Y-0002772D02*
X0000524D01*
X0000752Y-0002776D02*
X0000524D01*
X0000752Y-0002779D02*
X0000524D01*
X0000752Y-0002783D02*
X0000524D01*
X0000752Y-0002786D02*
X0000524D01*
X0000752Y-0002790D02*
X0000524D01*
X0000752Y-0002794D02*
X0000524D01*
X0000752Y-0002797D02*
X0000524D01*
X0000752Y-0002801D02*
X0000524D01*
X0000752Y-0002804D02*
X0000524D01*
X0000752Y-0002808D02*
X0000524D01*
X0000752Y-0002811D02*
X0000524D01*
X0000752Y-0002815D02*
X0000524D01*
X0000752Y-0002818D02*
X0000524D01*
X0000752Y-0002822D02*
X0000524D01*
X0000752Y-0002825D02*
X0000524D01*
X0000752Y-0002829D02*
X0000524D01*
X0000752Y-0002832D02*
X0000524D01*
X0000752Y-0002836D02*
X0000524D01*
X0000752Y-0002839D02*
X0000524D01*
X0000752Y-0002843D02*
X0000524D01*
X0000752Y-0002846D02*
X0000524D01*
X0000752Y-0002850D02*
X0000524D01*
X0000752Y-0002853D02*
X0000524D01*
X0000752Y-0002857D02*
X0000524D01*
X0000752Y-0002860D02*
X0000524D01*
X0000752Y-0002864D02*
X0000524D01*
X0000752Y-0002867D02*
X0000524D01*
X0000752Y-0002871D02*
X0000524D01*
X0000752Y-0002874D02*
X0000524D01*
X0000752Y-0002878D02*
X0000524D01*
X0000752Y-0002881D02*
X0000524D01*
X0000752Y-0002885D02*
X0000524D01*
X0000752Y-0002888D02*
X0000524D01*
X0000752Y-0002892D02*
X0000524D01*
X0000752Y-0002895D02*
X0000524D01*
X0000752Y-0002899D02*
X0000524D01*
X0000752Y-0002902D02*
X0000524D01*
X0000752Y-0002906D02*
X0000524D01*
X0000752Y-0002909D02*
X0000524D01*
X0000752Y-0002913D02*
X0000524D01*
X0000752Y-0002916D02*
X0000524D01*
X0000752Y-0002920D02*
X0000524D01*
X0000752Y-0002923D02*
X0000524D01*
X0000752Y-0002927D02*
X0000524D01*
X0000752Y-0002930D02*
X0000524D01*
X0000752Y-0002934D02*
X0000524D01*
X0000752Y-0002937D02*
X0000524D01*
X0000752Y-0002941D02*
X0000524D01*
X0000752Y-0002945D02*
X0000524D01*
X0000752Y-0002948D02*
X0000524D01*
X0000752Y-0002952D02*
X0000524D01*
X0000752Y-0002955D02*
X0000524D01*
X0000752Y-0002959D02*
X0000524D01*
X0000752Y-0002962D02*
X0000524D01*
X0000752Y-0002966D02*
X0000524D01*
X0000752Y-0002969D02*
X0000524D01*
X0000752Y-0002973D02*
X0000524D01*
X0000752Y-0002976D02*
X0000524D01*
X0000752Y-0002980D02*
X0000524D01*
X0000752Y-0002983D02*
X0000524D01*
X0000752Y-0002987D02*
X0000524D01*
X0000752Y-0002990D02*
X0000524D01*
X0000752Y-0002994D02*
X0000524D01*
X0000752Y-0002997D02*
X0000524D01*
X0000752Y-0003001D02*
X0000524D01*
X0000752Y-0003004D02*
X0000524D01*
X0000752Y-0003008D02*
X0000524D01*
X0000752Y-0003011D02*
X0000524D01*
X0000752Y-0003015D02*
X0000524D01*
X0000752Y-0003018D02*
X0000524D01*
X0000752Y-0003022D02*
X0000524D01*
X0000752Y-0003025D02*
X0000524D01*
X0000752Y-0003029D02*
X0000524D01*
X0000752Y-0003032D02*
X0000524D01*
X0000752Y-0003036D02*
X0000524D01*
X0000752Y-0003039D02*
X0000524D01*
X0000752Y-0003043D02*
X0000524D01*
X0000752Y-0003046D02*
X0000524D01*
X0000752Y-0003050D02*
X0000524D01*
X-0000441Y0002724D02*
Y0002567D01*
Y0002724D03*
Y0003126D02*
Y0002724D01*
X-0000248Y0003126D02*
X-0000441D01*
X-0000248D02*
Y0002720D01*
Y0002705D01*
X-0000193D02*
X-0000248D01*
X-0000193D02*
Y0002567D01*
X-0000441D01*
X-0000200Y0002705D02*
Y0002567D01*
X-0000204Y0002705D02*
Y0002567D01*
X-0000207Y0002705D02*
Y0002567D01*
X-0000211Y0002705D02*
Y0002567D01*
X-0000214Y0002705D02*
Y0002567D01*
X-0000218Y0002705D02*
Y0002567D01*
X-0000221Y0002705D02*
Y0002567D01*
X-0000225Y0002705D02*
Y0002567D01*
X-0000228Y0002705D02*
Y0002567D01*
X-0000232Y0002705D02*
Y0002567D01*
X-0000235Y0002705D02*
Y0002567D01*
X-0000239Y0002705D02*
Y0002567D01*
X-0000242Y0002705D02*
Y0002567D01*
X-0000246Y0002705D02*
Y0002567D01*
X-0000256Y0003126D02*
Y0002567D01*
X-0000260Y0003126D02*
Y0002567D01*
X-0000263Y0003126D02*
Y0002567D01*
X-0000267Y0003126D02*
Y0002567D01*
X-0000270Y0003126D02*
Y0002567D01*
X-0000274Y0003126D02*
Y0002567D01*
X-0000277Y0003126D02*
Y0002567D01*
X-0000281Y0003126D02*
Y0002567D01*
X-0000284Y0003126D02*
Y0002567D01*
X-0000288Y0003126D02*
Y0002567D01*
X-0000291Y0003126D02*
Y0002567D01*
X-0000295Y0003126D02*
Y0002567D01*
X-0000298Y0003126D02*
Y0002567D01*
X-0000302Y0003126D02*
Y0002567D01*
X-0000305Y0003126D02*
Y0002567D01*
X-0000309Y0003126D02*
Y0002567D01*
X-0000312Y0003126D02*
Y0002567D01*
X-0000316Y0003126D02*
Y0002567D01*
X-0000319Y0003126D02*
Y0002567D01*
X-0000323Y0003126D02*
Y0002567D01*
X-0000326Y0003126D02*
Y0002567D01*
X-0000330Y0003126D02*
Y0002567D01*
X-0000333Y0003126D02*
Y0002567D01*
X-0000337Y0003126D02*
Y0002567D01*
X-0000340Y0003126D02*
Y0002567D01*
X-0000344Y0003126D02*
Y0002567D01*
X-0000348Y0003126D02*
Y0002567D01*
X-0000351Y0003126D02*
Y0002567D01*
X-0000355Y0003126D02*
Y0002567D01*
X-0000358Y0003126D02*
Y0002567D01*
X-0000362Y0003126D02*
Y0002567D01*
X-0000365Y0003126D02*
Y0002567D01*
X-0000369Y0003126D02*
Y0002567D01*
X-0000372Y0003126D02*
Y0002567D01*
X-0000376Y0003126D02*
Y0002567D01*
X-0000379Y0003126D02*
Y0002567D01*
X-0000383Y0003126D02*
Y0002567D01*
X-0000386Y0003126D02*
Y0002567D01*
X-0000390Y0003126D02*
Y0002567D01*
X-0000393Y0003126D02*
Y0002567D01*
X-0000397Y0003126D02*
Y0002567D01*
X-0000400Y0003126D02*
Y0002567D01*
X-0000404Y0003126D02*
Y0002567D01*
X-0000407Y0003126D02*
Y0002567D01*
X-0000411Y0003126D02*
Y0002567D01*
X-0000414Y0003126D02*
Y0002567D01*
X-0000418Y0003126D02*
Y0002567D01*
X-0000421Y0003126D02*
Y0002567D01*
X-0000425Y0003126D02*
Y0002567D01*
X-0000428Y0003126D02*
Y0002567D01*
X-0000432Y0003126D02*
Y0002567D01*
X-0000248Y0003120D02*
X-0000441D01*
X-0000248Y0003117D02*
X-0000441D01*
X-0000248Y0003113D02*
X-0000441D01*
X-0000248Y0003110D02*
X-0000441D01*
X-0000248Y0003106D02*
X-0000441D01*
X-0000248Y0003103D02*
X-0000441D01*
X-0000248Y0003099D02*
X-0000441D01*
X-0000248Y0003096D02*
X-0000441D01*
X-0000248Y0003092D02*
X-0000441D01*
X-0000248Y0003089D02*
X-0000441D01*
X-0000248Y0003085D02*
X-0000441D01*
X-0000248Y0003082D02*
X-0000441D01*
X-0000248Y0003078D02*
X-0000441D01*
X-0000248Y0003075D02*
X-0000441D01*
X-0000248Y0003071D02*
X-0000441D01*
X-0000248Y0003068D02*
X-0000441D01*
X-0000248Y0003064D02*
X-0000441D01*
X-0000248Y0003061D02*
X-0000441D01*
X-0000248Y0003057D02*
X-0000441D01*
X-0000248Y0003054D02*
X-0000441D01*
X-0000248Y0003050D02*
X-0000441D01*
X-0000248Y0003047D02*
X-0000441D01*
X-0000248Y0003043D02*
X-0000441D01*
X-0000248Y0003040D02*
X-0000441D01*
X-0000248Y0003036D02*
X-0000441D01*
X-0000248Y0003033D02*
X-0000441D01*
X-0000248Y0003029D02*
X-0000441D01*
X-0000248Y0003026D02*
X-0000441D01*
X-0000248Y0003022D02*
X-0000441D01*
X-0000248Y0003019D02*
X-0000441D01*
X-0000248Y0003015D02*
X-0000441D01*
X-0000248Y0003012D02*
X-0000441D01*
X-0000248Y0003008D02*
X-0000441D01*
X-0000248Y0003005D02*
X-0000441D01*
X-0000248Y0003001D02*
X-0000441D01*
X-0000248Y0002998D02*
X-0000441D01*
X-0000248Y0002994D02*
X-0000441D01*
X-0000248Y0002991D02*
X-0000441D01*
X-0000248Y0002987D02*
X-0000441D01*
X-0000248Y0002984D02*
X-0000441D01*
X-0000248Y0002980D02*
X-0000441D01*
X-0000248Y0002976D02*
X-0000441D01*
X-0000248Y0002973D02*
X-0000441D01*
X-0000248Y0002969D02*
X-0000441D01*
X-0000248Y0002966D02*
X-0000441D01*
X-0000248Y0002962D02*
X-0000441D01*
X-0000248Y0002959D02*
X-0000441D01*
X-0000248Y0002955D02*
X-0000441D01*
X-0000248Y0002952D02*
X-0000441D01*
X-0000248Y0002948D02*
X-0000441D01*
X-0000248Y0002945D02*
X-0000441D01*
X-0000248Y0002941D02*
X-0000441D01*
X-0000248Y0002938D02*
X-0000441D01*
X-0000248Y0002934D02*
X-0000441D01*
X-0000248Y0002931D02*
X-0000441D01*
X-0000248Y0002927D02*
X-0000441D01*
X-0000248Y0002924D02*
X-0000441D01*
X-0000248Y0002920D02*
X-0000441D01*
X-0000248Y0002917D02*
X-0000441D01*
X-0000248Y0002913D02*
X-0000441D01*
X-0000248Y0002910D02*
X-0000441D01*
X-0000248Y0002906D02*
X-0000441D01*
X-0000248Y0002903D02*
X-0000441D01*
X-0000248Y0002899D02*
X-0000441D01*
X-0000248Y0002896D02*
X-0000441D01*
X-0000248Y0002892D02*
X-0000441D01*
X-0000248Y0002889D02*
X-0000441D01*
X-0000248Y0002885D02*
X-0000441D01*
X-0000248Y0002882D02*
X-0000441D01*
X-0000248Y0002878D02*
X-0000441D01*
X-0000248Y0002875D02*
X-0000441D01*
X-0000248Y0002871D02*
X-0000441D01*
X-0000248Y0002868D02*
X-0000441D01*
X-0000248Y0002864D02*
X-0000441D01*
X-0000248Y0002861D02*
X-0000441D01*
X-0000248Y0002857D02*
X-0000441D01*
X-0000248Y0002854D02*
X-0000441D01*
X-0000248Y0002850D02*
X-0000441D01*
X-0000248Y0002847D02*
X-0000441D01*
X-0000248Y0002843D02*
X-0000441D01*
X-0000248Y0002840D02*
X-0000441D01*
X-0000248Y0002836D02*
X-0000441D01*
X-0000248Y0002833D02*
X-0000441D01*
X-0000248Y0002829D02*
X-0000441D01*
X-0000248Y0002825D02*
X-0000441D01*
X-0000248Y0002822D02*
X-0000441D01*
X-0000248Y0002818D02*
X-0000441D01*
X-0000248Y0002815D02*
X-0000441D01*
X-0000248Y0002811D02*
X-0000441D01*
X-0000248Y0002808D02*
X-0000441D01*
X-0000248Y0002804D02*
X-0000441D01*
X-0000248Y0002801D02*
X-0000441D01*
X-0000248Y0002797D02*
X-0000441D01*
X-0000248Y0002794D02*
X-0000441D01*
X-0000248Y0002790D02*
X-0000441D01*
X-0000248Y0002787D02*
X-0000441D01*
X-0000248Y0002783D02*
X-0000441D01*
X-0000248Y0002780D02*
X-0000441D01*
X-0000248Y0002776D02*
X-0000441D01*
X-0000248Y0002773D02*
X-0000441D01*
X-0000248Y0002769D02*
X-0000441D01*
X-0000248Y0002766D02*
X-0000441D01*
X-0000248Y0002762D02*
X-0000441D01*
X-0000248Y0002759D02*
X-0000441D01*
X-0000248Y0002755D02*
X-0000441D01*
X-0000248Y0002752D02*
X-0000441D01*
X-0000248Y0002748D02*
X-0000441D01*
X-0000248Y0002745D02*
X-0000441D01*
X-0000248Y0002741D02*
X-0000441D01*
X-0000248Y0002738D02*
X-0000441D01*
X-0000248Y0002734D02*
X-0000441D01*
X-0000248Y0002731D02*
X-0000441D01*
X-0000248Y0002727D02*
X-0000441D01*
X-0000248Y0002724D02*
X-0000441D01*
X-0000248Y0002720D02*
X-0000441D01*
X-0000248Y0002717D02*
X-0000441D01*
X-0000248Y0002713D02*
X-0000441D01*
X-0000248Y0002710D02*
X-0000441D01*
X-0000248Y0002706D02*
X-0000441D01*
X-0000193Y0002703D02*
X-0000441D01*
X-0000193Y0002699D02*
X-0000441D01*
X-0000193Y0002696D02*
X-0000441D01*
X-0000193Y0002692D02*
X-0000441D01*
X-0000193Y0002689D02*
X-0000441D01*
X-0000193Y0002685D02*
X-0000441D01*
X-0000193Y0002681D02*
X-0000441D01*
X-0000193Y0002678D02*
X-0000441D01*
X-0000193Y0002674D02*
X-0000441D01*
X-0000193Y0002671D02*
X-0000441D01*
X-0000193Y0002667D02*
X-0000441D01*
X-0000193Y0002664D02*
X-0000441D01*
X-0000193Y0002660D02*
X-0000441D01*
X-0000193Y0002657D02*
X-0000441D01*
X-0000193Y0002653D02*
X-0000441D01*
X-0000193Y0002650D02*
X-0000441D01*
X-0000193Y0002646D02*
X-0000441D01*
X-0000193Y0002643D02*
X-0000441D01*
X-0000193Y0002639D02*
X-0000441D01*
X-0000193Y0002636D02*
X-0000441D01*
X-0000193Y0002632D02*
X-0000441D01*
X-0000193Y0002629D02*
X-0000441D01*
X-0000193Y0002625D02*
X-0000441D01*
X-0000193Y0002622D02*
X-0000441D01*
X-0000193Y0002618D02*
X-0000441D01*
X-0000193Y0002615D02*
X-0000441D01*
X-0000193Y0002611D02*
X-0000441D01*
X-0000193Y0002608D02*
X-0000441D01*
X-0000193Y0002604D02*
X-0000441D01*
X-0000193Y0002601D02*
X-0000441D01*
X-0000193Y0002597D02*
X-0000441D01*
X-0000193Y0002594D02*
X-0000441D01*
X-0000193Y0002590D02*
X-0000441D01*
X-0000193Y0002587D02*
X-0000441D01*
X-0000193Y0002583D02*
X-0000441D01*
X-0000193Y0002580D02*
X-0000441D01*
X-0000193Y0002576D02*
X-0000441D01*
X-0000854Y0002720D02*
Y0002705D01*
X-0000693Y0002720D02*
X-0000854D01*
X-0000693Y0003122D02*
Y0002720D01*
X-0000500Y0003122D02*
X-0000693D01*
X-0000500D02*
Y0002563D01*
X-0000858D01*
X-0000854Y0002705D02*
X-0000858Y0002563D01*
X-0000508Y0003122D02*
Y0002563D01*
X-0000512Y0003122D02*
Y0002563D01*
X-0000515Y0003122D02*
Y0002563D01*
X-0000519Y0003122D02*
Y0002563D01*
X-0000522Y0003122D02*
Y0002563D01*
X-0000526Y0003122D02*
Y0002563D01*
X-0000529Y0003122D02*
Y0002563D01*
X-0000533Y0003122D02*
Y0002563D01*
X-0000537Y0003122D02*
Y0002563D01*
X-0000540Y0003122D02*
Y0002563D01*
X-0000544Y0003122D02*
Y0002563D01*
X-0000547Y0003122D02*
Y0002563D01*
X-0000551Y0003122D02*
Y0002563D01*
X-0000554Y0003122D02*
Y0002563D01*
X-0000558Y0003122D02*
Y0002563D01*
X-0000561Y0003122D02*
Y0002563D01*
X-0000565Y0003122D02*
Y0002563D01*
X-0000568Y0003122D02*
Y0002563D01*
X-0000572Y0003122D02*
Y0002563D01*
X-0000575Y0003122D02*
Y0002563D01*
X-0000579Y0003122D02*
Y0002563D01*
X-0000582Y0003122D02*
Y0002563D01*
X-0000586Y0003122D02*
Y0002563D01*
X-0000589Y0003122D02*
Y0002563D01*
X-0000593Y0003122D02*
Y0002563D01*
X-0000596Y0003122D02*
Y0002563D01*
X-0000600Y0003122D02*
Y0002563D01*
X-0000603Y0003122D02*
Y0002563D01*
X-0000607Y0003122D02*
Y0002563D01*
X-0000610Y0003122D02*
Y0002563D01*
X-0000614Y0003122D02*
Y0002563D01*
X-0000617Y0003122D02*
Y0002563D01*
X-0000621Y0003122D02*
Y0002563D01*
X-0000624Y0003122D02*
Y0002563D01*
X-0000628Y0003122D02*
Y0002563D01*
X-0000631Y0003122D02*
Y0002563D01*
X-0000635Y0003122D02*
Y0002563D01*
X-0000638Y0003122D02*
Y0002563D01*
X-0000642Y0003122D02*
Y0002563D01*
X-0000645Y0003122D02*
Y0002563D01*
X-0000649Y0003122D02*
Y0002563D01*
X-0000652Y0003122D02*
Y0002563D01*
X-0000656Y0003122D02*
Y0002563D01*
X-0000659Y0003122D02*
Y0002563D01*
X-0000663Y0003122D02*
Y0002563D01*
X-0000666Y0003122D02*
Y0002563D01*
X-0000670Y0003122D02*
Y0002563D01*
X-0000673Y0003122D02*
Y0002563D01*
X-0000677Y0003122D02*
Y0002563D01*
X-0000680Y0003122D02*
Y0002563D01*
X-0000684Y0003122D02*
Y0002563D01*
X-0000688Y0003122D02*
Y0002563D01*
X-0000691Y0003122D02*
Y0002563D01*
X-0000695Y0002720D02*
Y0002563D01*
X-0000698Y0002720D02*
Y0002563D01*
X-0000702Y0002720D02*
Y0002563D01*
X-0000705Y0002720D02*
Y0002563D01*
X-0000709Y0002720D02*
Y0002563D01*
X-0000712Y0002720D02*
Y0002563D01*
X-0000716Y0002720D02*
Y0002563D01*
X-0000719Y0002720D02*
Y0002563D01*
X-0000723Y0002720D02*
Y0002563D01*
X-0000726Y0002720D02*
Y0002563D01*
X-0000730Y0002720D02*
Y0002563D01*
X-0000733Y0002720D02*
Y0002563D01*
X-0000737Y0002720D02*
Y0002563D01*
X-0000740Y0002720D02*
Y0002563D01*
X-0000744Y0002720D02*
Y0002563D01*
X-0000747Y0002720D02*
Y0002563D01*
X-0000751Y0002720D02*
Y0002563D01*
X-0000754Y0002720D02*
Y0002563D01*
X-0000758Y0002720D02*
Y0002563D01*
X-0000761Y0002720D02*
Y0002563D01*
X-0000765Y0002720D02*
Y0002563D01*
X-0000768Y0002720D02*
Y0002563D01*
X-0000772Y0002720D02*
Y0002563D01*
X-0000775Y0002720D02*
Y0002563D01*
X-0000779Y0002720D02*
Y0002563D01*
X-0000782Y0002720D02*
Y0002563D01*
X-0000786Y0002720D02*
Y0002563D01*
X-0000789Y0002720D02*
Y0002563D01*
X-0000793Y0002720D02*
Y0002563D01*
X-0000796Y0002720D02*
Y0002563D01*
X-0000800Y0002720D02*
Y0002563D01*
X-0000803Y0002720D02*
Y0002563D01*
X-0000807Y0002720D02*
Y0002563D01*
X-0000810Y0002720D02*
Y0002563D01*
X-0000814Y0002720D02*
Y0002563D01*
X-0000817Y0002720D02*
Y0002563D01*
X-0000821Y0002720D02*
Y0002563D01*
X-0000824Y0002720D02*
Y0002563D01*
X-0000828Y0002720D02*
Y0002563D01*
X-0000831Y0002720D02*
Y0002563D01*
X-0000835Y0002720D02*
Y0002563D01*
X-0000839Y0002720D02*
Y0002563D01*
X-0000842Y0002720D02*
Y0002563D01*
X-0000846Y0002720D02*
Y0002563D01*
X-0000849Y0002720D02*
Y0002563D01*
X-0000853Y0002720D02*
Y0002563D01*
X-0000856Y0002642D02*
Y0002563D01*
X-0000500Y0003117D02*
X-0000693D01*
X-0000500Y0003113D02*
X-0000693D01*
X-0000500Y0003109D02*
X-0000693D01*
X-0000500Y0003106D02*
X-0000693D01*
X-0000500Y0003102D02*
X-0000693D01*
X-0000500Y0003099D02*
X-0000693D01*
X-0000500Y0003095D02*
X-0000693D01*
X-0000500Y0003092D02*
X-0000693D01*
X-0000500Y0003088D02*
X-0000693D01*
X-0000500Y0003085D02*
X-0000693D01*
X-0000500Y0003081D02*
X-0000693D01*
X-0000500Y0003078D02*
X-0000693D01*
X-0000500Y0003074D02*
X-0000693D01*
X-0000500Y0003071D02*
X-0000693D01*
X-0000500Y0003067D02*
X-0000693D01*
X-0000500Y0003064D02*
X-0000693D01*
X-0000500Y0003060D02*
X-0000693D01*
X-0000500Y0003057D02*
X-0000693D01*
X-0000500Y0003053D02*
X-0000693D01*
X-0000500Y0003050D02*
X-0000693D01*
X-0000500Y0003046D02*
X-0000693D01*
X-0000500Y0003043D02*
X-0000693D01*
X-0000500Y0003039D02*
X-0000693D01*
X-0000500Y0003036D02*
X-0000693D01*
X-0000500Y0003032D02*
X-0000693D01*
X-0000500Y0003029D02*
X-0000693D01*
X-0000500Y0003025D02*
X-0000693D01*
X-0000500Y0003022D02*
X-0000693D01*
X-0000500Y0003018D02*
X-0000693D01*
X-0000500Y0003015D02*
X-0000693D01*
X-0000500Y0003011D02*
X-0000693D01*
X-0000500Y0003008D02*
X-0000693D01*
X-0000500Y0003004D02*
X-0000693D01*
X-0000500Y0003001D02*
X-0000693D01*
X-0000500Y0002997D02*
X-0000693D01*
X-0000500Y0002994D02*
X-0000693D01*
X-0000500Y0002990D02*
X-0000693D01*
X-0000500Y0002987D02*
X-0000693D01*
X-0000500Y0002983D02*
X-0000693D01*
X-0000500Y0002980D02*
X-0000693D01*
X-0000500Y0002976D02*
X-0000693D01*
X-0000500Y0002973D02*
X-0000693D01*
X-0000500Y0002969D02*
X-0000693D01*
X-0000500Y0002965D02*
X-0000693D01*
X-0000500Y0002962D02*
X-0000693D01*
X-0000500Y0002958D02*
X-0000693D01*
X-0000500Y0002955D02*
X-0000693D01*
X-0000500Y0002951D02*
X-0000693D01*
X-0000500Y0002948D02*
X-0000693D01*
X-0000500Y0002944D02*
X-0000693D01*
X-0000500Y0002941D02*
X-0000693D01*
X-0000500Y0002937D02*
X-0000693D01*
X-0000500Y0002934D02*
X-0000693D01*
X-0000500Y0002930D02*
X-0000693D01*
X-0000500Y0002927D02*
X-0000693D01*
X-0000500Y0002923D02*
X-0000693D01*
X-0000500Y0002920D02*
X-0000693D01*
X-0000500Y0002916D02*
X-0000693D01*
X-0000500Y0002913D02*
X-0000693D01*
X-0000500Y0002909D02*
X-0000693D01*
X-0000500Y0002906D02*
X-0000693D01*
X-0000500Y0002902D02*
X-0000693D01*
X-0000500Y0002899D02*
X-0000693D01*
X-0000500Y0002895D02*
X-0000693D01*
X-0000500Y0002892D02*
X-0000693D01*
X-0000500Y0002888D02*
X-0000693D01*
X-0000500Y0002885D02*
X-0000693D01*
X-0000500Y0002881D02*
X-0000693D01*
X-0000500Y0002878D02*
X-0000693D01*
X-0000500Y0002874D02*
X-0000693D01*
X-0000500Y0002871D02*
X-0000693D01*
X-0000500Y0002867D02*
X-0000693D01*
X-0000500Y0002864D02*
X-0000693D01*
X-0000500Y0002860D02*
X-0000693D01*
X-0000500Y0002857D02*
X-0000693D01*
X-0000500Y0002853D02*
X-0000693D01*
X-0000500Y0002850D02*
X-0000693D01*
X-0000500Y0002846D02*
X-0000693D01*
X-0000500Y0002843D02*
X-0000693D01*
X-0000500Y0002839D02*
X-0000693D01*
X-0000500Y0002836D02*
X-0000693D01*
X-0000500Y0002832D02*
X-0000693D01*
X-0000500Y0002829D02*
X-0000693D01*
X-0000500Y0002825D02*
X-0000693D01*
X-0000500Y0002822D02*
X-0000693D01*
X-0000500Y0002818D02*
X-0000693D01*
X-0000500Y0002814D02*
X-0000693D01*
X-0000500Y0002811D02*
X-0000693D01*
X-0000500Y0002807D02*
X-0000693D01*
X-0000500Y0002804D02*
X-0000693D01*
X-0000500Y0002800D02*
X-0000693D01*
X-0000500Y0002797D02*
X-0000693D01*
X-0000500Y0002793D02*
X-0000693D01*
X-0000500Y0002790D02*
X-0000693D01*
X-0000500Y0002786D02*
X-0000693D01*
X-0000500Y0002783D02*
X-0000693D01*
X-0000500Y0002779D02*
X-0000693D01*
X-0000500Y0002776D02*
X-0000693D01*
X-0000500Y0002772D02*
X-0000693D01*
X-0000500Y0002769D02*
X-0000693D01*
X-0000500Y0002765D02*
X-0000693D01*
X-0000500Y0002762D02*
X-0000693D01*
X-0000500Y0002758D02*
X-0000693D01*
X-0000500Y0002755D02*
X-0000693D01*
X-0000500Y0002751D02*
X-0000693D01*
X-0000500Y0002748D02*
X-0000693D01*
X-0000500Y0002744D02*
X-0000693D01*
X-0000500Y0002741D02*
X-0000693D01*
X-0000500Y0002737D02*
X-0000693D01*
X-0000500Y0002734D02*
X-0000693D01*
X-0000500Y0002730D02*
X-0000693D01*
X-0000500Y0002727D02*
X-0000693D01*
X-0000500Y0002723D02*
X-0000693D01*
X-0000500Y0002720D02*
X-0000693D01*
X-0000500Y0002716D02*
X-0000854D01*
X-0000500Y0002713D02*
X-0000854D01*
X-0000500Y0002709D02*
X-0000854D01*
X-0000500Y0002706D02*
X-0000854D01*
X-0000500Y0002702D02*
X-0000854D01*
X-0000500Y0002699D02*
X-0000855D01*
X-0000500Y0002695D02*
X-0000855D01*
X-0000500Y0002692D02*
X-0000855D01*
X-0000500Y0002688D02*
X-0000855D01*
X-0000500Y0002685D02*
X-0000855D01*
X-0000500Y0002681D02*
X-0000855D01*
X-0000500Y0002678D02*
X-0000855D01*
X-0000500Y0002674D02*
X-0000855D01*
X-0000500Y0002671D02*
X-0000855D01*
X-0000500Y0002667D02*
X-0000855D01*
X-0000500Y0002663D02*
X-0000855D01*
X-0000500Y0002660D02*
X-0000856D01*
X-0000500Y0002656D02*
X-0000856D01*
X-0000500Y0002653D02*
X-0000856D01*
X-0000500Y0002649D02*
X-0000856D01*
X-0000500Y0002646D02*
X-0000856D01*
X-0000500Y0002642D02*
X-0000856D01*
X-0000500Y0002639D02*
X-0000856D01*
X-0000500Y0002635D02*
X-0000856D01*
X-0000500Y0002632D02*
X-0000856D01*
X-0000500Y0002628D02*
X-0000856D01*
X-0000500Y0002625D02*
X-0000857D01*
X-0000500Y0002621D02*
X-0000857D01*
X-0000500Y0002618D02*
X-0000857D01*
X-0000500Y0002614D02*
X-0000857D01*
X-0000500Y0002611D02*
X-0000857D01*
X-0000500Y0002607D02*
X-0000857D01*
X-0000500Y0002604D02*
X-0000857D01*
X-0000500Y0002600D02*
X-0000857D01*
X-0000500Y0002597D02*
X-0000857D01*
X-0000500Y0002593D02*
X-0000857D01*
X-0000500Y0002590D02*
X-0000858D01*
X-0000500Y0002586D02*
X-0000858D01*
X-0000500Y0002583D02*
X-0000858D01*
X-0000500Y0002579D02*
X-0000858D01*
X-0000500Y0002576D02*
X-0000858D01*
X-0000500Y0002572D02*
X-0000858D01*
G01X0000000Y-0003248D02*
G03X0003248Y0000000I0000000J0003248D01*
G01X-0003248D02*
G03X0000000Y-0003248I0003248J0000000D01*
Y0003248D02*
G03X-0003248Y0000000I0000000J0003248D01*
G01X0003248D02*
G03X0000000Y0003248I0003248J0000000D01*
G54D14*
G01X0000520Y-0002358D02*
X-0000201D01*
Y0002433D02*
Y0002661D01*
X0000685D01*
X0000752Y0002594D01*
X0000898Y-0002693D02*
Y-0002413D01*
X0000843Y-0002358D01*
X0000520D01*
X-0000858Y0002854D02*
Y0002429D01*
X0001492Y0002618D02*
X0001531Y0002579D01*
Y0001669D01*
X0000989Y0001127D01*
X0000523D01*
X0002831Y-0001031D02*
X0002768Y-0000969D01*
X0002177D01*
X0002023Y-0001123D01*
X0000497D01*
X0000575Y-0002835D02*
Y-0002685D01*
X0000547Y-0002657D01*
X0000197D01*
X0000493Y-0001373D02*
X0002200D01*
X0002311Y-0001484D01*
Y-0001953D01*
X0002307Y-0001957D01*
X0000513Y0000627D02*
X0001040D01*
X0001799Y0001386D01*
Y0002114D01*
X0001929Y0002244D01*
X0002020D01*
X0000505Y-0001623D02*
X0001548D01*
X0002008Y-0002083D01*
Y-0002256D01*
X0002520Y0000709D02*
Y0000720D01*
X0002185D01*
X0001091Y-0000373D01*
X0000491D01*
X0000481Y-0000623D02*
X0001901D01*
X0002319Y-0000205D01*
Y0000055D01*
X0002484Y0000220D01*
X0002988D01*
X0000507Y0001627D02*
X0000815Y0001935D01*
Y0002154D01*
X0000992Y0002331D01*
Y0002815D01*
X0000890Y0002917D01*
X-0000522Y0001375D02*
X-0001509D01*
X-0001913Y0001780D01*
X-0002059D01*
X-0002217Y0001937D01*
Y0002067D01*
X0000493Y-0000123D02*
X0001086D01*
X0002130Y0000921D01*
X0002732D01*
X0002787Y0000976D01*
Y0001173D01*
X0002020Y0001925D02*
X0001953Y0001858D01*
Y0001283D01*
X0001046Y0000377D01*
X0000505D01*
X-0000524Y-0000875D02*
X-0000969D01*
X-0001602Y-0001508D01*
Y-0002122D01*
X-0000732Y-0002961D02*
Y-0001705D01*
X-0000652Y-0001625D01*
X-0000525D01*
X-0000522Y-0001628D01*
X0000501Y0000127D02*
X0001072D01*
X0002094Y0001150D01*
Y0001583D01*
X0002189Y0001677D01*
X0002484D01*
X0002622Y0001539D01*
X-0003008Y-0000362D02*
X-0002961Y-0000315D01*
X-0002496D01*
X-0002378Y-0000197D01*
Y0000173D01*
X-0001926Y0000625D01*
X-0000524D01*
X0000507Y-0000873D02*
X0001965D01*
X0002311Y-0000528D01*
X0002614D01*
X0002976Y-0000165D01*
X0002980D01*
X-0000521Y0001875D02*
X-0001151D01*
X-0001244Y0001969D01*
Y0002520D01*
X-0001276Y0002551D01*
X-0001500D01*
X-0001551Y0002602D01*
X-0000523Y0001625D02*
X-0001495D01*
X-0001882Y0002012D01*
X-0000505Y0001125D02*
X-0002048D01*
X-0002205Y0000969D01*
X-0002772D01*
X-0002854Y0001051D01*
X-0000522Y0000875D02*
X-0002003D01*
X-0002752Y0000126D01*
X-0003039D01*
X-0000523Y0000125D02*
X-0001142D01*
X-0002567Y-0001299D01*
X-0002756D01*
X0001772Y0002461D02*
X0001665Y0002354D01*
Y0001535D01*
X0001007Y0000877D01*
X0000521D01*
X-0000522Y0000375D02*
X-0001097D01*
X-0002472Y-0001000D01*
X-0002654D01*
X-0000524Y-0001122D02*
X-0000957D01*
X-0001394Y-0001559D01*
Y-0002685D01*
X-0000524Y-0002551D02*
Y-0001882D01*
X-0001728Y-0002480D02*
X-0001815Y-0002394D01*
Y-0001921D01*
X-0001760Y-0001866D01*
Y-0001398D01*
X-0000987Y-0000625D01*
X-0000526D01*
X-0000515Y-0000375D02*
X-0001028D01*
X-0001898Y-0001244D01*
Y-0001705D01*
X-0002248Y-0002055D01*
X-0002571Y-0001559D02*
X-0002547Y-0001535D01*
X-0002110D01*
X-0002024Y-0001449D01*
Y-0001098D01*
X-0001050Y-0000125D01*
X-0000522D01*
X0000501Y-0001873D02*
X0001054D01*
X0001126Y-0001945D01*
Y-0002134D01*
X0001244Y-0002252D01*
X0001654D01*
X0001701Y-0002299D01*
Y-0002476D01*
X0000517Y0001377D02*
X0000971D01*
X0001402Y0001807D01*
Y0002323D01*
X0001220Y0002504D01*
Y0002783D01*
X-0000945Y-0002697D02*
Y-0001469D01*
X-0000851Y-0001375D01*
X-0000524D01*
X-0000522Y-0001376D01*
G54D11*
X-0000201Y0002433D03*
X-0000858Y0002429D03*
X-0001189Y0002768D03*
X-0001465Y0002280D03*
X-0001551Y0002602D03*
X-0001858Y0002358D03*
X-0001882Y0002012D03*
X-0002217Y0002067D03*
X-0002039Y0001563D03*
X-0002382Y0001776D03*
X-0002646Y0001492D03*
X-0002551Y0001177D03*
X-0002854Y0001051D03*
X-0002520Y0000752D03*
X-0002850Y0000732D03*
X-0002992Y0000437D03*
X-0003039Y0000126D03*
X-0002764Y-0000087D03*
X-0003008Y-0000362D03*
X-0002669Y-0000535D03*
X-0002917Y-0000783D03*
X-0002654Y-0001000D03*
X-0002756Y-0001299D03*
X-0002244Y-0001295D03*
X-0002303Y-0001760D03*
X-0002571Y-0001559D03*
X-0002248Y-0002055D03*
X-0002024Y-0002264D03*
X-0001177Y-0002126D03*
X0000327Y-0003020D03*
X-0001602Y-0002122D03*
X-0001728Y-0002480D03*
X-0001394Y-0002685D03*
X-0000945Y-0002697D03*
X-0000732Y-0002961D03*
X-0000524Y-0002551D03*
X-0000201Y-0002657D03*
Y-0002358D03*
X0000197Y-0002657D03*
X0000520Y-0002358D03*
X0001224Y-0002776D03*
X0001362Y-0002476D03*
X0001701D03*
X0001606Y-0002043D03*
X0002008Y-0002256D03*
X0002307Y-0001957D03*
X0002028Y-0001783D03*
X0002528Y-0001673D03*
X0002693Y-0001366D03*
X0002382Y-0001193D03*
X0002831Y-0001031D03*
X0002598Y-0000752D03*
X0002972Y-0000524D03*
X0002531Y-0000291D03*
X0002980Y-0000165D03*
X0002673Y0000000D03*
X0002988Y0000220D03*
X0002713Y0000441D03*
X0002906Y0000720D03*
X0002520Y0000709D03*
X0002787Y0001173D03*
X0002465Y0001138D03*
X0002622Y0001539D03*
X0002319Y0001413D03*
X0002020Y0001925D03*
X0001173Y0002126D03*
X-0000858Y0002854D03*
X0002343Y0001925D03*
X0001772Y0002461D03*
X0002020Y0002244D03*
X0001220Y0002783D03*
X0001492Y0002618D03*
X0000890Y0002917D03*
X0000524Y0002965D03*
X0000752Y0002594D03*
X0000157Y0002433D03*
G54D13*
X-0000522Y-0001376D03*
G54D15*
X0000523Y0001127D03*
X0000497Y-0001123D03*
X0000493Y-0001373D03*
X0000513Y0000627D03*
X0000505Y-0001623D03*
X0000491Y-0000373D03*
X0000481Y-0000623D03*
X0000507Y0001627D03*
X-0000522Y0001375D03*
X0000493Y-0000123D03*
X0000505Y0000377D03*
X-0000524Y-0000875D03*
X-0000522Y-0001628D03*
X0000501Y0000127D03*
X-0000524Y0000625D03*
X0000507Y-0000873D03*
X-0000521Y0001875D03*
X-0000523Y0001625D03*
X-0000505Y0001125D03*
X-0000522Y0000875D03*
X-0000523Y0000125D03*
X0000521Y0000877D03*
X-0000522Y0000375D03*
X-0000524Y-0001122D03*
Y-0001882D03*
X-0000526Y-0000625D03*
X-0000515Y-0000375D03*
X-0000522Y-0000125D03*
X0000501Y-0001873D03*
X0000517Y0001377D03*
M02*
