%
T1C0.0059F200S100
X-000526Y-000625
X-000524Y-000875
X-000524Y000625
X-000524Y-001882
X-000524Y-001122
X-000523Y000125
X-000523Y001625
X-000522Y-000125
X-000522Y000375
X-000522Y000875
X-000522Y001375
X-000522Y-001628
X-000522Y-001376
X-000521Y001875
X-000515Y-000375
X-000505Y001125
X000481Y-000623
X000491Y-000373
X000493Y-001373
X000493Y-000123
X000497Y-001123
X000501Y-001873
X000505Y-001623
X000501Y000127
X000505Y000377
X000507Y-000873
X000513Y000627
X000507Y001627
X000517Y001377
X000521Y000877
X000523Y001127
T2C0.0118F200S100
X-003039Y000126
X-003008Y-000362
X-002992Y000437
X-002917Y-000783
X-002854Y001051
X-002850Y000732
X-002764Y-000087
X-002756Y-001299
X-002669Y-000535
X-002654Y-001000
X-002646Y001492
X-002571Y-001559
X-002551Y001177
X-002520Y000752
X-002382Y001776
X-002303Y-001760
X-002248Y-002055
X-002244Y-001295
X-002217Y002067
X-002039Y001563
X-002024Y-002264
X-001882Y002012
X-001858Y002358
X-001728Y-002480
X-001602Y-002122
X-001551Y002602
X-001465Y002280
X-001394Y-002685
X-001189Y002768
X-001177Y-002126
X-000945Y-002697
X-000858Y002429
X-000858Y002854
X-000732Y-002961
X-000524Y-002551
X-000201Y-002657
X-000201Y-002358
X-000201Y002433
X000157Y002433
X000197Y-002657
X000327Y-003020
X000520Y-002358
X000524Y002965
X000752Y002594
X000890Y002917
X001173Y002126
X001220Y002783
X001224Y-002776
X001362Y-002476
X001492Y002618
X001606Y-002043
X001701Y-002476
X001772Y002461
X002008Y-002256
X002020Y001925
X002020Y002244
X002028Y-001783
X002307Y-001957
X002319Y001413
X002343Y001925
X002382Y-001193
X002465Y001138
X002520Y000709
X002528Y-001673
X002531Y-000291
X002598Y-000752
X002622Y001539
X002673Y000000
X002693Y-001366
X002713Y000441
X002787Y001173
X002831Y-001031
X002906Y000720
X002972Y-000524
X002980Y-000165
X002988Y000220
T4C0.0472F200S100
X-001969Y000000
X001969Y000000
T3C0.0276F200S100
X000000Y-002953
X000000Y002953
M30
