G75*
G70*
%OFA0B0*%
%FSLAX24Y24*%
%IPPOS*%
%LPD*%
%AMOC8*
5,1,8,0,0,1.08239X$1,22.5*
%
%ADD10C,0.0020*%
%ADD11C,0.0000*%
D10*
X000110Y003305D02*
X000114Y003461D01*
X000125Y003616D01*
X000144Y003771D01*
X000171Y003924D01*
X000205Y004076D01*
X000247Y004227D01*
X000296Y004375D01*
X000352Y004520D01*
X000415Y004662D01*
X000485Y004802D01*
X000562Y004937D01*
X000645Y005069D01*
X000735Y005196D01*
X000831Y005319D01*
X000932Y005437D01*
X001040Y005550D01*
X001153Y005658D01*
X001271Y005759D01*
X001394Y005855D01*
X001521Y005945D01*
X001653Y006028D01*
X001788Y006105D01*
X001928Y006175D01*
X002070Y006238D01*
X002215Y006294D01*
X002363Y006343D01*
X002514Y006385D01*
X002666Y006419D01*
X002819Y006446D01*
X002974Y006465D01*
X003129Y006476D01*
X003285Y006480D01*
X003441Y006476D01*
X003596Y006465D01*
X003751Y006446D01*
X003904Y006419D01*
X004056Y006385D01*
X004207Y006343D01*
X004355Y006294D01*
X004500Y006238D01*
X004642Y006175D01*
X004782Y006105D01*
X004917Y006028D01*
X005049Y005945D01*
X005176Y005855D01*
X005299Y005759D01*
X005417Y005658D01*
X005530Y005550D01*
X005638Y005437D01*
X005739Y005319D01*
X005835Y005196D01*
X005925Y005069D01*
X006008Y004937D01*
X006085Y004802D01*
X006155Y004662D01*
X006218Y004520D01*
X006274Y004375D01*
X006323Y004227D01*
X006365Y004076D01*
X006399Y003924D01*
X006426Y003771D01*
X006445Y003616D01*
X006456Y003461D01*
X006460Y003305D01*
X006456Y003149D01*
X006445Y002994D01*
X006426Y002839D01*
X006399Y002686D01*
X006365Y002534D01*
X006323Y002383D01*
X006274Y002235D01*
X006218Y002090D01*
X006155Y001948D01*
X006085Y001808D01*
X006008Y001673D01*
X005925Y001541D01*
X005835Y001414D01*
X005739Y001291D01*
X005638Y001173D01*
X005530Y001060D01*
X005417Y000952D01*
X005299Y000851D01*
X005176Y000755D01*
X005049Y000665D01*
X004917Y000582D01*
X004782Y000505D01*
X004642Y000435D01*
X004500Y000372D01*
X004355Y000316D01*
X004207Y000267D01*
X004056Y000225D01*
X003904Y000191D01*
X003751Y000164D01*
X003596Y000145D01*
X003441Y000134D01*
X003285Y000130D01*
X003129Y000134D01*
X002974Y000145D01*
X002819Y000164D01*
X002666Y000191D01*
X002514Y000225D01*
X002363Y000267D01*
X002215Y000316D01*
X002070Y000372D01*
X001928Y000435D01*
X001788Y000505D01*
X001653Y000582D01*
X001521Y000665D01*
X001394Y000755D01*
X001271Y000851D01*
X001153Y000952D01*
X001040Y001060D01*
X000932Y001173D01*
X000831Y001291D01*
X000735Y001414D01*
X000645Y001541D01*
X000562Y001673D01*
X000485Y001808D01*
X000415Y001948D01*
X000352Y002090D01*
X000296Y002235D01*
X000247Y002383D01*
X000205Y002534D01*
X000171Y002686D01*
X000144Y002839D01*
X000125Y002994D01*
X000114Y003149D01*
X000110Y003305D01*
D11*
X000550Y003305D02*
X000552Y003341D01*
X000558Y003377D01*
X000568Y003412D01*
X000581Y003446D01*
X000598Y003478D01*
X000618Y003508D01*
X000642Y003535D01*
X000668Y003560D01*
X000697Y003582D01*
X000728Y003601D01*
X000761Y003616D01*
X000795Y003628D01*
X000831Y003636D01*
X000867Y003640D01*
X000903Y003640D01*
X000939Y003636D01*
X000975Y003628D01*
X001009Y003616D01*
X001042Y003601D01*
X001073Y003582D01*
X001102Y003560D01*
X001128Y003535D01*
X001152Y003508D01*
X001172Y003478D01*
X001189Y003446D01*
X001202Y003412D01*
X001212Y003377D01*
X001218Y003341D01*
X001220Y003305D01*
X001218Y003269D01*
X001212Y003233D01*
X001202Y003198D01*
X001189Y003164D01*
X001172Y003132D01*
X001152Y003102D01*
X001128Y003075D01*
X001102Y003050D01*
X001073Y003028D01*
X001042Y003009D01*
X001009Y002994D01*
X000975Y002982D01*
X000939Y002974D01*
X000903Y002970D01*
X000867Y002970D01*
X000831Y002974D01*
X000795Y002982D01*
X000761Y002994D01*
X000728Y003009D01*
X000697Y003028D01*
X000668Y003050D01*
X000642Y003075D01*
X000618Y003102D01*
X000598Y003132D01*
X000581Y003164D01*
X000568Y003198D01*
X000558Y003233D01*
X000552Y003269D01*
X000550Y003305D01*
X003025Y003305D02*
X003027Y003337D01*
X003033Y003368D01*
X003043Y003399D01*
X003056Y003428D01*
X003073Y003455D01*
X003093Y003480D01*
X003116Y003502D01*
X003141Y003522D01*
X003169Y003538D01*
X003199Y003550D01*
X003229Y003559D01*
X003261Y003564D01*
X003293Y003565D01*
X003325Y003562D01*
X003356Y003555D01*
X003386Y003544D01*
X003415Y003530D01*
X003442Y003512D01*
X003466Y003492D01*
X003488Y003468D01*
X003506Y003442D01*
X003521Y003414D01*
X003533Y003384D01*
X003541Y003353D01*
X003545Y003321D01*
X003545Y003289D01*
X003541Y003257D01*
X003533Y003226D01*
X003521Y003196D01*
X003506Y003168D01*
X003488Y003142D01*
X003466Y003118D01*
X003442Y003098D01*
X003415Y003080D01*
X003386Y003066D01*
X003356Y003055D01*
X003325Y003048D01*
X003293Y003045D01*
X003261Y003046D01*
X003229Y003051D01*
X003199Y003060D01*
X003169Y003072D01*
X003141Y003088D01*
X003116Y003108D01*
X003093Y003130D01*
X003073Y003155D01*
X003056Y003182D01*
X003043Y003211D01*
X003033Y003242D01*
X003027Y003273D01*
X003025Y003305D01*
X005350Y003305D02*
X005352Y003341D01*
X005358Y003377D01*
X005368Y003412D01*
X005381Y003446D01*
X005398Y003478D01*
X005418Y003508D01*
X005442Y003535D01*
X005468Y003560D01*
X005497Y003582D01*
X005528Y003601D01*
X005561Y003616D01*
X005595Y003628D01*
X005631Y003636D01*
X005667Y003640D01*
X005703Y003640D01*
X005739Y003636D01*
X005775Y003628D01*
X005809Y003616D01*
X005842Y003601D01*
X005873Y003582D01*
X005902Y003560D01*
X005928Y003535D01*
X005952Y003508D01*
X005972Y003478D01*
X005989Y003446D01*
X006002Y003412D01*
X006012Y003377D01*
X006018Y003341D01*
X006020Y003305D01*
X006018Y003269D01*
X006012Y003233D01*
X006002Y003198D01*
X005989Y003164D01*
X005972Y003132D01*
X005952Y003102D01*
X005928Y003075D01*
X005902Y003050D01*
X005873Y003028D01*
X005842Y003009D01*
X005809Y002994D01*
X005775Y002982D01*
X005739Y002974D01*
X005703Y002970D01*
X005667Y002970D01*
X005631Y002974D01*
X005595Y002982D01*
X005561Y002994D01*
X005528Y003009D01*
X005497Y003028D01*
X005468Y003050D01*
X005442Y003075D01*
X005418Y003102D01*
X005398Y003132D01*
X005381Y003164D01*
X005368Y003198D01*
X005358Y003233D01*
X005352Y003269D01*
X005350Y003305D01*
M02*
